<svg width="79" height="75" viewBox="0 0 79 75" fill="none" xmlns="http://www.w3.org/2000/svg">
<path d="M69.4891 33.178L67.2331 33.7804C62.4455 35.0585 57.2975 33.6789 53.7983 30.1797L53.7968 30.1813L44.0777 20.4623L42.4249 18.8096L17.4699 43.7649L14.1648 47.07L0 61.2348L13.6166 74.8515L23.3743 56.2799L27.1891 60.0946L32.7625 54.5212L37.5075 65.9766L48.7767 61.3085L45.0563 52.3268L51.7478 45.6353C53.3093 46.3698 54.9385 46.9633 56.6181 47.3973C61.2825 48.6022 66.2077 48.5824 70.8619 47.34L73.1222 46.7366L69.4891 33.178ZM29.3979 48.1662L26.0928 44.861L40.2159 30.7379L43.5211 34.043L29.3979 48.1662ZM43.1201 47.6524L42.0981 45.1852L45.5983 41.6851C46.2329 42.2217 46.8889 42.7299 47.5662 43.2063L43.1201 47.6524Z" fill="#633CFF"/>
<path d="M75.3303 0.312698L72.6682 2.97478L69.6936 0L66.3884 3.30529L69.363 6.27992L60.2197 15.4233L54.8997 10.1029L47.6143 17.3885L56.2394 26.0138L61.8724 20.3811L63.525 18.7284L78.6354 3.61799L75.3303 0.312698Z" fill="#633CFF"/>
</svg>
