<svg width="71" height="71" viewBox="0 0 71 71" fill="none" xmlns="http://www.w3.org/2000/svg">
<g clip-path="url(#clip0_28:626)">
<path d="M33.725 26.3338V35.7773C37.3443 36.5955 40.5615 37.9406 43.9312 38.8697V29.4123C40.3258 28.608 37.0809 27.2629 33.725 26.3338ZM64.6904 9.27713C59.934 11.482 54.082 13.7008 48.4658 13.7008C41.0469 13.7008 34.9037 8.87498 25.5572 8.87498C22.0904 8.87498 18.998 9.48514 16.1275 10.539C16.5158 9.52674 16.6961 8.43123 16.6268 7.26639C16.3771 3.32811 13.1461 0.16639 9.19395 -1.64472e-05C4.75645 -0.18029 1.10938 3.36971 1.10938 7.76561C1.10938 10.4004 2.42676 12.7301 4.4375 14.1306V67.6719C4.4375 69.5162 5.92129 71 7.76562 71H9.98438C11.8287 71 13.3125 69.5162 13.3125 67.6719V54.5812C17.2369 52.9033 22.132 51.5166 29.1766 51.5166C36.6094 51.5166 42.7387 56.3424 52.0852 56.3424C58.7691 56.3424 64.108 54.082 69.0725 50.6707C70.2789 49.8387 70.9861 48.4797 70.9861 47.0098V13.2986C71 10.0676 67.6303 7.91815 64.6904 9.27713ZM23.5188 45.1377C19.941 45.5121 16.5852 46.2748 13.3125 47.4396V37.6633C16.9457 36.3736 19.8994 35.5832 23.5188 35.2504V45.1377ZM64.3438 26.4863C61.0711 27.8453 57.9232 29.1904 54.1375 29.8006V39.6601C57.5766 39.1887 61.2652 38.0238 64.3438 36.0547V45.831C60.8631 48.0637 57.6182 49.2562 54.1375 49.589V39.6601C50.3934 40.1732 47.4951 39.8681 43.9312 38.8836V48.2301C40.617 47.2039 37.3721 45.9142 33.725 45.2764V35.7773C30.9932 35.1672 28.0672 34.8344 23.5188 35.2504V25.5433C20.4125 25.9732 17.334 26.9578 13.3125 28.4416V18.6652C17.9164 16.9734 20.26 15.9195 23.5188 15.6144V25.5433C27.2629 25.0303 30.2305 25.3631 33.725 26.3338V16.9873C37.0115 18.0135 40.2703 19.3031 43.9312 19.941V29.4262C47.2178 30.1611 50.532 30.383 54.1375 29.8006V19.8301C57.8816 19.1644 61.39 17.9441 64.3438 16.7099V26.4863Z" fill="#633CFF"/>
</g>
<defs>
<clipPath id="clip0_28:626">
<rect width="71" height="71" fill="white"/>
</clipPath>
</defs>
</svg>
