<svg width="68" height="78" viewBox="0 0 68 78" fill="none" xmlns="http://www.w3.org/2000/svg">
<g clip-path="url(#clip0_28:624)">
<path d="M58.2705 46.9678L61.8982 37.4311C62.5054 35.8315 61.3366 34.1252 59.6214 34.1252H50.742C52.4116 31.2459 53.4438 27.9401 53.4438 24.3752V24.3295C59.3938 23.1412 63.158 21.4198 63.158 19.5002C63.158 17.474 59.0143 15.6764 52.5179 14.4729C51.1214 9.476 48.4196 4.44866 46.3554 1.85881C44.9134 0.0459239 42.4241 -0.517748 40.3598 0.518189L36.1705 2.62053C34.8045 3.30608 33.1955 3.30608 31.8295 2.62053L27.6402 0.518189C25.5759 -0.517748 23.0866 0.0459239 21.6446 1.85881C19.5955 4.44866 16.8786 9.476 15.4821 14.4729C9.00089 15.6764 4.85714 17.474 4.85714 19.5002C4.85714 21.4198 8.62143 23.1412 14.5714 24.3295V24.3752C14.5714 27.9401 15.6036 31.2459 17.2732 34.1252H8.54554C6.8 34.1252 5.63125 35.9076 6.31429 37.5225L10.2304 46.6936C4.14375 50.2432 0 56.7787 0 64.3502V71.1752C0 74.9381 3.05089 78.0002 6.8 78.0002H61.2C64.9491 78.0002 68 74.9381 68 71.1752V64.3502C68 56.9768 64.0839 50.5783 58.2705 46.9678ZM26.7143 73.1252L20.4 43.8752L27.9286 48.7502L31.5714 54.844L26.7143 73.1252ZM41.2857 73.1252L36.4286 54.844L40.0714 48.7502L47.6 43.8752L41.2857 73.1252ZM47.6152 27.6506C47.0232 29.4635 46.5527 31.3983 45.1107 32.7389C43.5777 34.1557 37.825 36.1514 35.3964 28.9303C34.9714 27.6506 33.0589 27.6506 32.6187 28.9303C30.0384 36.578 24.1187 33.8662 22.9045 32.7389C21.4625 31.3983 20.9768 29.4635 20.4 27.6506C20.2786 27.2698 19.4438 26.7823 19.4438 26.767V25.1217C23.7393 25.6701 28.7027 26.0053 34.0152 26.0053C39.3277 26.0053 44.2911 25.6854 48.5866 25.1217V26.767C48.5714 26.7823 47.7366 27.2545 47.6152 27.6506Z" fill="#633CFF"/>
</g>
<defs>
<clipPath id="clip0_28:624">
<rect width="68" height="78" fill="white"/>
</clipPath>
</defs>
</svg>
