<svg width="71" height="71" viewBox="0 0 71 71" fill="none" xmlns="http://www.w3.org/2000/svg">
<path d="M10.2617 28.8438H8.875C8.28655 28.8438 7.7222 29.0775 7.30611 29.4936C6.89001 29.9097 6.65625 30.4741 6.65625 31.0625V33.2812C6.65625 33.8697 6.89001 34.434 7.30611 34.8501C7.7222 35.2662 8.28655 35.5 8.875 35.5H11.0854C11.0661 41.4841 10.3239 47.4439 8.875 53.25H26.625C25.1761 47.4439 24.4339 41.4841 24.4146 35.5H26.625C27.2134 35.5 27.7778 35.2662 28.1939 34.8501C28.61 34.434 28.8438 33.8697 28.8438 33.2812V31.0625C28.8438 30.4741 28.61 29.9097 28.1939 29.4936C27.7778 29.0775 27.2134 28.8438 26.625 28.8438H25.2383L29.9379 16.3106C30.0639 15.9747 30.1066 15.6132 30.0623 15.2572C30.018 14.9012 29.888 14.5612 29.6835 14.2665C29.479 13.9717 29.206 13.7309 28.888 13.5648C28.5701 13.3986 28.2166 13.3121 27.8578 13.3125H19.9688V8.875H23.2969C23.5911 8.875 23.8733 8.75812 24.0813 8.55007C24.2894 8.34202 24.4062 8.05985 24.4062 7.76562V5.54688C24.4062 5.25265 24.2894 4.97048 24.0813 4.76243C23.8733 4.55438 23.5911 4.4375 23.2969 4.4375H19.9688V1.10938C19.9688 0.81515 19.8519 0.532977 19.6438 0.324928C19.4358 0.11688 19.1536 0 18.8594 0L16.6406 0C16.3464 0 16.0642 0.11688 15.8562 0.324928C15.6481 0.532977 15.5312 0.81515 15.5312 1.10938V4.4375H12.2031C11.9089 4.4375 11.6267 4.55438 11.4187 4.76243C11.2106 4.97048 11.0938 5.25265 11.0938 5.54688V7.76562C11.0938 8.05985 11.2106 8.34202 11.4187 8.55007C11.6267 8.75812 11.9089 8.875 12.2031 8.875H15.5312V13.3125H7.63943C7.28067 13.3121 6.92715 13.3986 6.60918 13.5648C6.29121 13.7309 6.01828 13.9717 5.81377 14.2665C5.60926 14.5612 5.47928 14.9012 5.43497 15.2572C5.39066 15.6132 5.43334 15.9747 5.55936 16.3106L10.2617 28.8438ZM34.2741 63.7308L31.0625 62.125V59.9062C31.0625 59.3178 30.8287 58.7535 30.4126 58.3374C29.9965 57.9213 29.4322 57.6875 28.8438 57.6875H6.65625C6.0678 57.6875 5.50345 57.9213 5.08736 58.3374C4.67126 58.7535 4.4375 59.3178 4.4375 59.9062V62.125L1.22725 63.7308C0.858576 63.915 0.548481 64.1982 0.331718 64.5487C0.114956 64.8992 9.12492e-05 65.3031 0 65.7152L0 68.7812C0 69.3697 0.233761 69.9341 0.649857 70.3501C1.06595 70.7662 1.6303 71 2.21875 71H33.2812C33.8697 71 34.434 70.7662 34.8501 70.3501C35.2662 69.9341 35.5 69.3697 35.5 68.7812V65.7152C35.5 65.3033 35.3854 64.8994 35.1689 64.5489C34.9524 64.1985 34.6426 63.9152 34.2741 63.7308ZM47.1387 41.8512L46.6825 53.25H64.255L63.7988 41.8498L67.2101 38.9668C67.703 38.5498 68.0989 38.0302 68.3703 37.4444C68.6416 36.8585 68.7819 36.2205 68.7812 35.5749V27.457C68.7812 27.2364 68.6936 27.0247 68.5376 26.8687C68.3815 26.7127 68.1699 26.625 67.9492 26.625H64.2911C64.0704 26.625 63.8588 26.7127 63.7027 26.8687C63.5467 27.0247 63.459 27.2364 63.459 27.457V31.0625H60.0324V27.457C60.0324 27.2364 59.9448 27.0247 59.7887 26.8687C59.6327 26.7127 59.4211 26.625 59.2004 26.625H51.7385C51.5178 26.625 51.3062 26.7127 51.1501 26.8687C50.9941 27.0247 50.9064 27.2364 50.9064 27.457V31.0625H47.4799V27.457C47.4799 27.2364 47.3922 27.0247 47.2362 26.8687C47.0801 26.7127 46.8685 26.625 46.6478 26.625H42.9883C42.7676 26.625 42.556 26.7127 42.3999 26.8687C42.2439 27.0247 42.1562 27.2364 42.1562 27.457V35.5832C42.1573 36.2278 42.2988 36.8643 42.5709 37.4487C42.8429 38.033 43.239 38.5511 43.7316 38.9668L47.1387 41.8512ZM53.25 42.1562C53.25 41.5678 53.4838 41.0035 53.8999 40.5874C54.316 40.1713 54.8803 39.9375 55.4688 39.9375C56.0572 39.9375 56.6215 40.1713 57.0376 40.5874C57.4537 41.0035 57.6875 41.5678 57.6875 42.1562V46.5938H53.25V42.1562ZM69.7741 63.7308L66.5625 62.125V59.9062C66.5625 59.3178 66.3287 58.7535 65.9126 58.3374C65.4966 57.9213 64.9322 57.6875 64.3438 57.6875H46.5938C46.0053 57.6875 45.441 57.9213 45.0249 58.3374C44.6088 58.7535 44.375 59.3178 44.375 59.9062V62.125L41.1647 63.7308C40.7961 63.915 40.486 64.1982 40.2692 64.5487C40.0525 64.8992 39.9376 65.3031 39.9375 65.7152V68.7812C39.9375 69.3697 40.1713 69.9341 40.5874 70.3501C41.0035 70.7662 41.5678 71 42.1562 71H68.7812C69.3697 71 69.9341 70.7662 70.3501 70.3501C70.7662 69.9341 71 69.3697 71 68.7812V65.7152C71 65.3033 70.8854 64.8994 70.6689 64.5489C70.4524 64.1985 70.1426 63.9152 69.7741 63.7308Z" fill="#633CFF"/>
</svg>
