<svg width="80" height="71" viewBox="0 0 80 71" fill="none" xmlns="http://www.w3.org/2000/svg">
<path d="M73.3333 0H6.66667C2.98611 0 0 2.98145 0 6.65625V51.0312C0 54.7061 2.98611 57.6875 6.66667 57.6875H33.3333L31.1111 64.3438H21.1111C19.2639 64.3438 17.7778 65.8275 17.7778 67.6719C17.7778 69.5162 19.2639 71 21.1111 71H58.8889C60.7361 71 62.2222 69.5162 62.2222 67.6719C62.2222 65.8275 60.7361 64.3438 58.8889 64.3438H48.8889L46.6667 57.6875H73.3333C77.0139 57.6875 80 54.7061 80 51.0312V6.65625C80 2.98145 77.0139 0 73.3333 0ZM71.1111 48.8125H8.88889V8.875H71.1111V48.8125Z" fill="#633CFF"/>
</svg>
