<svg width="71" height="74" viewBox="0 0 71 74" fill="none" xmlns="http://www.w3.org/2000/svg">
<path d="M69.2535 25.9289C64.3866 10.782 50.4729 1.15625 35.5142 1.15625C31.8783 1.15625 28.1851 1.71992 24.5349 2.91953C5.89744 9.0332 -4.30881 29.2531 1.74623 48.0711C6.61317 63.218 20.5269 72.8438 35.4855 72.8438C39.1214 72.8438 42.8146 72.2801 46.4648 71.0805C65.1023 64.9668 75.3085 44.7469 69.2535 25.9289ZM58.5892 53.9246L51.117 54.8496L44.8616 46.0477L48.3543 35.1789L58.5319 31.9848L64.1003 37.2457C64.0716 41.6828 63.041 46.0766 60.994 50.1379C60.3212 51.482 59.4624 52.7105 58.5892 53.9246ZM58.5892 19.902L57.1005 27.5766L46.9801 30.7563L37.7902 24.0355V13.3691L44.5753 9.58242C50.1866 11.4613 55.0821 15.0746 58.5892 19.902ZM26.4674 9.59688L33.2095 13.3691V24.0355L24.0196 30.7563L13.9136 27.5766L12.4678 19.9887C15.9462 15.1613 20.7559 11.5191 26.4674 9.59688ZM19.897 54.8496L12.296 53.9102C10.2347 51.0051 6.95672 45.2961 6.88514 37.2457L12.4678 31.9848L22.6454 35.1934L26.1239 45.932L19.897 54.8496ZM26.7966 64.5332L23.5902 57.5812L29.8313 48.6637H41.0825L47.4239 57.5812L44.2174 64.5332C43.3299 64.7934 35.9722 67.4816 26.7966 64.5332Z" fill="#633CFF"/>
</svg>
