<svg id="Layer_1" data-name="Layer 1" xmlns="http://www.w3.org/2000/svg" viewBox="0 0 365 75">
  <path d="M23.26,2.23a31.42,31.42,0,0,0-11.48,2A18.78,18.78,0,0,0,4,9.51a14.49,14.49,0,0,0-3.4,7,78.06,78.06,0,0,0-.56,11V47.31q0,9.94,1.85,14.91T9.39,70q5.68,2.81,14.45,2.8A28.17,28.17,0,0,0,38,69.45q5.76-3.3,7.45-7.69t1.68-14.88V44.25h-20v8.49q0,5.57-.69,7.06c-.45,1-1.42,1.51-2.9,1.51s-2.55-.5-3-1.51S20,56.65,20,53.36V21.92c0-3.43.22-5.65.66-6.68s1.48-1.55,3.13-1.55c1.45,0,2.39.42,2.82,1.27s.64,3,.64,6.42v11.8h20V26.74q0-9.49-1.81-14T37.82,5.25Q32.09,2.24,23.26,2.23Zm159.82,1.4v67.7h24.86a59.43,59.43,0,0,0,10.57-.69,14.7,14.7,0,0,0,5.9-2.44,9,9,0,0,0,3.36-4.8q1-3.07.95-12.19V27.52q0-9.61-.64-12.91a11.75,11.75,0,0,0-3.28-6,15.34,15.34,0,0,0-7.67-3.84q-5-1.17-19.29-1.18Zm49.52,0V43.69a148.53,148.53,0,0,0,.47,15,13.62,13.62,0,0,0,3,6.78,18,18,0,0,0,7.78,5.24,33.41,33.41,0,0,0,12,2,30.39,30.39,0,0,0,10.67-1.7,17.22,17.22,0,0,0,7.28-5,13.94,13.94,0,0,0,3.31-6.4,68.48,68.48,0,0,0,.59-10.81V3.63H258V53.51c0,3.38-.17,5.52-.53,6.42A2.31,2.31,0,0,1,255,61.29a2.13,2.13,0,0,1-2.17-1.23q-.54-1.23-.54-5.66V3.63Zm46.85,0V17.18h11.91V71.33h20.16V17.18h10.79l9.63,29.64V71.33h18.5V46.82L365,3.63H346.65q-3.88,15.81-5.56,26.64-.52-6.85-4.82-26.64H279.45ZM56.2,3.65l-9.78,67.7H66.36L67.5,59.18h6.9l1,12.17H95.07l-11-67.7Zm40.49,0v67.7h32.48V57.8H116.89V3.65Zm35,0v67.7h31.08V57.8H151.07V3.65Zm71.06,11.57a11,11,0,0,1,4.42.6,2.8,2.8,0,0,1,1.48,1.9,31.7,31.7,0,0,1,.32,5.9v26.3c0,4.51-.31,7.27-1,8.29s-2.42,1.53-5.26,1.53V15.22ZM70.93,18.79q1.45,16.89,2.93,28.39H67.27Q68,38.19,70.93,18.79Zm91.06.15a7.63,7.63,0,0,0-3.23.65,5.33,5.33,0,0,0-2.19,1.87,5.83,5.83,0,0,0-1,2.7c-.11,1-.17,2.64-.17,5v4c0,2.42.06,4.1.17,5.06a5.86,5.86,0,0,0,1,2.7,5.26,5.26,0,0,0,2.24,1.85,7.71,7.71,0,0,0,3.14.6,7.5,7.5,0,0,0,3.24-.65,5.26,5.26,0,0,0,2.19-1.87,5.76,5.76,0,0,0,1-2.69c.11-1,.15-2.64.15-5v-4c0-2.41,0-4.09-.15-5.06a5.94,5.94,0,0,0-1-2.69,5.22,5.22,0,0,0-2.24-1.83,7.73,7.73,0,0,0-3.15-.63Zm8,.46V42.59h5.66V32.86h3.49V28.44h-3.49V24.05h3.92V19.4Zm-8,3.51a.69.69,0,0,1,.69.47,7.88,7.88,0,0,1,.17,2.09V36.24a12.93,12.93,0,0,1-.17,2.63.71.71,0,0,1-.74.56.67.67,0,0,1-.71-.48,11.26,11.26,0,0,1-.17-2.52v-11a5.41,5.41,0,0,1,.24-2.17.77.77,0,0,1,.69-.39Z" fill="#633cff"/>
</svg>
