<svg id="Capa_1" data-name="Capa 1" xmlns="http://www.w3.org/2000/svg" viewBox="0 0 850.39 850.39">
  <g>
    <g>
      <line x1="458.53" y1="116.05" x2="459.64" y2="723.77" fill="#633cff"/>
      <path d="M458.53,116.05c-1.19,28.49-1.83,47.84-1.8,81.94,0,36.93.41,221.92.41,221.92s.3,185,.4,221.93c.09,34.1.8,53.44,2.1,81.93,1.19-28.49,1.83-47.84,1.8-81.94,0-36.94-.4-221.92-.4-221.92s-.31-185-.41-221.93C460.54,163.88,459.83,144.54,458.53,116.05Z" fill="#724fff"/>
    </g>
    <g>
      <line x1="462.34" y1="131.26" x2="463.37" y2="694.03" fill="#633cff"/>
      <path d="M462.34,131.26c0,26.39-.07,44.3,0,75.88.06,34.2.37,205.51.37,205.51s.31,171.3.37,205.5c.06,31.58.15,49.5.3,75.88.05-26.38.07-44.3,0-75.88-.06-34.2-.38-205.5-.38-205.5s-.31-171.31-.37-205.51C462.58,175.56,462.49,157.65,462.34,131.26Z" fill="#724fff"/>
    </g>
    <g>
      <line x1="454.23" y1="132.51" x2="455.26" y2="695.28" fill="#633cff"/>
      <path d="M454.23,132.51c-.05,26.39-.07,44.3,0,75.88.06,34.2.38,205.51.38,205.51s.31,171.3.37,205.5c.06,31.58.15,49.5.3,75.88.05-26.38.07-44.3,0-75.88-.06-34.2-.37-205.5-.37-205.5s-.31-171.31-.37-205.51C454.47,176.81,454.38,158.9,454.23,132.51Z" fill="#724fff"/>
    </g>
    <g>
      <line x1="375.15" y1="116.96" x2="376.26" y2="724.69" fill="#633cff"/>
      <path d="M375.15,117c-1.19,28.5-1.83,47.84-1.8,81.94,0,36.94.41,221.93.41,221.93s.3,185,.4,221.92c.09,34.11.8,53.45,2.1,81.94,1.19-28.49,1.83-47.84,1.8-82,0-36.93-.4-221.92-.4-221.92s-.31-185-.41-221.92C377.16,164.8,376.45,145.45,375.15,117Z" fill="#724fff"/>
    </g>
    <g>
      <line x1="378.97" y1="132.18" x2="379.99" y2="694.94" fill="#633cff"/>
      <path d="M379,132.18c-.06,26.38-.08,44.3,0,75.88.06,34.2.37,205.5.37,205.5s.31,171.3.37,205.51c.06,31.58.15,49.49.3,75.87.05-26.38.07-44.29,0-75.87-.06-34.21-.38-205.51-.38-205.51s-.31-171.3-.37-205.51C379.2,176.48,379.11,158.56,379,132.18Z" fill="#724fff"/>
    </g>
    <g>
      <line x1="370.85" y1="133.43" x2="371.88" y2="696.19" fill="#633cff"/>
      <path d="M370.85,133.43c-.05,26.38-.07,44.3,0,75.88.06,34.2.38,205.5.38,205.5s.31,171.3.37,205.51c.06,31.58.15,49.49.3,75.87.05-26.38.07-44.29,0-75.87-.06-34.21-.37-205.51-.37-205.51s-.31-171.3-.37-205.51C371.09,177.73,371,159.81,370.85,133.43Z" fill="#724fff"/>
    </g>
    <g>
      <line x1="417.28" y1="14.26" x2="418.38" y2="836.13" fill="#633cff"/>
      <path d="M417.28,14.26c-1.19,38.54-1.83,64.7-1.8,110.82,0,50,.4,300.12.4,300.12s.31,250.17.41,300.12c.09,46.12.8,72.28,2.09,110.81,1.2-38.53,1.84-64.69,1.81-110.81,0-50-.41-300.12-.41-300.12s-.3-250.18-.4-300.13C419.29,79,418.58,52.79,417.28,14.26Z" fill="#724fff"/>
    </g>
    <g>
      <line x1="421.09" y1="34.84" x2="422.11" y2="795.91" fill="#633cff"/>
      <path d="M421.09,34.84c0,35.68-.07,59.91,0,102.62.06,46.25.38,277.92.38,277.92s.3,231.66.37,277.91c.06,42.71.14,66.94.29,102.62.05-35.68.08-59.91,0-102.62-.06-46.25-.37-277.91-.37-277.91s-.31-231.67-.38-277.93C421.32,94.75,421.24,70.52,421.09,34.84Z" fill="#724fff"/>
    </g>
    <g>
      <line x1="412.98" y1="36.53" x2="414" y2="797.6" fill="#633cff"/>
      <path d="M413,36.53c-.05,35.68-.08,59.91,0,102.62.06,46.25.37,277.92.37,277.92s.31,231.66.38,277.91c.06,42.71.14,66.94.29,102.62.05-35.68.07-59.91,0-102.62-.06-46.25-.38-277.91-.38-277.91s-.3-231.67-.37-277.92C413.21,96.44,413.13,72.21,413,36.53Z" fill="#724fff"/>
    </g>
    <g>
      <path d="M683.62,358.63c27.21-41,122.13-30.06,113.68,35.41a50.22,50.22,0,0,1-3.85,14l0,.05c-3.62,7-8.65,12.65-14.24,17.7-26.8,19.89-74.72,11.85-90.13-18.21a44.33,44.33,0,0,1-4.49-14.48C682,374.2,688.64,366.45,696.67,353,690.92,353.5,688.43,357.24,683.62,358.63Zm103.43,53.11c6.33-5.83,10.93-18.19,8.38-29.81-.51-1.36,1.09-4.82-.93-4.66v-.93a4.13,4.13,0,0,0-.22-.42c-1.06-2.15-1.44-5-2.58-7q-12.24-28.29-48.44-32.61c-1-1.55-8.32-1.55-9.32,0-17.28,1.66-31.64,6.24-41,15.84,1.67,0,5.42-2.51,6.52,0C693.67,363.18,684,375,687.35,392.18c.94,4,1.42,8.52,2.8,12.11a17.3,17.3,0,0,0,5.59,9.31v.94c11.55,18.28,49.44,28.73,69.88,14,2.87.65,1.79.65,4.65,0,3-1.75-.65-4.31,2.8-5.59,3,5.79,10.15-5.84,13.71-9.08.09-.08.18-.15.27-.24Z" fill="#633cff" stroke="#633cff" stroke-miterlimit="10"/>
      <path d="M795.43,381.93c2.55,11.62-2,24-8.38,29.81h-2.8c2.65-4.69,5.78-5.22,5.59-11.18,1.2.06,1.29,1.19,2.8.93,1.64-5.5,3.35-10.93,2.79-18.63C794.92,382.86,794.38,382.1,795.43,381.93Z" fill="#633cff" stroke="#633cff" stroke-miterlimit="10"/>
      <path d="M795.43,382.86c.56,7.7-1.15,13.13-2.79,18.63-1.51.26-1.6-.87-2.8-.93.19,6-2.94,6.49-5.59,11.18h2.8v1.86c-.09.09-.18.16-.27.24a3.51,3.51,0,0,1-4.39-.24c-5.92,6.29-14.66,13.59-25.16,16.78-14.89,4.51-30.06.23-42.86-2.8v-3.73c-6.13,2.48-10-1.37-13-4.65.23-1,1.85-.64,1.86-1.87-1.25-2.17-5.39-1.44-7.45-2.79v-.94c-1.9-3.06-3.4-6.53-5.59-9.31-1.38-3.59-1.86-8.09-2.8-12.11,3.52,6.87,2.86,15.71,11.18,15.83-4.41-2.11-2.94-10.1-6.52-13,5.09-5.16,7.19,5.86,5.59,10.25,2.43-7.19,5.4-4.8,6.52-14-2.91-.43-2.62,2.34-3.72,3.73-2.19-.29-.55-4.42-3.73-3.73,1.24-1.79,4.14,1.07,6.52-.93.54-3-.63-4.33-.93-6.52,2.17-7.9.36-13.05,8.39-20.5-.29-1.26-1.33-1.78-.94-3.73,3.61-.73,4.62-4.09,8.39-4.65-.1-1.14-.28-2.21-1.86-1.87,5.36-6.06,19-12.45,29-7.52l-.13.07.15-.06a15.46,15.46,0,0,1,1.71,1,1.42,1.42,0,0,0-1.71-1h0c5.62-2.68,5.62,1.82,6.39,2.86a11.72,11.72,0,0,0,1.87,1.88,25.47,25.47,0,0,0-10.25-2.81c-1-1.54-8.32-1.54-9.32,0-17,2-24.82,18-26.09,32.61-1.33,2.25-.14,8.41.93,11.18v.94c.8,7,1.67,9.51,1.87,15.83,4.42-3.23,7,7.49,12.11,9.32h.93c2.39,3.51,6.35,5.44,11.18,6.52,3,1.35,7.82.89,12.11.94,8.46-.55,14-4,17.7-9.32,3.81-4,6-9.52,8.39-14.91-.5,9.12-5.92,13.33-9.32,19.57,5.91-1.56,10.94-12,14.91-18.64,1.47,1.95,5.2,1.64,6.52,3.73,4.64-5.23,8-15.93,6.52-24.23,2-1.2,3.31,1,2.8-3.72,2-.16.42,3.3.93,4.66C794.38,382.1,794.92,382.86,795.43,382.86Zm-64.29,43.79c3.45,2.46,10,1.83,15.84,1.86C745.32,425,733.19,423.78,731.14,426.65Zm-27.95-11.18c-3.06-4.91-2.32-7.13-.93-12.11-5.48.87-1.87,6.64-5.59,10.24C698.65,414.52,700.83,413.33,703.19,415.47Z" fill="#633cff" stroke="#633cff" stroke-miterlimit="10"/>
      <path d="M791.6,377.27c.49,4.72-.77,2.52-2.72,3.72,1.4,8.3-1.83,19-6.35,24.23-1.29-2.09-4.91-1.78-6.35-3.73-3.86,6.6-8.75,17.08-14.5,18.64,3.31-6.24,8.58-10.45,9.07-19.57,0-2.48-.35-5.32.9-6.52,2.8-1.42,1-7.4,0-10.25-.94-6.18-2.85-11.36-4.53-16.77.83-4-4.24-8.23-9.18-12h0a25.39,25.39,0,0,0-6.22-4.8,11.58,11.58,0,0,1-1.82-1.88c-.75-1-.75-5.54-6.22-2.86-9.73-4.93-23,1.46-28.23,7.52,1.54-.34,1.71.73,1.81,1.87-3.67.56-4.65,3.92-8.16,4.65-.38,1.95.63,2.47.91,3.73-7.81,7.45-6,12.6-8.16,20.5.29,2.19,1.43,3.49.91,6.52-2.32,2-5.15-.86-6.35.93,3.09-.69,1.5,3.44,3.63,3.73,1.07-1.39.79-4.16,3.62-3.73-1.09,9.18-4,6.79-6.34,14,1.56-4.39-.49-15.41-5.44-10.25,3.48,2.94,2,10.93,6.34,13-8.09-.12-7.45-9-10.88-15.83-3.31-17.2,6.15-29,11.79-40.07-1.07-2.51-4.72,0-6.35,0,9.11-9.6,23.08-14.18,39.9-15.84h9.06q35.26,4.29,47.15,32.61c-1.09,1.22-.35,1.46,0,2.8-1.61.51-3.77.47-4.54,1.86,3.73-.62,5.9.35,7,2.38a4.13,4.13,0,0,1,.22.42Zm-93.39-1.87c.93-2.5,1.39-7.6-1.81-8.38C694.24,369.7,697.81,372.47,698.21,375.4Zm-4.53,12.12c1.34-.87,4.45-4.65,1.81-6.53C697,384.77,690.7,385.28,693.68,387.52Z" fill="#633cff" stroke="#633cff" stroke-miterlimit="10"/>
      <path d="M791.7,368.88c1.14,2.07,1.52,4.89,2.58,7-1.18-2-3.4-3-7.23-2.38.79-1.39,3-1.35,4.65-1.86C791.34,370.34,790.59,370.1,791.7,368.88Z" fill="#633cff" stroke="#633cff" stroke-miterlimit="10"/>
      <path d="M779.18,425.8c5.59-4.39,10.62-9.28,14.24-15.38A40,40,0,0,1,779.18,425.8Z" fill="#633cff" stroke="#633cff" stroke-miterlimit="10"/>
      <path d="M782.39,413.6a3.51,3.51,0,0,0,4.39.24c-3.56,3.24-10.69,14.87-13.71,9.08-3.45,1.28.18,3.84-2.8,5.59-2.86.65-1.78.65-4.65,0-20.44,14.76-58.33,4.31-69.88-14,2.06,1.35,6.2.62,7.45,2.79,0,1.23-1.63.85-1.86,1.87,3,3.28,6.91,7.13,13,4.65v3.73c12.8,3,28,7.31,42.86,2.8C767.73,427.19,776.47,419.89,782.39,413.6Z" fill="#633cff" stroke="#633cff" stroke-miterlimit="10"/>
      <path d="M774,383.79c1,2.85,2.88,8.83,0,10.25C775.61,390.86,773.28,388.57,774,383.79Z" fill="#633cff" stroke="#633cff" stroke-miterlimit="10"/>
      <path d="M774,383.79c-.72,4.78,1.61,7.07,0,10.25-1.28,1.2-.92,4-.93,6.52-2.37,5.39-4.58,10.95-8.39,14.91C760.22,420,754,422.8,747,424.79c-4.29-.05-9.11.41-12.11-.94-3.5-2.4-8.11-3.7-11.18-6.52h-.93c-6.22-6.83-11.4-14.69-14-25.15v-.94a51.55,51.55,0,0,0-.93-11.18c1.27-14.61,9.11-30.6,26.09-32.61h9.32a25.47,25.47,0,0,1,10.25,2.81c1.68,1.43,4,3.05,6.4,4.8h0c3.57,3.56,6.37,7.89,9.42,12C771.07,372.43,773,377.61,774,383.79Zm-29.81,39.13c38.88-1.13,35.47-80.34-9.32-73.6C695.6,355.22,706.61,424,744.19,422.92Z" fill="#633cff" stroke="#633cff" stroke-miterlimit="10"/>
      <path d="M759.92,355.06c5.06,3.73,10.28,8,9.42,12C766.29,363,763.49,358.62,759.92,355.06Z" fill="#633cff" stroke="#633cff" stroke-miterlimit="10"/>
      <path d="M753.51,350.26a26.17,26.17,0,0,1,6.4,4.8C757.53,353.31,755.19,351.69,753.51,350.26Z" fill="#633cff" stroke="#633cff" stroke-miterlimit="10"/>
      <path d="M764.68,415.47c-3.69,5.3-9.24,8.77-17.7,9.32C754,422.8,760.22,420,764.68,415.47Z" fill="#633cff" stroke="#633cff" stroke-miterlimit="10"/>
      <path d="M747,428.51c-5.87,0-12.39.6-15.84-1.86C733.19,423.78,745.32,425,747,428.51Z" fill="#633cff" stroke="#633cff" stroke-miterlimit="10"/>
      <path d="M745.27,345.53a1.42,1.42,0,0,1,1.71,1A15.46,15.46,0,0,0,745.27,345.53Z" fill="#633cff" stroke="#633cff" stroke-miterlimit="10"/>
      <path d="M745.27,345.53l-.15.06.13-.07Z" fill="#633cff" stroke="#633cff" stroke-miterlimit="10"/>
      <path d="M743.26,336.27h-9.32C734.94,334.72,742.25,334.72,743.26,336.27Z" fill="#633cff" stroke="#633cff" stroke-miterlimit="10"/>
      <path d="M743.26,347.45h-9.32C734.94,345.91,742.25,345.91,743.26,347.45Z" fill="#633cff" stroke="#633cff" stroke-miterlimit="10"/>
      <path d="M723.69,417.33c3.07,2.82,7.68,4.12,11.18,6.52C730,422.77,726.08,420.84,723.69,417.33Z" fill="#633cff" stroke="#633cff" stroke-miterlimit="10"/>
      <path d="M708.78,392.18c2.58,10.46,7.76,18.32,14,25.15-5.14-1.83-7.69-12.55-12.11-9.32C710.45,401.69,709.58,399.19,708.78,392.18Z" fill="#633cff" stroke="#633cff" stroke-miterlimit="10"/>
      <path d="M707.85,380.06a51.55,51.55,0,0,1,.93,11.18C707.71,388.47,706.52,382.31,707.85,380.06Z" fill="#633cff" stroke="#633cff" stroke-miterlimit="10"/>
      <path d="M702.26,403.36c-1.39,5-2.13,7.2.93,12.11-2.36-2.14-4.54-1-6.52-1.87C700.39,410,696.78,404.23,702.26,403.36Z" fill="#633cff" stroke="#633cff" stroke-miterlimit="10"/>
      <path d="M696.67,367c3.29.78,2.81,5.88,1.86,8.38C698.12,372.47,694.45,369.7,696.67,367Z" fill="#633cff" stroke="#633cff" stroke-miterlimit="10"/>
      <path d="M695.74,381c2.71,1.88-.49,5.66-1.87,6.53C690.81,385.28,697.27,384.77,695.74,381Z" fill="#633cff" stroke="#633cff" stroke-miterlimit="10"/>
      <path d="M695.74,413.6a17.3,17.3,0,0,1-5.59-9.31C692.34,407.07,693.84,410.54,695.74,413.6Z" fill="#633cff" stroke="#633cff" stroke-miterlimit="10"/>
      <path d="M685.49,348.38l0,.06h0S685.49,348.4,685.49,348.38Z" fill="#633cff" stroke="#633cff" stroke-miterlimit="10"/>
      <path d="M375.25,422.3a5,5,0,0,1,1.06-.15,12,12,0,0,1,2.63.16,3.68,3.68,0,0,1,.35-.15l.39-.09c-2.71-.16-5.63-.11-8.52-.09C372.53,422.06,373.89,422.17,375.25,422.3Z" fill="#633cff" stroke="#633cff" stroke-miterlimit="10"/>
      <path d="M434.3,418.54a39.75,39.75,0,0,0,10,2,2.13,2.13,0,0,0,.25,0h.19a85,85,0,0,1-12-3C433.28,418,433.79,418.25,434.3,418.54Z" fill="#633cff" stroke="#633cff" stroke-miterlimit="10"/>
      <path d="M449.73,421.55c.56,0,1.12,0,1.68.08-1.21-.15-2.4-.32-3.57-.5Z" fill="#633cff" stroke="#633cff" stroke-miterlimit="10"/>
      <path d="M639.83,399.63c.85-1.68,5.33.8,5.59,2.79-7.09,4.58-19.83,7.88-17.7,18.64-18-2.62-36.92-.18-57.77-.93,1.11-2.84,8.81.8,10.25-3.73a4.35,4.35,0,0,1-.93,2.8c11-4,22.74-3.84,35.41-2.8-.18.75-.93.93-.93,1.86,2.45.23,7.38.76,9.31,0-.78-2-5.94.36-6.52-1.86,3,.4,8.06-1.23,8.39,1.86.25-1.49,5.16-5.49.93-5.59,2.44-5.89,18.33-7.39,14.9-13Z" fill="#633cff" stroke="#633cff" stroke-miterlimit="10"/>
      <path d="M597.91,407.08c19.59,8.48,38.12-19.11,52.17-4.66-8.54,3.26-16.08,7.52-21.43,14-.77,3.92,6.66,4.47,4.66,6.52-18.45-1.13-43.17-1.26-62.42-.93-4.19.08-12.49,3.05-13-2.79a9.72,9.72,0,0,1,2.44-2.09,14.63,14.63,0,0,0,5.39-1.91c2.64-.65,5.19-1.42,7.08-4.39,6.85-10.78-.92-33.87.93-48.45-1-4-7-2.9-6.52-8.39,4.52-5,16.81,2.08,23.29-1.86h.93c3.66,1,11.48-2.16,12.12,1.86,3.07,4.23-5.15,3.79-5.59,7.46C596.48,374.65,596.27,393.9,597.91,407.08Zm47.51-4.66c-.26-2-4.74-4.47-5.59-2.79-.57.05-1.1.14-.93.93-8.22,3-15.9,6.46-24.22,9.32H598.84c-6.06-4.36-3.42-12.26-3.73-21.43v-3.73c2.32-6.73-.73-13.1.93-20.5-.21-3.63,2-4.83,2.8-7.45h1.86c6.44-3.9-10.11-3.53-12.11-1.86H578.34c-3.1-3-13.87.2-6.52,2.79,3.22,1.74,4.47,5.46,4.66,10.25-1.55,5-1.55,16.45,0,21.43,0,4.3-.41,9.11.93,12.11v.93c-.11,11.07-8.2,14.17-15.84,17.71H570c20.85.75,39.79-1.69,57.77.93C625.59,410.3,638.33,407,645.42,402.42Z" fill="#633cff" stroke="#633cff" stroke-miterlimit="10"/>
      <path d="M640.76,399.63c3.43,5.65-12.46,7.15-14.9,13,4.23.1-.68,4.1-.93,5.59-.33-3.09-5.37-1.46-8.39-1.86h-1.86c-12.67-1-24.38-1.17-35.41,2.8a4.35,4.35,0,0,0,.93-2.8c-1.44,4.53-9.14.89-10.25,3.73h-8.38c7.64-3.54,15.73-6.64,15.84-17.71,2.17,5.6-3.47,11.44-6.52,14.91,4.79-.48,6.61-3.95,9.31-6.52,0-1.23-1.63-.85-1.86-1.86,5.72-3.89,2.32-8.23,3.73-16.77,3.22-.76,3.93,1.74,5.59,0-.47-3.93,6-5.77,2.79-9.32-2.23,3-2.63,7.93-9.32,6.52v-6.52c2,.54,2.66,2.31,5.6,1.86,8.66-8-1.37-24.54,12.11-28-.79,2.62-3,3.82-2.8,7.45-3,6.2-.4,12.22-.93,20.5v3.73h-.93c.68,8.95-3.22,18.6,4.66,21.43h.93c1.6,1.54,9.58,1.54,11.18,0h3.73c-1.95,1.47-4.9,1.93-8.39,1.86,11.69,6.95,25.47-5.51,34.47-10.25,0-.9-1.13-.72-1.86-.93-.17-.79.36-.88.93-.93Zm-35.4,14c.62-3.17-7.86-2-7.45-1.86C600,412.8,601.72,414.15,605.36,413.6Z" fill="#633cff" stroke="#633cff" stroke-miterlimit="10"/>
      <path d="M638.9,400.56c.73.21,1.84,0,1.86.93-9,4.74-22.78,17.2-34.47,10.25,3.49.07,6.44-.39,8.39-1.86C623,407,630.68,403.52,638.9,400.56Z" fill="#633cff" stroke="#633cff" stroke-miterlimit="10"/>
      <path d="M616.54,416.4c.58,2.22,5.74-.15,6.52,1.86-1.93.76-6.86.23-9.31,0,0-.93.75-1.11.93-1.86Z" fill="#633cff" stroke="#633cff" stroke-miterlimit="10"/>
      <path d="M599.77,409.88H611C609.35,411.42,601.37,411.42,599.77,409.88Z" fill="#633cff" stroke="#633cff" stroke-miterlimit="10"/>
      <path d="M597.91,411.74c-.41-.12,8.07-1.31,7.45,1.86C601.72,414.15,600,412.8,597.91,411.74Z" fill="#633cff" stroke="#633cff" stroke-miterlimit="10"/>
      <path d="M588.59,354.91c2-1.67,18.55-2,12.11,1.86,3-3.09-4-1.46-6.52-1.86Z" fill="#633cff" stroke="#633cff" stroke-miterlimit="10"/>
      <path d="M594.18,354.91c2.51.4,9.5-1.23,6.52,1.86h-1.86c-13.48,3.41-3.45,19.92-12.11,28-2.94.45-3.65-1.32-5.6-1.86v6.52c6.69,1.41,7.09-3.48,9.32-6.52,3.18,3.55-3.26,5.39-2.79,9.32-1.66,1.74-2.37-.76-5.59,0-1.41,8.54,2,12.88-3.73,16.77.23,1,1.85.63,1.86,1.86-2.7,2.57-4.52,6-9.31,6.52,3.05-3.47,8.69-9.31,6.52-14.91v-.93c-.1-3.64.87-16.39-.93-21.43V368c-.19-4.79-1.44-8.51-4.66-10.25-1.68-2-2.65-3.3,1.86-2.79C578.36,356.45,589.5,356.45,594.18,354.91Z" fill="#633cff" stroke="#633cff" stroke-miterlimit="10"/>
      <path d="M596,364.22c-1.66,7.4,1.39,13.77-.93,20.5C595.64,376.44,593.05,370.42,596,364.22Z" fill="#633cff" stroke="#633cff" stroke-miterlimit="10"/>
      <path d="M595.11,388.45c.31,9.17-2.33,17.07,3.73,21.43-7.88-2.83-4-12.48-4.66-21.43Z" fill="#633cff" stroke="#633cff" stroke-miterlimit="10"/>
      <path d="M588.59,354.91h5.59c-4.68,1.54-15.82,1.54-20.5,0h14.91Z" fill="#633cff" stroke="#633cff" stroke-miterlimit="10"/>
      <path d="M578.34,354.91h-4.66c-4.51-.51-3.54.79-1.86,2.79C564.47,355.11,575.24,352,578.34,354.91Z" fill="#633cff" stroke="#633cff" stroke-miterlimit="10"/>
      <path d="M576.48,380.06c1.8,5,.83,17.79.93,21.43-1.34-3-.89-7.81-.93-12.11Z" fill="#633cff" stroke="#633cff" stroke-miterlimit="10"/>
      <path d="M576.48,380.06v9.32c-1.55-5-1.55-16.45,0-21.43Z" fill="#633cff" stroke="#633cff" stroke-miterlimit="10"/>
      <path d="M560.28,417.11a18.61,18.61,0,0,1,5.39-1.91A14.63,14.63,0,0,1,560.28,417.11Z" fill="#633cff" stroke="#633cff" stroke-miterlimit="10"/>
      <path d="M502.87,376.34c6.58-3.68,13.93-6.57,19.57-11.18a22,22,0,0,1-7.09-1.7,12.78,12.78,0,0,1-1.3-.17l-.54-.7h0c-8.67-4.57-13.28-13.22-29.26-10.48v-.37q-2.3.19-4.59.27a.53.53,0,0,0-.06.1,3,3,0,0,1-1.45-.06c-3.58.05-7.17-.1-10.76-.35-.27.11-.55.19-.83.28a.53.53,0,0,1,0,.13l-.48,0a20.36,20.36,0,0,1-10.57,0h-8.85a62.86,62.86,0,0,1-6.73.47c0,.6,0,1.2,0,1.8,0,.33.53,2,0,.92l.42.85c1.58,2.21,4.69,3.53,5.67,7.14,3.71,13.53-1.2,34.13.94,50.31-4.61-.55-9.43,1.35-12.85,1.3a33.63,33.63,0,0,1-4.22.88q1.41,1,2.88,1.86a85,85,0,0,0,12,3,5.54,5.54,0,0,1,1.42.15l1.65.37c1.17.18,2.36.35,3.57.5,1.43.11,2.86.28,4.28.49,25.52,2.52,57.21-.81,66.75-14.11C533.45,392.67,511.22,381,502.87,376.34Zm4.66,39.13h-.93c-11.57,4.58-26.34,6-42.86,5.59-4.34.49-8.31-2.89-11.18-.93-3.38-.66-7.73-.36-10.25-1.87-2.85.68-2.74-1.61-5.59-.93.4-2.09,4.59-.38,6.52-.93H447c1-2.12,5.86-.35,8.38-.93,0-.91,1.14-.73,1.86-.93-.42-3.93-7.46-1.23-8.38-4.66v-6.52c-1.55-5.61-1.55-17.69,0-23.3-.17-.79.36-.87.93-.93.26-1.51-.88-1.6-.93-2.79-2.13-1.91-.33-7.74-.93-11.18,1.35-6.3-5.76-8.14-4.66-11.19h1.86c4.68.61,11.78-1.22,14.91.94h3.73c6.53-2.17,17.08-.32,25.15-.94,13.05-.3,17.47,8,26.09,12.12-3.27,6-12.32,6.3-16.77,11.18,3.92,2.6,9.64,3.4,13.05,6.52,4.39,3.68,9,7.12,11.18,13C525.59,407.46,515.2,412.57,507.53,415.47Z" fill="#633cff" stroke="#633cff" stroke-miterlimit="10"/>
      <path d="M365.56,510.54c-3.3-4.21-6.87-8.22-9.75-12.74-21.24-26.14-39.59-73.8-21.58-114,8.69,1.86,16.07,5,23.29,8.39,3.31,17.59-4.7,23.87-16.77,26.08a5.17,5.17,0,0,1,.93,3.73c5.23.5,15.7-.24,24-.06a4.27,4.27,0,0,1,1-.09c1.5,0,3,.06,4.48.14,2.89,0,5.81-.07,8.52.09,1.86-.45,3.94.22,5.86.36a25.59,25.59,0,0,0,1-2.49,13.78,13.78,0,0,0,.42-1.77c-8.91-2.82-10-41.81-7.11-53,1.48-5.82,6.58-6.72,7.46-10.25,0-.54,0-1.09-.06-1.63a86.24,86.24,0,0,1-9.65-.47c-3.69-.19-7.39-.41-11.08-.7a4.56,4.56,0,0,1-.64,0v-.06c-.89-.07-1.77-.15-2.65-.24l-1.08.05V353c-17.62,1.16-35-2.88-51.25,0,3.53,3.31,10.85,2.83,12.12,8.39-11.19,15.48-18,36.34-15.84,60.56,3.23,36.67,24.62,62.43,44.39,83.22a89.93,89.93,0,0,1,10.54,7.35q2.24,1.34,4.41,2.77c.08,0,.14.11.21.16l3.56,1.71a29.29,29.29,0,0,1-3.35-5.12A15.79,15.79,0,0,1,365.56,510.54Zm-51.83-68.05c-.34-6.51-4.34-14.28-2.8-19.57V422c.12-1.67-1.13-2-.93-3.73v-.93c-1.54-2.22-1.54-10.82,0-13,.8-18.77,8-31.14,15.84-42.86a6.51,6.51,0,0,0-4.66-4.66c-2.32.14-2.89-1.46-4.66-1.86,5-1.55,16.45-1.55,21.43,0a5.26,5.26,0,0,0,3.73.93c1.9-2.14,7.73-.34,11.18-.93,5.6.6,13.65-1.23,17.7.93h5.59c1-2.12,5.87-.36,8.39-.93.15,1.08-.2,1.65-.93,1.86-2.29,3-4.63,5.93-5.59,10.25,1,4.14-2.26,6.79,0,9.32,1.62,11.76-2.41,30.59,2.91,40.52a11.78,11.78,0,0,1,1.46,2.17,11.52,11.52,0,0,0,2.15,2c-10.68-.69-22.31-1.55-31.68-.93-4.6.56-12-.5-4.66-1.87,4.75-1.77,9.66-3.39,11.18-8.38.59-3.14-1.2-8.66.94-10.25v-2.8c-2,.16-.42-3.3-.94-4.65-3.21-5.18-11.76-5-16.77-8.39a6.06,6.06,0,0,1-4.66-.93c.15-1.09,1.7-.78,2.8-.93,1.59-2.14,7.11-.35,10.25-.94h6.52c3.72-2.49,1.07-11.34,1.86-16.77v-1.86c-9.71-2.51-20.05,9.49-25.15,17.7-2.85,5.54-6,10.82-7.46,17.71v.93c-5.15,24.71.48,51.31,9.32,69.88.41,4.55,3.26,6.68,4.66,10.25,4.2,4.5,6.33,11.06,10.25,15.84v.93c6.31,6.43,10.61,14.86,17.7,20.49C346.53,499.14,323.07,475.38,313.73,442.49Zm43.79-65.22A77.84,77.84,0,0,1,338,379.13a31.5,31.5,0,0,1,18.64-15.84C358.1,366.75,357.36,372.46,357.52,377.27Z" fill="#633cff" stroke="#633cff" stroke-miterlimit="10"/>
      <path d="M522.44,396.83c3.15,10.63-7.24,15.74-14.91,18.64,0-.93.75-1.11.93-1.87h-5.59c3-1.68,9.36-4.9,12.11-3.72a24.69,24.69,0,0,1,3.73-6.52c.73.2,1.08.78.93,1.86C522.36,404.21,522.66,400.78,522.44,396.83Z" fill="#633cff" stroke="#633cff" stroke-miterlimit="10"/>
      <path d="M522.44,396.83c.22,3.95-.08,7.38-2.8,8.39.15-1.08-.2-1.66-.93-1.86a24.69,24.69,0,0,0-3.73,6.52c-2.75-1.18-9.11,2-12.11,3.72h5.59c-.18.76-.93.94-.93,1.87h-.93c-15.39-.5-28.24,3.75-42.86,5.59-4.34.49-8.31-2.89-11.18-.93v-.93c-3.27-.46-6.07-1.39-10.25-.94-2.85.68-2.74-1.61-5.59-.93.4-2.09,4.59-.38,6.52-.93,5.62,2,10.86,1.31,15.84,0,0-.9-1.14-.73-1.87-.93,1.88-1.9.25-2.48-.93-3.73,2.93-.44,2.46,2.51,4.66,2.8.74-3.23-1-3.94-1.86-5.59-4.28-.68-6.47,4-10.25.93V380.06c-.17-.79.36-.87.93-.93-.26,10,.38,22.58,0,29.82,2.94.44,3.64-1.33,5.59-1.87-.91-6.59-3.85-13.68.93-17.7-3.19-1.13,2.56-10.7,1.36-15.67,1.25,2.59,3.79,3.89,5.17,6.35-.43,1.24-4-1.12-4.66,1.87-.15,2.62,2.63,2.33,3.72,3.72,3.09-.57,2.86-9.86-.93-9.31,2.56-5,4.82-7.07,2.8-12.12a4.38,4.38,0,0,1,2.79.94c0-2.2-1.6-2.74-.93-5.6,9.47-3.06,31.46-2.24,27,11.19-1.7-8.08-11.95-11-20.5-9.32-5.37-1.61-5.24,7.13-4.66,8.38v.94c0,19.7-5.46,30.16-1.86,43.79h1.86c2.39,1.47,7.37-.9,12.12,0-.4,2.09-4.95,0-5.59,1.86,13.83,2.4,36.87-3.5,33.54-21.43,1.57,2.81,4.18.24,5.59,1.86.91-2.63.4-3.43,2.79,0,2.64.15-.77-5.74,1.87-5.59-3.25-3.16-3.79-3.7-6.52-6.52v-.93C515.65,387.47,520.28,390.91,522.44,396.83Z" fill="#633cff" stroke="#633cff" stroke-miterlimit="10"/>
      <path d="M517.78,391.24c-2.64-.15.77,5.74-1.87,5.59-2.39-3.43-1.88-2.63-2.79,0-1.41-1.62-4,.95-5.59-1.86,3.33,17.93-19.71,23.83-33.54,21.43.64-1.84,5.19.23,5.59-1.86,10.73-2,21.95-3.52,23.29-14.91h.93c-1.8-3.35.36-3.41.93-6.52-3.44-7.11-10.83-10.28-17.7-14-2.36,1.37-10.52,1-8.38-1.86,4.77-2.06,8.68-5,14-6.52,4.44-13.43-17.55-14.25-27-11.19-.67,2.86.95,3.4.93,5.6a4.38,4.38,0,0,0-2.79-.94c2,5-.24,7.15-2.8,12.12,3.79-.55,4,8.74.93,9.31-1.09-1.39-3.87-1.1-3.72-3.72.63-3,4.23-.63,4.66-1.87-1.38-2.46-3.92-3.76-5.17-6.35a3.66,3.66,0,0,0-.43-1.1,9,9,0,0,0,.43,1.1c1.2,5-4.55,14.54-1.36,15.67-4.78,4-1.84,11.11-.93,17.7-2,.54-2.65,2.31-5.59,1.87.38-7.24-.26-19.78,0-29.82.26-1.51-.88-1.6-.93-2.79-.6-3.45,1.2-9.28-.93-11.18,1.35-6.3-5.76-8.14-4.66-11.19h1.86c1.3,2.13,6.49.35,9.32.94,2.22,1.54,10.83,1.54,13,0,6.84-.62,16.14,1.23,21.43-.94,13.05-.3,17.47,8,26.09,12.12-3.27,6-12.32,6.3-16.77,11.18,3.92,2.6,9.64,3.4,13.05,6.52v.93C514,387.54,514.53,388.08,517.78,391.24Z" fill="#633cff" stroke="#633cff" stroke-miterlimit="10"/>
      <path d="M515.35,363.46a12.78,12.78,0,0,1-1.3-.17l-.54-.7A19.37,19.37,0,0,0,515.35,363.46Z" fill="#633cff" stroke="#633cff" stroke-miterlimit="10"/>
      <path d="M463.74,421.06c14.62-1.84,27.47-6.09,42.86-5.59C495,420.05,480.26,421.43,463.74,421.06Z" fill="#633cff" stroke="#633cff" stroke-miterlimit="10"/>
      <path d="M503.8,399.63h-.93A21.23,21.23,0,0,0,501,394a19.57,19.57,0,0,0-9.32-9.32c-1.78-4.24-17.61-2.92-13-7.45-2.14,2.82,6,3.23,8.38,1.86,6.87,3.7,14.26,6.87,17.7,14C504.16,396.22,502,396.28,503.8,399.63Z" fill="#633cff" stroke="#633cff" stroke-miterlimit="10"/>
      <path d="M501,394a90.11,90.11,0,0,0-9.32-9.32c-1.78-4.24-17.61-2.92-13-7.45,4.77-2.06,8.68-5,14-6.52-1.7-8.08-11.95-11-20.5-9.32-.16,1.09-1.47,1-2.79.93-1.75,1.35-.11,6.1-1.87,7.45v.94c1.72,13.9-1.4,29.12,0,43.79,2.39,1.47,7.37-.9,12.12,0,10.73-2,21.95-3.52,23.29-14.91A21.23,21.23,0,0,0,501,394Zm-31.68-29.82c6.46-2.22,17.13-1.13,19.56,3.73-.68,3.06-4.08,3.4-7,4.22a4.65,4.65,0,0,1-1.69.89c-.12,0-.25.06-.37.09l-.41.57a5.05,5.05,0,0,1-2.79,2.14,4.63,4.63,0,0,1-2.53,0c-1.56.83-2.2,2.56-4.76,2.38Zm12.11,46.59v-.4a14.11,14.11,0,0,1-1.72.17l-.11.06a5.7,5.7,0,0,1-4,.29c-.72,1.3-3.13.2-6.29.81V380.06c4.3-.38,6.6,1.26,10,1.82.14-.05.24,0,.28.05l-.28-.05a3.9,3.9,0,0,0-.88.52,3.82,3.82,0,0,1,3.21.57C501.42,385,506.87,412.06,481.44,410.81Z" fill="#633cff" stroke="#633cff" stroke-miterlimit="10"/>
      <path d="M491.69,384.72A19.57,19.57,0,0,1,501,394,90.11,90.11,0,0,0,491.69,384.72Z" fill="#633cff" stroke="#633cff" stroke-miterlimit="10"/>
      <path d="M489,351.16c-1.57.25-3.14.44-4.72.58v.37c16-2.74,20.59,5.91,29.26,10.48C508.17,355.92,501.28,350.82,489,351.16Z" fill="#633cff" stroke="#633cff" stroke-miterlimit="10"/>
      <path d="M455.07,352q-3,0-6.08,0a6.12,6.12,0,0,1-.63-.06c-.57.07-1.15.15-1.73.21h8.85Z" fill="#633cff" stroke="#633cff" stroke-miterlimit="10"/>
      <path d="M463.74,354.91c6.53-2.17,17.08-.32,25.15-.94-5.29,2.17-14.59.32-21.43.94Z" fill="#633cff" stroke="#633cff" stroke-miterlimit="10"/>
      <path d="M479.58,381.93l-.28-.05C479.44,381.83,479.54,381.84,479.58,381.93Z" fill="#633cff" stroke="#633cff" stroke-miterlimit="10"/>
      <path d="M467.46,369.81c-.58-1.25-.71-10,4.66-8.38-.16,1.09-1.47,1-2.79.93C467.58,363.71,469.22,368.46,467.46,369.81Z" fill="#633cff" stroke="#633cff" stroke-miterlimit="10"/>
      <path d="M467.46,370.75c1.72,13.9-1.4,29.12,0,43.79H465.6C462,400.91,467.44,390.45,467.46,370.75Z" fill="#633cff" stroke="#633cff" stroke-miterlimit="10"/>
      <path d="M463.74,354.91h3.72c-2.21,1.54-10.82,1.54-13,0h9.32Z" fill="#633cff" stroke="#633cff" stroke-miterlimit="10"/>
      <path d="M459.08,409c.83,1.65,2.6,2.36,1.86,5.59-2.2-.29-1.73-3.24-4.66-2.8,1.18,1.25,2.81,1.83.93,3.73h-1.86c0-.91,1.14-.73,1.86-.93-.42-3.93-7.46-1.23-8.38-4.66C452.61,413,454.8,408.27,459.08,409Z" fill="#633cff" stroke="#633cff" stroke-miterlimit="10"/>
      <path d="M460,354.91h-5.59c-2.83-.59-8,1.19-9.32-.94C449.78,354.58,456.88,352.75,460,354.91Z" fill="#633cff" stroke="#633cff" stroke-miterlimit="10"/>
      <path d="M457.21,415.47c.73.2,1.84,0,1.87.93-5,1.31-10.22,2-15.84,0H447c2.83-.59,8,1.19,9.31-.93Z" fill="#633cff" stroke="#633cff" stroke-miterlimit="10"/>
      <path d="M457.64,373.71a9,9,0,0,1-.43-1.1A3.66,3.66,0,0,1,457.64,373.71Z" fill="#633cff" stroke="#633cff" stroke-miterlimit="10"/>
      <path d="M455.35,415.47h.93c-1.29,2.12-6.48.34-9.31.93C448,414.28,452.83,416.05,455.35,415.47Z" fill="#633cff" stroke="#633cff" stroke-miterlimit="10"/>
      <path d="M452.56,419.2v.93c-3.38-.66-7.73-.36-10.25-1.87C446.49,417.81,449.29,418.74,452.56,419.2Z" fill="#633cff" stroke="#633cff" stroke-miterlimit="10"/>
      <path d="M448.83,380.06v23.3C447.28,397.75,447.28,385.67,448.83,380.06Z" fill="#633cff" stroke="#633cff" stroke-miterlimit="10"/>
      <path d="M447.9,365.16c2.13,1.9.33,7.73.93,11.18C446.7,374.43,448.5,368.6,447.9,365.16Z" fill="#633cff" stroke="#633cff" stroke-miterlimit="10"/>
      <path d="M384.54,354.91c.15,1.08-.2,1.65-.93,1.86h-.93c-.4-2.09-4.6-.38-6.53-.93C377.14,353.72,382,355.48,384.54,354.91Z" fill="#633cff" stroke="#633cff" stroke-miterlimit="10"/>
      <path d="M382.68,356.77h.93c-2.29,3-4.63,5.93-5.59,10.25C376.29,364,381,359.46,382.68,356.77Z" fill="#633cff" stroke="#633cff" stroke-miterlimit="10"/>
      <path d="M382.39,419a11.52,11.52,0,0,0,2.15,2c-10.68-.69-22.31-1.55-31.68-.93,7.48-5.3,13.56.57,19.57-2.8,1,2.3,5.15.73,10.25,2.8A2.73,2.73,0,0,0,382.39,419Z" fill="#633cff" stroke="#633cff" stroke-miterlimit="10"/>
      <path d="M382.39,419a2.73,2.73,0,0,1,.29,1.1c-5.1-2.07-9.25-.5-10.25-2.8-6,3.37-12.09-2.5-19.57,2.8-4.6.56-12-.5-4.66-1.87,12.82,3,19.06-8.59,15.84-22.36,3.5-.7,2,3.56,4.66,3.73-.57-2,.41-2.66,1.86-6.52,2,.14,2,2.34,1.87,4.66,5.5-15.28-4.37-36.07,10.25-41C381,359.46,376.29,364,378,367c1,4.14-2.26,6.79,0,9.32.31,9-1.65,15.73-.93,25.15-2.88-2.3-1.48,5.26-.94,6.52-.08-1.32-.15-2.63.94-2.79-1.21,5.45,1.79,9,3.84,11.64A13.72,13.72,0,0,0,382.39,419Z" fill="#633cff" stroke="#633cff" stroke-miterlimit="10"/>
      <path d="M382.39,419a13.72,13.72,0,0,1-1.46-2.17A11.78,11.78,0,0,1,382.39,419Z" fill="#633cff" stroke="#633cff" stroke-miterlimit="10"/>
      <path d="M376.15,355.84c1.93.55,6.13-1.16,6.53.93-14.62,4.93-4.75,25.72-10.25,41,.14-2.32.17-4.52-1.87-4.66-1.45,3.86-2.43,4.53-1.86,6.52-2.63-.17-1.16-4.43-4.66-3.73,3.22,13.77-3,25.34-15.84,22.36,4.75-1.77,9.66-3.39,11.18-8.38,2.14-1.6.35-7.11.94-10.25v-2.8c-1.66-4.77,2.46-3.73,2.79-6.52-2.83-6.17-13.24-4.77-20.5-6.52a6.06,6.06,0,0,1-4.66-.93c.15-1.09,1.7-.78,2.8-.93,3.14-.59,8.65,1.2,10.25-.94h6.52c5.37-.24,2.55-13.57,1.86-16.77v-1.86c-9.29-9.93-17.71,8.53-25.15,6.52-2,6.06-3.66,12.5-11.18,13.05,1.25.91,1.86,2.48,2.79,3.72-5.73,2.38-8.16,11.87-8.38,16.77-3.31,1.45-.56-3.16-2.8-2.79-.08,5-4.44,12.69.93,14.91-1.2,2.1-4.45,2.71-.93,4.66-1.73,1.81-3.76.64-4.66-.94v-14c.8-18.77,8-31.14,15.84-42.86a6.51,6.51,0,0,0-4.66-4.66c0-1.23-1.63-.85-1.86-1.86H338a5.26,5.26,0,0,0,3.73.93h34.47Z" fill="#633cff" stroke="#633cff" stroke-miterlimit="10"/>
      <path d="M378,376.34c1.62,11.76-2.41,30.59,2.91,40.52-2.05-2.67-5.05-6.19-3.84-11.64-1.09.16-1,1.47-.94,2.79-.54-1.26-1.94-8.82.94-6.52C376.37,392.07,378.33,385.34,378,376.34Z" fill="#633cff" stroke="#633cff" stroke-miterlimit="10"/>
      <path d="M370.56,355.84h-17.7v-.93C358.46,355.51,366.51,353.68,370.56,355.84Z" fill="#633cff" stroke="#633cff" stroke-miterlimit="10"/>
      <path d="M351,495.6c6.31,6.43,10.61,14.86,17.7,20.49-22.17-17-45.63-40.71-55-73.6,3.61,8.18,7.18,16.42,11.18,24.22,2.45-1.92-1.91-4.85-1.86-7.45,11.91,15.1,19.31,34.72,34.47,46.59C356.05,501.73,352.88,499.31,351,495.6Z" fill="#633cff" stroke="#633cff" stroke-miterlimit="10"/>
      <path d="M360.32,396.83c-2,.16-.42-3.3-.94-4.65-3.21-5.18-11.76-5-16.77-8.39,7.26,1.75,17.67.35,20.5,6.52C362.78,393.1,358.66,392.06,360.32,396.83Z" fill="#633cff" stroke="#633cff" stroke-miterlimit="10"/>
      <path d="M360.32,399.63c-.59,3.14,1.2,8.65-.94,10.25C360,406.74,358.18,401.22,360.32,399.63Z" fill="#633cff" stroke="#633cff" stroke-miterlimit="10"/>
      <path d="M359.38,364.22c.69,3.2,3.51,16.53-1.86,16.77C361.24,378.5,358.59,369.65,359.38,364.22Z" fill="#633cff" stroke="#633cff" stroke-miterlimit="10"/>
      <path d="M359.38,362.36c-9.71-2.51-20.05,9.49-25.15,17.7-3.18,2.1-3.38,7.2-7.46,8.39,3.33,2.36-.46,6.39-2.79,7.45,2.07-.51,1.32,1.78,2.79,1.87v.93c-1.53,3.2-6,3.38-.93,4.66-6.12,2.47-4.14,10.88-3.73,16.77-1.18.69-5.31.12-2.79,2.79,0-.9,1.14-.72,1.86-.93,2.57,17.5,6.29,33.25,14.91,46.59.41,4.55,3.26,6.68,4.66,10.25,3.13,5.57,5.46,11.92,10.25,15.84v.93c1.88,3.71,5.05,6.13,6.52,10.25C342.36,494,335,474.36,323.05,459.26c-.05,2.6,4.31,5.53,1.86,7.45-4-7.8-7.57-16-11.18-24.22-.34-6.51-4.34-14.28-2.8-19.57v.93c-.2.64,5.63-.51,5.59-2.79-2.3-.12-4.49-.14-5.59.93.12-1.67-1.13-2-.93-3.73.9,1.58,2.93,2.75,4.66.94-3.52-1.95-.27-2.56.93-4.66-5.37-2.22-1-9.89-.93-14.91,2.24-.37-.51,4.24,2.8,2.79.22-4.9,2.65-14.39,8.38-16.77-.93-1.24-1.54-2.81-2.79-3.72,7.52-.55,9.16-7,11.18-13.05C341.67,370.89,350.09,352.43,359.38,362.36ZM334.23,468.58c.28-2.45-1.29-3.06-3.73-2.8C330.22,468.23,331.79,468.84,334.23,468.58Zm-15.84-23.3c-.51-3.84-.52-8.17-3.73-9.31C316.27,438.71,314.9,444.42,318.39,445.28Z" fill="#633cff" stroke="#633cff" stroke-miterlimit="10"/>
      <path d="M352.86,354.91v.93H341.68C343.58,353.7,349.41,355.5,352.86,354.91Z" fill="#633cff" stroke="#633cff" stroke-miterlimit="10"/>
      <path d="M340.75,381.93c1.59-2.14,7.11-.35,10.25-.94C349.4,383.13,343.89,381.34,340.75,381.93Z" fill="#633cff" stroke="#633cff" stroke-miterlimit="10"/>
      <path d="M340.75,478.83c4.2,4.5,6.33,11.06,10.25,15.84C346.21,490.75,343.88,484.4,340.75,478.83Z" fill="#633cff" stroke="#633cff" stroke-miterlimit="10"/>
      <path d="M338,354.91H319.32c.23,1,1.85.63,1.86,1.86-2.32.14-2.89-1.46-4.66-1.86C321.51,353.36,333,353.36,338,354.91Z" fill="#633cff" stroke="#633cff" stroke-miterlimit="10"/>
      <path d="M330.5,465.78c2.44-.26,4,.35,3.73,2.8C331.79,468.84,330.22,468.23,330.5,465.78Z" fill="#633cff" stroke="#633cff" stroke-miterlimit="10"/>
      <path d="M326.77,388.45c4.08-1.19,4.28-6.29,7.46-8.39-2.85,5.54-6,10.82-7.46,17.71-1.47-.09-.72-2.38-2.79-1.87C326.31,394.84,330.1,390.81,326.77,388.45Z" fill="#633cff" stroke="#633cff" stroke-miterlimit="10"/>
      <path d="M336.09,468.58c-8.62-13.34-12.34-29.09-14.91-46.59-.72.21-1.83,0-1.86.93-2.52-2.67,1.61-2.1,2.79-2.79-.41-5.89-2.39-14.3,3.73-16.77-5-1.28-.6-1.46.93-4.66C321.62,423.41,327.25,450,336.09,468.58Z" fill="#633cff" stroke="#633cff" stroke-miterlimit="10"/>
      <path d="M314.66,436c3.21,1.14,3.22,5.47,3.73,9.31C314.9,444.42,316.27,438.71,314.66,436Z" fill="#633cff" stroke="#633cff" stroke-miterlimit="10"/>
      <path d="M316.52,421.06c0,2.28-5.79,3.43-5.59,2.79V422C312,420.92,314.22,420.94,316.52,421.06Z" fill="#633cff" stroke="#633cff" stroke-miterlimit="10"/>
      <path d="M310,404.29v13C308.46,415.11,308.46,406.51,310,404.29Z" fill="#633cff" stroke="#633cff" stroke-miterlimit="10"/>
      <path d="M242,354.91c2.21-1.89,18.16-1.66,12.11,1.86.2-1.17,1.45-1.9-.93-1.86H242Z" fill="#633cff" stroke="#633cff" stroke-miterlimit="10"/>
      <path d="M250.37,412.67c.71,4.26,6.51,3.43,6.52,8.39-11.16,1.55-34.16,2.68-45.65,0a7.1,7.1,0,0,1,3.6-4.06,15.65,15.65,0,0,0,3.41-1.07h0c2.49-.55,5.05-1,6.94-3.25,6.51-7.79,2.62-21.89,1.44-35.3a17.4,17.4,0,0,0-.2-9.5,33.9,33.9,0,0,1,.62-4.58c-1.05-3.75-5.25-4.34-6.31-8.08v0a6.46,6.46,0,0,1,0-2c1.08-2,5.43-.71,8.15-1.07h.93c7.78,4.21,23-4.51,28,2.8C244.42,363.24,252.63,393.18,250.37,412.67Zm3.73-55.9c6-3.52-9.9-3.75-12.11-1.86-2.23.56-6.77-1.18-7.46.93a5.22,5.22,0,0,1-3.72-.93c-1-2.12-5.87-.36-8.39-.94.64,3.71,4.1,4.61,5.59,7.46,0,1.8,2.39,1.22,1.92,3.49a2.1,2.1,0,0,1-.06.24c-.05,1.19-1.19,1.28-.93,2.79.62,8.7-1.24,19.87.93,27,0,.93.76,1.11.94,1.86v.94c.62,10.85-3.81,16.64-10.19,20.48h0a42.49,42.49,0,0,1-5.61,2.79h3.72c12,.48,24.27-2.59,35.41,0-3.35-3.5-5-8.67-6.52-14v-.93c2.06-5.7.39-15.13.93-22.36-1.25-7.3-.78-11.23,0-16.77,1.42-3.54,2.12-7.81,4.66-10.25Z" fill="#633cff" stroke="#633cff" stroke-miterlimit="10"/>
      <path d="M253.17,354.91c2.38,0,1.13.69.93,1.86h-1.86c-1.7,3-4.33,5-3.73,10.25-.78,5.54-1.25,9.47,0,16.77-1,8.68-4.5,17.93-.93,22.36v.93a17.5,17.5,0,0,0,1.86,10.25c-8.16-3.49-14.4,1.2-20.5.93a1,1,0,0,1,0,1.87c-2.63-1-7.39-.45-10.25.93H215a42.49,42.49,0,0,0,5.61-2.79c4.36,2.14,7.7-4.69,13-4.67-.29-12.11,2.66-22.67,1.86-35.4,2.2,3.57,4,1.79,9.32,1.86-.23-4.15-3.35-1.07-4.66-2.79,4.27-1.95,3.48-9,7.46-11.18-1.05-1.45-3-1.94-2.8-4.66C246.15,357.83,252,358.72,253.17,354.91Zm-14.91,31.67c2.32-.47,3.83-1.76,5.59-2.79-2-1-3.09,0-5.59-1.86Z" fill="#633cff" stroke="#633cff" stroke-miterlimit="10"/>
      <path d="M246.64,354.91h6.53c-1.16,3.81-7,2.92-8.39,6.52-.23,2.72,1.75,3.21,2.8,4.66-4,2.22-3.19,9.23-7.46,11.18,1.31,1.72,4.43-1.36,4.66,2.79-5.36-.07-7.12,1.71-9.32-1.86.8,12.73-2.15,23.29-1.86,35.4-5.32,0-8.66,6.81-13,4.67l0,0c8.75-1.47,11.31-9.14,10.19-20.48v-.94h.93c-2.12-2.86.44-10.38-1.87-13-.6-5,1.22-12.4-.93-15.84-.26-1.51.88-1.6.93-2.79a2.1,2.1,0,0,0,.06-.24c1.15-4.45-3.13-6.47-4.71-10h5.59a5.22,5.22,0,0,0,3.72.93C238.28,355.24,244.44,357.05,246.64,354.91Z" fill="#633cff" stroke="#633cff" stroke-miterlimit="10"/>
      <path d="M252.24,356.77h.93c-2.54,2.44-3.24,6.71-4.66,10.25C247.91,361.76,250.54,359.73,252.24,356.77Z" fill="#633cff" stroke="#633cff" stroke-miterlimit="10"/>
      <path d="M247.58,407.08c1.51,5.31,3.17,10.48,6.52,14-11.14-2.59-23.4.48-35.41,0,2.86-1.38,7.62-1.9,10.25-.93a1,1,0,0,0,0-1.87c6.1.27,12.34-4.42,20.5-.93A17.5,17.5,0,0,1,247.58,407.08Z" fill="#633cff" stroke="#633cff" stroke-miterlimit="10"/>
      <path d="M248.51,383.79c-.54,7.23,1.13,16.66-.93,22.36C244,401.72,247.51,392.47,248.51,383.79Z" fill="#633cff" stroke="#633cff" stroke-miterlimit="10"/>
      <path d="M242,354.91h4.65c-2.2,2.14-8.36.33-12.11.93C235.22,353.73,239.76,355.47,242,354.91Z" fill="#633cff" stroke="#633cff" stroke-miterlimit="10"/>
      <path d="M243.85,383.79c-1.76,1-3.27,2.32-5.59,2.79v-4.65C240.76,383.82,241.8,382.81,243.85,383.79Z" fill="#633cff" stroke="#633cff" stroke-miterlimit="10"/>
      <path d="M231.74,396.83h-.93c-.18-.75-.94-.93-.94-1.86V383.79C232.18,386.45,229.62,394,231.74,396.83Z" fill="#633cff" stroke="#633cff" stroke-miterlimit="10"/>
      <path d="M230.81,397.77c1.12,11.34-1.44,19-10.19,20.48C227,414.41,231.43,408.62,230.81,397.77Z" fill="#633cff" stroke="#633cff" stroke-miterlimit="10"/>
      <path d="M230.81,354.91h-6.53c-2.12,1.88,4.31,3.09,3.73,6.52-1.49-2.85-4.95-3.75-5.59-7.46C224.94,354.55,229.82,352.79,230.81,354.91Z" fill="#633cff" stroke="#633cff" stroke-miterlimit="10"/>
      <path d="M225.22,354.91c1.58,3.54,5.86,5.56,4.71,10,.47-2.27-1.91-1.69-1.92-3.49.58-3.43-5.85-4.64-3.73-6.52Z" fill="#633cff" stroke="#633cff" stroke-miterlimit="10"/>
      <path d="M229.87,383.79V395c-2.17-7.15-.31-18.32-.93-27C231.09,371.39,229.27,378.8,229.87,383.79Z" fill="#633cff" stroke="#633cff" stroke-miterlimit="10"/>
      <path d="M226.46,367.87a17.4,17.4,0,0,1,.2,9.5A59.55,59.55,0,0,1,226.46,367.87Z" fill="#633cff" stroke="#633cff" stroke-miterlimit="10"/>
      <path d="M220.79,353.18a6.46,6.46,0,0,0,0,2,6.46,6.46,0,0,1-.21-1.22A2,2,0,0,1,220.79,353.18Z" fill="#633cff" stroke="#633cff" stroke-miterlimit="10"/>
      <path d="M220.62,418.25l0,0h0Z" fill="#633cff" stroke="#633cff" stroke-miterlimit="10"/>
      <path d="M214.84,417a14.86,14.86,0,0,1,3.41-1.07A15.65,15.65,0,0,1,214.84,417Z" fill="#633cff" stroke="#633cff" stroke-miterlimit="10"/>
      <path d="M173,382.86v1.86c-1.58,16.61-7.42,29-17,37.59a3.5,3.5,0,0,0-1.29,1.12c-14,11.74-35.42,16-62.78,14.4H76.14c-8.48-.71-14.07,1.45-22.36.93,0-2.2-1.61-2.74-.93-5.59,6.67-3.89,17.6-3.51,18.63-13v-.93c.84-15.29-.56-45.47,0-68.95-4-5-12.8-5.21-18.63-8.39-1.77-6.73,5.29-4.65,8.38-6.52h.93c10.3-.58,21.35-.4,30.75-1.86H116.2c7.34,1.67,16.14,1.87,23.3,3.72h.93c14.75,5.75,29.71,11.29,35.4,26.09-4.51-1.72-9.79-7.57-14-6.52,5.25,6.86,10,14.21,10.25,26.09Zm-6.52,20.5c2-6.66,5.2-15.12,2.79-23.3A47.9,47.9,0,0,0,164.65,368c-1.25-6.82-7-9.1-8.38-15.84,3.16-1.22,6.5,2.08,7.45,0-12.17-8.65-27.75-13.86-47.52-14.91-5.61-1.54-17.68-1.54-23.29,0-4,.61-10.53-1.21-13,.94-8.36.33-18.22-.83-23.3,2.79,7.71,1.61,15.73,2.91,17.71,10.25,0,4.05-.31,8.38.93,11.18v.93c-1.73,2.4-1.31,10.59,0,13v.93c-1.79,7.7-1.22,21.08,0,28.88,1,11.83.47,20.55-7.46,25.16h-.93c-2.57,2.08-8,1.32-9.32,4.66h1.87c35.58-4.55,80.21,6.8,94.1-19.57,1.47.08.73,2.38,2.8,1.86,1.56-3.35,2.62-5.77,2.79-8.38,1.26.29,1.78,1.32,3.73.93.41-3.21-.37-5.22-.93-7.45C163.64,401.6,163.54,403.91,166.52,403.36Z" fill="#633cff" stroke="#633cff" stroke-miterlimit="10"/>
      <path d="M169.31,380.06c2.41,8.18-.8,16.64-2.79,23.3-3,.55-2.88-1.76-4.66,0,.56,2.23,1.34,4.24.93,7.45-1.95.39-2.47-.64-3.73-.93-.17,2.61-1.23,5-2.79,8.38-2.07.52-1.33-1.78-2.8-1.86-13.89,26.37-58.52,15-94.1,19.57,5.65-4,18.76,1.17,20.5-4.66,7.83,1.17,20.4-2.39,25.15,1.86,23.2-2.58,43.91-7.65,53.11-24.22,1.67-.12,2,1.13,3.73.93.43-2.91-2-3-4.66-2.8,4.58-2.24,6.55-7.12,8.38-12.11C170.05,399.42,168.54,382.68,169.31,380.06Z" fill="#633cff" stroke="#633cff" stroke-miterlimit="10"/>
      <path d="M164.65,368c-1,5,3.44,4.64,2.8,9.32-3.63-3.36-1.61,4.59-4.66,4.66-4,0-4.09.81-8.39-1.87-2.32,31-16.47,53.78-53.1,47.52-.27-1.9-2.53-1.83-2.8-3.73h3.73c3.44,1.55,13.32,1.55,16.77,0,18.16-2,24.8-15.57,29.81-30.74,3.66-1-.85-5.42-.93-8.39v-1.86c0-8.15-.73-10.28-4.66-14.91a4.4,4.4,0,0,1-.93-2.79l-.32-.27c-3-2.66-1.64-7.94-5.27-8.12h-.93A31.83,31.83,0,0,0,119,347.45c0-1.19,1.19-1.28.93-2.79-8.66-1.35-18.5-3.5-27,.93-1,7.44,3.53,10-.93,14-.39,3.19,2.79,2.8,3.72,4.66-5.09.34-1.76,3.66-4.65,6.53-4.39-.24-8.31-3.94-10.25,0,.39,3.17,5.1-1.41,4.66.93-.76,5.49-5.69-.82-5.59,2.79,4.23,1.11-.82,5.73.93,6.52.91-2,4.67.84,4.66,2.8-.69,5.13-5-2.71-4.66,1.86.43,8.76-4.08,21.28,0,31.68C71,413.79,79.64,397,75.21,387.52V376.34c.64-1.32-.45-8.84,0-13v-.93c.63-1,.4-9.06-.93-11.18-2-7.34-10-8.64-17.71-10.25,5.08-3.62,14.94-2.46,23.3-2.79,4.67-.61,11.77,1.22,14.9-.94H116.2c19.77,1.05,35.35,6.26,47.52,14.91-.95,2.08-4.29-1.22-7.45,0C157.61,358.85,163.4,361.13,164.65,368Z" fill="#633cff" stroke="#633cff" stroke-miterlimit="10"/>
      <path d="M167.45,377.27c.64-4.68-3.75-4.34-2.8-9.32a47.9,47.9,0,0,1,4.66,12.11c-.77,2.62.74,19.36-3.73,14.91-1.83,5-3.8,9.87-8.38,12.11,2.66-.18,5.09-.11,4.66,2.8-1.76.2-2.06-1.05-3.73-.93-9.2,16.57-29.91,21.64-53.11,24.22-4.75-4.25-17.32-.69-25.15-1.86C78.13,437.14,65,432,59.37,436H57.5c1.33-3.34,6.75-2.58,9.32-4.66-.18.75-.93.93-.93,1.86,7.56-2.1,9.06-5.92,14-9.32.38-2.24-1.71-2-.94-4.65-4.65,3.11-4.7,10.82-11.18,12.11,7.93-4.61,8.44-13.33,7.46-25.16,1-3.53-.69-12.34,0-18.63C79.64,397,71,413.79,80.8,417.33c-4.08-10.4.43-22.92,0-31.68-.38-4.57,4,3.27,4.66-1.86,0-2-3.75-4.84-4.66-2.8-1.75-.79,3.3-5.41-.93-6.52-.1-3.61,4.83,2.7,5.59-2.79.44-2.34-4.27,2.24-4.66-.93,1.94-3.94,5.86-.24,10.25,0,2.89-2.87-.44-6.19,4.65-6.53-.93-1.86-4.11-1.47-3.72-4.66,4.46-4,0-6.53.93-14,8.52-4.43,18.36-2.28,27-.93.26,1.51-.88,1.6-.93,2.79a31.83,31.83,0,0,1,16.77,9.32c-8.33-6.25-27.67-16-39.13-7.45-1.55,1.91-1.55,10.2,0,12.11v4.66c-3.6,8.66.36,19.73-.94,33.54H92.91c1.57,2.15,2.41,5,1.86,9.32-.75-.18-.93-.94-1.86-.94v8.39c2.79-1.14,2.79,4.15,5.59,5.59.75.8,2.55.55,2.8,1.86H98.5c.27,1.9,2.53,1.83,2.8,3.73,36.63,6.26,50.78-16.51,53.1-47.52,4.3,2.68,4.39,1.88,8.39,1.87C165.84,381.86,163.82,373.91,167.45,377.27ZM92,375.4c-3,.81-2.88-1.46-4.66-1.86-.08,2.4-4,1-2.8,4.66C87.65,377.9,90.39,377.24,92,375.4Zm-.93,16.78c-.5-3.41,3.54-10.79-.94-12.12.66,4.07-2.69,4.15-2.79,7.46C89.89,387.74,87.65,392.77,91.05,392.18Z" fill="#633cff" stroke="#633cff" stroke-miterlimit="10"/>
      <path d="M156.05,422.31c-.42.39-.85.76-1.29,1.12A3.5,3.5,0,0,1,156.05,422.31Z" fill="#633cff" stroke="#633cff" stroke-miterlimit="10"/>
      <path d="M147.88,384.72c.08,3,4.59,7.36.93,8.39A20.19,20.19,0,0,1,147.88,384.72Z" fill="#633cff" stroke="#633cff" stroke-miterlimit="10"/>
      <path d="M147.88,382.86v1.86a20.19,20.19,0,0,0,.93,8.39c-5,15.17-11.65,28.72-29.81,30.74H101.3c-.25-1.31-2-1.06-2.8-1.86-3.88-15.48-1.2-40-1.86-55.9V349.32c11.46-8.59,30.8,1.2,39.13,7.45h.93a17.85,17.85,0,0,0,5.27,8.12l.32.27a4.4,4.4,0,0,0,.93,2.79C145.36,372.34,146.45,377.77,147.88,382.86Zm-5.59,16.77c1.93-2.42,2-6.72,1.86-11.18v-2.8c-.54-1.64,1.13-5.48-.93-5.59v-.93c-2.24-12.05-8.11-20.45-17.7-25.16a4.44,4.44,0,0,0-2.8-.93c-1.82-1.9-4.67-2.77-8.38-2.79-1.55-1.56-5.47-.75-8.39-.93h-5.59c-2.17,21.12-.3,46.27-.93,68.94,1.66.83,2.37,2.6,5.59,1.87h1.87c1.29,2.12,6.48.34,9.31.93h.93c12.82-2.4,21.41-9,25.16-20.5Z" fill="#633cff" stroke="#633cff" stroke-miterlimit="10"/>
      <path d="M143.22,368c3.93,4.63,4.63,6.76,4.66,14.91C146.45,377.77,145.36,372.34,143.22,368Z" fill="#633cff" stroke="#633cff" stroke-miterlimit="10"/>
      <path d="M136.7,356.77c3.63.18,2.28,5.46,5.27,8.12A17.85,17.85,0,0,1,136.7,356.77Z" fill="#633cff" stroke="#633cff" stroke-miterlimit="10"/>
      <path d="M102.23,423.85H119C115.55,425.4,105.67,425.4,102.23,423.85Z" fill="#633cff" stroke="#633cff" stroke-miterlimit="10"/>
      <path d="M116.2,337.2H92.91C98.52,335.66,110.59,335.66,116.2,337.2Z" fill="#633cff" stroke="#633cff" stroke-miterlimit="10"/>
      <path d="M102.22,369.72a.25.25,0,0,0,0,.09.4.4,0,0,1-.13,0Z" fill="#633cff" stroke="#633cff" stroke-miterlimit="10"/>
      <path d="M96.64,366.09c.66,15.88-2,40.42,1.86,55.9-2.8-1.44-2.8-6.73-5.59-5.59V408c.93,0,1.11.76,1.86.94.55-4.28-.29-7.17-1.86-9.32H95.7C97,385.82,93,374.75,96.64,366.09Z" fill="#633cff" stroke="#633cff" stroke-miterlimit="10"/>
      <path d="M96.64,349.32v12.11C95.09,359.52,95.09,351.23,96.64,349.32Z" fill="#633cff" stroke="#633cff" stroke-miterlimit="10"/>
      <path d="M92.91,337.2h1.86c-3.13,2.16-10.23.33-14.9.94C82.38,336,88.86,337.81,92.91,337.2Z" fill="#633cff" stroke="#633cff" stroke-miterlimit="10"/>
      <path d="M87.32,373.54c1.78.4,1.69,2.67,4.66,1.86-1.59,1.84-4.33,2.5-7.46,2.8C83.33,374.52,87.24,375.94,87.32,373.54Z" fill="#633cff" stroke="#633cff" stroke-miterlimit="10"/>
      <path d="M90.11,380.06c4.48,1.33.44,8.71.94,12.12-3.4.59-1.16-4.44-3.73-4.66C87.42,384.21,90.77,384.13,90.11,380.06Z" fill="#633cff" stroke="#633cff" stroke-miterlimit="10"/>
      <path d="M78.93,419.2c-.77,2.63,1.32,2.41.94,4.65-4.92,3.4-6.42,7.22-14,9.32,0-.93.75-1.11.93-1.86h.93C74.23,430,74.28,422.31,78.93,419.2Z" fill="#633cff" stroke="#633cff" stroke-miterlimit="10"/>
      <path d="M75.21,387.52c-.69,6.29,1,15.1,0,18.63-1.22-7.8-1.79-21.18,0-28.88Z" fill="#633cff" stroke="#633cff" stroke-miterlimit="10"/>
      <path d="M75.21,363.29c-.45,4.21.64,11.73,0,13C73.9,373.88,73.48,365.69,75.21,363.29Z" fill="#633cff" stroke="#633cff" stroke-miterlimit="10"/>
      <path d="M74.28,351.18c1.33,2.12,1.56,10.18.93,11.18C74,359.56,74.26,355.23,74.28,351.18Z" fill="#633cff" stroke="#633cff" stroke-miterlimit="10"/>
    </g>
  </g>
</svg>
