<svg id="Layer_1" data-name="Layer 1" xmlns="http://www.w3.org/2000/svg" viewBox="0 0 1345 355">
  <g>
    <path d="M176.63,2.23C80.35,2.23,2,80.87,2,177.5S80.35,352.77,176.63,352.77,351.26,274.13,351.26,177.5,272.91,2.23,176.63,2.23Zm0,326.25c-83.07,0-150.37-67.6-150.37-151s67.3-151,150.37-151,150.43,67.55,150.43,151S259.7,328.48,176.63,328.48Z" fill="#633cff"/>
    <path d="M291.53,206.53h1.76v3.77h.86v-3.77H296v-.8h-4.44Z" fill="#633cff"/>
    <path d="M83.19,223.33H73.12c-2.28,0-3.36-1.26-3.36-3.71v-4a4.11,4.11,0,0,1,.91-2.8,3,3,0,0,1,2.45-1.09H81a3.56,3.56,0,0,1,3.7,2.74l1.08,3.83H93v-4.23A9.5,9.5,0,0,0,90.2,207a9.64,9.64,0,0,0-7-2.8H71.52a9.73,9.73,0,0,0-7.12,3,9.6,9.6,0,0,0-2.9,7V221a9.92,9.92,0,0,0,10,10.06H81.6c2.22,0,3.36,1.32,3.36,3.83v5.2a4,4,0,0,1-.91,2.74A3,3,0,0,1,81.6,244h-8a3.52,3.52,0,0,1-3.76-2.75l-1.08-4.34H61.44v4.69a9.38,9.38,0,0,0,2.85,7.08,9.53,9.53,0,0,0,7.06,2.86H83.19a9.47,9.47,0,0,0,7.06-3,9.74,9.74,0,0,0,2.91-7.14v-8a9.65,9.65,0,0,0-3-7.08A9.43,9.43,0,0,0,83.19,223.33Z" fill="#633cff"/>
    <path d="M124.25,204.19H102.89V251.5h8.32V234.13h13a9.82,9.82,0,0,0,7.17-3,9.71,9.71,0,0,0,2.91-7.09v-9.94a9.94,9.94,0,0,0-10-9.94ZM126,222.64a4.14,4.14,0,0,1-1,2.8,2.93,2.93,0,0,1-2.39,1.09H111.26V211.84h11.39a3,3,0,0,1,2.39,1.09,4.16,4.16,0,0,1,1,2.8Z" fill="#633cff"/>
    <path d="M213.58,228.24a10,10,0,0,0,1.77-5.82v-8.23a9.52,9.52,0,0,0-3-7,9.76,9.76,0,0,0-7.12-3H184.43V251.5h8.37V233h7.91l7.69,18.51h8.88L209,232A11.31,11.31,0,0,0,213.58,228.24Zm-6.6-6.68a4.18,4.18,0,0,1-.91,2.8,3.14,3.14,0,0,1-2.4,1H192.74V211.84h10.93a3,3,0,0,1,2.4,1.09,4.18,4.18,0,0,1,.91,2.8Z" fill="#633cff"/>
    <path d="M220.58,211.84h12V251.5H241V211.84H253v-7.65H220.58Z" fill="#633cff"/>
    <path d="M280.82,223.33H270.75c-2.22,0-3.36-1.26-3.36-3.71v-4a4.11,4.11,0,0,1,.91-2.8,2.91,2.91,0,0,1,2.45-1.09h7.91a3.6,3.6,0,0,1,3.7,2.74l1.08,3.83h7.23v-4.23a9.64,9.64,0,0,0-9.9-9.88H269.09a9.5,9.5,0,0,0-7.11,3,9.62,9.62,0,0,0-3,7V221a9.91,9.91,0,0,0,3,7.15,9.67,9.67,0,0,0,7.11,2.91h10c2.27,0,3.36,1.32,3.36,3.83v5.2a4,4,0,0,1-.92,2.74,3,3,0,0,1-2.44,1.15h-8a3.51,3.51,0,0,1-3.75-2.75l-1.09-4.34H259v4.69a9.74,9.74,0,0,0,9.9,9.94h11.79a9.54,9.54,0,0,0,7.12-3,9.77,9.77,0,0,0,2.9-7.14v-8a9.48,9.48,0,0,0-3-7.08A9,9,0,0,0,280.82,223.33Z" fill="#633cff"/>
    <path d="M201.17,83.38H111.38L97.66,105.27l89.73-.06Z" fill="#633cff"/>
    <path d="M235.16,149H221.72L207.89,171h41.05l13.84,22H289L219.5,82.58,163.7,171h-61l14-21.94h37.92l13.78-21.95H83.82L70,149.1H90.31L62.7,192.93H176.34l43.16-68.8Z" fill="#633cff"/>
    <path d="M301.38,205.73l-1.82,2.74-1.77-2.74h-.74v4.57h.74v-2.86c0-.17-.11-.28-.11-.51a3.79,3.79,0,0,1,.28.46l1.48,2.28h.12l1.42-2.23c.11-.17.11-.28.23-.51v3.37h.8v-4.57Z" fill="#633cff"/>
    <path d="M164.22,204.19H152.94a9.72,9.72,0,0,0-7.17,3,9.62,9.62,0,0,0-3,7v27.2a10.12,10.12,0,0,0,10.13,10.17h11.28a10.12,10.12,0,0,0,10.07-10.17v-27.2a9.3,9.3,0,0,0-3-7A9.51,9.51,0,0,0,164.22,204.19ZM166,240a3.81,3.81,0,0,1-1,2.74,3,3,0,0,1-2.39,1.15h-8a3,3,0,0,1-2.45-1.15,4.1,4.1,0,0,1-.91-2.74V215.67a4.19,4.19,0,0,1,.91-2.8,3,3,0,0,1,2.45-1.08h8a3,3,0,0,1,2.39,1.08,4.18,4.18,0,0,1,1,2.8Z" fill="#633cff"/>
    <path d="M1230.32,136.07h7.28l2.63-7.14h-9.91V122.3h12.3l2.56-7.09h-24.94v32.63h10.08Z" fill="#633cff"/>
    <path d="M1258.45,115.21h-10.14v32.63h10.14Z" fill="#633cff"/>
    <path d="M1275.53,136.07h7.28l2.57-7.14h-9.85V122.3h12.24l2.56-7.09H1265.4v32.63h10.13Z" fill="#633cff"/>
    <path d="M1295.12,147.84l1.25-4.4h11.44l1.31,4.4h10.25l-11.84-32.63H1297l-11.84,32.63Zm6.94-24.23,4,13.6h-8Z" fill="#633cff"/>
    <path d="M1315.79,123.56a4.59,4.59,0,0,0,1.53,1,4.73,4.73,0,0,0,3.76,0,5.49,5.49,0,0,0,1.53-1,4.52,4.52,0,0,0,1-1.55,4.64,4.64,0,0,0,0-3.77,6.79,6.79,0,0,0-1-1.54,4.45,4.45,0,0,0-1.53-1,4.62,4.62,0,0,0-3.76,0,7.19,7.19,0,0,0-1.53,1,4.58,4.58,0,0,0-1,1.54,4.64,4.64,0,0,0,0,3.77A5.38,5.38,0,0,0,1315.79,123.56Zm0-5a3.47,3.47,0,0,1,.8-1.26,3.37,3.37,0,0,1,1.2-.8,4,4,0,0,1,1.42-.29,4.05,4.05,0,0,1,1.43.29,3.52,3.52,0,0,1,1.19.8,3.77,3.77,0,0,1,.79,1.26,4.7,4.7,0,0,1,.29,1.6,5,5,0,0,1-.29,1.6,3.64,3.64,0,0,1-.79,1.25,3.55,3.55,0,0,1-1.19.81,4,4,0,0,1-1.43.28,4,4,0,0,1-1.42-.28,3.4,3.4,0,0,1-1.2-.81,3.84,3.84,0,0,1-.8-1.25,4.71,4.71,0,0,1,0-3.2Z" fill="#633cff"/>
    <path d="M1318.41,120.47h.62l1.42,2.4h1.09l-1.49-2.4a2,2,0,0,0,1.08-.4,1.46,1.46,0,0,0,.41-1.09,1.45,1.45,0,0,0-.52-1.25,2.73,2.73,0,0,0-1.54-.4h-2v5.54h1v-2.4Zm0-2.4h1.3a.85.85,0,0,1,.34.11.86.86,0,0,1,.28.23.73.73,0,0,1,.12.4.92.92,0,0,1-.12.46c0,.11-.16.17-.21.23a.79.79,0,0,1-.35.11h-1.36Z" fill="#633cff"/>
    <path d="M1230.94,205.62a5,5,0,0,0,1.77,1.2,6.63,6.63,0,0,0,2.45.4,6.72,6.72,0,0,0,2.44-.4,4.87,4.87,0,0,0,1.77-1.2,5.28,5.28,0,0,0,1.08-1.83,9.07,9.07,0,0,0,0-4.92,4.37,4.37,0,0,0-1.08-1.83,4.11,4.11,0,0,0-1.77-1.14,6.54,6.54,0,0,0-2.44-.4,6.63,6.63,0,0,0-2.45.4,5.87,5.87,0,0,0-1.77,1.14,5.42,5.42,0,0,0-1.07,1.83,8.82,8.82,0,0,0,0,4.92A4.46,4.46,0,0,0,1230.94,205.62Zm1.83-5.66a3.24,3.24,0,0,1,.45-1.14,2.19,2.19,0,0,1,2-1.09,2.49,2.49,0,0,1,1.19.29,2.12,2.12,0,0,1,.8.8,4.07,4.07,0,0,1,.46,1.14,5.95,5.95,0,0,1,0,2.74,3.45,3.45,0,0,1-.46,1.14,2.12,2.12,0,0,1-.8.8,2,2,0,0,1-1.19.29,2.53,2.53,0,0,1-1.2-.29,2.12,2.12,0,0,1-.8-.8,3.77,3.77,0,0,1-.45-1.14,5.61,5.61,0,0,1,0-2.74Z" fill="#633cff"/>
    <path d="M1246.32,202.47h4.33V200.3h-4.33v-2.51h4.55v-2.12h-7.57V207h3Z" fill="#633cff"/>
    <path d="M1256.12,202.47h4.38V200.3h-4.38v-2.51h4.54v-2.12h-7.57V207h3Z" fill="#633cff"/>
    <path d="M1266.19,195.67h-3V207h3Z" fill="#633cff"/>
    <path d="M1271,205.9a5.5,5.5,0,0,0,2.11,1,8,8,0,0,0,2.27.29,9.63,9.63,0,0,0,1.94-.17c.52-.12,1-.23,1.43-.29l-.18-2.4a7.32,7.32,0,0,1-1.36.4,6.23,6.23,0,0,1-1.48.17,4.41,4.41,0,0,1-1.54-.22A4.22,4.22,0,0,1,1273,204a3.58,3.58,0,0,1-.8-1.14,4.34,4.34,0,0,1-.29-1.49,6.36,6.36,0,0,1,.23-1.48,2.71,2.71,0,0,1,.75-1.15A2.6,2.6,0,0,1,1274,198a3.93,3.93,0,0,1,1.47-.29,5.88,5.88,0,0,1,1.48.18,5.35,5.35,0,0,1,1.43.62l.23-2.45a14.29,14.29,0,0,0-1.66-.4,8.27,8.27,0,0,0-1.71-.17,9,9,0,0,0-2.56.34,6,6,0,0,0-2,1.08,5.57,5.57,0,0,0-1.37,1.83,6.14,6.14,0,0,0-.51,2.57,5.77,5.77,0,0,0,.57,2.75A6.06,6.06,0,0,0,1271,205.9Z" fill="#633cff"/>
    <path d="M1284.07,195.67h-3V207h3Z" fill="#633cff"/>
    <path d="M1290.16,204.59h4.27l.85,2.4h3.31l-4.38-11.37h-3.71L1286.18,207h3.07Zm2.16-6.57,1.37,4.45h-2.85Z" fill="#633cff"/>
    <path d="M1308.27,204.76h-4.67v-9.09h-3V207h7.69Z" fill="#633cff"/>
    <path d="M1237.21,224.08h-4.67v-9.15h-3V226.3h7.69Z" fill="#633cff"/>
    <path d="M1242.5,214.93h-3V226.3h3Z" fill="#633cff"/>
    <path d="M1247,216.25a5.43,5.43,0,0,0-1.37,1.82,6.19,6.19,0,0,0-.51,2.58,5.73,5.73,0,0,0,.57,2.74,4.78,4.78,0,0,0,1.54,1.77,5.44,5.44,0,0,0,2.11,1,8,8,0,0,0,2.28.29,9.6,9.6,0,0,0,1.93-.17A14.52,14.52,0,0,1,1255,226l-.18-2.4a7.22,7.22,0,0,1-1.37.4,6.11,6.11,0,0,1-1.48.17,4.14,4.14,0,0,1-1.53-.23,4.06,4.06,0,0,1-1.19-.68,3.43,3.43,0,0,1-.8-1.14,4.16,4.16,0,0,1-.29-1.49,4.31,4.31,0,0,1,.23-1.49,2.72,2.72,0,0,1,.74-1.14,2.66,2.66,0,0,1,1.14-.74,4.06,4.06,0,0,1,1.48-.29,6.45,6.45,0,0,1,1.48.17,5.52,5.52,0,0,1,1.42.63l.23-2.45a16.56,16.56,0,0,0-1.65-.41,9,9,0,0,0-1.7-.17,9.18,9.18,0,0,0-2.57.35A8.06,8.06,0,0,0,1247,216.25Z" fill="#633cff"/>
    <path d="M1260.16,221.62h4.67v-2.17h-4.67V217.1h4.95v-2.17h-8V226.3h8.14v-2.11h-5.12Z" fill="#633cff"/>
    <path d="M1270.69,218.53l4,7.77h3.71V214.93h-2.74l.06,7.72h-.06l-3.81-7.72H1268V226.3h2.78Z" fill="#633cff"/>
    <path d="M1282.42,220.87a4.67,4.67,0,0,0,1.3.58c.46.11.92.28,1.32.4a3,3,0,0,1,1,.45.87.87,0,0,1,.41.8,1,1,0,0,1-.18.57.77.77,0,0,1-.39.35l-.63.17c-.23,0-.46.06-.69.06a5.49,5.49,0,0,1-1.71-.23,8.22,8.22,0,0,1-1.36-.52l-.28,2.52a8,8,0,0,0,1.64.34c.63.06,1.2.11,1.71.11a8.86,8.86,0,0,0,1.82-.17,4.22,4.22,0,0,0,1.6-.57,3.1,3.1,0,0,0,1.54-3,2.82,2.82,0,0,0-.4-1.66,3.17,3.17,0,0,0-1-1,4.51,4.51,0,0,0-1.32-.57,8.36,8.36,0,0,1-1.31-.4,5.6,5.6,0,0,1-1-.4.75.75,0,0,1-.39-.69.65.65,0,0,1,.23-.57,2,2,0,0,1,.5-.34,2.43,2.43,0,0,1,.69-.11h.63a9.5,9.5,0,0,1,1.3.11,3.92,3.92,0,0,1,1.21.4l.16-2.34a7.16,7.16,0,0,0-1.3-.29,13.55,13.55,0,0,0-1.6-.11,9.28,9.28,0,0,0-1.77.17,4.69,4.69,0,0,0-1.6.57,3.56,3.56,0,0,0-1.13,1.09,3.19,3.19,0,0,0-.45,1.71,2.9,2.9,0,0,0,.39,1.66A5.13,5.13,0,0,0,1282.42,220.87Z" fill="#633cff"/>
    <path d="M1300,217.1v-2.17h-8V226.3h8.14v-2.11h-5.12v-2.57h4.67v-2.17h-4.67V217.1Z" fill="#633cff"/>
    <path d="M1302.81,214.93V226.3h4.09a13,13,0,0,0,2.68-.28,6.07,6.07,0,0,0,2.1-1,4.8,4.8,0,0,0,1.42-1.77,6.17,6.17,0,0,0,.52-2.69,6.38,6.38,0,0,0-.52-2.74,4.08,4.08,0,0,0-1.35-1.72,5.16,5.16,0,0,0-2.12-.91,13,13,0,0,0-2.73-.29Zm6.77,3.15a4.08,4.08,0,0,1,0,5.14,3.73,3.73,0,0,1-2.62.86h-1.2v-6.86h1.2A3.58,3.58,0,0,1,1309.58,218.08Z" fill="#633cff"/>
    <path d="M1232.54,241.62h1.2a5.1,5.1,0,0,0,3.29-1,3.26,3.26,0,0,0,1.21-2.69,3.16,3.16,0,0,0-1.26-2.8,6.33,6.33,0,0,0-3.87-.91h-3.59v11.37h3v-4Zm0-5.26h.8a2.85,2.85,0,0,1,.74.06,1.62,1.62,0,0,1,.57.23,1.58,1.58,0,0,1,.4.45,1.51,1.51,0,0,1,.17.75,1.64,1.64,0,0,1-.17.74,1.85,1.85,0,0,1-.4.51,1.7,1.7,0,0,1-.57.29,2.85,2.85,0,0,1-.74.06h-.8Z" fill="#633cff"/>
    <path d="M1248.43,241.56c-.12-.28-.18-.51-.29-.74a1.34,1.34,0,0,0-.39-.52,2.16,2.16,0,0,0-.57-.28V240a2.77,2.77,0,0,0,1.64-1,3.15,3.15,0,0,0,.52-1.89,2.59,2.59,0,0,0-.29-1.25,2.86,2.86,0,0,0-.8-.92,3.57,3.57,0,0,0-1.19-.51,5.44,5.44,0,0,0-1.43-.17h-5.4v11.37h3V241.1h.62a2.73,2.73,0,0,1,.74.12.85.85,0,0,1,.51.4,4.34,4.34,0,0,1,.46.74l.46,1.2.62,2.06h3.14l-1.09-3.09A3.85,3.85,0,0,0,1248.43,241.56Zm-2.28-3.2a1.61,1.61,0,0,1-.52.4,2.3,2.3,0,0,1-.73.17h-1.54v-2.57h.8a4.1,4.1,0,0,1,.85.06,6.06,6.06,0,0,1,.68.17,1.57,1.57,0,0,1,.51.4,1.11,1.11,0,0,1,.18.63A2,2,0,0,1,1246.15,238.36Z" fill="#633cff"/>
    <path d="M1261.52,235.62a3.94,3.94,0,0,0-1.77-1.14,6.31,6.31,0,0,0-2.44-.4,6.43,6.43,0,0,0-2.45.4,5.51,5.51,0,0,0-1.77,1.14,5.41,5.41,0,0,0-1.08,1.83,9,9,0,0,0,0,4.91,4.59,4.59,0,0,0,1.08,1.83,5,5,0,0,0,1.77,1.2,6.43,6.43,0,0,0,2.45.4,6.51,6.51,0,0,0,2.44-.4,4.87,4.87,0,0,0,1.77-1.2,5.25,5.25,0,0,0,1.08-1.83,9,9,0,0,0,0-4.91A4.76,4.76,0,0,0,1261.52,235.62Zm-1.82,5.66a3.33,3.33,0,0,1-.46,1.14,2.09,2.09,0,0,1-.79.8,2.06,2.06,0,0,1-1.2.28,2.72,2.72,0,0,1-1.2-.28,2.09,2.09,0,0,1-.79-.8,3.79,3.79,0,0,1-.46-1.14,5.92,5.92,0,0,1-.17-1.38,5.19,5.19,0,0,1,.17-1.37,3.33,3.33,0,0,1,.46-1.14,2.62,2.62,0,0,1,.79-.8,2.72,2.72,0,0,1,1.2-.29,2.66,2.66,0,0,1,1.2.29,2.09,2.09,0,0,1,.79.8,3.79,3.79,0,0,1,.46,1.14,5.65,5.65,0,0,1,0,2.75Z" fill="#633cff"/>
    <path d="M1274.39,235.39a5.14,5.14,0,0,0-2.1-.92,13.13,13.13,0,0,0-2.74-.28h-4.1v11.37h4.1a13,13,0,0,0,2.68-.28,6,6,0,0,0,2.11-1,4.84,4.84,0,0,0,1.42-1.77,6.28,6.28,0,0,0,.51-2.68,6.62,6.62,0,0,0-.51-2.75A4.12,4.12,0,0,0,1274.39,235.39Zm-2.1,7.08a3.68,3.68,0,0,1-2.62.86h-1.21v-6.86h1.21a3.73,3.73,0,0,1,2.62.86,3.32,3.32,0,0,1,.91,2.57A3.5,3.5,0,0,1,1272.29,242.47Z" fill="#633cff"/>
    <path d="M1280.09,244.7a4.41,4.41,0,0,0,1.59.8,7.25,7.25,0,0,0,2,.29,6.67,6.67,0,0,0,2-.29,4.54,4.54,0,0,0,1.6-.8,3.48,3.48,0,0,0,1-1.37,5.37,5.37,0,0,0,.34-2v-7.08h-3v6.57a5.94,5.94,0,0,1-.12,1.08,3.21,3.21,0,0,1-.28.86,3.13,3.13,0,0,1-.57.63,1.64,1.64,0,0,1-1,.23,1.77,1.77,0,0,1-1-.23,1.45,1.45,0,0,1-.57-.63,2.08,2.08,0,0,1-.28-.86,7,7,0,0,1-.12-1.08v-6.57h-3v7a5.23,5.23,0,0,0,.34,2A4.3,4.3,0,0,0,1280.09,244.7Z" fill="#633cff"/>
    <path d="M1299.39,243.39a6.93,6.93,0,0,1-1.48.17,4.41,4.41,0,0,1-1.54-.23,4.26,4.26,0,0,1-1.2-.68,3.52,3.52,0,0,1-.8-1.15,4.52,4.52,0,0,1-.28-1.48,6.45,6.45,0,0,1,.23-1.49,2.72,2.72,0,0,1,.74-1.14,2.66,2.66,0,0,1,1.14-.74,4,4,0,0,1,1.48-.29,6.45,6.45,0,0,1,1.48.17,5.68,5.68,0,0,1,1.42.63l.23-2.45a16.56,16.56,0,0,0-1.65-.41,9,9,0,0,0-1.71-.17,9.21,9.21,0,0,0-2.56.35,5.66,5.66,0,0,0-2.05,1.08,5.57,5.57,0,0,0-1.37,1.83A6.11,6.11,0,0,0,1291,240a5.82,5.82,0,0,0,.56,2.74,4.76,4.76,0,0,0,1.55,1.78,5.47,5.47,0,0,0,2.1,1,8,8,0,0,0,2.28.28,9.08,9.08,0,0,0,1.94-.17,14.19,14.19,0,0,1,1.42-.28l-.17-2.4A4,4,0,0,1,1299.39,243.39Z" fill="#633cff"/>
    <path d="M1302.24,236.48H1305v9.14h3v-9.14h2.79v-2.23h-8.59Z" fill="#633cff"/>
    <path d="M1199.29,88.18v180.3H1343V88.18Zm142.18,178.7H1200.88V179.1h140.59Zm0-89.38H1200.88V89.73h140.59Z" fill="#633cff"/>
    <path d="M409.05,88.18h134l-6.77,39.43H451.87l-5.81,33.15h68l-6.78,39.43H439l-11.85,68.29H377.28Z" fill="#633cff"/>
    <path d="M560.5,88.18h49.65l-31.77,180.3H528.73Z" fill="#633cff"/>
    <path d="M627.58,88.18h134l-6.78,39.43H670.45l-5.81,33.15h68l-6.77,39.43H657.64L645.8,268.48H595.92Z" fill="#633cff"/>
    <path d="M803.17,87.9h55.69l29,180.52H838.47l-4-31.6H772.2l-15.15,31.6H709.17Zm26.48,111.26-8.31-65h-1l-30.23,65Z" fill="#633cff"/>
    <path d="M1140.7,88.18l-57.79,10.75-5.47,32.74,31.66-1.49-24.43,138.24h45.89l31.61-180.24Z" fill="#633cff"/>
    <path d="M923.54,241.16,983,184.24c13.1-12.63,34-31.83,34-48.57,0-9.37-7.06-13.89-15.6-13.89-15.88,0-19.64,13.43-21.69,26.06H935.1c.23-.74,1.53-9.08,1.76-9.88,6.78-36.41,37.81-52.35,73.56-52.35,28.24,0,54.15,11.37,54.15,43.26,0,35.43-36,62.69-59.95,84.23l-16.85,15.2-.23,1.26h62.23L1043,268.48H918.81Z" fill="#633cff"/>
  </g>
</svg>
