<svg id="Layer_1" data-name="Layer 1" xmlns="http://www.w3.org/2000/svg" viewBox="0 0 285 110">
  <g>
    <polygon points="199.88 59.22 199.88 107.46 189.21 107.46 166.16 76.12 166.16 107.46 155.94 107.46 155.94 63.73 153.6 59.22 166.82 59.22 189.66 91 189.66 59.22 199.88 59.22" fill="#633cff"/>
    <path d="M93.64,108.29a25.47,25.47,0,0,0,9.75-1.77A23.25,23.25,0,0,0,118,87.39a49.82,49.82,0,0,0,.09-6.73H93.74l-4.32,8.69h17.33a11.46,11.46,0,0,1-4.53,6.72,14,14,0,0,1-8.46,2.54,14.7,14.7,0,0,1-5.9-1.24,15,15,0,0,1-8-8.15A15.81,15.81,0,0,1,80,77.33a15.21,15.21,0,0,1,3.23-4.84A14.93,14.93,0,0,1,88,69.29a14.68,14.68,0,0,1,5.88-1.14A15.21,15.21,0,0,1,101.44,70a12.74,12.74,0,0,1,5.11,5.39l9.59-4.49a21.85,21.85,0,0,0-8.86-9.19A26.77,26.77,0,0,0,94,58.38,25.73,25.73,0,0,0,70.19,73.53a23.35,23.35,0,0,0-2.09,9.68,23.74,23.74,0,0,0,2,9.71,25.39,25.39,0,0,0,13.51,13.37A25.9,25.9,0,0,0,93.64,108.29Z" fill="#633cff"/>
    <polygon points="13.93 59.22 0.92 59.22 3.37 64.21 3.37 102.48 0.92 107.47 30.78 107.47 33.49 98.03 13.93 98.03 13.93 59.22" fill="#633cff"/>
    <polygon points="37.1 107.47 66.21 107.47 66.21 98.03 47.7 98.03 47.7 87.45 62.01 87.45 64.6 78.38 47.7 78.38 47.7 68.62 66.21 68.62 66.21 59.22 37.1 59.22 37.1 107.47" fill="#633cff"/>
    <polygon points="121.73 107.47 150.85 107.47 150.85 98.03 132.33 98.03 132.33 87.45 146.65 87.45 149.24 78.38 132.33 78.38 132.33 68.62 150.85 68.62 150.85 59.22 121.73 59.22 121.73 107.47" fill="#633cff"/>
    <path d="M140.38,51.61a25.56,25.56,0,0,0,9.76-1.78,23.42,23.42,0,0,0,7.73-5,22.8,22.8,0,0,0,5.1-7.53,23.48,23.48,0,0,0,1.72-6.62,48.2,48.2,0,0,0,.09-6.73H140.49l-4.33,8.69H153.5A11.47,11.47,0,0,1,149,39.38a13.92,13.92,0,0,1-8.46,2.53,14.56,14.56,0,0,1-5.9-1.23,15.23,15.23,0,0,1-4.77-3.29,15,15,0,0,1-3.17-4.86,15.81,15.81,0,0,1,.06-11.89A14.94,14.94,0,0,1,130,15.8a14.8,14.8,0,0,1,10.65-4.35,15.28,15.28,0,0,1,7.58,1.9,12.74,12.74,0,0,1,5.11,5.39l9.59-4.49A21.77,21.77,0,0,0,154,5.06a26.82,26.82,0,0,0-13.31-3.37,25.77,25.77,0,0,0-23.79,15.15,23.32,23.32,0,0,0-2.09,9.68,23.82,23.82,0,0,0,2,9.7,25.58,25.58,0,0,0,5.42,8,25.28,25.28,0,0,0,8.09,5.4A25.73,25.73,0,0,0,140.38,51.61Z" fill="#633cff"/>
    <polygon points="13.93 2.54 0.92 2.54 3.37 7.53 3.37 45.8 0.92 50.78 30.78 50.78 33.49 41.34 13.93 41.34 13.93 2.54" fill="#633cff"/>
    <polygon points="37.1 50.78 66.21 50.78 66.21 41.34 47.7 41.34 47.7 30.76 62.01 30.76 64.6 21.69 47.7 21.69 47.7 11.94 66.21 11.94 66.21 2.54 37.1 2.54 37.1 50.78" fill="#633cff"/>
    <polygon points="212.68 50.78 241.79 50.78 241.79 41.34 223.28 41.34 223.28 30.76 237.59 30.76 240.18 21.69 223.28 21.69 223.28 11.94 241.79 11.94 241.79 2.54 212.68 2.54 212.68 50.78" fill="#633cff"/>
    <path d="M87.73,32.15l6.36-16.21,6.1,16.21ZM98.85,2.54H83.79L87,8.69,69.59,50.78H80.42l3.69-9.41h19.58l3.8,9.41h11Z" fill="#633cff"/>
    <polygon points="269.45 15.8 269.45 37.5 274.9 37.5 274.9 30.16 280.53 30.16 281.89 25.39 274.9 25.39 274.9 20.72 282.9 20.72 282.9 15.8 269.45 15.8" fill="#633cff"/>
    <path d="M256,32.7a6,6,0,1,1,6.16-6.05A6.12,6.12,0,0,1,256,32.7Zm0-17.33a11.28,11.28,0,1,0,11.52,11.28A11.41,11.41,0,0,0,256,15.37Z" fill="#633cff"/>
    <path d="M188.26,51.62A22.75,22.75,0,0,1,180,50.2a16.85,16.85,0,0,1-6.2-4,18,18,0,0,1-3.91-6.34,23.77,23.77,0,0,1-1.37-8.26v-29h10.7V31a11.84,11.84,0,0,0,2.32,7.71,9.52,9.52,0,0,0,13.53,0A11.78,11.78,0,0,0,197.36,31V2.54h10.7V31.59a23.58,23.58,0,0,1-1.38,8.26,18,18,0,0,1-3.9,6.33,17,17,0,0,1-6.2,4A23,23,0,0,1,188.26,51.62Z" fill="#633cff"/>
    <path d="M270.21,78.86l-6.67-1.26c-3-.56-4.65-2.2-4.65-4.63,0-3.3,3.47-5.27,6.82-5.27,1.14,0,6.81.29,8,5.82l9.18-4.38c-1.35-3.94-5.41-10.76-17.23-10.76-9.53,0-17.29,6.85-17.29,15.26,0,7.13,4.88,12.36,13,14l6.67,1.31c3.29.65,5.26,2.48,5.26,4.9,0,3.13-2.72,5-7.08,5.08-5.3,0-9.58-3.8-10.24-7.59l-8.83,4.81c2,6.45,8.26,12.17,19,12.17,6.76,0,10.93-2.56,13.24-4.7a14.24,14.24,0,0,0,4.66-10.36C284.07,86,278.76,80.48,270.21,78.86Z" fill="#633cff"/>
    <path d="M234.26,89.06a14.49,14.49,0,0,1-13.37,8.72h-5.83V69.06h5.85a14.26,14.26,0,0,1,13.36,8.76,14.6,14.6,0,0,1,0,11.24Zm10-15.11a23.64,23.64,0,0,0-5.37-7.63,25.32,25.32,0,0,0-8-5.09,30.48,30.48,0,0,0-9.7-2H204.5v48.24h16.67a25.61,25.61,0,0,0,17.69-6.91,23.88,23.88,0,0,0,5.38-7.63,23.74,23.74,0,0,0,0-19Z" fill="#633cff"/>
    <rect x="0.92" y="1.7" width="283.16" height="106.6" fill="none"/>
  </g>
</svg>
