<svg id="Layer_1" data-name="Layer 1" xmlns="http://www.w3.org/2000/svg" viewBox="0 0 165 165">
  <path d="M82.5,9.6a72.82,72.82,0,0,1,53.56,122.25,59.54,59.54,0,0,0,2.49-6.52c1.56-5.89,1.35-11.88-2.22-19.12S124,91.79,118.84,89.31s-13.45-3.51-22-2.7S77.58,89,69.59,87.91,55.76,80.62,55,75.54s1-8.75,1.84-9.72.11-1.3-.65-1.89A6,6,0,0,1,54,59.66c-.22-2.32.59-6.1.91-6.21s.33.33.22.87-.59,3,1.35,8,8.75,4.81,13.12,3.89,9.56-4.54,11.83-4.92,6.8,1.3,12.47,4.43,7.94,7.08,11.23,10.15a8.46,8.46,0,0,0,7.08,2.65c1.51,0,3.62.65,5.4.92s4.75.7,6.1.32S127,76.84,128,76.62s1.45,4.1,2.16,8.1,2,9.5,5.72,14.26,6.81,6.21,10.21,6,6.1-4.1,6.42-4.86-1-.16-2.21.49a11.29,11.29,0,0,1-6.8.75c-2.33-.65-3.41-3.13-3.19-3.56s1.67,0,2.86.38a10.08,10.08,0,0,0,6.75-.87c2.7-1.4,4.32-4.7,4.48-7.77a6.81,6.81,0,0,0-4-6.38c-1.94-.75-2.26.38-2,.76s2.32,1.24,2.7,3,0,5.24-1.35,6.86-5.84,2.27-9,.54-5.3-7.35-6-10.75a39.18,39.18,0,0,0-4.32-10.64c-1.4-2.16-4.26-3.72-4.1-4.21s1.08-.59,3.08-.21a3.35,3.35,0,0,1,2.53,3.24c.06.86.49.81,1.41.43s1.46-1.78,1.46-3.19a4.21,4.21,0,0,1,1-2.7c.43-.65-.1-2,.11-2.59a18.92,18.92,0,0,0,1.35-2.59c.16-.76-1.4-2.22-1.24-2.49s1.19,0,2-.21-.11-2.27-1.24-3.73-2.49-3-4.59-3.35-2.33,1.35-4,1.46a8,8,0,0,1-5.35-1.94c-1.94-1.46-3.4-2.38-6-2.32a7.66,7.66,0,0,1-6.15-2.65c-1.84-1.84-3.62-3-3.46-4.37s2.76-1.73,4.27-1.84,1.19-1.3.16-3.56-4.21-4.92-6.64-5.89-4.75-.05-5.94-.49-1.19-2.64-2.38-4.15-5.34-1.35-9.5-1.3-6.1,0-7.13-.81,0-1.84.49-2.7-.11-.92-1-.59a7.54,7.54,0,0,0-3.19,2.75,2.8,2.8,0,0,1-1.89,1.57c-.59.16-.32-.76-1.13-1.52s-2-.48-3.73-.86-5.94-1.35-6.37-4.7,2.32-6,5.83-6.26,5,3.13,5.57,3.13.28-2.16-.65-4.14A73.79,73.79,0,0,1,82.5,9.6ZM32.29,135.27a72.77,72.77,0,0,1,12.23-115,12.85,12.85,0,0,0,.57,2.8c.72,1.88,3.67,2.5,5.64,3.22a12.65,12.65,0,0,0,4.48.54s-.09.44-1.25.89-5,.72-9.85,1-9.22,3.85-12.27,7.52S27,44,25.49,44.42s-2.42-2.77-3-2.59-1.16,1.61-.89,3.67,2.59,2.77,2.95,3.67S23.25,51.41,21.73,53s-4,5.46-3.58,17.27-1.26,16.75-2.51,19-3,1.79-3.94,2.06-.18,1.52,1,2.6,4.2,1.61,6.53,1,3.67-4.11,4.21-3.85.63,2.24,2.33,6.09a54.12,54.12,0,0,0,6.62,10.3c1.7,2.14,1.43,2.14.81,3s-.45,2.78-.27,5.46,1.16,6.18-.27,7.52-5.28-.36-6-.27-.89.72.63,2.42a7.4,7.4,0,0,0,6.8,2.42c3-.45,4.3-4.3,4.48-6.18s1-5.19,3.4-4.75,3.31,3.94,3.4,6.36,1.08,3.31,1.43,5-1.61,1.7-1.43,2.78,1.79.63,3-.54,1.52-3.85,2-5.19,1.43-.9,2.86-.18,4.12.81,7.61,1.52,8.41,2.15,8.59,6.63-3.4,6.71-10.65,7.43a51.29,51.29,0,0,1-24.8-4.75c-.56-.29-1.1-.59-1.61-.91Zm22-120c1.14-.49,2.29-.94,3.46-1.36a12.28,12.28,0,0,0,1,5.32c1.07,2.86,5.55,4.11,5.55,4.74s-1.43.72-2.86.27a34.21,34.21,0,0,0-6.45-1.43c-2.95-.36-5.73-1-6-2.06s1.43-2.69,3.23-3.31,3.22,1.16,3.76,1.07.44-.81-.36-2.06a4,4,0,0,0-1.3-1.18ZM80,39.59c-.76-.76,1.09-3.59,5-3.38s5.23,1.85,7.62,3.27,3.48,2,2.94,2.18-3.92-.11-6.75-.87S85,39.37,83.36,39.48s-2.62.87-3.38.11ZM114.91,57.1c-.68-1.63,1-3.18,2.91-2.82s3.18,1,3.09,1.6-1.59.63-2.77,1.18-2.55,1.68-3.23,0ZM82.16,54.94c-.22-.65,4.46-5.77,9.58-4.9s10.45,5.44,15,9.47,7.4,5.77,9.58,6.42,3,.34,3.15.72.33,7.26,0,7.48-6.18-.25-12.49-4.49S93.59,59.84,89.45,58.2s-7.07-2.61-7.29-3.26Zm40.52,16c1-1.46,5,.69,3.83,2.66s-4.82-1.2-3.83-2.66ZM82.5,2.38A80.12,80.12,0,1,1,2.38,82.5,80.27,80.27,0,0,1,82.5,2.38Z" fill="#633cff" fill-rule="evenodd"/>
</svg>
