<svg id="Layer_1" data-name="Layer 1" xmlns="http://www.w3.org/2000/svg" viewBox="0 0 180 105">
  <g>
    <path d="M92.2,12.17a25.1,25.1,0,0,1,15.33,5.18l6.25-7.76a35.26,35.26,0,0,0-43.17,0l6.26,7.76A25.07,25.07,0,0,1,92.2,12.17Z" fill="#633cff" fill-rule="evenodd"/>
    <path d="M109.45,19a24.51,24.51,0,0,1,4.47,30.24L100.13,35.89,93.72,21.45V43.58l13.54,13.08a25.3,25.3,0,0,1-30.12,0L90.68,43.58V21.45L84.27,35.89,70.47,49.21A24.54,24.54,0,0,1,75,19L68.69,11.2a34.47,34.47,0,0,0-11.5,25.7,35,35,0,0,0,70,0,34.46,34.46,0,0,0-11.49-25.7L109.45,19Z" fill="#633cff" fill-rule="evenodd"/>
    <polygon points="41.78 97.06 41.78 86.02 41.78 85.76 44.35 82.1 57.66 82.1 57.66 86.02 46.9 86.02 46.9 87.78 54.19 87.78 54.19 91.28 46.9 91.28 46.9 93.07 57.66 93.07 57.66 97.06 41.78 97.06 41.78 97.06" fill="#633cff" fill-rule="evenodd"/>
    <polygon points="132.93 97.06 127.81 97.06 127.81 86.05 121.28 86.05 121.28 82.1 140.71 82.1 138.13 86.05 132.93 86.05 132.93 97.06 132.93 97.06" fill="#633cff" fill-rule="evenodd"/>
    <polygon points="85.38 97.06 78.78 82.1 84.17 82.1 87.31 89.54 90.59 82.1 94.13 82.1 97.43 89.59 100.6 82.1 105.58 82.1 99.06 97.06 95.41 97.06 92.15 89.65 88.78 97.06 85.38 97.06 85.38 97.06" fill="#633cff" fill-rule="evenodd"/>
    <path d="M143,82.1h11.64c1.89,0,3.77,1.08,3.77,3.25v2.46h-5.16V86.05h-8.37v7h8.37v-2h5.16v2.7c0,1.93-1.94,3.28-3.91,3.28H143.63c-2,0-3.83-1.4-3.83-3.25V87.05l3.24-5Z" fill="#633cff" fill-rule="evenodd"/>
    <path d="M65,97.06H59.87v-15h14.5c1.69,0,3.52.91,3.52,3v3.78c0,1.69-2,2.61-3.73,2.61l6.45,5.61h-7.1l-6.24-5.59V88.39h5.68V86H65v11.1Z" fill="#633cff" fill-rule="evenodd"/>
    <polygon points="165.7 97.06 160.58 97.06 160.58 82.1 165.7 82.1 165.7 87.33 174.88 87.33 174.88 82.1 180 82.1 180 97.06 174.88 97.06 174.88 91.28 165.7 91.28 165.7 97.06 165.7 97.06" fill="#633cff" fill-rule="evenodd"/>
    <polygon points="107.17 97.06 101.55 97.06 111.61 82.1 115.51 82.1 125.29 97.06 119.5 97.06 113.35 87.48 107.17 97.06 107.17 97.06" fill="#633cff" fill-rule="evenodd"/>
    <polygon points="36.36 82.1 42.09 82.1 32.32 97.06 28.72 97.06 19.3 82.1 25.14 82.1 30.7 91.16 36.36 82.1 36.36 82.1" fill="#633cff" fill-rule="evenodd"/>
    <polygon points="109.39 97.06 117.49 97.06 113.44 102.79 109.39 97.06 109.39 97.06" fill="#633cff" fill-rule="evenodd"/>
    <polygon points="26.89 81.9 34.99 81.9 30.93 76.17 26.89 81.9 26.89 81.9" fill="#633cff" fill-rule="evenodd"/>
    <path d="M1.93,96.63l3.19-3.19V86.05h9.45v7h-7l-3.95,4H15.82c2.12,0,3.91-1.33,3.91-3.24v-8L17.27,82.1H3.57A3.39,3.39,0,0,0,0,85.21V93.9a3.08,3.08,0,0,0,1.93,2.73Z" fill="#633cff" fill-rule="evenodd"/>
  </g>
</svg>
