<svg id="图层_1" data-name="图层 1" xmlns="http://www.w3.org/2000/svg" viewBox="0 0 1034.65 311.81">
  <g>
    <path d="M569.67,15c.5.31.31,1.42,0,1.95s-7.7,11.1-7.84,11.33c-.27.45-.91.66-1.18-.08-1-2.75-4-12.78-10.34-12.78-4.74,0-9,4.58-9,9.22,0,4.91,4.46,5.85,7.56,7.16,3.79,1.58,11.74,3.56,15.74,6.59,4.58,3.47,6.06,8.77,4.53,13.23C567.34,56.8,559.79,63,551.55,63a21.66,21.66,0,0,1-15.9-7.27L534,54.38l2-4.78,5.7-4.4a6.68,6.68,0,0,0-.92,4.86c.75,3.76,4.73,10.12,10.76,10.12,6.28,0,10.35-6.28,10.25-11-.11-5.33-5.32-7.14-14.3-11s-12.52-8.38-12-13.71c.52-5.73,7-13.15,14.78-13.15,9.73-.83,13.48,9.14,13.48,9.14s3.64-4.74,3.86-5.06a1.57,1.57,0,0,1,2.09-.4" fill="#633cff"/>
    <path d="M539.87,42.06c-1.47,2-13.64,19.48-14.38,20.57s-.64,2.12,0,2.61,1.82.54,3.09-1,15-21.71,15.69-22.63-2.89-1.55-4.35.47" fill="#633cff"/>
    <path d="M356.62,32.14c0-5.1,5.19-16.46,12.4-16.46,8.7,0,11.78,10.7,12.53,14.1.14.64.55.57.9.18s9.72-11.17,11.3-13-.2-3.38-1.44-2c-1.59,1.81-7.4,8-7.4,8a17.68,17.68,0,0,0-16.65-10.38c-7.94,0-20.72,7.12-20.72,26,0,16.43,11.18,24.23,21.33,24.23a17.33,17.33,0,0,0,11.67-4.32c1-1.1-.12-1.5-.74-1.16-2.1,1.12-3.58,2.32-7.81,2.32-7.34,0-11.63-6.72-13.36-10.82a36.5,36.5,0,0,1-2-9.35h29.22a1.31,1.31,0,0,1,1.45,1.47c0,.8-.05,29-.06,33.07,0,1.27.67,2,1.72,2s2.18-1.84,2.18-2.91V35.77c0-1.5-.49-2.43-2.3-2.43h-31.1a1.12,1.12,0,0,1-1.14-1.2" fill="#633cff"/>
    <path d="M286.38,35.81a12.69,12.69,0,0,1,2.11,7.67c.07,4.47.22,9.28.29,13.54,0,1.77,1,2.34,2.83,2.76,1.46.29,1.83.47,1.83.89,0,.65-.37.77-1.75.77-2.47,0-3.27-.21-5.75-.21-1.67,0-2.38.14-4.48.14-1.09,0-1.29-.09-1.29-.59s.56-.44,1.36-.85,1.29-.78,1.58-3.48c.15-1.35,0-9.56,0-10.7,0-3.9-.36-6.17-1.16-7.1a7.39,7.39,0,0,0-5.89-2.34,10.71,10.71,0,0,0-5.81,1.63,5.43,5.43,0,0,0-1.17,3.48c-.22,3-.22,12.61-.14,15.17.14,2.35,1.16,2.77,2.83,3.19,1,.29,1.39.54,1.39.89,0,.65-.59.7-1.61.7-.58,0-4.21-.14-5.95-.14s-4.29.21-5.53.21c-.65,0-1.43,0-1.43-.77,0-.35.34-.53,1.87-1,1.89-.63,2.61-1.42,2.83-4.05.22-3,.73-8,.73-26.14a45.07,45.07,0,0,0-.22-6.39c-.22-1.85-2.64-2.13-4.14-2.19-.32,0,1-2.78,1-3.35,0-.28-1-.48-1-.48a16.17,16.17,0,0,0,8.5-2.35,3.84,3.84,0,0,1,1.38-.51c.3,0,.44.57.44.78-.73,5.12-1,19.15-1,21.21a.41.41,0,0,0,.51.43c3-2.64,6.11-4.12,9.16-4.12,3.63,0,6.18,1.2,7.7,3.26" fill="#633cff"/>
    <path d="M301.42,44.29a.73.73,0,0,0,.72.81c.9.07,4.82-1.56,8.1-2.91,3-1.24,4.08-2,4.08-3.42a4.45,4.45,0,0,0-4.78-4.31c-4.46,0-7.85,5.66-8.12,9.83m16.05-9A7.3,7.3,0,0,1,319.93,41c0,.79-.59,1.18-1.3,1.45-.95.35-13.15,4.21-15.56,5-.94.3-1.44.63-1.38,1.34a9,9,0,0,0,2.18,4.72,10.4,10.4,0,0,0,8.14,3.9c3.2,0,5.38-.78,6.62-2.55.29-.43.65-.85.94-.85s.58.49.58.85a4,4,0,0,1-.5,1.7,12.5,12.5,0,0,1-10.55,5.33c-7.84,0-13.08-5.82-13.08-14.13a15.13,15.13,0,0,1,8.72-13.92,15.66,15.66,0,0,1,5.53-1.27,10.63,10.63,0,0,1,7.2,2.7" fill="#633cff"/>
    <path d="M463.28,44.29a.73.73,0,0,0,.72.81c.9.07,4.82-1.56,8.1-2.91,3-1.24,4.07-2,4.07-3.42a4.44,4.44,0,0,0-4.77-4.31c-4.46,0-7.85,5.66-8.12,9.83m16.05-9A7.3,7.3,0,0,1,481.79,41c0,.79-.59,1.18-1.3,1.45-.95.35-13.14,4.21-15.56,5-.94.3-1.44.63-1.38,1.34a9.09,9.09,0,0,0,2.18,4.72,10.4,10.4,0,0,0,8.15,3.9c3.19,0,5.37-.78,6.61-2.55.29-.43.65-.85.94-.85s.58.49.58.85a3.74,3.74,0,0,1-.51,1.7A12.46,12.46,0,0,1,471,61.94c-7.85,0-13.08-5.82-13.08-14.13a15.11,15.11,0,0,1,8.72-13.92,15.57,15.57,0,0,1,5.52-1.27,10.63,10.63,0,0,1,7.2,2.7" fill="#633cff"/>
    <path d="M404.16,17c3.34-1.15,5.52-1.57,7.48-2.77.22-.15.66.42.66.71a129.54,129.54,0,0,0-.66,15.66c0,10.36-.14,24.21.22,26.13.29,1.42.62,2.05,3.75,2.9,1.09.29,1.3.68,1.3,1.12s-.69.66-1.56.66c-1.75,0-4.87-.21-6.18-.21-1.67,0-4.87.21-6.39.21s-1.7-.1-1.7-.66.46-.68,1.26-.82c3.34-.72,3.49-2.28,3.71-5.83.14-2.7.51-10.37.51-21.58,0-5.26-.23-9.06-.23-11.19,0-.57,0-1.49-1.74-2-1.44-.41-1.45-1.06-1.45-1.34s.22-.78,1-1" fill="#633cff"/>
    <path d="M430.65,37.37c-1.38,1.35-3,5-3,9,0,5.68,4.07,12.21,10.32,12.21a8.9,8.9,0,0,0,5.31-1.7,12.2,12.2,0,0,0,1.16-4.69c.07-4.54,0-8.45-.22-11.78a6,6,0,0,0-1.6-2.7,10,10,0,0,0-6.25-2.77,8.39,8.39,0,0,0-5.67,2.48m13-4.54c.29.07.51-.42.58-.78a66.34,66.34,0,0,0-.07-10.84,3.16,3.16,0,0,0-2.74-2.69,2.34,2.34,0,0,1-1.4-.86c0-.63.8-1.13,1.23-1.2a45.64,45.64,0,0,0,7.41-2,3,3,0,0,1,.95-.2c.22,0,.66.5.58,1.13-.36,3.76-.65,2.67-.65,24.4,0,14.34.15,14.84.22,16.19.07,2.62.65,2.91,1.09,2.91.79,0,3.19-.16,3.92-.23.29,0,.44.35.44.42A3,3,0,0,1,454,60.86a51.24,51.24,0,0,0-6.54,1.08,7,7,0,0,1-2.71.52.85.85,0,0,1-.71-.73c0-.64.15-1.92.15-2.91a.46.46,0,0,0-.44-.43,14.35,14.35,0,0,1-9.44,3.55A12.82,12.82,0,0,1,425.2,58a15.06,15.06,0,0,1,4.22-22.79A21.3,21.3,0,0,1,439,32.55a27.37,27.37,0,0,1,4.65.28" fill="#633cff"/>
    <path d="M490.31,35a29.35,29.35,0,0,0,4.55-1.71c.87-.57,1.23-.86,1.45-.86s.58.66.65.86a12.82,12.82,0,0,1,.69,4.32c0,.28.36.35.51.28,2.83-2.63,6-4.4,8.29-4.4,3,0,3.63,1.77,3.63,2.41,0,.14.2.2,0,.56a13.22,13.22,0,0,1-2.56,2.83,1.93,1.93,0,0,1-1-.21,7,7,0,0,0-4-1.57,7.37,7.37,0,0,0-4,1.87,2.67,2.67,0,0,0-.73,1.56c0,1.42.37,13.55.44,14.61.15,2.06.57,3.12,1.71,3.8a7.12,7.12,0,0,0,2,.68c1.16.35,1.31.6,1.31.89s-.66.63-1.75.63c-1.82,0-2.87-.35-7.09-.35-2.18,0-3.05.29-4.8.29-.8,0-1.52-.29-1.52-.86,0-.42.87-.46,1.45-.68,2.84-.92,3.05-1.87,3.13-6.13V40.29a4,4,0,0,0-1.33-2.93c-1.1-.6-1.94-.84-1.94-1.12a1.36,1.36,0,0,1,.94-1.21" fill="#633cff"/>
    <path d="M607.45,35A28.93,28.93,0,0,0,612,33.32c.88-.57,1.24-.86,1.45-.86s.58.66.66.86a13.07,13.07,0,0,1,.68,4.32c0,.28.37.35.52.28,2.83-2.63,6-4.4,8.28-4.4,3,0,3.63,1.77,3.63,2.41,0,.14.21.2,0,.56a13.49,13.49,0,0,1-2.56,2.83,1.88,1.88,0,0,1-1-.21,7,7,0,0,0-4-1.57,7.36,7.36,0,0,0-4,1.87,2.71,2.71,0,0,0-.72,1.56c0,1.42.36,13.55.44,14.61.14,2.06.56,3.12,1.7,3.8a7.12,7.12,0,0,0,2,.68c1.16.35,1.31.6,1.31.89s-.66.63-1.74.63c-1.82,0-2.88-.35-7.09-.35-2.19,0-3.06.29-4.8.29-.81,0-1.53-.29-1.53-.86,0-.42.88-.46,1.46-.68,2.83-.92,3.05-1.87,3.12-6.13V40.29a4,4,0,0,0-1.33-2.93c-1.1-.6-1.94-.84-1.94-1.12a1.38,1.38,0,0,1,.94-1.21" fill="#633cff"/>
    <path d="M598.83,34.39a3.18,3.18,0,0,1,1.09,2.14c0,1.13-2.11,2.83-2.4,2.83A8,8,0,0,1,594.68,38c-2.39-1.7-3.63-2.77-6.1-2.77a7.13,7.13,0,0,0-4.5,2.42A12,12,0,0,0,581,45.82a13.16,13.16,0,0,0,1.89,7.11,10.69,10.69,0,0,0,9.16,4.75c2.69,0,3.68-.85,5.57-2.13.8-.57,2.28-.36,2.28,0a2.87,2.87,0,0,1-.95,2.07A14.72,14.72,0,0,1,588.51,62a13.07,13.07,0,0,1-10.76-5.68A17.19,17.19,0,0,1,575.5,48a14.67,14.67,0,0,1,7-12.29,20.32,20.32,0,0,1,9.52-3c2.18,0,5.38.57,6.76,1.63" fill="#633cff"/>
    <path d="M639.14,36.74c-1.89,1.7-3.57,5.39-3.57,9.08a20.79,20.79,0,0,0,.88,6.32c1.81,5.32,6,7.88,9.45,7.88.79,0,2.4-.35,4.43-2.34,1.81-1.92,3.27-6.32,3.27-9.37A16.16,16.16,0,0,0,650,37.44a9.28,9.28,0,0,0-6.1-2.77,7.7,7.7,0,0,0-4.73,2.07M659.78,47a15.16,15.16,0,0,1-6.32,12.21,14.76,14.76,0,0,1-9,2.84,16.06,16.06,0,0,1-9.67-3.69,15.6,15.6,0,0,1-5.37-10.86,13.58,13.58,0,0,1,5.09-11.08,16.45,16.45,0,0,1,10.75-3.9A14.41,14.41,0,0,1,659.78,47" fill="#633cff"/>
    <path d="M694.62,60.05c-3.13-.85-3.42-1.7-3.71-3.12-.36-1.92-.22-15.94-.22-26.3A129.54,129.54,0,0,1,691.35,15c0-.29-.44-.86-.66-.72-2,1.21-4.13,1.64-7.48,2.77-.8.22-1,.71-1,1s.48.67,1.79,1a1.85,1.85,0,0,1,1.41,1.67c0,2.12.22,6.6.22,11.86,0,11.21-.36,19.34-.51,22-.22,3.55-.36,4.37-3.71,5.09a9.8,9.8,0,0,1-2.84-.08c-3.13-.84-3.42-1.28-3.7-2.7-.37-1.91-.22-15.9-.22-26.26A130.71,130.71,0,0,1,675.28,15c0-.29-.43-.86-.65-.72-2,1.21-4.15,1.64-7.49,2.77-.8.22-1,.71-1,1s.74.68,1.82,1.07,1.38,1,1.38,1.6c0,2.12.22,6.6.22,11.86,0,11.21-.37,19.3-.51,22-.22,3.55-.36,4.83-3.71,5.54-.8.14-1.29.27-1.29.76s.27.59,1.73.59,4.72-.21,6.4-.21c1.3,0,4.43-.17,6.17-.17h3.5c1.52,0,4.73.17,6.4.17,1.3,0,4.42.21,6.17.21.87,0,1.48,0,1.48-.55s-.17-.55-1.26-.84" fill="#633cff"/>
    <path d="M712.53,33a14.3,14.3,0,0,1,2.37.78,1.6,1.6,0,0,1,.64,1c.08,1.28.44,3.7.47,4.2s-.22,1.27-.8,1.27c-.29,0-.75-.42-1.16-1.21-1.8-3.33-3.7-4.75-6.1-4.75-3,0-4.19,2.91-4.1,4.4.14,2.42,2.58,4.26,7.6,6.89,4.21,2.34,5.95,4.76,6.14,8s-2.07,5.68-3.81,7a12,12,0,0,1-6,1.63c-2.19,0-10.64-.42-14.66-.72-.23,0-.42-1.61,1.47-1.32,4.15.63,5.42-2.47,5.36-3.43,0-.78.06-1.5.5-1.5s1,.36,1.47,1.14c2.25,3.62,3.71,4.06,6.33,4.06a5.29,5.29,0,0,0,2.85-1.07,4.94,4.94,0,0,0,1.44-3.91c-.11-1.91-1.22-3.4-3.55-4.75-1.82-1.21-2.27-1.56-4.61-3s-4.74-3.84-4.93-7.17a6.89,6.89,0,0,1,3.62-6.4,10.7,10.7,0,0,1,5.73-1.48,17.09,17.09,0,0,1,3.73.42" fill="#633cff"/>
    <path d="M263.44,21l.23-3.95H232.82c-6.24,0-11-.35-13.36,2.16-2.07,2.21-1.56,3.87-1.4,5.5a1.32,1.32,0,0,0,2.63.06,9.38,9.38,0,0,1,.49-2.47c.29-.72,1-1.29,2.6-1.29H236.1V51.92c-.26,5.08-.11,6.39-5.63,7.63-.77.16-1.37.47-1.37,1.06s.6,1,2.32,1c1.11,0,4.75-.59,9-.59,3.79,0,8.37.42,9.06.42.86,0,2-.08,2-1,0-.58-.8-.85-1.92-1.11-5.33-1.17-5-2.18-5.44-5.95-.16-1.44-.24-4.33-.29-7.56V21Z" fill="#633cff"/>
    <path d="M749.68,15.92A36.06,36.06,0,0,0,754,14.34,11.33,11.33,0,0,1,758.85,13c1,0,1.23.29,1.37.81a17.6,17.6,0,0,0,.75,4.65c1.43,4,11,25,13.72,31.62.15.16.53.63.76.08.61-1.63,7.18-17.25,10.7-25.59,1.65-3.9,2.07-6.33,1.86-8-.41-3.18-.52-4.2.71-4.2,1.75,0,2.73-.06,4.34-.06,1.07,0,2,1.76,1.64,2.55-.43,1.07-1.5,2.57-2.45,5-3.11,7.92-7.22,17.15-9.74,23-3,7-6.11,14.88-7.42,18.34-.32.85-1.1,2-1.86,2a2,2,0,0,1-1.49-1.43c-.69-2.18-2.85-6.87-5-12.57-2.62-7-8.23-20.25-9.43-23-1.94-4.44-4-7.47-7-7.73-1.68-.14-2.35-.53-2.36-1.23s.81-1.06,1.69-1.31" fill="#633cff"/>
    <path d="M982.22,104.59l.89,0-.89,0" fill="#633cff"/>
    <path d="M984.32,104.49l-1.21.07,2.38-.07c-.47,0-.72,0-1.17,0" fill="#633cff"/>
    <path d="M651.11,105.13a.66.66,0,0,1-.15,0,.34.34,0,0,0,.15,0" fill="#633cff"/>
    <path d="M665,106.33a.77.77,0,0,1-.17.5h.67a.75.75,0,0,0-.17-.5Z" fill="#633cff"/>
    <path d="M673.5,106.83c.06-.4-1.26-.8-1.17-.17.07.37.82.07,1.17.17" fill="#633cff"/>
    <path d="M667,106.83c.15-.54-.26-.52-.33-.84-.53.4-.85,0-1.17.5.4.55,1,.13,1.5.34" fill="#633cff"/>
    <path d="M408.41,106c0,.44-.09,1,.34,1,0-.44.09-1-.34-1" fill="#633cff"/>
    <path d="M372,105.22h-.33c0-.14-.07-.15-.17-.17-.06-.32.76-.24.5.17m-3.17.33a.93.93,0,0,1-.17-.66c1,.62,2.31-.6,2.84.5a6.33,6.33,0,0,0-2.67.16m-1.84-.33c.46-.49.72-.42,1.51-.33-.42.53-.58.1-1.51.33m.34,1.51H367v-.34h.34Zm-.17-.67c-.05.22-.42.13-.67.16.05-.23.42-.13.67-.16m-2.17-.84c.55.4,1.28-.13,1.67.17-.17.21-1.76.43-1.67-.17m-2.34,1.51c.41-1.18,1.54-.59,2.67-1-.45.78-1.87.58-2.67,1m1.51-1.68h.33v.34h-.33Zm-105-.33c-.37.51-1.07-.19,0,0m-19,1.34c.25-.58,1.08-.39,1.67-.51a6.41,6.41,0,0,1,1.83-.33c-.7,1-2,1.25-3.5.84m-1-.84c1-1,2.17-.48,4-.5-.79.63-3.09.56-4,.5m.5-2.17c.35-.07.31.24.33.5-.13,0-.17-.16-.33-.16Zm-4.18,2c.66-.7,2.76-.28,3.51,0-1.09.62-2.35-.66-3.51,0m-1.67,1.17c0-.51,1.83-.87,2-.16a10.5,10.5,0,0,0-2,.16m171.61.34c-.23-.06-.14-.42-.17-.67.58-.15.29.54.17.67m11.35-1.67c.27,0,.28.15.5.16a.79.79,0,0,0-.17.5c-.29,0-.38-.28-.33-.66m2.67-.17a.46.46,0,0,1,.5.33c-.14.32-.1-.18-.33-.16s-.14.3-.17.5c-.38-.23-.63.43-.67,0-.05-.59.66.11.67-.67m-13.52,2.34c.42-.08.47-.53.67-.84.37.31.31.92.66.84.74,0,.25-1.2.67-1.51.3.79-.14,1.18,0,1.51.83-.28,1.45.15,1.51-1,0,.53.11,1,.66,1,3.17-.19,6.53,0,11.35,0,.33-.93-.83-1.69-.5-3.17-.91.09.48,2.17-.33,2.17,0-1.14-.51-1.29-.17-2.17-1.05-.11-.59-1.74-1.5-2-.77.76-.92-.45-1.17.34-1.73-.81-4.47-.5-7.34-.5-26,0-53.71.21-77.29.16-17.16,0-27.91,0-44.24,0-16.67,0-31.74.36-48.74.34-.54.13-.36,1-1.34.66.05-.19.95-.48.17-.49-12,.23-23.14-.23-34.56.16-16.59.56-38.21.67-54.41.67-30.37,0-56,.83-86.8.83-1.93,0-3.94-.26-5.85.34,34.25.82,71.56.48,104.33,1.33,5.58.14,33.35.45,40.56.34,6.45-.1,13.37,0,20.71.16,3.61.08,9.06.73,12.85.17.74-.11.38-.11.83-.33a31.08,31.08,0,0,0,6.84.5c15.54.21,100.09.35,110.18.33,2.31,0,4.9.45,6.84,0a5,5,0,0,0,1.5-.67c1,1.2,2.37.69,4.35.67a79.21,79.21,0,0,0,8.18-.33c.16,0,.76.23.83-.17.57,1.13,2.81.17,4.17.67.22-.52-.49-.93,0-1.17.45.93,1.42.54,1.67.84s.34-.14.5-.17.17.36.34.33c.38-.06.69-.52,1-.5,0,.24-.28.28-.33.5H383c.63.25.75.13.5-.5a1.26,1.26,0,0,0,2,.17c.07.66.71.3,1,.33,5.82.62,13.85-.19,19.37.17" fill="#633cff"/>
    <rect x="347.82" y="106.49" width="0.33" height="0.34" fill="#633cff"/>
    <path d="M35.5,104.15c-.3.1-1-.2-1,.17.3-.1,1,.2,1-.17" fill="#633cff"/>
    <path d="M33.49,104.15c-.67.12-1.77-.21-2.17.17.67-.1,1.78.22,2.17-.17" fill="#633cff"/>
    <path d="M41.84,104.15c-.78.12-2-.21-2.51.17.79-.11,2,.22,2.51-.17" fill="#633cff"/>
    <path d="M913.38,104.15c-.29.1-1-.2-1,.17.19.2.77.06,1-.17" fill="#633cff"/>
    <path d="M913.54,105a6,6,0,0,0,3,.33c4.17-.19,10.1-.24,14.52-.33s12.54.26,18.53,0c5.25-.23,13.28-.23,17.2-.33,5.44-.14,11.24.06,15.42-.07l.89,0,1.21-.07c.45,0,.7,0,1.17,0l-2.38.07-.89,0c-2.78.12,4.5,0,4.27-.27a2.77,2.77,0,0,0-.5,0c-25,0-47.52-.68-71.44-.66-.2,0-.19.26-.17.5-1.39-.08.53.63-.84.83" fill="#633cff"/>
    <path d="M816.06,105.66c-.42-.44.48-1,0,0m-23.53-1h.66a.35.35,0,1,1-.66,0m-114.36-.84c1.11-.87,2.25-.18,4-.16-1,.56-2.27,0-4,.16m1.5-1.67H680v.33h-.34Zm-8-.16a.45.45,0,0,1,.34.49.45.45,0,0,1-.34-.49M665,103.15c.27,0,.28.16.5.17.06.33-.76.25-.5-.17m-.33.67h-1.34c-.19-1.49,1.44.3.83-.83.35.1.64.26.51.83m-1.51-.83c-.11-.17-.38-.17-.33-.51.43.11.6-.06.5-.49.38,0,.18.48.5.49-.34.28-.46.77-1,.84-.06-.28.13-.31.33-.33m-1-.34h-.33c0-.14-.07-.15-.17-.17-.07-.32.76-.24.5.17m-1.17.67c.25.09.42.25.67.34-.07.37-1,.22-.67-.34m3.68-1c.33-.06.51,0,.5.33h-.5Zm-10.35,3c-.23-.06-.27-.3-.51-.34.07-.41.65,0,.51.34m-.67,1c0-.18.33-.12.33-.34-.07-.41-.76-.13-.5.34-1,0-1.67-.45-2.51-.17a1.31,1.31,0,0,1,.51-.34c-.08-.37-.83-.06-1.17-.16.06-.22.29-.26.33-.5-.45-.34-.65,0-1.17,0,0-.7,1.88-.17,1.65,0,.51-.13,1-.76,1.86-.3-.12.51-.12.31,0,.83.41,0,.81,0,.83-.33.32.06.68,1.24-.16,1m-5.68,0c-1.62-.14,1.36-.32,2-.17a4.47,4.47,0,0,1-2,.17m4.67-2.67h-.33v-.34h.33Zm.17-1.51c-.09.58-.65.1-1,0,.07-.37.88-.13,1,0m.5,2.51h.34V105h-.34Zm.84-1.51c0,.3-.29.39-.67.34-.17-.51.37-.3.67-.34m-243.72,3.51c-.28-.17-.18-.71-.34-1,.22.06.27.29.5.33,0,.3-.2.36-.16.67m-.34-1.67c.15,0,.16-.06.17-.16.33-.07.25.75-.17.5Zm-2.67-2c.18-.33.61.49.67.83-.83.34-.24-.76-.67-.83M874,104.49c.27,0,.29.16.5.17.07.32-.76.24-.5-.17m3.34,0c.14.47,1,.41,1.17,0,.19,0,.09.17,0,.17,0,.19,0,.3.16.33-.36.29-.66.22-1.5,0a.75.75,0,0,0,.17-.5m4.34.5c-.44.63-1.09,0-1.5,0,0-.19,0-.3-.17-.33.43-.42,1,.39,1.67.33m.67-.67c.72.07-.18,1,0,0m1.67.34c.45.15-.39.37-.33.67-.39,0-.19-.48-.51-.5.07-.58.92.24.84-.17m1,.67c-.46,0-.47-.41-.49-.84.47,0,.48.41.49.84m2.18-.5c.1.18-.82,0-1.34.33a.44.44,0,0,0-.33-.5,11.47,11.47,0,0,1,1.67.17M850.11,106c5-.13,10.39-.16,14.86-.17,4.21,0,10.36-.19,14.19-.33.9,0,2.25.49,3.34-.33.59.67,1.77.35,2.67.33,9.63-.16,14.16.24,22.37-.16.33,0,1.52.37,1.5-.5-.17-.63-.42.86-.67.16.09-.95.73-.42,1.34-.67,0,.48-.57.33-.34,1,1.34.28,2-.68,1.67-1.84-.8-.14-.62.72-1.33.67-2.59-.16-5.64.42-6.35-.67-.3.14-.46.43-.83.5.09-.72-.34-.12-.5-.17-2-.59-5-.43-7.52-.5-2.21,0-4.58,0-6.84,0-12.94,0-25.77-.3-39.06-.5-9.37-.14-19,.05-28.71-.34-14.37-.57-29.11.14-43.57-.49-8.27-.37-39,0-45.74-.17-12-.24-48.14,0-52.42-.17,0,.61,1.42.58.84,1.17-2.18-2.15-7.33-.54-10.69-1-.36,1.1.89,1.24.34,2-1.09-.56-1.62.18-3.17,0,.46-.66,1.52-.7,2-1.34-.68.2-1.11-.22-.67-.66h-7.68c-.38.92.35,1.09-.16,1.67.73.16.44,0,1-.17-.84,1-4,.47-5.34.34.56-.2,1.34-.17,2-.34.47-.13,1.86-.09,1-.84-.44,0,.44.65-.33.51-.71-.46,1-1.28,0-1-.89-.54.18.45-.5.66-.35-.18-.36-.18-.17.17-.39-.63-1.69.16-2.17-.17.2-.28,2.14-.3,1.34-.5-.3-.62-.49.1-1.17,0-.41-.42-.74-.29-1.17-.33-2.84-.29-5.78,0-8.51,0-19.31-.2-178.23-.08-190.47,0-1.59,0-3.88-.32-5.18,0-.74.18-.11.16-.83,0a9.53,9.53,0,0,0-2,0c-13.87-.22-26.47.15-39.9,0a38.86,38.86,0,0,0,1.67,3.67c-.15-1.22.28-.26.33-.83,1.14.21.27,1.47.83,2.33,55.74,0,216.31,0,234,0,2.38,0,4.63-.37,7.18-.33,1,0,2.16.22,3.68.17.72,0,1.68.29,2.33-.34-.67-.1-1.78.22-2.17-.16.44-.29,1.09-.37,1.34-.84-.76.2-1.38,0-1-.66a92.23,92.23,0,0,1,9.85-.17c1-.47,2.25.15,3.66-.34.88.65,1.69.36,2.51.51.51.34,0,.69.83.83,1.85-.76,3.73-.78,5.51-1.34,0,.45-.44,1-.17,1.67-.52.66.65-.26.5.67-.36-.09-1.07-.4-1.16.17,3.91.31,8.32,0,12.35,0,11.64,0,29.24.35,40.4.16,21.74-.35,50.93-.18,74.78-.66.25-.37,0-1.25.5-1.34-.17.38-.11,1-.33,1.34,2.08-.26,5.3.62,6.34-.67-.19.75.68.44,1,.67,6.3-.2,13.39-.17,19.86-.34,4.64-.12,12.93.16,18.86,0" fill="#633cff"/>
    <path d="M652.8,102.15c-.12-.13-.93-.37-1,0,.35.1.91.58,1,0" fill="#633cff"/>
    <path d="M663.82,102.49c-.32,0-.12-.56-.5-.5.09.43-.07.6-.5.5-.05.33.22.33.33.5-.2,0-.39.05-.33.33.54-.07.66-.56,1-.83" fill="#633cff"/>
    <path d="M671.66,102a.47.47,0,0,0,.34.5.45.45,0,0,0-.34-.5" fill="#633cff"/>
    <rect x="679.67" y="102.16" width="0.34" height="0.33" fill="#633cff"/>
    <path d="M661.65,102.49c.1,0,.19,0,.17.16h.33c.26-.41-.57-.49-.5-.16" fill="#633cff"/>
    <path d="M664.65,102.32v.33h.5c0-.29-.16-.39-.5-.33" fill="#633cff"/>
    <path d="M225.79,103v.33c.17,0,.2.14.34.17,0-.27,0-.58-.34-.5" fill="#633cff"/>
    <path d="M664.15,103c.62,1.13-1-.66-.83.83h1.33a.6.6,0,0,0-.5-.83" fill="#633cff"/>
    <path d="M654.14,103.15c-.3,0-.84-.16-.67.34.38,0,.63,0,.67-.34" fill="#633cff"/>
    <path d="M665,103.15c-.26.42.56.49.5.17-.22,0-.23-.21-.5-.17" fill="#633cff"/>
    <rect x="652.3" y="103.32" width="0.33" height="0.33" fill="#633cff"/>
    <path d="M661.65,103.66c-.25-.09-.42-.25-.67-.34-.31.56.6.71.67.34" fill="#633cff"/>
    <path d="M678.17,103.82c1.74-.14,3,.4,4-.16-1.76,0-2.91-.71-4,.16" fill="#633cff"/>
    <path d="M882.33,104.32c-.18,1,.72.07,0,0" fill="#633cff"/>
    <path d="M225.3,105.16c.91,0,3.21.12,4-.5-1.83,0-3-.49-4,.5" fill="#633cff"/>
    <path d="M874.49,104.66c-.22,0-.24-.22-.51-.17-.26.41.57.49.51.17" fill="#633cff"/>
    <path d="M880.16,105c.41,0,1.06.63,1.5,0-.62.06-1.24-.75-1.67-.33.13,0,.2.14.17.33" fill="#633cff"/>
    <path d="M885,105.33c0-.43,0-.87-.5-.84,0,.43,0,.86.5.84" fill="#633cff"/>
    <path d="M221.62,105c1.16-.66,2.42.61,3.51,0-.75-.28-2.85-.71-3.51,0" fill="#633cff"/>
    <path d="M245.32,104.66c-1.06-.2-.36.51,0,0" fill="#633cff"/>
    <path d="M353.16,105.16c.93-.23,1.09.2,1.5-.34-.78-.09-1-.16-1.5.34" fill="#633cff"/>
    <rect x="653.3" y="104.66" width="0.33" height="0.33" fill="#633cff"/>
    <path d="M792.52,104.66a.36.36,0,1,0,.67,0Z" fill="#633cff"/>
    <path d="M357.67,105c.1,0,.2,0,.16.17h.34c.26-.41-.57-.49-.5-.17" fill="#633cff"/>
    <path d="M403.24,105.49a.77.77,0,0,1,.17-.5c-.21,0-.24-.21-.5-.16-.05.37,0,.62.33.66" fill="#633cff"/>
    <path d="M410.2,104.83c0,.1,0,.19-.11.16v.34c.28.25.33-.57.11-.5" fill="#633cff"/>
    <path d="M653.8,105c.24,0,.28.28.51.33.14-.34-.44-.74-.51-.33" fill="#633cff"/>
    <rect x="350.32" y="104.99" width="0.33" height="0.33" fill="#633cff"/>
    <path d="M226.3,106c1.55.42,2.8.13,3.5-.83a6.35,6.35,0,0,0-1.83.33c-.59.12-1.43-.08-1.67.5" fill="#633cff"/>
    <path d="M351.16,105.16c-.09.59,1.5.38,1.67.17-.4-.31-1.12.22-1.67-.17" fill="#633cff"/>
    <path d="M220,106.16a10.4,10.4,0,0,1,2-.17c-.19-.7-2-.35-2,.17" fill="#633cff"/>
    <path d="M348.82,106.66c.8-.43,2.22-.23,2.67-1-1.13.42-2.26-.18-2.67,1" fill="#633cff"/>
    <path d="M410.42,106.66c0-.31.19-.37.17-.67-.24,0-.29-.27-.5-.33.15.29.05.83.33,1" fill="#633cff"/>
    <path d="M391.56,106.49c.11-.12.41-.82-.17-.67,0,.26-.06.62.17.67" fill="#633cff"/>
    <path d="M353.33,106c-.25,0-.62,0-.67.17.25,0,.62.06.67-.17" fill="#633cff"/>
    <path d="M648,106.33a4.46,4.46,0,0,0,2-.17c-.64-.15-3.62,0-2,.17" fill="#633cff"/>
    <rect x="353.16" y="106.33" width="0.33" height="0.33" fill="#633cff"/>
    <path d="M407.41,103c.43.07-.17,1.17.67.83-.06-.34-.48-1.16-.67-.83" fill="#633cff"/>
    <path d="M878.65,105c-.12,0-.19-.14-.16-.33.09,0,.19-.14,0-.17-.17.42-1,.46-1.17,0a.75.75,0,0,1-.17.5c.84.22,1.14.29,1.5,0" fill="#633cff"/>
    <path d="M885.83,105.16c.52-.3,1.44-.15,1.34-.34a12.38,12.38,0,0,0-1.67-.16.44.44,0,0,1,.33.5" fill="#633cff"/>
    <path d="M405.58,105.33c0-.2,0-.48.16-.51s.19.49.34.17a.45.45,0,0,0-.5-.33c0,.77-.72.08-.67.67,0,.42.29-.23.67,0" fill="#633cff"/>
    <path d="M653.8,105.33c0,.36-.42.35-.83.33a1,1,0,0,1,0-.84c-.83-.45-1.35.18-1.86.31a.34.34,0,0,1-.15,0l.15,0c.23-.14-1.62-.67-1.65,0,.52,0,.72-.34,1.17,0,0,.23-.27.28-.33.5.34.1,1.09-.21,1.17.16a1.31,1.31,0,0,0-.51.34c.84-.28,1.52.14,2.51.17-.26-.47.43-.75.5-.34,0,.22-.29.16-.33.34.84.24.48-.94.16-1" fill="#633cff"/>
    <path d="M883.67,105.33c0-.3.78-.52.33-.67.08.41-.77-.41-.84.16.32,0,.12.56.51.51" fill="#633cff"/>
    <path d="M354.83,104.83a.94.94,0,0,0,.17.66,6.32,6.32,0,0,1,2.67-.16c-.53-1.11-1.82.11-2.84-.5" fill="#633cff"/>
    <path d="M816.05,105.66c.49-1-.4-.44,0,0" fill="#633cff"/>
    <path d="M984.66,207.38a.45.45,0,0,0,.5-.34c-.26,0-.58,0-.5.34" fill="#633cff"/>
    <path d="M985.33,207.21c.41.25.3-.07.5.17s.33-.16.33-.17c.2-.19.94.27.84-.17-.3-.35-.47,0-.67,0s-.08-.2-.33-.16c0,0,0,.15,0,.16s-.7-.14-.67.17" fill="#633cff"/>
    <path d="M569.67,182.67a1,1,0,0,0-.83-.16c-.26.5.87.43.83.16" fill="#633cff"/>
    <path d="M573.68,183.51c.54-.14.52.26.84.33,0-.31.55-.12.5-.5-.4.1-1.22-.21-1.34.17" fill="#633cff"/>
    <path d="M573.35,182.67c-.4,0-.94.09-1.34,0-1-.2-1.69-.91-2.84-.66-.41-.1-.35-.65-1-.51-.12.46.33.34.34.67a5.33,5.33,0,0,1,2.16.34,4.41,4.41,0,0,0,1,.33s0,.15,0,.17.53,0,.67,0,.4.74.5.16c-.1,0-.19-.13,0-.16.63-.13.79.2,1.33.16,0-.55-.55-.46-.83-.5" fill="#633cff"/>
    <path d="M433,273.82c-.24.09-.86-.2-.84.17a.54.54,0,0,0,.84-.17" fill="#633cff"/>
    <path d="M429.12,273.82h-.67v.33c.3,0,.84.17.67-.33" fill="#633cff"/>
    <path d="M428.29,274.15c-.13,0-.2-.14-.17-.33h-.33c0,.17-.14.2-.17.33.29.12.51.19.67,0" fill="#633cff"/>
    <path d="M93.35,265.22c0,11.47-19.23,25.95-45.07,18.23-22-6.56-27.47-30.64-27.47-30.64H18.57v26.35s10.34,20.45,43.8,20.45c38.28,0,51-26.66,51-40.1,0-16-7.91-26.43-20-35a.56.56,0,0,1-.22-.11c-.12-.16-.88,0-1,0s-.13-.31-.17-.34a2.63,2.63,0,0,0-.5-.16c-.26-.14-.77-.1-.83-.51a3.12,3.12,0,0,1,1.21.07c-6.82-4.6-14.87-8.7-23.53-12.91C51.87,202.6,38,192,38,178.66c0-17.66,23.51-19.22,35-17.25,20.6,3.53,27.61,17.1,27.61,17.1h1.63V157.83s-12.81-7.5-26.16-8.9c-16-1.67-30.77,1.28-39.82,7.65-.8.57-1.58,1.18-2.33,1.8a5.42,5.42,0,0,1,0,1.09c-.93.22.65.48,0,.83-.31,0-.37-.18-.67-.16,0,.39.49.18.5.5-.59-.15-.41,0-1-.17.1.67-.49-.08-1,.17,0,0-.14.07-.31.1-8.32,8.61-11.91,21.13-10.21,31.4C23,203.63,29.9,214,51.17,226c.35-.39.62-.66.69-.58-.06.3.35.67.33.67s.28-.21.34-.17.26.94.67.5c.63-.72-.59-.65-.34-1.5.22,0,.23-.22.5-.17.22-.24.44,0,.67,0s.4-.51.83-.33c.14-.06.13-.06,0-.17s.33-.16.34-.17,0-.56.33-.5c.53-.19.44.05.84-.17s.29-.88.67-.49c.14.2.81.72,1,.33a3.08,3.08,0,0,1-.67-.5c.1,0,.23,0,.33,0s.1-.14.17-.17a6.57,6.57,0,0,1,.67-.33c.45-.12.34-.22.5-.5.25.08.42.25.67.33-.14-.6.35-.83.66-.5.1-.14.16-.46.34-.5.36-.09.28-.14.5-.33s.36-.17.5-.34.27,0,.33,0c.39-.27.53-1.08,1-.67,0,.37.6.08.84.17-.06.21.3.23.33.33.08.28-.36-.07-.33.17s.14.2.33.17c-.06.18-.2.4,0,.17.32,0,.37-.2.67-.17.36.24.9.32,1.17.66a3.21,3.21,0,0,0-1.34.17c-.53,0-.56-.45-1.16-.33a3.54,3.54,0,0,0-.67.5c-.21.17-.33.44-.67.5-.33.28-.21,0-.67,0,0,.13-.14.19-.33.17,0,.19,0,.47-.17.5,0-.25-.4-.16-.67-.17,0-.26-.27,0-.33.17.2,0,.39,0,.33.33a1.38,1.38,0,0,0-1-.16c.08.21-.28.09-.33.16s.3.3,0,.33c-.32.31-.42,0-.83,0a1,1,0,0,1-.17.67c.37.38-.44.15-.67.34,0,0,0,.28,0,.33-.13.5-.52.14-.67.5.54.16,1.21-.71.84,0,0,.1,0,.2-.17.17s-.32.24-.67.16c-.46.33.37.76-.33.67-.81.08-.65.86-.5,1.51,0,.21.23.08.33.17a5.58,5.58,0,0,1-.36.61c18.8,9.91,37.51,16.9,37.51,36.69" fill="#633cff"/>
    <path d="M967.22,172.74v98.78c0,13.4-.19,17.5-1.67,20.67a14.05,14.05,0,0,1-4.45,5.13v1.76h34.63v-2.39a13.45,13.45,0,0,1-5-5.9c-2.51-5.43-2.78-12-2.78-21v-61a3.22,3.22,0,0,1-.61-.51c0-.16-.46-.09-.67,0,0,0,0,.15,0,.17s-.28,0-.33,0,0,.36-.17.33h-.67c.06-.17-.09-.11-.16-.16-.43-.35.22-.29,0-.67-.05-.09-.39,0-.34-.17a3,3,0,0,1-1.5-.33c-.62-.15-.94-.07-1.33-.17-.11,0-.15-.16-.17-.17-.72-.21-1.43.07-1.84-.5-.57-.09-1.57.25-1.66-.33a2.17,2.17,0,0,1,.83-.5c.19-.07.25.27.5.17,0,0,0-.29,0-.34.2-.44,1.35.41,1.51-.17.47.09.24.88,1,.67.31-.17.69-.19,1-.33.1-.05.19-.26.34-.34s.61.1.5-.33c.4.05.1.79.67.67,0-.1,0-.19.16-.17s.14.19.17,0-.06-.61.17-.66c.61-.22.67-.44,1.17-.17.08,0,.1.26.33.17.4.06-.16.13-.17.16,0,.22.12.38.17.5s.1.19,0,.34c.22,0,.34.26.33-.17.37-.54,0-.31-.16-.5.24,0,.28-.27.5-.33a.67.67,0,0,1,.44.27V180.06c0-9.13.23-17.77,2.4-22.78a8,8,0,0,1,1.69-2.4s0,0,0-.08c-.88.34-2.23.27-3,.5-.51.15-.63.22-.83.5-.27,0-.13-.43-.5-.34-.16.25-.6.29-.84.34s-.78.06-1.17.16a5.76,5.76,0,0,0-.83.34c-.33.13-.75.25-1,.33-.44.14-.84.26-1,.33s-.12,0-.17,0-.14.17-.17.17a6.66,6.66,0,0,1-1,0s-.1.15-.16.17a.46.46,0,0,1-.5-.17c-.12-.14-.72.15-.68-.17a9.06,9.06,0,0,1,.68-.66,4.91,4.91,0,0,1,.5-.17c.09,0,.24,0,.33,0a36.46,36.46,0,0,1,3.67-1.16c.3-.1.48-.24.83-.34s1.05-.18,1.17-.34.28,0,.34,0c1.23-.35,2.25-.55,3.5-.83,1-.22,2.05-.46,2.84-.67a1.76,1.76,0,0,1,.38,0V151H963.64l-46.62,65-20-28.47-.33.06c0-.59-.5-.61-.5-1.16-.43-.24-1.18-.16-1.5-.5.12-1-.45-1.24-.5-2-.44.1-.61-.07-.5-.5-.3,0-.39-.29-.34-.67-.22-.33-.59-.2-.83-.33a1.85,1.85,0,0,1-.67-.67c-.24-.4,0-.62-.17-.83s0-.33.25-.63L871.37,151H838.8v1.61c1,1.07,3,2.06,4.26,5.39,1.34,3.68,1.84,12.92,1.84,22.11v88.39c0,9.55-.73,17.79-3,22.34s-5,5.92-5,5.92v2.37h32.81v-2.47a14,14,0,0,1-5.56-7c-1.73-4.52-2.4-12.82-2.61-19.35a4.84,4.84,0,0,0-.78.39,9.08,9.08,0,0,0-1.33.66c-.12.09-.24.27-.34.33s-.58.36-.83.51c-.1.06-.22.28-.34.33s-.48.12-.5,0c.46-.62.85-1.27,1.34-1.83a11,11,0,0,1,.83-.84c.15-.13.37-.19.5-.33s0-.27,0-.34.38,0,.34-.16a3.18,3.18,0,0,0,1.07-.65c0-.28,0-.56,0-.83,0,0-.06-.05-.06,0s0-.1.06-.11c0-.53,0-1,0-1.52v-94h.37l54.19,74.47,25.54-37a2.39,2.39,0,0,1-.35-.6c0-.11.18-.25.17-.33-.08-.37-.47,0-.67-.17,0,0,0-.27,0-.33s.25-.22,0-.34c-.31.34-.79.08-1.17,0a19,19,0,0,0-2.17-.67c-.08,0-.24-.27-.33-.33s-.32-.06-.5-.16-.23-.27-.34-.34a1,1,0,0,0-.67-.16c-.26-.67-1-1.3-.33-2,.34.11.11.78.5.84s1-.07,1.17.17a7.2,7.2,0,0,0,1.84.83c.89.89,2.38,1.18,3.34,2a3.19,3.19,0,0,0,.41.28l24.34-35.25Z" fill="#633cff"/>
    <path d="M746.7,176.77v94.62c0,9.1-1.16,15.12-3,19.56a12.17,12.17,0,0,1-5.23,6.09v2H774.7v-2.34a14.37,14.37,0,0,1-4.8-5.55c-2.55-5.38-3.57-10.7-3.57-19.8V198.51a1,1,0,0,1-.35-.31c0-.26-.27,0-.33.16a1.2,1.2,0,0,0-.5.34c-1.25.31-3.59,1.1-4-.5.29.44.63-.23.66.16.49,0,.52.38,1,.34.16-.18.27-.52.51-.67s.33-.08.66-.17c.13,0,.12-.15.17-.16s.71.12.83,0,0-.33,0-.34c.49-.08.43.75.5,0-.09,0-.19,0-.16-.16.77-.15.17.26.5.33,0-.17.13-.2.16-.33s.21-.29,0-.5c-.25,0-.61.06-.66-.17a1,1,0,0,0,.66-.33s.14,0,.17,0-.17-.52-.17-.51.13-.05.35-.07V177.35c0-9.19.47-15,2.27-19.23a10.82,10.82,0,0,1,4.75-5.3V151H739.76v1.77a1.32,1.32,0,0,1,.27.1,2.33,2.33,0,0,1,1.75-.36c.28.07.62.27.84.33l.5.17c.11,0,.13.15.16.17s.36-.16.33-.17a1.76,1.76,0,0,1,1,.5,3.63,3.63,0,0,1-1,.33c.26-.71-.64-.54-.83-.33a6.4,6.4,0,0,0-.92.66,14.22,14.22,0,0,1,2.8,4.32c2.17,4.82,2,13,2,18.33" fill="#633cff"/>
    <path d="M318.57,295.64c-7.46-2.07-13.54-9.92-15.25-12.63-1.22-1.95-6-9-11.46-16.89-.61,0-1.1-.2-1.29-.65.52-.08.38.51,1,.33a.37.37,0,0,0,0-.11l-.24-.34-.08-.05a1.71,1.71,0,0,0-.67-.5c-.26-.14-.86,0-.84-.49-.51-.13-.49.28-1,.16a3,3,0,0,1-.66-.5c.61.22,1.51.14,2.16.34l.37,0c-8.53-12.38-18.1-26.17-18.1-26.17a66.6,66.6,0,0,1-17.88-7.79,38.33,38.33,0,0,1-10-10.34l40.25-44.22c9-10.4,21.7-22.57,28.07-23.75v-2.26H273.37v1.39a7.09,7.09,0,0,1,2,2.91,14.48,14.48,0,0,1-.14,6.73c-.84,4.08-3.52,8.5-8.49,15.05-1.67,2.21-38.43,44.22-38.43,44.22s16.39,20.68,30.4,38.39h.84c.14,0,.14.16.17.16.54.12.74.11.83,0s.29,0,.33,0c.73-.08.86.29,1.34.34s.61-.27.83,0,.91,0,1,0c.33.05.68.26,1,.33s.94-.13,1.17.34a11.86,11.86,0,0,0-2.84.16c-.38.1-.83-.19-.67.34a10.86,10.86,0,0,0,2,0c.1,0,.23,0,.33,0s.19-.17.17-.17c.16,0,.2.16.33.17s.23-.19.5-.17a2,2,0,0,1,.83.33s.28,0,.34,0c.21.06.38,0,.5.17.15-.29.52-.36,1-.33a2.1,2.1,0,0,1,1.17.67c.58-.15.63,0,1.17-.34a2.86,2.86,0,0,0,.5.67c0-.2,0-.47.17-.5l.5.5a3.94,3.94,0,0,0,.5.5c.67-.2,1.22.44,1.33-.16-.42-.2-1.14-.09-1.17-.67.75-.26.36.76.84.16.09-.11.19.18.17.17.45.1,1,.05,1.5.17.21.05.2.28.33.33s.47-.06.67,0,0,.13.17.17c.38.09.83-.2.66.33-.75-.45-1.26-.13-2.33-.17-.14.55.55.28.83.34,0,0,0,.16,0,.17.22.27.77-.12,1,.16s2.16-.38,1.83.51c-.47.08-1-.26-1.67-.34-.34,0-.78.05-1.17,0-.18,0-.4-.33-.66-.33s-.31.24-.67.16c.06,0-.16-.16-.17-.16a1.74,1.74,0,0,0-1-.17c-.23,0-.15-.31-.34-.34s-.21.19-.33.17,0-.26-.17-.33c-.62-.36.08.59-.33.33-.24,0-.28-.27-.5-.33.06.46.5,1,.83.67.21,0,.11.18,0,.33,0,.39-.73.1-.83,0-.21.07-.09-.27-.17-.33s-.52.08-.5-.17c-.23.06-.36-.15-.5-.17s-.13.16-.17.17-.11-.15-.16-.17a9.53,9.53,0,0,1-1-.33c-.38.24.33.53-.33.5-.17,0-.2-.14-.33-.17s-.3-.21-.34,0c.39.33-.32,0-.5,0s0,.2-.16.17,0-.18-.17-.17-.36.16-.5.17c-.38,0-.86,0-1.34,0s-.82.17-1.17.17l-2.4-.08c8.91,11.26,16.17,20.47,16.45,20.91,1.72,2.66,4.37,9.16,1.27,11.8v2.79h.24a7.79,7.79,0,0,1,1.3-.7c.65-.27,1.72-.49,2-.84,0,0,.27,0,.33,0,.39-.11.44-.29.67,0,0,0,.46-.88.84-.5-.22.62-1.14.54-1.17,1.34-.32-.31-.48,0-.67.17.05-.05.25.08.16.16s-.68,0-.66.33c.51-.34,1.19.35,1.33-.49.42.21.52-.67.67-.17-.1.12.17.17.17.17,0,.25-1.14.24-.5.49,0-.23.4,0,.67,0a2.36,2.36,0,0,0,.83-.33,1.47,1.47,0,0,0,1.17.33c.17,0,.11-.08.17-.16s.27-.2.33-.33,0-.34.17-.34v.83c.4.09.47-.34.66-.49a7,7,0,0,0,.67-.51c-.47-.16.05-.71,0-1,.18-.12.77-.65,1-.17,0,.2-.18.11-.33,0-.33-.05-.34.23-.5.34a1.29,1.29,0,0,0,.16,1.34c-.13,0-.33,0-.33.16s-.19.14-.17.33c.53.08.44-.45.84-.49,0,0,0,.24-.06.53h3.57l.16,0c.05,0,0-.2.16-.16s0,.17.17.16c.59,0,.28-.09.67,0,.23.06.39-.19.5-.16s0,.16.17.16.13-.16.17-.16.32.15.53.2h.21a.18.18,0,0,0,.09,0c.33,0,.33-.22.5-.33a1.7,1.7,0,0,0,1,.37h.77l.57,0c.24,0,.35-.14.5-.16s.11.15.16.16.22-.16.34-.16.26.14.5.16c0,0,0-.19.17-.16s0,.16.16.16c.36,0,.33-.17.5,0a3.42,3.42,0,0,0,1,0,.07.07,0,0,1,.07,0h16.41Z" fill="#633cff"/>
    <path d="M609.51,162.84c26.4,0,34.07,8.3,34.07,24.3a30.67,30.67,0,0,1-20.89,29.34c-7.12,2.52-22,2.37-22,2.37s22.94,36.32,36.48,58.87c7.08,11.82,11.24,22.82,29.7,22.82h8.58v-2c-1.79-.68-6.82-7.54-15.88-22.08a280.16,280.16,0,0,1-15.4-29.21c-5.12,0-14.77-4.21-19.7-9s-9.15-9.88-9.15-9.88,12.9.89,29.66-8.65c14.52-8,18.76-25.12,18.76-34.33,0-10.58-5.64-23-16-28.6-11-5.92-32-5.88-45.54-5.88H559.36v2a8.84,8.84,0,0,1,1.3.14,11.35,11.35,0,0,0,1.5.33s0,.15,0,.17c.17.16.51,0,.67.16s.29,0,.33,0a3.22,3.22,0,0,1,.67.17c.53.16,1.1-.24,1.17.33a6.54,6.54,0,0,1-1.84-.16c-.51-.09-1.25-.51-1.49-.18a1.21,1.21,0,0,1-.49.35,14,14,0,0,1,3.87,5.09c1.78,4.14,2.21,11.51,2.28,19.62.31.05.5.1.51.16s-.16.19-.17.33.26.29,0,.5c.16.24.57.24.67.33s-.05.29,0,.34.71.27.67.67c.21,0,.23.21.5.16,0-.19,0-.47.16-.49.13.14.06.32.17.49s.22.2.34.34a16.64,16.64,0,0,1,3,.5c.55.14.8.13,1,.33s1.3-.22,1.51,0a4.24,4.24,0,0,0,1.83.84c.11.61.78-.39.84.17.18,0,.26.18.33.33.13.94-.5.17-.5.17s.17.49.17.5-.3,0-.34,0a2.34,2.34,0,0,1-1.17,0c-.46-.1-.54-.57-1-.67-.36.35-1,.12-1.33.17,0,0,0,.15-.17.16s-.21-.19-.34-.16-.28.26-.5.33c0-.25.06-.62-.16-.67s-.43-.24-.67-.33c.09.14-.16.14-.17.17s.17.3.17.33-.15.12-.17.17.21.29.17.33-.41-.35-.5-.33-.27.65-.5.5-.33-.45-.5-.67c.19,0,.18-.26.17-.5s-.3-.15-.34-.34c-.31,0-.36.2-.5.34a4.72,4.72,0,0,0-.5.5c-.19-.24-.18-.41.17-.5,0-.13,0-.17-.17-.17s-.21.17-.17.17c-.3,0-.38-.19-.67-.17-.13,0-.87,0-1.82.06v88.76c0,9.11.13,14.27-2.42,19.71-1.5,3.21-4.37,5.39-4.85,5.39v1.82h33.74v-1.91c-1.52-.62-4-3.27-5-6.73-1.72-5.84-2-11.08-2-18.28V218a12.31,12.31,0,0,1-.42-1.74c-.19-.53.26-.41.33-.67,0,0,0,0,.09-.07V162.84Z" fill="#633cff"/>
    <path d="M448.91,291.77c-2-3.73-2.62-13-2.62-22V242.65l0-4.67,29.4-61.67c5.83-11.32,11.66-22.56,17.83-23.74v-2.26h-31v1.39a8.85,8.85,0,0,1,2.6,2.91,13.87,13.87,0,0,1,1.13,6.51c-.12,4.08-2.81,9.87-5.23,15.26-.75,1.67-15.44,30.39-22.47,43-7.53-11.75-24.88-47.1-24.88-47.1-1.5-2.94-3.26-8.37-3.26-12,0-6,4.05-7.53,4.05-7.53V151H377.15v2.11a10.09,10.09,0,0,1,4.62,3c2.22,2.38,7.59,10.5,12.18,19.46l32.92,64.05v30.16c0,1.09,0,2.17,0,3.22l.14,0a7.83,7.83,0,0,0,3,.14,3.28,3.28,0,0,1,1.33-.17c.52.06.44.22.67,0s.54,0,.67,0a4.86,4.86,0,0,1,.83-.16c.48,0,.64.17.84.16s.18-.17.16-.16c.17,0,.2.14.34.16.5.08,1.11,0,1.5.34-.34-.15-.92.26-.5.33.09-.29.55,0,.67,0s.43.29.67.34.55-.21.83-.17c0,0,0,.15,0,.17l.5.16a5.91,5.91,0,0,0,1.33,0,6.87,6.87,0,0,1,.67.17c.07,0,0-.19.17-.17.58.07,1.24.58,2,.33.19,0,.26-.23.34,0-.38.6-1,.36-1.67.34,0-.38-.42.22-.84,0-.39.49.33-.39-.33-.16-.48,0-.7.3-1.17.32s-.84-.59-1.67-.5c0,.19-.24.26,0,.34,0,.23.49.19.17.33-.6.1-.94-.06-1-.49-.17.17-.91.62-1.17.16,0-.35.62-.16.67-.5a16.42,16.42,0,0,1-1.67.34c-.28,0-.1.45-.34.49-.39-.68-1.39.09-1.84-.33.43-.29.65.26.67-.34.33-.2-.2,0-.33,0s-.63.15-.84.18c-.48,0-.57-.33-.83,0-.11.13-.69-.12-.5.32.13.68,1.12-.13,1,.51-.61-.15-.89.29-1.17,0s.13-.49-.17-.83c-.61.25-1.79-.31-2.16.49.8-.1,1.09-.21,1.5.34a1.78,1.78,0,0,0-1.17,0c-.58.17-.47.43-1,.5s.35.55-.17.5c-.21.9,1.06,0,1,1-.25,0-.61-.06-.66.17.15.17.61,0,.5.49-.54-.12-.82-.24-.34.17-.11.42-.51-.24-.66-.32,0,.52,0,.84.16,1s-.17.2-.16.17-.1.06-.24.09c-.42,5.17-1.31,9.67-3.09,13a11.69,11.69,0,0,1-4.49,4.86v2h32.22c0-.13,0-.22,0-.22.25,0,.66.49.84,0a11.46,11.46,0,0,1-1.84-.84c-.27.12-.72-.33-.33-.33.37.27,1,.2,1.33.33.09,0,.2.27.34.33s1,.34,1.86.6v-1.71a16.08,16.08,0,0,1-4.44-5.47" fill="#633cff"/>
    <path d="M198.92,244.1c.23.39,1,.26,1.34.5a3.32,3.32,0,0,0,.67,1.34c.29.09,1-.2,1,.17-.33.27-.21,0-.67,0-.41.43.2.32.5.33s.11.15.17.17a13.15,13.15,0,0,1,1.34.33c.17-.37-.32-.33-.51-.5s-.08-.26-.16-.33-.49,0-.17-.17c.22-.31.41.09.67.17a4.15,4.15,0,0,0,1.16.16c.14,0,.16-.16.17-.16.25,0,.35.14.5.16a2.91,2.91,0,0,0,1.34,0c.39-.08.78.12,1,0s0-.51.33-.33,1.23.11,1.84.17c.39,0,.37.51.67.67,0,.22.29.15.33.33s.4.28.17.33c-.53.08-.38-.51-1-.33,0-.47-.29-.71-.84-.67.1.12-.16.17-.16.17s.37.29.33.33-.27,0-.33,0c-.27.05-.57-.06-.84,0s-.18.34-.33.34-.67-.47-.67,0c.49.22,1.5.29,1.67.49s.27,0,.33,0,0,.16,0,.17.28,0,.34,0a3.35,3.35,0,0,0,2.5.17c0,.64.93.41,1,1a.87.87,0,0,0,.67-.17c.37.25-.21.41.17.5.12-.42.44-.05.66,0,.42.11.87.31,1,.34s.22,0,.33,0c.43.09.91.26,1.34.33a4.53,4.53,0,0,1,1.16.17c.12-.73-.95-.27-1.16-.67a15.48,15.48,0,0,1,2.14-.07V180.62c0-9.12-.11-18.72,2.62-24.14a13.26,13.26,0,0,1,5-5.34v-1.37H190.67v1.67a14.67,14.67,0,0,1,5.54,5.51c2.65,5.23,2.66,14.55,2.66,23.67v63.44l0,0" fill="#633cff"/>
    <path d="M225.38,295.77a10,10,0,0,1-4.37-5.42c-1.78-4.57-2.08-14.48-2.08-23.52V252.22c-.84-.09-1.75-.28-1.47-.6-.41-.07-.37.3-.84.16.26-.7-.86,0-.83-.5.55-.39,1.5,0,2,.17-.31-.76.6-.29.67-.67a6.4,6.4,0,0,0-2.51-.33,5.34,5.34,0,0,0-1.33-.67h-.17c-.2.2,0,0-.33,0a4.12,4.12,0,0,1-1-.17,1.34,1.34,0,0,1-.5-.17c-.43-.28-1.22-.16-1.83-.33,0,0-.09-.13-.17-.17h-.17c-.13,0-.14-.16-.16-.16-.27-.06-.57.05-.84,0s-1.06-.62-1.17,0c.41-.24.5.24.67.33s.57,0,.67.33h2.17c.14.33.4.22.66.34.07,0,.1.3.17.33.46.21,1.22,0,1.51.5-1.31.1-2.42.32-3.34-.33,0,.16-.14.16-.34.17-.39,0-.37.64-.83.5-.1-.1-.79-.39-.83,0,.16,0,.2.29,0,.33-.3-.31-.94-.28-1-.83a1.46,1.46,0,0,1-1-.17l-.33-.17-.84-.33s-.12,0-.16,0-.14-.16-.17-.17c-.26-.06-.59.08-.84,0,0,0-.15-.65-.33-.17.09,0,.19.14,0,.17-.54,0-1.28.17-1.17-.5a6.31,6.31,0,0,0,1.67-.17c.51,0,.77.45,1.17.34.09,0,.17-.29.33-.34s.61.33.5-.16c-.32-.07-.75.08-1.16,0-.05,0-.27-.32-.34-.33-.49-.16-.87.13-.67-.51-.53-.21-.12.54-.67.34.13-.52-.57-.21-.33-.84-.9.18-1-.45-1.83-.33-.13-.54-1.09-.26-1.17-.84-.65.38-.78-.2-1.5-.17-.1.38.46.51.5.51s0-.24.17-.17.23.28.33.34.61-.1.5.33c-.29,0-.83-.47-1,0a24,24,0,0,0,2.5.5c.19,0,.48,0,.5.17-.69.12-.86-.26-1.5-.17-.15.41.45.49.67.5.39,0,.41.26.83.17s.22,0,.67.17c.23.08.63-.11.66.16-.3-.08-.49.13-.66.17a1.55,1.55,0,0,1-1,0c-.2-.05-.22,0-.33-.17s-.27,0-.33,0,0-.15,0-.16-.28,0-.33,0-.12-.28-.17-.34a2.65,2.65,0,0,0-.34-.33,8.18,8.18,0,0,1-1.72-.13v19.18c0,9,.32,19.35-1.68,23.4s-5,5.34-5,5.34v2.32h.71l.34-.2c.34-.14.41-.55.83-.5,0,.42-.65.23-.67.66a16.93,16.93,0,0,1,2.68,0,.45.45,0,0,1,.5-.33c0-.36.14-.53.5-.5-.07.14.21.24.16.34s-.43,0-.33.16.56,0,.67,0,0,.29.17.33.34-.06.33-.16c-.42.12-.78-.64-.5-.67s.15-.29.33-.33c.42.19-.41.69.34.67.35-.23-.29-1,.33-1,0,0-.13.34-.17.34.65.1.43-.69.84-.84.22,0,.5-.68.67-.16,0,.56-.88.74-.33,1.33-.5-.09-.13.24-.17.34s-.3,0-.34,0,.2.27.17.33c.39.46.86,0,1.33,0,0,0,0,.16,0,.16s.52-.16.51-.16c.22,0,.31.16.66.16l.47,0h11.43c.06,0,.11-.05.12,0l.07,0h1c.48-.08,1-.19,1.1,0,.39-.37.45-.14.84-.33.26,0,.13.43.5.33s.33-.22.5-.33c-.17.5.37.3.67.33.06-.51-1.18-.59-.67-1,.34,0,.42.6.67.51.07,0,0-.41.16-.34-.05.43.06.72.5.67.22-.42-.66-.52-.16-.67.27.35.85,1.26,1.5.67-.15-.15-1.16-.26-.67-.5.69.15,1.13.54,1.84.66-.15-.58.54-.28.66-.16.14-.58-.18-.71-.33-1-.37-.13-.9-.1-1-.5-.33-.05-.33.22-.5.33,0-.49-.75-1-1-.67a.63.63,0,0,1,.66.67c-.72-.12.14.33-.33.33a.45.45,0,0,1,0-.66c-.3-.09-.69-.09-.83-.34s0-.58-.34-.5a.81.81,0,0,0,.17.5c-.25-.24-.64-.25-.5.34-.28,0-.5.19-.67.33s-.32.35-.5.5c-.58-.14-.61-.88-.84-1.17,0-.06-.28,0-.33,0s.07-.41,0-.5c.47,0,.46.55.84.67.15-.31-.5-.56,0-.67,0,.35.67.87.83.5-.19,0-.12-.25.17-.16s.17.24.33.33c0-.48,0-.85-.33-1,0,.14-.14.2-.33.17,0-.47-.55-.45-.67-.83a1.26,1.26,0,0,1-1-.5c0-.06-.28,0-.34,0s0-.15,0-.17-.27.05-.33,0-.09-.27-.17-.33-.36-.06-.5-.17.05-.29,0-.33-.46-.06-.67-.17c0,0-.13-.29-.17-.33s-.27,0-.33,0-.19-.41-.34-.5-.73.1-.66-.34c.22.41.5-.3.66.17.49,0,.45.32.67.33s.43.32.67.34.07.11.17.16c.34.22.75.28.84.67.4-.07.36.3.83.17.17.22.16.62.5.67,0,.15.62.56.67.16-.09,0-.19-.14,0-.16a2,2,0,0,0,.83.5,3.44,3.44,0,0,1,1,.49l.51.34c.36.24,1,.38,1.16.5a1.1,1.1,0,0,1,.34.34c.11.13.56,0,.5.33.51-.12.49.29,1,.17-.31.29,0,.51.33.67.07-.29-.25-.44,0-.51.16.18.34.34.5.51s.24.43.5.49c0-.23.31-.16.7,0h.72Z" fill="#633cff"/>
    <path d="M217.29,296.52c0-.31-.11-.56-.34-.67-.26.25-.18.75.34.67" fill="#633cff"/>
    <path d="M206.44,250c-.06-.39-.11-.79-.67-.67-.08.52.42.47.67.67" fill="#633cff"/>
    <path d="M204.1,246.78c0,.21.46.21.5,0-.53,0-.56-.45-1.17-.34-.17.5.38.3.67.34" fill="#633cff"/>
    <path d="M218.12,252c.21,0,.23.21.5.16,0-.31-.13-.35-.33-.16,0-.26-.49-.12-.17,0" fill="#633cff"/>
    <path d="M259.35,259c.25.05.71.72.84.33-.31,0-.57-.85-.84-.33" fill="#633cff"/>
    <path d="M267.86,261.13c-.41.14-1.43-.33-1.33.34.51-.06,1.3.18,1.33-.34" fill="#633cff"/>
    <path d="M270.37,262c.3,0,.84.17.67-.33a.84.84,0,0,1-.83-.17l-.51-.16c-.21-.05-.22,0-.33-.17s-1.05,0-.84.17c.45.38,1.59.08,1.84.66" fill="#633cff"/>
    <path d="M247.17,232.92c.44,0,.54.23.5.67-.24-.15-.65-.14-.5-.67" fill="#633cff" fill-rule="evenodd"/>
    <path d="M212.44,248.11c.57.29-.2.46-.33.34s.42-.21.33-.34" fill="#633cff" fill-rule="evenodd"/>
    <path d="M264,248.28c.14,0,.15.06.16.17s.43-.07.67,0c.05,0,0,.15.17.16s.6.45.83.67.76.25.51.67c-.12-.16-.68,0-.84-.17s-.13-.12-.33-.17-.28-.22-.34-.17c-.21.22-.28.11-.67-.16-.31.3.14.43,0,1-.76-.32,0-1.29-.16-2" fill="#633cff" fill-rule="evenodd"/>
    <path d="M214.78,251.28c.27,0,.29.16.51.17.06.32-.77.24-.51-.17" fill="#633cff" fill-rule="evenodd"/>
    <path d="M216.79,252.11c-.06.34-.32,0-.34,0-.28,0-.93.16-1-.16.14-.82,1,.13,1.34.16" fill="#633cff" fill-rule="evenodd"/>
    <path d="M271,259.46a.94.94,0,0,0,.67.17c0,.19,0,.3.17.33-.15.35-.94,0-.84-.5" fill="#633cff" fill-rule="evenodd"/>
    <path d="M286.56,264c-.55,0-.83-.28-1.5-.17.13-.4,1.63-.63,1.5.17" fill="#633cff" fill-rule="evenodd"/>
    <path d="M285.4,265.64c0-.16.2-.13.33-.17h.5c0,.36-.59.07-.83.17" fill="#633cff" fill-rule="evenodd"/>
    <path d="M284.39,265.8c0-.41.57,0,.67,0-.11.51-.35-.15-.67,0" fill="#633cff" fill-rule="evenodd"/>
    <path d="M292.91,291.68c.48.49-.73.71-1.17.84.16-.52.92-.41,1.17-.84" fill="#633cff" fill-rule="evenodd"/>
    <path d="M293.74,293.52a.71.71,0,0,1-.83.16s.62-.49.83-.16" fill="#633cff" fill-rule="evenodd"/>
    <path d="M289.23,296.35c.73.07-.17,1,0,0" fill="#633cff" fill-rule="evenodd"/>
    <path d="M210.61,247.78c-.12.15-1.19-.5-.33-.34,0,0,0,.16,0,.17s.27,0,.33,0c.23.15,0,.46,0,.17" fill="#633cff" fill-rule="evenodd"/>
    <path d="M308.76,152.79c0-.14.07-.16.17-.16s.16.06.17.16c-.2,0-.3,0-.34.17-.6.12-.6-.29,0-.17" fill="#633cff" fill-rule="evenodd"/>
    <path d="M241.49,226.57c.21-.46.35.53.84.34,0,.24,0,.47.16.5-.27.32-.7-.62-1-.84" fill="#633cff" fill-rule="evenodd"/>
    <path d="M249.67,236.76c0-.16-.09-1.1,0-.83-.16-.47-.6-.36-.67-1,.32.08.3.48.84.34,0,.19,0,.3.17.33.13.47-.24.43-.17.83.07.16.14.3.33.34-.07.25-.21-.07-.5,0" fill="#633cff" fill-rule="evenodd"/>
    <path d="M203.6,244.27c0-.19.17-.09.17,0s.15-.07.16-.17c.52.21-.18.51-.33.17" fill="#633cff" fill-rule="evenodd"/>
    <path d="M208.61,158h-.67c.15-.54-.55-.24-.67-.5.08-.53.88-.12,1.17.16.08.08.19.14.17.34" fill="#633cff" fill-rule="evenodd"/>
    <path d="M206.1,245.44c.15-.56.38-.15.67,0,0,.43-.29-.23-.67,0" fill="#633cff" fill-rule="evenodd"/>
    <path d="M214.45,252.11c-.58-.26,1,0,.33.17-.26.07-.22-.11-.33-.17" fill="#633cff" fill-rule="evenodd"/>
    <path d="M274.38,260.13c.19,0,.09.17,0,.16-.05.44.65.14.5.67a1.12,1.12,0,0,0-.84-.16c-.14-.14-.1-.46-.33-.51.05-.58.62.43.67-.16" fill="#633cff" fill-rule="evenodd"/>
    <path d="M283.89,264c0,.36-1,.34-1.67.17,0,0,0-.16-.17-.17a1.12,1.12,0,0,1-.83-.34c-.12.33-.93,0-1,.34-.93-.24-1-1.37-1.83-1.67-.33-.12.17-.26.16,0,1.17-.13,1.8-.11,2.17.84.44-.23.46.19.67.33s.29-.06.33,0,.15.32.17.33a11,11,0,0,0,2,.17" fill="#633cff" fill-rule="evenodd"/>
    <path d="M281.39,262.63c-.24.46-1.2-.48,0,0" fill="#633cff" fill-rule="evenodd"/>
    <path d="M267.86,263c0,.14.07.15.17.17-.13.38-.58-.29-.83-.34-.07-.32.76-.24.5.17.17-.11.17-.39.5-.34-.07.15-.15.3-.34.34" fill="#633cff" fill-rule="evenodd"/>
    <path d="M280.89,264.14c0,.14-.07.15-.17.16-.55,0-.55.55-1,.5a3.46,3.46,0,0,0-.67-.5c.33-.47.8,0,1.17,0,.15,0,.37-.27.67-.16" fill="#633cff" fill-rule="evenodd"/>
    <path d="M292.91,293.85c0,.14-.07.15-.17.17-.57,0-1.08.67-1.5.33.18-.54,1.16-.28,1.67-.5" fill="#633cff" fill-rule="evenodd"/>
    <path d="M289.57,294.85c.48.1-.26.26-.17.5-.55-.16.19-.33.17-.5" fill="#633cff" fill-rule="evenodd"/>
    <path d="M208.61,289.18h.67c.4,0,.73.46,1,.66s.84.34.83.84c-.28-.06-.31.12-.33.33-.32-.24-.87-.25-1-.67a1.12,1.12,0,0,1-.84.17,2.52,2.52,0,0,1-.33-1.33" fill="#633cff" fill-rule="evenodd"/>
    <path d="M212.44,291.18c0,.36-.59.07-.83.16.24-.62-.46-.32-.33-.83.21.17.6.17.67.33s-.3.4,0,.34c0,0,0-.19.16-.17s.17.18.33.17" fill="#633cff" fill-rule="evenodd"/>
    <path d="M212.78,293.35c-.35.07-.44-.12-.67-.17,0-.48.79-.4.67.17" fill="#633cff" fill-rule="evenodd"/>
    <path d="M204.1,294c0,.85-1.53.24-1.5,1.16-.6-.32-.61.22-1.34.17-.25.24-.78.22-1,.5-.5-.11.16-.36,0-.67.39.07.65-.17,1-.33a5,5,0,0,0,.5-.17c.08,0,.28-.32.33-.33.3-.08.68.09,1,0s0-.24.16-.33.63.09.84,0" fill="#633cff" fill-rule="evenodd"/>
    <path d="M218.62,296.85c-.89-.22.1-1.32.17-.5,0-.1-.16.15-.17.17s0,.23,0,.33" fill="#633cff" fill-rule="evenodd"/>
    <path d="M199.76,296.19c.78-.15-.11.55.33.5-.07.41-.48-.16-.33-.5" fill="#633cff" fill-rule="evenodd"/>
    <path d="M215.79,294.68c.15.05.06.25,0,.5s-.17.14-.17.17c-.05.19.08.49,0,.67s-.16,0-.17.17-.2.12-.33.16c.41-.43-.16-.82,0-1.5.18,0,.11.33.33.33s.26-.4.34-.5" fill="#633cff" fill-rule="evenodd"/>
    <path d="M221,296.85c-.36-.35.87.12,1,.34-.09.29-.64-.34-1-.34" fill="#633cff" fill-rule="evenodd"/>
    <path d="M215,297.36c.21-.7.48.06.84.16-.12.42-.45-.31-.84-.16" fill="#633cff" fill-rule="evenodd"/>
    <path d="M285.06,297.52c0-.32.36-.19.5-.33.38-.38.05.29-.5.33" fill="#633cff" fill-rule="evenodd"/>
    <path d="M287.4,264.3c-.17.23-.45.33-.5.67-1.14.07-1.25.15-2.34.17.07-.33.65-.13.5-.67a8.21,8.21,0,0,1,2.34-.17" fill="#633cff" fill-rule="evenodd"/>
    <path d="M478.53,156c0,.25-1.09.67-1,0a.84.84,0,0,1,1,0" fill="#633cff" fill-rule="evenodd"/>
    <path d="M479,156h.34c0,.48-1.25,0-.34,0" fill="#633cff" fill-rule="evenodd"/>
    <path d="M479.87,159.47c.27-.05.28.15.5.17.07.32-.76.24-.5-.17" fill="#633cff" fill-rule="evenodd"/>
    <path d="M31.49,193.36c.57.07,1.13.76.84,1.16-.63,0-.65-.68-.84-1.16" fill="#633cff" fill-rule="evenodd"/>
    <path d="M66.55,221.07c-1.09-.17,1.72-.4,0,0" fill="#633cff" fill-rule="evenodd"/>
    <path d="M83.58,220.9c.06.28-.13.32-.34.34,0,.17.21.11.34.16s.38,0,.83.17c.08,0,.29.32.34.33s.32-.16.49-.17a4.61,4.61,0,0,1,.84.17,1.71,1.71,0,0,1,.67.34c.19,0,.09-.17,0-.17s.3-.21.33-.17,0,.29,0,.34.29-.06.34,0,.42.14.83.33c.08,0,0,.16.17.17.35,0,1,.76,1.66.66-.07.37-.82.07-1.16.17-.19-.26-.48-.41-.67-.66-1.49-.13-2.67-.56-4.17-.67-.09.74.75.4,1.16.5a8.69,8.69,0,0,0,2,.33c-.1.25-.3.24-.67.33-.11,0-.15.16-.17.17s-.44-.22-.5-.17,0,0-.16,0-.13.17-.17.17-.1-.15-.17-.17-.35.32-.83.17c.09-.71-.9-.32-.67-1.17h-.67c.18-.62-.35-.54-.5-.83v-.5a1.12,1.12,0,0,1,.84-.17" fill="#633cff" fill-rule="evenodd"/>
    <path d="M66.05,222.4c0-.38-.49-.18-.5-.5-.38.1.2.26-.17.5-.48-.07-.52-.59-1.17-.5.34-.38,1.39-.06,2-.17-.21.82.66.57.67,1.18a2.46,2.46,0,0,0-1.34-.34c0-.64.13-.06.5-.17" fill="#633cff" fill-rule="evenodd"/>
    <path d="M87.42,223.57c.47-.14.43.24.83.17,0,.27-1.09.34-.83-.17" fill="#633cff" fill-rule="evenodd"/>
    <path d="M68.72,227.41c.22.06.26.29.5.34-.07.41-.65,0-.5-.34" fill="#633cff" fill-rule="evenodd"/>
    <path d="M75.56,231.25c-.5.62-.56-.51,0,0" fill="#633cff" fill-rule="evenodd"/>
    <path d="M61.88,220.56c0,.44-.65.24-.67.68.32,0,1.1-.44.67-.68" fill="#633cff"/>
    <path d="M77.07,219.9c0-.43.55-.33,1-.33.08.63.09,1.34,1,1.16a.17.17,0,0,0,0-.33.17.17,0,0,1,.33,0c.31.16.57.08,1.17.17.26,0,.29.13.5.16.53.08,1.42-.24,1.34.51-.3,0-.35-.21-.67-.17.07.43.5.5.5,1-.63-.26-1.76,0-2.33-.34,0-.36.7-.07,1-.16-.25-.47-1-.46-1.67-.5-.12.45.34.32.5.5-.16.45-.59-.17-.84-.17-.26.25,0,.7.34.84,0,.43-.42-.15-.5-.17-.24,0-.62.1-.84,0s-.16-.46-.5-.5-.32.13-.33.33c-.73-.24.17-.37,0-1,.35.47.85.24,1.33,0-.29-.21-.43-.56-1-.5a.45.45,0,0,0-.33-.5" fill="#633cff" fill-rule="evenodd"/>
    <path d="M71.56,224.91c-.34.32-.08,1.26-.67,1.33.18.26.54.35.5.84.15.29.74.27.34.67h.5c-.77.64-1-.7-1.68-.67s.36.55-.16.5c-.12,0-.48-.1-.5-.17s.3-.25.33-.33c.13-.38.1-.69.33-.84,0-.49-.63-.36-.5-1,.55,0,.36.65.84.67.5-.46,0-1.29-.17-1.67-.78-.17-.55.67-1.33.5-.08-.36.24-.32.5-.33,0-.46-.39-.19-.67-.17,0,0-.17-.25-.17,0-.31.15-.1-1-.33-.33-.51-.21.9-.47,0-.67,0-.34.35,0,.33,0,.14,0,.27-.24.5-.17,0,0,0,.16.17.17s.21.28.33.33.27,0,.34,0c.3.23.48.75.83,1s.47,0,.67.17.16.24.34.33.32.07.5.17.24.29.33.33c.31.17.71.18,1,.34.11.06.18.25.34.33a7.64,7.64,0,0,1,1.17.84c.42-.28-.66-.45-.51-1-.51,0-.65-.36-1-.51.21-.24.48.07.67.17s.24.28.33.34.29-.06.34,0a4.89,4.89,0,0,0,1.33.66c.08,0,0,.16.17.17s.13.2.17.33c.21,0,.46-.06.66,0s.11.31.17.34c.25.12,1,.08.83.66-1-.26-1.5-1-2.66-1,0,.5.78.22,1,.51,0,.34-.74,0-.84.33s.21.35.17.67c0,0-.32,0-.33,0-.12.19.29,1.53-.34,1.33,0,.27.16.29.17.5s-.33.11-.33.34c-.32,0,.1-.23,0-.34-.28-.27,0-.2,0-.5s-.38-.67-.17-.83c0-.43.12-.2.33-.17-.08-.58-.58-.84.17-1a.79.79,0,0,1-.17-.5c-.11-.33-.44-.45-.83-.5a4.21,4.21,0,0,0-2.34-1.51c-.25-.3-.72-.39-1-.66" fill="#633cff" fill-rule="evenodd"/>
    <path d="M68.72,227.08a1.38,1.38,0,0,1-1,.5c.11-.14.26-.46,0-.5.12-.3.3,0,.5,0,.47,0-.21-1.09.5-.84a.54.54,0,0,0,.17.84c0,.19-.17.09-.17,0" fill="#633cff" fill-rule="evenodd"/>
    <path d="M269.37,248.94c-.12.5-1.51-.28-1.17.67-.67.12-.95-.16-1.5-.17-.28-.92,1.21-.21,1.5-.5,0,0,0-.16,0-.16.45,0,.8.26,1.17.16" fill="#633cff" fill-rule="evenodd"/>
    <path d="M265.2,250.11a.86.86,0,0,1,.83,1.34c-.25-.3-.15-.27-.83-.17-.14.64.8.2.66.83-.57.14-.64-.24-1.17-.16.33-.45-.15-.68.17-1.34.07-.14.45-.16.34-.5" fill="#633cff" fill-rule="evenodd"/>
    <path d="M242,229.25c-.12-.57.68-.22.5-.84.21,0,.19.41.34.5s.63,0,.83.17.1.23.17.33a7.62,7.62,0,0,0,.67.84v1.33c.16,0,.13-.2.16-.33.35,0,.08.48.51.5.19,0,.08.14.16.17s.53-.27.67,0c0,.18-.33.11-.33.33.29.55,1.09-.44,1,.51-.15,0-.16-.07-.17-.17-.25.07,0,.14,0,.33s-.17.16-.17.34c0-.19-.39-.06-.5-.17s0-.41-.16-.5-.52,0-.67-.17.06-.29,0-.33a6.61,6.61,0,0,1-.84-.84,6.24,6.24,0,0,1-1.17-1.67c-.52.08-.37-.52-1-.33" fill="#633cff" fill-rule="evenodd"/>
    <path d="M602.06,156.63c.09.07.43-.08.5,0s0,.32,0,.33c.33.12.54-.07,1,0-.27,1-1,.06-1.83.17.1-.17.38-.17.33-.5" fill="#633cff" fill-rule="evenodd"/>
    <path d="M585.87,193.69c0,.36-.14.53-.5.5a1.12,1.12,0,0,0-.34.5c-.54-.46.39-1.5.84-1" fill="#633cff" fill-rule="evenodd"/>
    <path d="M585.37,196a1.12,1.12,0,0,0-.84-.17c-.06-.82,1-.51.84.17" fill="#633cff" fill-rule="evenodd"/>
    <path d="M584.37,195.69c0,.6-.24.88-.84.84,0-.58.14-1,.84-.84" fill="#633cff" fill-rule="evenodd"/>
    <path d="M645.3,211.72a.9.9,0,0,1-1,1c-.4-.6.43-1.43,1-1" fill="#633cff" fill-rule="evenodd"/>
    <path d="M578.69,291.18a.7.7,0,0,0,.5.16c-.09.35-.26.36-.5.17Z" fill="#633cff" fill-rule="evenodd"/>
    <path d="M580,292.18c.5.14-.21.42,0,.83-.39,0-.09-.73,0-.83" fill="#633cff" fill-rule="evenodd"/>
    <path d="M580.36,292.85c.3.12,0,.3,0,.5-.29-.13,0-.31,0-.5" fill="#633cff" fill-rule="evenodd"/>
    <path d="M583,294.18c.25-.59.32.31.17.34s-.21-.24-.17-.34" fill="#633cff" fill-rule="evenodd"/>
    <path d="M578,178.5c.38.07.07.82.17,1.17.28.06.32-.13.33-.33.35.22.08.49.17.83s.46.6.5.84-.14.42-.16.66c0,0,.22.19.16.34s-.26,0-.16.17c-.48.13-.44-.24-.84-.17s-.07.82-.17,1.16c-1,.08-1.69-.2-2-.83-.31.16-.58-.16-.84-.16s-.43.16-.66.16c-.67,0-1.08-.46-1.84-.5.05-.23.42-.14.66-.17a4.86,4.86,0,0,0,2.85.17c-.14.29.77.28.49.17.33.14.33.47.84.5.49-.47-.5-.21-.33-.84,1-.78-.1-1.6,0-2.83.25-.33.7.28.83-.34" fill="#633cff" fill-rule="evenodd"/>
    <path d="M574.52,179.67c.45-.16-.24-.52,0-1,.27.25.41.56.66.83s.58.32.67.67-.26.62-.16,1.17c-.64-.08-.86-.6-.84-1.34-.61.11-1.14.31-1.5-.17-.25.08.06.22,0,.51-.21-.05-.46.06-.67,0s-.29-.33-.33-.34c-.26-.05-.25.16-.34.17s-.51-.35-.83-.17c0-.64.14-.06.5-.17s.07-.7.17-1c.19,0,.49.51.66.33,0,0,0-.5,0-.5.33,0,.17.46.67.33a.77.77,0,0,1,.83.17c.09.06.09.27.17.33s.37-.05.34.17" fill="#633cff" fill-rule="evenodd"/>
    <path d="M570.18,184.84c0-.26.9-.23.5.17.06-.06-.51-.18-.5-.17" fill="#633cff" fill-rule="evenodd"/>
    <path d="M580,185.35c.36.07.32-.24.34-.51.48.15.19.26.17.67a1.4,1.4,0,0,0,1.33.67c.08.7.82.74,1.17,1.17.51-.27-.29-.58-.5-.67.37-.52.77.33,1.17.34-.9.86,1,1,.83,2.17a.48.48,0,0,1-.33-.51c-.67.17-.51-.5-1.17-.33,0-.52-.83-.28-.67-1h-.66c0-.21-.48-1-.84-1s-.42-.66-.67-.84-.63-.11-.83-.33c-.05.43.06.72.5.67a.17.17,0,0,1-.34,0c-.23,0-.47,0-.49-.17,0,.24-2.12-.15-.51-.17a.91.91,0,0,1,.67-.16c.16-.67-.5-.51-.34-1.17.65,0,.46-.78,1.17-.67a8.25,8.25,0,0,1,0-3.17c.35.15.06.94.51,1,0,.39-.29.49-.17,1-.13.51.46.32.33.83.13.52-.46.33-.33.84-.27.05-.29-.16-.5-.17-.23.24-.36.83-.17,1s.31-.13.33-.33a.17.17,0,0,1,0,.33Z" fill="#633cff" fill-rule="evenodd"/>
    <path d="M758,211.72c.5.22.58.05,1.34.16.1.18.38.18.33.51-.49-.24-.45.26-.67.5s-.46,0-.33.34c-.3,0-.35.2-.67.16,0-.54-.2-.8-.67-.83.27-.25.59-.43.67-.84" fill="#633cff" fill-rule="evenodd"/>
    <path d="M757.14,216.39a2.14,2.14,0,0,1-1.84.67,1.63,1.63,0,0,1,1.84-.67" fill="#633cff" fill-rule="evenodd"/>
    <path d="M759,216.73c-.11.44-.76.35-.83.83-.23-.11-.31-.35-.34-.67.53.09.6-.29,1.17-.16" fill="#633cff" fill-rule="evenodd"/>
    <path d="M757.8,218.56c-.06-.32.77-.24.51.17H758c0-.14-.07-.15-.17-.17" fill="#633cff" fill-rule="evenodd"/>
    <path d="M768,295.69c.14-.49.54.09.83,0,0,.39-.73.09-.83,0" fill="#633cff" fill-rule="evenodd"/>
    <path d="M770.16,296.69c0-.2.3-.14.5-.17.38.29.65.69,1.33.67-.59.79-1.17-.36-1.83-.5" fill="#633cff" fill-rule="evenodd"/>
    <path d="M760.65,214.06a.17.17,0,0,0,.33,0c.34.23-.16.57.17,1-.29,0-.31.37-.5.51s-.3-.05-.34,0,0,.16,0,.16-.3,0-.33,0,0,.16,0,.17-.3,0-.34,0,0,.16,0,.17-.29-.05-.33,0,0,.15,0,.17-.29,0-.34,0,0,.15,0,.17-.29-.05-.33,0,0,.15,0,.16c-.24.09-.66-.13-.67.17-.33,0-.21-.46-.67-.33.07-.23,1.23-.54.34-.68.29-.53,1.07-.44,1.67-.67a5.1,5.1,0,0,0,.67-.32c.2-.13.64-.17.5-.51s-.59.17-.84.17-.08.27-.17.34-.25,0-.33,0a2.63,2.63,0,0,1-1.34.16c.12-.51-.16-.61-.16-1,.15-.08.3-.15.33-.34.68.17.68,0,1.5,0,.21-.27.15-.17.67-.33a2.76,2.76,0,0,0,.51-.17c.09-.05.25-.3.33-.33.35-.14.88-.12,1.34-.33,0,.14-.07.15-.17.16a1.52,1.52,0,0,0-.84,1.17c-.45-.12-.34.33-.66.34" fill="#633cff" fill-rule="evenodd"/>
    <path d="M858.13,154.46h.33c0,.47-1.24,0-.33,0" fill="#633cff" fill-rule="evenodd"/>
    <path d="M855.13,215.56h.5c.07.35-.12.44-.17.67a.72.72,0,0,1-.33-.67" fill="#633cff" fill-rule="evenodd"/>
    <path d="M857.3,216.23c.68-.06.08.34.16.66-.22,0-.14-.42-.16-.66" fill="#633cff" fill-rule="evenodd"/>
    <path d="M855,216.89c.44,0,.43.47.67.67.11.74-.51,1.6,0,2.17-.55.51-.36,1.76-.84,2.34-.4-.33,0-.61,0-1,.09-1.5.05-2.89.17-4.18" fill="#633cff" fill-rule="evenodd"/>
    <path d="M927.24,220.06c.6.46-.37,1.08,0,0" fill="#633cff" fill-rule="evenodd"/>
    <path d="M927.57,221.9c-.5.62-.56-.51,0,0" fill="#633cff" fill-rule="evenodd"/>
    <path d="M982.49,252c.24,0,.06.5.34.5-.19.54-.48-.16-.34-.5" fill="#633cff" fill-rule="evenodd"/>
    <path d="M857.13,273.65c.17.5-.38.3-.67.34a.73.73,0,0,1,.67-.34" fill="#633cff" fill-rule="evenodd"/>
    <path d="M856.8,291.85c-.47.21-.86-.32-1.17-.34s-.42-.31-.67-.5c-.06,0-.29.06-.34,0s0-.15,0-.17c-.26-.13-.67-.06-.83-.16s.05-.29,0-.34-.51-.09-.67-.33c.08-.37.83-.07,1.17-.17V290c-.43.17.73,0,.67.67a.94.94,0,0,1,.67-.17c.15.68,1.22.44,1.17,1.34" fill="#633cff" fill-rule="evenodd"/>
    <path d="M853.12,291c.18,0,.11.33.34.33,0,.37-.42.36-.84.34-.14-.54.43-.35.5-.67" fill="#633cff" fill-rule="evenodd"/>
    <path d="M850.12,292.68h.5c-.06.22-.3.26-.34.5-.19,0-.14-.3-.16-.5" fill="#633cff" fill-rule="evenodd"/>
    <path d="M971.14,294.68c.1-.07.21.3.17.33s-.27,0-.33,0-.24.29-.34.34-.34.09-.5.17,0,.13-.17.17-.23,0-.33,0c-.09-.93,1.19-.49,1.5-1" fill="#633cff" fill-rule="evenodd"/>
    <path d="M982,158c-.24.48-1,.39-1.17,1-.43,0,.23-.28,0-.67.52,0,.48-.52,1.17-.33" fill="#633cff" fill-rule="evenodd"/>
    <path d="M982.66,252.78c.54.4-.16.95-.17,1.34-.28-.14.08-1,.17-1.34" fill="#633cff" fill-rule="evenodd"/>
    <path d="M981.32,263.47c.22-.67.35,0,.84,0-.14.49-.42-.22-.84,0" fill="#633cff" fill-rule="evenodd"/>
    <path d="M855,275.15c-.29.21-.44.57-1,.5-.07-.56.72-.27,1-.5" fill="#633cff" fill-rule="evenodd"/>
    <path d="M979.82,290.17c.24-.33.89.33,1.17.51-.25.34-.75-.47-1.17-.51" fill="#633cff" fill-rule="evenodd"/>
    <path d="M852.62,290c-.17.5.37.29.67.33.21.41-.29.35-.5.51s-.61.55-.67.49v-.16a3.25,3.25,0,0,0-1.34,1c-.5-.12-.6.17-1,.17-.2.3-.56.22-.83.33-.11.05,0,.3-.17.33,0,0-.22-.25-.33-.16.37-.3.5-.83,1.16-.84.26,0,0-.2,0-.16.23-.42.76-.44,1.17-.67.32.05.2-.38.34-.5s.84,0,.67-.51c.47.14.43-.23.83-.16" fill="#633cff" fill-rule="evenodd"/>
    <path d="M1011,151.15a3.14,3.14,0,0,0-1.46-.26h-1v2.47h1.08a3.25,3.25,0,0,0,1.14-.15,1.22,1.22,0,0,0,.26-2.06m-1.3-1.08a5,5,0,0,1,1.86.25,1.69,1.69,0,0,1,1.06,1.72,1.49,1.49,0,0,1-.67,1.35,2.6,2.6,0,0,1-1,.33,1.65,1.65,0,0,1,1.17.67,1.86,1.86,0,0,1,.38,1.06v.49a4.52,4.52,0,0,0,0,.51.91.91,0,0,0,0,.36l0,.08h-1.13s0,0,0-.07,0,0,0-.08l0-.21V156a1.71,1.71,0,0,0-.64-1.57,3,3,0,0,0-1.34-.21h-.94v2.68h-1.21v-6.82Zm-3.65-.34a5.15,5.15,0,0,0-1.56,3.78,5.28,5.28,0,0,0,1.55,3.81,5.36,5.36,0,0,0,7.56,0,5.24,5.24,0,0,0,1.55-3.81,5.32,5.32,0,0,0-9.1-3.78m8.17,8.17a6.24,6.24,0,1,1,1.81-4.4,6,6,0,0,1-1.81,4.4" fill="#633cff"/>
  </g>
</svg>
