<svg id="Layer_1" data-name="Layer 1" xmlns="http://www.w3.org/2000/svg" viewBox="0 0 892.91 127.56">
  <g>
    <polygon points="506.18 63.91 564.85 36.33 575 19.28 548.42 19.28 482.25 53.08 501.48 19.28 464.81 19.28 411.92 107.28 447.22 107.28 467.29 76.28 478.96 76.28 513.81 107.28 522.1 107.28 533.6 88.32 506.18 63.91" fill="#633cff"/>
    <polygon points="580.26 87.28 588.49 73.28 680.56 73.28 691.36 55.28 600.61 55.28 608.83 41.28 699.64 41.28 712.95 19.28 583.62 19.28 530.72 107.28 660.05 107.28 672.29 87.28 580.26 87.28" fill="#633cff"/>
    <polygon points="387.37 63.91 446.05 36.33 456.19 19.28 427.82 19.28 361.65 53.08 380.88 19.28 344.81 19.28 291.91 107.28 327.81 107.28 347.89 76.28 359.55 76.28 394.4 107.28 403.3 107.28 414.79 88.32 387.37 63.91" fill="#633cff"/>
    <polygon points="858.54 3.28 804.75 76.39 769.22 19.28 721.57 19.28 668.67 107.28 729.71 107.28 762.63 88.28 716.59 88.28 742.83 45.57 791.95 121.28 806.85 121.28 892.42 3.28 858.54 3.28" fill="#633cff"/>
    <polygon points="159.18 89.28 121.34 89.28 150.36 42.28 185.95 42.28 199.86 19.28 0.5 19.28 42.97 43.28 112.48 43.28 57.33 124.28 78.9 124.28 158.77 89.81 159.18 89.28" fill="#633cff"/>
    <polygon points="202.91 87.28 211.13 73.28 303.8 73.28 314.6 55.28 223.25 55.28 231.47 41.28 322.88 41.28 336.19 19.28 209.01 19.28 154.09 107.28 283.29 107.28 295.53 87.28 202.91 87.28" fill="#633cff"/>
  </g>
</svg>
