<svg id="Layer_1" data-name="Layer 1" xmlns="http://www.w3.org/2000/svg" viewBox="0 0 650 95">
  <g id="F000000ff">
    <path d="M253.33,1.17h3.18a46.34,46.34,0,1,1-33.06,80.58A46.3,46.3,0,0,1,224.89,12,46.72,46.72,0,0,1,253.33,1.17M247.5,17.8c-12.4,3-21.81,14.68-22.55,27.34a30.84,30.84,0,0,0,16.34,29.71,29.26,29.26,0,0,0,31.91-3.47c11.07-8.87,14.37-25.67,7.71-38.15C275.05,21.22,260.49,14.27,247.5,17.8Z" fill="#633cff"/>
    <path d="M2,3.89c4.94-1,10-.49,15-.42,1.45-.23,1.51,1.69,1.54,2.65q0,29.56,0,59.14Q42.27,35.74,65.84,6.14c1.08-1.29,2.34-2.79,4.2-2.7,6.12-.19,12.26-.09,18.39.05-1.34,3.16-3.76,5.62-5.85,8.27Q51.71,50.4,20.83,89c-1,1.13-2.13,2.58-3.84,2.5a147,147,0,0,1-15-.11Z" fill="#633cff"/>
    <path d="M110.69,9.9c2.14-2.74,4.47-6.09,8.27-6.39a104.3,104.3,0,0,1,12.75,0c1.35.72.84,2.4,1,3.62,0,24.68,0,49.36,0,74.05,0,3.45.24,6.93-.36,10.35-4.77.13-9.54.19-14.31.06-1.75.15-3.05-1.16-4-2.4-7.57-9.47-15.09-19-22.72-28.38Q80,74.88,68.75,89c-1,1.13-2.06,2.59-3.75,2.56-6.14.24-12.29.06-18.44,0-.17-1.6,1.13-2.72,2-3.91Q79.66,48.83,110.69,9.9M100.46,47.48q7.8,9.8,15.63,19.56c0-13,0-26,0-39C110.81,34.47,105.68,41,100.46,47.48Z" fill="#633cff"/>
    <path d="M152.56,7.24C152.77,6,152,3.61,154,3.47c5,.08,10.3-.79,15.21.55q-.08,35.94,0,71.88c12.76.1,25.52-.2,38.26.17-1.65,3.88-5,6.69-7.34,10.1-2,2.2-3.58,5.79-7.07,5.45-13.41-.1-26.83.3-40.22-.21C152.29,63.36,152.74,35.29,152.56,7.24Z" fill="#633cff"/>
    <path d="M315.76,8.24c.15-1.73-.68-5.1,2.1-4.84,22.06-.08,44.13,0,66.19,0,1.12-.08,3.19.15,2.85,1.8,0,6.57.4,13.21-.24,19.74-6.69,9.47-14.45,18.21-21.55,27.39C374.56,64.1,384,76,393.46,87.72c.87,1.15,1.93,2.31,2,3.84-6.14.08-12.28.18-18.42,0-2.26,0-3.44-2.25-4.76-3.73-9.3-12-19.17-23.52-28.19-35.7,8.69-11.07,17.58-22,26.3-33q-19,0-38,0c-.14,24.09.26,48.19-.2,72.27a107.89,107.89,0,0,1-16.18,0C315.5,63.68,316,36,315.76,8.24Z" fill="#633cff"/>
    <path d="M409.24,6.09c-.13-1.1.23-2.94,1.75-2.66,4.79,0,9.65-.39,14.4.23,2.39,1.21,3.67,3.79,5.4,5.73Q461.89,48.27,493,87.15c1,1.35,2.43,2.61,2.39,4.43-6.09,0-12.2.17-18.29,0-1.72.09-2.86-1.35-3.86-2.52Q462,74.9,450.66,60.8c-7.6,9.41-15.13,18.9-22.68,28.36-1,1.22-2.27,2.56-4,2.43-4.36.1-8.74.12-13.1,0-1.92.27-1.56-2.19-1.65-3.34q0-41.07,0-82.13M425.81,28c0,13,0,26,0,39.05,5.25-6.49,10.45-13,15.66-19.55C436.2,41,431.07,34.44,425.81,28Z" fill="#633cff"/>
    <path d="M482.9,4.07c2.37-1.45,5.48-.4,8.14-.71,3.26.35,7.53-1.14,9.87,1.9q24.06,30,48,60c.11-20.36-.23-40.74.16-61.08l1.06-.72c4.58-.21,9.2-.19,13.79,0,2.07-.06,1.4,2.48,1.58,3.76-.17,28.06.26,56.13-.21,84.17-4.75.43-9.52.25-14.28.22-1.8.15-3.19-1-4.19-2.38q-23.77-29.74-47.55-59.48c-.12,12.27.21,24.55-.17,36.81A5.8,5.8,0,0,1,496,64.19c-3.94-5.08-8.05-10-12-15.1-1.7-1.92-1.22-4.6-1.31-7C482.86,29.45,482.37,16.74,482.9,4.07Z" fill="#633cff"/>
    <path d="M577.17,4.24c.88-1.15,2.52-.74,3.78-.9q24.51.06,49,0c2.5.23,5.54-.63,7.64,1.13,3.73,4,6.95,8.51,10.39,12.78v1.83c-9.87.06-19.74,0-29.61,0-.1,24.12.3,48.24-.12,72.35A138,138,0,0,1,602,91.4c-.29-24.09-.08-48.19-.2-72.29-7.91-.15-15.84.25-23.73-.16l-.9-.91A99.31,99.31,0,0,1,577.17,4.24Z" fill="#633cff"/>
  </g>
</svg>
