<svg width="833" height="135" viewBox="0 0 833 135" fill="none" xmlns="http://www.w3.org/2000/svg">
<path fill-rule="evenodd" clip-rule="evenodd" d="M48.5 135C69.763 135 87 117.763 87 96.5C87 75.237 69.763 58 48.5 58C27.237 58 10 75.237 10 96.5C10 117.763 27.237 135 48.5 135ZM54.5 72.9883H46.0918L32.5859 82.8906L37.0977 89.5117L44.5977 84.4727V115H54.5V72.9883Z" fill="#B0F7B0"/>
<circle cx="293.5" cy="96.5" r="36" stroke="#9B9BA2" stroke-width="5"/>
<path d="M279.109 116V109.086L293.201 91.0977C294.393 89.5938 294.988 87.9922 294.988 86.293C294.988 85.0625 294.686 84.1055 294.08 83.4219C293.494 82.7383 292.742 82.3965 291.824 82.3965C290.906 82.3965 290.154 82.7383 289.568 83.4219C288.982 84.1055 288.689 85.0625 288.689 86.293V88.4023H279.109V86.6738C279.109 82.6699 280.34 79.457 282.801 77.0352C285.262 74.6133 288.348 73.4023 292.059 73.4023C295.672 73.4023 298.709 74.4961 301.17 76.6836C303.65 78.8516 304.891 81.6348 304.891 85.0332C304.891 87.084 304.461 89.0859 303.602 91.0391C302.742 92.9727 301.375 95.0918 299.5 97.3965L291.414 107.299H304.891V116H279.109Z" fill="#9B9BA2"/>
<circle cx="538.5" cy="96.5" r="36" stroke="#9B9BA2" stroke-width="5"/>
<path d="M536.648 116.586C533.035 116.586 529.988 115.502 527.508 113.334C525.027 111.146 523.787 108.354 523.787 104.955V102.494H533.104V103.988C533.104 105.238 533.396 106.205 533.982 106.889C534.588 107.572 535.398 107.914 536.414 107.914C537.43 107.914 538.23 107.572 538.816 106.889C539.402 106.205 539.695 105.238 539.695 103.988V102.201C539.695 100.99 539.393 100.043 538.787 99.3594C538.201 98.6562 537.303 98.3047 536.092 98.3047H532.811V90.8047H536.092C538.104 90.8047 539.109 89.7012 539.109 87.4941V85.4141C539.109 84.3594 538.865 83.5488 538.377 82.9824C537.889 82.3965 537.234 82.1035 536.414 82.1035C535.594 82.1035 534.93 82.3965 534.422 82.9824C533.934 83.5488 533.689 84.3594 533.689 85.4141V86.5859H524.402V84.8574C524.402 81.5371 525.584 78.8027 527.947 76.6543C530.33 74.4863 533.27 73.4023 536.766 73.4023C540.262 73.4023 543.172 74.4375 545.496 76.5078C547.84 78.5781 549.012 81.2246 549.012 84.4473V85.6484C549.012 89.2031 547.586 92.123 544.734 94.4082C546.258 95.4629 547.449 96.752 548.309 98.2754C549.168 99.7988 549.598 101.488 549.598 103.344V105.131C549.598 108.432 548.338 111.166 545.818 113.334C543.299 115.502 540.242 116.586 536.648 116.586Z" fill="#9B9BA2"/>
<circle cx="783.5" cy="96.5" r="36" stroke="#9B9BA2" stroke-width="5"/>
<path d="M782.908 116V107.299H768.201V99.5059L782.586 73.9883H792.195V99.7988H797V107.299H792.195V116H782.908ZM775.877 99.7988H782.908V86.9668L775.877 99.7988Z" fill="#9B9BA2"/>
<line x1="106" y1="96" x2="236" y2="96" stroke="#9B9BA2" stroke-width="2" stroke-linecap="round"/>
<line x1="351" y1="96" x2="481" y2="96" stroke="#9B9BA2" stroke-width="2" stroke-linecap="round"/>
<line x1="596" y1="96" x2="726" y2="96" stroke="#9B9BA2" stroke-width="2" stroke-linecap="round"/>
<path d="M14.2247 5.72C15.7314 5.72 16.898 6.10667 17.7247 6.88C18.5514 7.64 18.9647 8.69333 18.9647 10.04C18.9647 11.4 18.5514 12.4667 17.7247 13.24C16.898 14 15.7314 14.38 14.2247 14.38H10.0047V20H8.20469V5.72H14.2247ZM13.9647 12.84C14.978 12.84 15.758 12.6067 16.3047 12.14C16.8514 11.66 17.1247 10.96 17.1247 10.04C17.1247 9.12 16.8514 8.42667 16.3047 7.96C15.758 7.48 14.978 7.24 13.9647 7.24H10.0047V12.84H13.9647ZM30.4417 17C30.1484 17.92 29.6217 18.6933 28.8617 19.32C28.1017 19.9333 27.0551 20.24 25.7217 20.24C24.7751 20.24 23.9351 20.0133 23.2017 19.56C22.4684 19.1067 21.8951 18.4667 21.4817 17.64C21.0817 16.8 20.8817 15.8333 20.8817 14.74C20.8817 13.6467 21.0817 12.6867 21.4817 11.86C21.8817 11.02 22.4417 10.3733 23.1617 9.92C23.8951 9.46667 24.7417 9.24 25.7017 9.24C26.6751 9.24 27.5351 9.48 28.2817 9.96C29.0417 10.4267 29.6217 11.1067 30.0217 12C30.4217 12.88 30.5884 13.9267 30.5217 15.14H22.5817C22.6084 16.2467 22.9084 17.1467 23.4817 17.84C24.0551 18.52 24.8017 18.86 25.7217 18.86C26.5751 18.86 27.2417 18.6533 27.7217 18.24C28.2151 17.8267 28.5551 17.34 28.7417 16.78L30.4417 17ZM25.7017 10.62C24.8084 10.62 24.0884 10.9267 23.5417 11.54C23.0084 12.1533 22.7017 12.9133 22.6217 13.82H28.8017C28.7217 12.9133 28.4084 12.1533 27.8617 11.54C27.3151 10.9267 26.5951 10.62 25.7017 10.62ZM33.4563 9.48H35.0563V11.28H35.1163C35.3963 10.6533 35.8229 10.16 36.3963 9.8C36.9696 9.42667 37.6429 9.24 38.4163 9.24C38.7229 9.24 39.0229 9.26667 39.3163 9.32V10.94C38.8763 10.9 38.5496 10.88 38.3363 10.88C37.3629 10.88 36.5829 11.18 35.9963 11.78C35.4229 12.38 35.1363 13.3 35.1363 14.54V20H33.4563V9.48ZM48.0989 12.54C47.9656 11.9267 47.6522 11.4467 47.1589 11.1C46.6656 10.74 46.0922 10.56 45.4389 10.56C44.7456 10.56 44.1922 10.7133 43.7789 11.02C43.3656 11.3267 43.1589 11.74 43.1589 12.26C43.1589 12.7267 43.3456 13.0667 43.7189 13.28C44.0922 13.4933 44.6256 13.66 45.3189 13.78L46.4389 13.96C47.5322 14.1467 48.3789 14.4533 48.9789 14.88C49.5922 15.2933 49.8989 15.9933 49.8989 16.98C49.8989 18.02 49.4922 18.8267 48.6789 19.4C47.8789 19.96 46.8456 20.24 45.5789 20.24C44.3122 20.24 43.2656 19.94 42.4389 19.34C41.6256 18.74 41.1456 17.9467 40.9989 16.96L42.5389 16.62C42.6856 17.3667 43.0322 17.94 43.5789 18.34C44.1256 18.7267 44.7989 18.92 45.5989 18.92C46.3589 18.92 46.9789 18.7533 47.4589 18.42C47.9389 18.0733 48.1789 17.6133 48.1789 17.04C48.1789 16.5333 47.9789 16.1667 47.5789 15.94C47.1922 15.7133 46.5989 15.5267 45.7989 15.38L44.6989 15.18C43.6989 15.0067 42.9056 14.7133 42.3189 14.3C41.7322 13.8867 41.4389 13.2133 41.4389 12.28C41.4389 11.6933 41.6056 11.1667 41.9389 10.7C42.2856 10.2333 42.7656 9.87333 43.3789 9.62C43.9922 9.36667 44.6856 9.24 45.4589 9.24C46.1789 9.24 46.8389 9.37333 47.4389 9.64C48.0522 9.90667 48.5456 10.2667 48.9189 10.72C49.3056 11.1733 49.5456 11.6667 49.6389 12.2L48.0989 12.54ZM57.1117 9.24C58.0984 9.24 58.9651 9.46667 59.7117 9.92C60.4717 10.3733 61.0584 11.0133 61.4717 11.84C61.8851 12.6667 62.0917 13.6333 62.0917 14.74C62.0917 15.8467 61.8851 16.8133 61.4717 17.64C61.0584 18.4667 60.4717 19.1067 59.7117 19.56C58.9651 20.0133 58.0984 20.24 57.1117 20.24C56.1251 20.24 55.2517 20.0133 54.4917 19.56C53.7451 19.1067 53.1651 18.4667 52.7517 17.64C52.3384 16.8133 52.1317 15.8467 52.1317 14.74C52.1317 13.6333 52.3384 12.6667 52.7517 11.84C53.1651 11.0133 53.7451 10.3733 54.4917 9.92C55.2517 9.46667 56.1251 9.24 57.1117 9.24ZM57.1117 18.86C58.0984 18.86 58.8851 18.4933 59.4717 17.76C60.0717 17.0133 60.3717 16.0067 60.3717 14.74C60.3717 13.4733 60.0717 12.4733 59.4717 11.74C58.8851 10.9933 58.0984 10.62 57.1117 10.62C56.1251 10.62 55.3317 10.9933 54.7317 11.74C54.1451 12.4733 53.8517 13.4733 53.8517 14.74C53.8517 16.0067 54.1451 17.0133 54.7317 17.76C55.3317 18.4933 56.1251 18.86 57.1117 18.86ZM66.6188 9.48V10.98H66.6788C66.9988 10.4333 67.4521 10.0067 68.0388 9.7C68.6254 9.39333 69.2788 9.24 69.9988 9.24C71.0788 9.24 71.9721 9.56 72.6788 10.2C73.3854 10.84 73.7388 11.7667 73.7388 12.98V20H72.0588V13.56C72.0588 12.5467 71.8521 11.8133 71.4388 11.36C71.0388 10.8933 70.4121 10.66 69.5588 10.66C69.0521 10.66 68.5788 10.7867 68.1388 11.04C67.7121 11.2933 67.3654 11.6867 67.0988 12.22C66.8321 12.74 66.6988 13.3867 66.6988 14.16V20H65.0188V9.48H66.6188ZM85.4081 18.68C85.6081 18.68 85.8081 18.6467 86.0081 18.58V20C85.8348 20.0667 85.4948 20.1 84.9881 20.1C84.4415 20.1 84.0215 19.9867 83.7281 19.76C83.4481 19.5333 83.2815 19.18 83.2281 18.7H83.1681C82.8081 19.2333 82.3015 19.6267 81.6481 19.88C80.9948 20.12 80.3215 20.24 79.6281 20.24C79.0281 20.24 78.4815 20.1133 77.9881 19.86C77.4948 19.6067 77.1015 19.2467 76.8081 18.78C76.5148 18.3 76.3681 17.7533 76.3681 17.14C76.3681 16.0467 76.7281 15.26 77.4481 14.78C78.1815 14.2867 79.2481 13.9533 80.6481 13.78C81.3415 13.6867 81.8681 13.5933 82.2281 13.5C82.5881 13.3933 82.8348 13.2667 82.9681 13.12C83.1148 12.9733 83.1881 12.7733 83.1881 12.52C83.1881 11.9333 83.0015 11.4733 82.6281 11.14C82.2548 10.8067 81.6748 10.64 80.8881 10.64C80.2881 10.64 79.7481 10.7933 79.2681 11.1C78.8015 11.4067 78.4748 11.9067 78.2881 12.6L76.7481 12.22C76.9881 11.26 77.4815 10.5267 78.2281 10.02C78.9881 9.5 79.8948 9.24 80.9481 9.24C82.2948 9.24 83.2815 9.53333 83.9081 10.12C84.5481 10.7067 84.8681 11.4933 84.8681 12.48V18C84.8681 18.2533 84.9148 18.4333 85.0081 18.54C85.1015 18.6333 85.2348 18.68 85.4081 18.68ZM83.1881 14.38C83.0415 14.5533 82.7548 14.6867 82.3281 14.78C81.9148 14.8733 81.3015 14.9733 80.4881 15.08C79.8215 15.1733 79.2548 15.3867 78.7881 15.72C78.3215 16.04 78.0881 16.5067 78.0881 17.12C78.0881 17.6667 78.2548 18.1 78.5881 18.42C78.9215 18.7267 79.3748 18.88 79.9481 18.88C80.4548 18.88 80.9548 18.78 81.4481 18.58C81.9415 18.38 82.3548 18.0533 82.6881 17.6C83.0215 17.1333 83.1881 16.5333 83.1881 15.8V14.38ZM89.9214 20H88.2414V5.52H89.9214V20ZM6.95961 44.24C6.03961 44.24 5.21961 44.0133 4.49961 43.56C3.77961 43.1067 3.21961 42.4667 2.81961 41.64C2.41961 40.8 2.21961 39.8333 2.21961 38.74C2.21961 37.6467 2.41961 36.6867 2.81961 35.86C3.21961 35.02 3.77961 34.3733 4.49961 33.92C5.21961 33.4667 6.03961 33.24 6.95961 33.24C7.73294 33.24 8.42628 33.4067 9.03961 33.74C9.65294 34.06 10.1063 34.5067 10.3996 35.08H10.4596V33.48H12.0596V47.68H10.3796V42.48H10.3196C10.0396 43.0267 9.59961 43.46 8.99961 43.78C8.39961 44.0867 7.71961 44.24 6.95961 44.24ZM7.23961 34.62C6.23961 34.62 5.43961 34.9933 4.83961 35.74C4.23961 36.4733 3.93961 37.4733 3.93961 38.74C3.93961 40.0067 4.23961 41.0133 4.83961 41.76C5.43961 42.4933 6.23961 42.86 7.23961 42.86C8.21294 42.86 8.99961 42.4933 9.59961 41.76C10.1996 41.0133 10.4996 40.0067 10.4996 38.74C10.4996 37.4733 10.1996 36.4733 9.59961 35.74C8.99961 34.9933 8.21294 34.62 7.23961 34.62ZM22.5782 44V42.5H22.5182C22.1849 43.0467 21.7249 43.4733 21.1382 43.78C20.5515 44.0867 19.8982 44.24 19.1782 44.24C18.0982 44.24 17.2049 43.92 16.4982 43.28C15.8049 42.64 15.4582 41.7133 15.4582 40.5V33.48H17.1382V39.92C17.1382 40.9333 17.3382 41.6733 17.7382 42.14C18.1382 42.5933 18.7649 42.82 19.6182 42.82C20.4182 42.82 21.0982 42.5267 21.6582 41.94C22.2182 41.34 22.4982 40.4667 22.4982 39.32V33.48H24.1782V44H22.5782ZM36.4476 41C36.1542 41.92 35.6276 42.6933 34.8676 43.32C34.1076 43.9333 33.0609 44.24 31.7276 44.24C30.7809 44.24 29.9409 44.0133 29.2076 43.56C28.4742 43.1067 27.9009 42.4667 27.4876 41.64C27.0876 40.8 26.8876 39.8333 26.8876 38.74C26.8876 37.6467 27.0876 36.6867 27.4876 35.86C27.8876 35.02 28.4476 34.3733 29.1676 33.92C29.9009 33.4667 30.7476 33.24 31.7076 33.24C32.6809 33.24 33.5409 33.48 34.2876 33.96C35.0476 34.4267 35.6276 35.1067 36.0276 36C36.4276 36.88 36.5942 37.9267 36.5276 39.14H28.5876C28.6142 40.2467 28.9142 41.1467 29.4876 41.84C30.0609 42.52 30.8076 42.86 31.7276 42.86C32.5809 42.86 33.2476 42.6533 33.7276 42.24C34.2209 41.8267 34.5609 41.34 34.7476 40.78L36.4476 41ZM31.7076 34.62C30.8142 34.62 30.0942 34.9267 29.5476 35.54C29.0142 36.1533 28.7076 36.9133 28.6276 37.82H34.8076C34.7276 36.9133 34.4142 36.1533 33.8676 35.54C33.3209 34.9267 32.6009 34.62 31.7076 34.62ZM45.8821 36.54C45.7488 35.9267 45.4354 35.4467 44.9421 35.1C44.4488 34.74 43.8754 34.56 43.2221 34.56C42.5288 34.56 41.9754 34.7133 41.5621 35.02C41.1488 35.3267 40.9421 35.74 40.9421 36.26C40.9421 36.7267 41.1288 37.0667 41.5021 37.28C41.8754 37.4933 42.4088 37.66 43.1021 37.78L44.2221 37.96C45.3154 38.1467 46.1621 38.4533 46.7621 38.88C47.3754 39.2933 47.6821 39.9933 47.6821 40.98C47.6821 42.02 47.2754 42.8267 46.4621 43.4C45.6621 43.96 44.6288 44.24 43.3621 44.24C42.0954 44.24 41.0488 43.94 40.2221 43.34C39.4088 42.74 38.9288 41.9467 38.7821 40.96L40.3221 40.62C40.4688 41.3667 40.8154 41.94 41.3621 42.34C41.9088 42.7267 42.5821 42.92 43.3821 42.92C44.1421 42.92 44.7621 42.7533 45.2421 42.42C45.7221 42.0733 45.9621 41.6133 45.9621 41.04C45.9621 40.5333 45.7621 40.1667 45.3621 39.94C44.9754 39.7133 44.3821 39.5267 43.5821 39.38L42.4821 39.18C41.4821 39.0067 40.6888 38.7133 40.1021 38.3C39.5154 37.8867 39.2221 37.2133 39.2221 36.28C39.2221 35.6933 39.3888 35.1667 39.7221 34.7C40.0688 34.2333 40.5488 33.8733 41.1621 33.62C41.7754 33.3667 42.4688 33.24 43.2421 33.24C43.9621 33.24 44.6221 33.3733 45.2221 33.64C45.8354 33.9067 46.3288 34.2667 46.7021 34.72C47.0888 35.1733 47.3288 35.6667 47.4221 36.2L45.8821 36.54ZM53.9559 42.8C54.1692 42.8 54.3892 42.78 54.6159 42.74C54.8425 42.6867 55.0159 42.6333 55.1359 42.58V44C55.0159 44.0667 54.8092 44.12 54.5159 44.16C54.2359 44.2133 53.9559 44.24 53.6759 44.24C52.7825 44.24 52.1359 44.06 51.7359 43.7C51.3359 43.3267 51.1359 42.7 51.1359 41.82V34.78H49.3759V33.48H51.1359V30.46H52.8159V33.48H55.2359V34.78H52.8159V41.64C52.8159 42.0667 52.8959 42.3667 53.0559 42.54C53.2292 42.7133 53.5292 42.8 53.9559 42.8ZM59.7149 44H58.0349V33.48H59.7149V44ZM59.7349 31.44H58.0149V29.52H59.7349V31.44ZM67.5512 33.24C68.5378 33.24 69.4045 33.4667 70.1512 33.92C70.9112 34.3733 71.4978 35.0133 71.9112 35.84C72.3245 36.6667 72.5312 37.6333 72.5312 38.74C72.5312 39.8467 72.3245 40.8133 71.9112 41.64C71.4978 42.4667 70.9112 43.1067 70.1512 43.56C69.4045 44.0133 68.5378 44.24 67.5512 44.24C66.5645 44.24 65.6912 44.0133 64.9312 43.56C64.1845 43.1067 63.6045 42.4667 63.1912 41.64C62.7778 40.8133 62.5712 39.8467 62.5712 38.74C62.5712 37.6333 62.7778 36.6667 63.1912 35.84C63.6045 35.0133 64.1845 34.3733 64.9312 33.92C65.6912 33.4667 66.5645 33.24 67.5512 33.24ZM67.5512 42.86C68.5378 42.86 69.3245 42.4933 69.9112 41.76C70.5112 41.0133 70.8112 40.0067 70.8112 38.74C70.8112 37.4733 70.5112 36.4733 69.9112 35.74C69.3245 34.9933 68.5378 34.62 67.5512 34.62C66.5645 34.62 65.7712 34.9933 65.1712 35.74C64.5845 36.4733 64.2912 37.4733 64.2912 38.74C64.2912 40.0067 64.5845 41.0133 65.1712 41.76C65.7712 42.4933 66.5645 42.86 67.5512 42.86ZM77.0582 33.48V34.98H77.1182C77.4382 34.4333 77.8915 34.0067 78.4782 33.7C79.0649 33.3933 79.7182 33.24 80.4382 33.24C81.5182 33.24 82.4115 33.56 83.1182 34.2C83.8249 34.84 84.1782 35.7667 84.1782 36.98V44H82.4982V37.56C82.4982 36.5467 82.2915 35.8133 81.8782 35.36C81.4782 34.8933 80.8515 34.66 79.9982 34.66C79.4915 34.66 79.0182 34.7867 78.5782 35.04C78.1515 35.2933 77.8049 35.6867 77.5382 36.22C77.2715 36.74 77.1382 37.3867 77.1382 38.16V44H75.4582V33.48H77.0582ZM93.9876 36.54C93.8542 35.9267 93.5409 35.4467 93.0476 35.1C92.5542 34.74 91.9809 34.56 91.3276 34.56C90.6342 34.56 90.0809 34.7133 89.6676 35.02C89.2542 35.3267 89.0476 35.74 89.0476 36.26C89.0476 36.7267 89.2342 37.0667 89.6076 37.28C89.9809 37.4933 90.5142 37.66 91.2076 37.78L92.3276 37.96C93.4209 38.1467 94.2676 38.4533 94.8676 38.88C95.4809 39.2933 95.7876 39.9933 95.7876 40.98C95.7876 42.02 95.3809 42.8267 94.5676 43.4C93.7676 43.96 92.7342 44.24 91.4676 44.24C90.2009 44.24 89.1542 43.94 88.3276 43.34C87.5142 42.74 87.0342 41.9467 86.8876 40.96L88.4276 40.62C88.5742 41.3667 88.9209 41.94 89.4676 42.34C90.0142 42.7267 90.6876 42.92 91.4876 42.92C92.2476 42.92 92.8676 42.7533 93.3476 42.42C93.8276 42.0733 94.0676 41.6133 94.0676 41.04C94.0676 40.5333 93.8676 40.1667 93.4676 39.94C93.0809 39.7133 92.4876 39.5267 91.6876 39.38L90.5876 39.18C89.5876 39.0067 88.7942 38.7133 88.2076 38.3C87.6209 37.8867 87.3276 37.2133 87.3276 36.28C87.3276 35.6933 87.4942 35.1667 87.8276 34.7C88.1742 34.2333 88.6542 33.8733 89.2676 33.62C89.8809 33.3667 90.5742 33.24 91.3476 33.24C92.0676 33.24 92.7276 33.3733 93.3276 33.64C93.9409 33.9067 94.4342 34.2667 94.8076 34.72C95.1942 35.1733 95.4342 35.6667 95.5276 36.2L93.9876 36.54Z" fill="#B0F7B0"/>
<path d="M249.811 5.72H261.271V7.28H256.431V20H254.631V7.28H249.811V5.72ZM270.23 9.48H272.05L267.97 20C267.53 21.12 267.117 21.96 266.73 22.52C266.343 23.0933 265.957 23.4667 265.57 23.64C265.197 23.8267 264.743 23.92 264.21 23.92C263.797 23.92 263.41 23.8867 263.05 23.82V22.34C263.33 22.42 263.637 22.46 263.97 22.46C264.317 22.46 264.603 22.4 264.83 22.28C265.057 22.1733 265.27 21.9733 265.47 21.68C265.67 21.3867 265.883 20.9533 266.11 20.38L266.31 19.88L262.07 9.48H263.91L267.11 17.9H267.17L270.23 9.48ZM279.599 20.24C278.839 20.24 278.159 20.0867 277.559 19.78C276.959 19.46 276.519 19.0267 276.239 18.48H276.179V23.68H274.499V9.48H276.099V11.08H276.159C276.453 10.5067 276.906 10.06 277.519 9.74C278.133 9.40667 278.826 9.24 279.599 9.24C280.519 9.24 281.339 9.46667 282.059 9.92C282.779 10.3733 283.339 11.02 283.739 11.86C284.139 12.6867 284.339 13.6467 284.339 14.74C284.339 15.8333 284.139 16.8 283.739 17.64C283.339 18.4667 282.779 19.1067 282.059 19.56C281.339 20.0133 280.519 20.24 279.599 20.24ZM279.319 10.62C278.346 10.62 277.559 10.9933 276.959 11.74C276.359 12.4733 276.059 13.4733 276.059 14.74C276.059 16.0067 276.359 17.0133 276.959 17.76C277.559 18.4933 278.346 18.86 279.319 18.86C280.319 18.86 281.119 18.4933 281.719 17.76C282.319 17.0133 282.619 16.0067 282.619 14.74C282.619 13.4733 282.319 12.4733 281.719 11.74C281.119 10.9933 280.319 10.62 279.319 10.62ZM296.133 17C295.84 17.92 295.313 18.6933 294.553 19.32C293.793 19.9333 292.746 20.24 291.413 20.24C290.466 20.24 289.626 20.0133 288.893 19.56C288.16 19.1067 287.586 18.4667 287.173 17.64C286.773 16.8 286.573 15.8333 286.573 14.74C286.573 13.6467 286.773 12.6867 287.173 11.86C287.573 11.02 288.133 10.3733 288.853 9.92C289.586 9.46667 290.433 9.24 291.393 9.24C292.366 9.24 293.226 9.48 293.973 9.96C294.733 10.4267 295.313 11.1067 295.713 12C296.113 12.88 296.28 13.9267 296.213 15.14H288.273C288.3 16.2467 288.6 17.1467 289.173 17.84C289.746 18.52 290.493 18.86 291.413 18.86C292.266 18.86 292.933 18.6533 293.413 18.24C293.906 17.8267 294.246 17.34 294.433 16.78L296.133 17ZM291.393 10.62C290.5 10.62 289.78 10.9267 289.233 11.54C288.7 12.1533 288.393 12.9133 288.313 13.82H294.493C294.413 12.9133 294.1 12.1533 293.553 11.54C293.006 10.9267 292.286 10.62 291.393 10.62ZM305.568 12.54C305.434 11.9267 305.121 11.4467 304.628 11.1C304.134 10.74 303.561 10.56 302.908 10.56C302.214 10.56 301.661 10.7133 301.248 11.02C300.834 11.3267 300.628 11.74 300.628 12.26C300.628 12.7267 300.814 13.0667 301.188 13.28C301.561 13.4933 302.094 13.66 302.788 13.78L303.908 13.96C305.001 14.1467 305.848 14.4533 306.448 14.88C307.061 15.2933 307.368 15.9933 307.368 16.98C307.368 18.02 306.961 18.8267 306.148 19.4C305.348 19.96 304.314 20.24 303.048 20.24C301.781 20.24 300.734 19.94 299.908 19.34C299.094 18.74 298.614 17.9467 298.468 16.96L300.008 16.62C300.154 17.3667 300.501 17.94 301.048 18.34C301.594 18.7267 302.268 18.92 303.068 18.92C303.828 18.92 304.448 18.7533 304.928 18.42C305.408 18.0733 305.648 17.6133 305.648 17.04C305.648 16.5333 305.448 16.1667 305.048 15.94C304.661 15.7133 304.068 15.5267 303.268 15.38L302.168 15.18C301.168 15.0067 300.374 14.7133 299.788 14.3C299.201 13.8867 298.908 13.2133 298.908 12.28C298.908 11.6933 299.074 11.1667 299.408 10.7C299.754 10.2333 300.234 9.87333 300.848 9.62C301.461 9.36667 302.154 9.24 302.928 9.24C303.648 9.24 304.308 9.37333 304.908 9.64C305.521 9.90667 306.014 10.2667 306.388 10.72C306.774 11.1733 307.014 11.6667 307.108 12.2L305.568 12.54ZM319.678 9.24C320.665 9.24 321.531 9.46667 322.278 9.92C323.038 10.3733 323.625 11.0133 324.038 11.84C324.451 12.6667 324.658 13.6333 324.658 14.74C324.658 15.8467 324.451 16.8133 324.038 17.64C323.625 18.4667 323.038 19.1067 322.278 19.56C321.531 20.0133 320.665 20.24 319.678 20.24C318.691 20.24 317.818 20.0133 317.058 19.56C316.311 19.1067 315.731 18.4667 315.318 17.64C314.905 16.8133 314.698 15.8467 314.698 14.74C314.698 13.6333 314.905 12.6667 315.318 11.84C315.731 11.0133 316.311 10.3733 317.058 9.92C317.818 9.46667 318.691 9.24 319.678 9.24ZM319.678 18.86C320.665 18.86 321.451 18.4933 322.038 17.76C322.638 17.0133 322.938 16.0067 322.938 14.74C322.938 13.4733 322.638 12.4733 322.038 11.74C321.451 10.9933 320.665 10.62 319.678 10.62C318.691 10.62 317.898 10.9933 317.298 11.74C316.711 12.4733 316.418 13.4733 316.418 14.74C316.418 16.0067 316.711 17.0133 317.298 17.76C317.898 18.4933 318.691 18.86 319.678 18.86ZM331.011 6.7C330.571 6.7 330.225 6.78667 329.971 6.96C329.718 7.13333 329.591 7.49333 329.591 8.04V9.48H332.011V10.78H329.591V20H327.911V10.78H326.151V9.48H327.911V7.88C327.911 6.14667 328.858 5.28 330.751 5.28C331.405 5.28 331.918 5.34667 332.291 5.48V6.86C331.825 6.75333 331.398 6.7 331.011 6.7ZM267.826 33.48H269.426V43.28C269.426 44.8667 268.993 46.0333 268.126 46.78C267.259 47.54 266.099 47.92 264.646 47.92C263.486 47.92 262.493 47.66 261.666 47.14C260.853 46.62 260.286 45.8333 259.966 44.78L261.566 44.4C261.779 45.1467 262.146 45.6867 262.666 46.02C263.186 46.3667 263.846 46.54 264.646 46.54C266.713 46.54 267.746 45.4267 267.746 43.2V41.78H267.686C267.419 42.2867 266.993 42.6867 266.406 42.98C265.819 43.2733 265.159 43.42 264.426 43.42C263.519 43.42 262.713 43.2133 262.006 42.8C261.313 42.3733 260.766 41.7733 260.366 41C259.979 40.2267 259.786 39.34 259.786 38.34C259.786 37.3267 259.979 36.4333 260.366 35.66C260.766 34.8867 261.313 34.2933 262.006 33.88C262.713 33.4533 263.519 33.24 264.426 33.24C265.173 33.24 265.846 33.3933 266.446 33.7C267.046 34.0067 267.486 34.4267 267.766 34.96H267.826V33.48ZM264.706 42.08C265.319 42.08 265.866 41.9267 266.346 41.62C266.826 41.3 267.199 40.86 267.466 40.3C267.733 39.7267 267.866 39.0733 267.866 38.34C267.866 37.2333 267.573 36.34 266.986 35.66C266.399 34.9667 265.639 34.62 264.706 34.62C263.746 34.62 262.973 34.96 262.386 35.64C261.799 36.32 261.506 37.22 261.506 38.34C261.506 39.46 261.799 40.3667 262.386 41.06C262.973 41.74 263.746 42.08 264.706 42.08ZM281.109 42.68C281.309 42.68 281.509 42.6467 281.709 42.58V44C281.536 44.0667 281.196 44.1 280.689 44.1C280.143 44.1 279.723 43.9867 279.429 43.76C279.149 43.5333 278.983 43.18 278.929 42.7H278.869C278.509 43.2333 278.003 43.6267 277.349 43.88C276.696 44.12 276.023 44.24 275.329 44.24C274.729 44.24 274.183 44.1133 273.689 43.86C273.196 43.6067 272.803 43.2467 272.509 42.78C272.216 42.3 272.069 41.7533 272.069 41.14C272.069 40.0467 272.429 39.26 273.149 38.78C273.883 38.2867 274.949 37.9533 276.349 37.78C277.043 37.6867 277.569 37.5933 277.929 37.5C278.289 37.3933 278.536 37.2667 278.669 37.12C278.816 36.9733 278.889 36.7733 278.889 36.52C278.889 35.9333 278.703 35.4733 278.329 35.14C277.956 34.8067 277.376 34.64 276.589 34.64C275.989 34.64 275.449 34.7933 274.969 35.1C274.503 35.4067 274.176 35.9067 273.989 36.6L272.449 36.22C272.689 35.26 273.183 34.5267 273.929 34.02C274.689 33.5 275.596 33.24 276.649 33.24C277.996 33.24 278.983 33.5333 279.609 34.12C280.249 34.7067 280.569 35.4933 280.569 36.48V42C280.569 42.2533 280.616 42.4333 280.709 42.54C280.803 42.6333 280.936 42.68 281.109 42.68ZM278.889 38.38C278.743 38.5533 278.456 38.6867 278.029 38.78C277.616 38.8733 277.003 38.9733 276.189 39.08C275.523 39.1733 274.956 39.3867 274.489 39.72C274.023 40.04 273.789 40.5067 273.789 41.12C273.789 41.6667 273.956 42.1 274.289 42.42C274.623 42.7267 275.076 42.88 275.649 42.88C276.156 42.88 276.656 42.78 277.149 42.58C277.643 42.38 278.056 42.0533 278.389 41.6C278.723 41.1333 278.889 40.5333 278.889 39.8V38.38ZM295.243 33.24C295.883 33.24 296.463 33.38 296.983 33.66C297.516 33.94 297.936 34.36 298.243 34.92C298.563 35.48 298.723 36.1667 298.723 36.98V44H297.043V37.56C297.043 36.5467 296.856 35.8133 296.483 35.36C296.109 34.8933 295.536 34.66 294.763 34.66C294.043 34.66 293.429 34.9467 292.923 35.52C292.416 36.0933 292.163 36.9467 292.163 38.08V44H290.483V37.56C290.483 36.5467 290.296 35.8133 289.923 35.36C289.563 34.8933 288.996 34.66 288.223 34.66C287.503 34.66 286.889 34.96 286.383 35.56C285.876 36.1467 285.623 37.0133 285.623 38.16V44H283.943V33.48H285.543V34.98H285.603C285.923 34.4333 286.356 34.0067 286.903 33.7C287.449 33.3933 288.043 33.24 288.683 33.24C289.363 33.24 289.969 33.3933 290.503 33.7C291.049 34.0067 291.469 34.46 291.763 35.06C292.616 33.8467 293.776 33.24 295.243 33.24ZM310.987 41C310.693 41.92 310.167 42.6933 309.407 43.32C308.647 43.9333 307.6 44.24 306.267 44.24C305.32 44.24 304.48 44.0133 303.747 43.56C303.013 43.1067 302.44 42.4667 302.027 41.64C301.627 40.8 301.427 39.8333 301.427 38.74C301.427 37.6467 301.627 36.6867 302.027 35.86C302.427 35.02 302.987 34.3733 303.707 33.92C304.44 33.4667 305.287 33.24 306.247 33.24C307.22 33.24 308.08 33.48 308.827 33.96C309.587 34.4267 310.167 35.1067 310.567 36C310.967 36.88 311.133 37.9267 311.067 39.14H303.127C303.153 40.2467 303.453 41.1467 304.027 41.84C304.6 42.52 305.347 42.86 306.267 42.86C307.12 42.86 307.787 42.6533 308.267 42.24C308.76 41.8267 309.1 41.34 309.287 40.78L310.987 41ZM306.247 34.62C305.353 34.62 304.633 34.9267 304.087 35.54C303.553 36.1533 303.247 36.9133 303.167 37.82H309.347C309.267 36.9133 308.953 36.1533 308.407 35.54C307.86 34.9267 307.14 34.62 306.247 34.62ZM320.421 36.54C320.288 35.9267 319.975 35.4467 319.481 35.1C318.988 34.74 318.415 34.56 317.761 34.56C317.068 34.56 316.515 34.7133 316.101 35.02C315.688 35.3267 315.481 35.74 315.481 36.26C315.481 36.7267 315.668 37.0667 316.041 37.28C316.415 37.4933 316.948 37.66 317.641 37.78L318.761 37.96C319.855 38.1467 320.701 38.4533 321.301 38.88C321.915 39.2933 322.221 39.9933 322.221 40.98C322.221 42.02 321.815 42.8267 321.001 43.4C320.201 43.96 319.168 44.24 317.901 44.24C316.635 44.24 315.588 43.94 314.761 43.34C313.948 42.74 313.468 41.9467 313.321 40.96L314.861 40.62C315.008 41.3667 315.355 41.94 315.901 42.34C316.448 42.7267 317.121 42.92 317.921 42.92C318.681 42.92 319.301 42.7533 319.781 42.42C320.261 42.0733 320.501 41.6133 320.501 41.04C320.501 40.5333 320.301 40.1667 319.901 39.94C319.515 39.7133 318.921 39.5267 318.121 39.38L317.021 39.18C316.021 39.0067 315.228 38.7133 314.641 38.3C314.055 37.8867 313.761 37.2133 313.761 36.28C313.761 35.6933 313.928 35.1667 314.261 34.7C314.608 34.2333 315.088 33.8733 315.701 33.62C316.315 33.3667 317.008 33.24 317.781 33.24C318.501 33.24 319.161 33.3733 319.761 33.64C320.375 33.9067 320.868 34.2667 321.241 34.72C321.628 35.1733 321.868 35.6667 321.961 36.2L320.421 36.54Z" fill="#9B9BA2"/>
<path d="M512.586 15.48C512.399 16.3067 512.046 17.0867 511.526 17.82C511.019 18.5533 510.339 19.1533 509.486 19.62C508.646 20.0733 507.666 20.3 506.546 20.3C505.266 20.3 504.126 20 503.126 19.4C502.126 18.8 501.346 17.94 500.786 16.82C500.239 15.6867 499.966 14.36 499.966 12.84C499.966 11.3333 500.239 10.02 500.786 8.9C501.346 7.78 502.126 6.92 503.126 6.32C504.126 5.72 505.266 5.42 506.546 5.42C507.599 5.42 508.526 5.62667 509.326 6.04C510.126 6.44 510.773 6.93333 511.266 7.52C511.759 8.10667 512.113 8.68667 512.326 9.26L510.566 9.66C510.246 8.88667 509.739 8.24 509.046 7.72C508.366 7.2 507.533 6.94 506.546 6.94C505.599 6.94 504.766 7.17333 504.046 7.64C503.339 8.10667 502.786 8.78667 502.386 9.68C501.999 10.56 501.806 11.6133 501.806 12.84C501.806 14.08 501.999 15.1467 502.386 16.04C502.786 16.9333 503.339 17.6133 504.046 18.08C504.766 18.5467 505.599 18.78 506.546 18.78C507.679 18.78 508.599 18.4467 509.306 17.78C510.026 17.1 510.519 16.2467 510.786 15.22L512.586 15.48ZM517.263 5.52V10.98H517.323C517.657 10.4333 518.11 10.0067 518.683 9.7C519.27 9.39333 519.91 9.24 520.603 9.24C521.67 9.24 522.55 9.56 523.243 10.2C523.95 10.84 524.303 11.7667 524.303 12.98V20H522.623V13.56C522.623 12.5467 522.417 11.8133 522.003 11.36C521.603 10.8933 520.977 10.66 520.123 10.66C519.643 10.66 519.183 10.8 518.743 11.08C518.303 11.36 517.943 11.7733 517.663 12.32C517.397 12.8667 517.263 13.52 517.263 14.28V20H515.583V5.52H517.263ZM531.993 9.24C532.979 9.24 533.846 9.46667 534.593 9.92C535.353 10.3733 535.939 11.0133 536.353 11.84C536.766 12.6667 536.973 13.6333 536.973 14.74C536.973 15.8467 536.766 16.8133 536.353 17.64C535.939 18.4667 535.353 19.1067 534.593 19.56C533.846 20.0133 532.979 20.24 531.993 20.24C531.006 20.24 530.133 20.0133 529.373 19.56C528.626 19.1067 528.046 18.4667 527.633 17.64C527.219 16.8133 527.013 15.8467 527.013 14.74C527.013 13.6333 527.219 12.6667 527.633 11.84C528.046 11.0133 528.626 10.3733 529.373 9.92C530.133 9.46667 531.006 9.24 531.993 9.24ZM531.993 18.86C532.979 18.86 533.766 18.4933 534.353 17.76C534.953 17.0133 535.253 16.0067 535.253 14.74C535.253 13.4733 534.953 12.4733 534.353 11.74C533.766 10.9933 532.979 10.62 531.993 10.62C531.006 10.62 530.213 10.9933 529.613 11.74C529.026 12.4733 528.733 13.4733 528.733 14.74C528.733 16.0067 529.026 17.0133 529.613 17.76C530.213 18.4933 531.006 18.86 531.993 18.86ZM544.2 9.24C545.186 9.24 546.053 9.46667 546.8 9.92C547.56 10.3733 548.146 11.0133 548.56 11.84C548.973 12.6667 549.18 13.6333 549.18 14.74C549.18 15.8467 548.973 16.8133 548.56 17.64C548.146 18.4667 547.56 19.1067 546.8 19.56C546.053 20.0133 545.186 20.24 544.2 20.24C543.213 20.24 542.34 20.0133 541.58 19.56C540.833 19.1067 540.253 18.4667 539.84 17.64C539.426 16.8133 539.22 15.8467 539.22 14.74C539.22 13.6333 539.426 12.6667 539.84 11.84C540.253 11.0133 540.833 10.3733 541.58 9.92C542.34 9.46667 543.213 9.24 544.2 9.24ZM544.2 18.86C545.186 18.86 545.973 18.4933 546.56 17.76C547.16 17.0133 547.46 16.0067 547.46 14.74C547.46 13.4733 547.16 12.4733 546.56 11.74C545.973 10.9933 545.186 10.62 544.2 10.62C543.213 10.62 542.42 10.9933 541.82 11.74C541.233 12.4733 540.94 13.4733 540.94 14.74C540.94 16.0067 541.233 17.0133 541.82 17.76C542.42 18.4933 543.213 18.86 544.2 18.86ZM558.527 12.54C558.393 11.9267 558.08 11.4467 557.587 11.1C557.093 10.74 556.52 10.56 555.867 10.56C555.173 10.56 554.62 10.7133 554.207 11.02C553.793 11.3267 553.587 11.74 553.587 12.26C553.587 12.7267 553.773 13.0667 554.147 13.28C554.52 13.4933 555.053 13.66 555.747 13.78L556.867 13.96C557.96 14.1467 558.807 14.4533 559.407 14.88C560.02 15.2933 560.327 15.9933 560.327 16.98C560.327 18.02 559.92 18.8267 559.107 19.4C558.307 19.96 557.273 20.24 556.007 20.24C554.74 20.24 553.693 19.94 552.867 19.34C552.053 18.74 551.573 17.9467 551.427 16.96L552.967 16.62C553.113 17.3667 553.46 17.94 554.007 18.34C554.553 18.7267 555.227 18.92 556.027 18.92C556.787 18.92 557.407 18.7533 557.887 18.42C558.367 18.0733 558.607 17.6133 558.607 17.04C558.607 16.5333 558.407 16.1667 558.007 15.94C557.62 15.7133 557.027 15.5267 556.227 15.38L555.127 15.18C554.127 15.0067 553.333 14.7133 552.747 14.3C552.16 13.8867 551.867 13.2133 551.867 12.28C551.867 11.6933 552.033 11.1667 552.367 10.7C552.713 10.2333 553.193 9.87333 553.807 9.62C554.42 9.36667 555.113 9.24 555.887 9.24C556.607 9.24 557.267 9.37333 557.867 9.64C558.48 9.90667 558.973 10.2667 559.347 10.72C559.733 11.1733 559.973 11.6667 560.067 12.2L558.527 12.54ZM572.119 17C571.826 17.92 571.299 18.6933 570.539 19.32C569.779 19.9333 568.733 20.24 567.399 20.24C566.453 20.24 565.613 20.0133 564.879 19.56C564.146 19.1067 563.573 18.4667 563.159 17.64C562.759 16.8 562.559 15.8333 562.559 14.74C562.559 13.6467 562.759 12.6867 563.159 11.86C563.559 11.02 564.119 10.3733 564.839 9.92C565.573 9.46667 566.419 9.24 567.379 9.24C568.353 9.24 569.213 9.48 569.959 9.96C570.719 10.4267 571.299 11.1067 571.699 12C572.099 12.88 572.266 13.9267 572.199 15.14H564.259C564.286 16.2467 564.586 17.1467 565.159 17.84C565.733 18.52 566.479 18.86 567.399 18.86C568.253 18.86 568.919 18.6533 569.399 18.24C569.893 17.8267 570.233 17.34 570.419 16.78L572.119 17ZM567.379 10.62C566.486 10.62 565.766 10.9267 565.219 11.54C564.686 12.1533 564.379 12.9133 564.299 13.82H570.479C570.399 12.9133 570.086 12.1533 569.539 11.54C568.993 10.9267 568.273 10.62 567.379 10.62ZM512.826 33.48H514.426V43.28C514.426 44.8667 513.993 46.0333 513.126 46.78C512.259 47.54 511.099 47.92 509.646 47.92C508.486 47.92 507.493 47.66 506.666 47.14C505.853 46.62 505.286 45.8333 504.966 44.78L506.566 44.4C506.779 45.1467 507.146 45.6867 507.666 46.02C508.186 46.3667 508.846 46.54 509.646 46.54C511.713 46.54 512.746 45.4267 512.746 43.2V41.78H512.686C512.419 42.2867 511.993 42.6867 511.406 42.98C510.819 43.2733 510.159 43.42 509.426 43.42C508.519 43.42 507.713 43.2133 507.006 42.8C506.313 42.3733 505.766 41.7733 505.366 41C504.979 40.2267 504.786 39.34 504.786 38.34C504.786 37.3267 504.979 36.4333 505.366 35.66C505.766 34.8867 506.313 34.2933 507.006 33.88C507.713 33.4533 508.519 33.24 509.426 33.24C510.173 33.24 510.846 33.3933 511.446 33.7C512.046 34.0067 512.486 34.4267 512.766 34.96H512.826V33.48ZM509.706 42.08C510.319 42.08 510.866 41.9267 511.346 41.62C511.826 41.3 512.199 40.86 512.466 40.3C512.733 39.7267 512.866 39.0733 512.866 38.34C512.866 37.2333 512.573 36.34 511.986 35.66C511.399 34.9667 510.639 34.62 509.706 34.62C508.746 34.62 507.973 34.96 507.386 35.64C506.799 36.32 506.506 37.22 506.506 38.34C506.506 39.46 506.799 40.3667 507.386 41.06C507.973 41.74 508.746 42.08 509.706 42.08ZM526.109 42.68C526.309 42.68 526.509 42.6467 526.709 42.58V44C526.536 44.0667 526.196 44.1 525.689 44.1C525.143 44.1 524.723 43.9867 524.429 43.76C524.149 43.5333 523.983 43.18 523.929 42.7H523.869C523.509 43.2333 523.003 43.6267 522.349 43.88C521.696 44.12 521.023 44.24 520.329 44.24C519.729 44.24 519.183 44.1133 518.689 43.86C518.196 43.6067 517.803 43.2467 517.509 42.78C517.216 42.3 517.069 41.7533 517.069 41.14C517.069 40.0467 517.429 39.26 518.149 38.78C518.883 38.2867 519.949 37.9533 521.349 37.78C522.043 37.6867 522.569 37.5933 522.929 37.5C523.289 37.3933 523.536 37.2667 523.669 37.12C523.816 36.9733 523.889 36.7733 523.889 36.52C523.889 35.9333 523.703 35.4733 523.329 35.14C522.956 34.8067 522.376 34.64 521.589 34.64C520.989 34.64 520.449 34.7933 519.969 35.1C519.503 35.4067 519.176 35.9067 518.989 36.6L517.449 36.22C517.689 35.26 518.183 34.5267 518.929 34.02C519.689 33.5 520.596 33.24 521.649 33.24C522.996 33.24 523.983 33.5333 524.609 34.12C525.249 34.7067 525.569 35.4933 525.569 36.48V42C525.569 42.2533 525.616 42.4333 525.709 42.54C525.803 42.6333 525.936 42.68 526.109 42.68ZM523.889 38.38C523.743 38.5533 523.456 38.6867 523.029 38.78C522.616 38.8733 522.003 38.9733 521.189 39.08C520.523 39.1733 519.956 39.3867 519.489 39.72C519.023 40.04 518.789 40.5067 518.789 41.12C518.789 41.6667 518.956 42.1 519.289 42.42C519.623 42.7267 520.076 42.88 520.649 42.88C521.156 42.88 521.656 42.78 522.149 42.58C522.643 42.38 523.056 42.0533 523.389 41.6C523.723 41.1333 523.889 40.5333 523.889 39.8V38.38ZM540.243 33.24C540.883 33.24 541.463 33.38 541.983 33.66C542.516 33.94 542.936 34.36 543.243 34.92C543.563 35.48 543.723 36.1667 543.723 36.98V44H542.043V37.56C542.043 36.5467 541.856 35.8133 541.483 35.36C541.109 34.8933 540.536 34.66 539.763 34.66C539.043 34.66 538.429 34.9467 537.923 35.52C537.416 36.0933 537.163 36.9467 537.163 38.08V44H535.483V37.56C535.483 36.5467 535.296 35.8133 534.923 35.36C534.563 34.8933 533.996 34.66 533.223 34.66C532.503 34.66 531.889 34.96 531.383 35.56C530.876 36.1467 530.623 37.0133 530.623 38.16V44H528.943V33.48H530.543V34.98H530.603C530.923 34.4333 531.356 34.0067 531.903 33.7C532.449 33.3933 533.043 33.24 533.683 33.24C534.363 33.24 534.969 33.3933 535.503 33.7C536.049 34.0067 536.469 34.46 536.763 35.06C537.616 33.8467 538.776 33.24 540.243 33.24ZM555.987 41C555.693 41.92 555.167 42.6933 554.407 43.32C553.647 43.9333 552.6 44.24 551.267 44.24C550.32 44.24 549.48 44.0133 548.747 43.56C548.013 43.1067 547.44 42.4667 547.027 41.64C546.627 40.8 546.427 39.8333 546.427 38.74C546.427 37.6467 546.627 36.6867 547.027 35.86C547.427 35.02 547.987 34.3733 548.707 33.92C549.44 33.4667 550.287 33.24 551.247 33.24C552.22 33.24 553.08 33.48 553.827 33.96C554.587 34.4267 555.167 35.1067 555.567 36C555.967 36.88 556.133 37.9267 556.067 39.14H548.127C548.153 40.2467 548.453 41.1467 549.027 41.84C549.6 42.52 550.347 42.86 551.267 42.86C552.12 42.86 552.787 42.6533 553.267 42.24C553.76 41.8267 554.1 41.34 554.287 40.78L555.987 41ZM551.247 34.62C550.353 34.62 549.633 34.9267 549.087 35.54C548.553 36.1533 548.247 36.9133 548.167 37.82H554.347C554.267 36.9133 553.953 36.1533 553.407 35.54C552.86 34.9267 552.14 34.62 551.247 34.62ZM565.421 36.54C565.288 35.9267 564.975 35.4467 564.481 35.1C563.988 34.74 563.415 34.56 562.761 34.56C562.068 34.56 561.515 34.7133 561.101 35.02C560.688 35.3267 560.481 35.74 560.481 36.26C560.481 36.7267 560.668 37.0667 561.041 37.28C561.415 37.4933 561.948 37.66 562.641 37.78L563.761 37.96C564.855 38.1467 565.701 38.4533 566.301 38.88C566.915 39.2933 567.221 39.9933 567.221 40.98C567.221 42.02 566.815 42.8267 566.001 43.4C565.201 43.96 564.168 44.24 562.901 44.24C561.635 44.24 560.588 43.94 559.761 43.34C558.948 42.74 558.468 41.9467 558.321 40.96L559.861 40.62C560.008 41.3667 560.355 41.94 560.901 42.34C561.448 42.7267 562.121 42.92 562.921 42.92C563.681 42.92 564.301 42.7533 564.781 42.42C565.261 42.0733 565.501 41.6133 565.501 41.04C565.501 40.5333 565.301 40.1667 564.901 39.94C564.515 39.7133 563.921 39.5267 563.121 39.38L562.021 39.18C561.021 39.0067 560.228 38.7133 559.641 38.3C559.055 37.8867 558.761 37.2133 558.761 36.28C558.761 35.6933 558.928 35.1667 559.261 34.7C559.608 34.2333 560.088 33.8733 560.701 33.62C561.315 33.3667 562.008 33.24 562.781 33.24C563.501 33.24 564.161 33.3733 564.761 33.64C565.375 33.9067 565.868 34.2667 566.241 34.72C566.628 35.1733 566.868 35.6667 566.961 36.2L565.421 36.54Z" fill="#9B9BA2"/>
<path d="M749.225 5.72C750.731 5.72 751.898 6.10667 752.725 6.88C753.551 7.64 753.965 8.69333 753.965 10.04C753.965 11.4 753.551 12.4667 752.725 13.24C751.898 14 750.731 14.38 749.225 14.38H745.005V20H743.205V5.72H749.225ZM748.965 12.84C749.978 12.84 750.758 12.6067 751.305 12.14C751.851 11.66 752.125 10.96 752.125 10.04C752.125 9.12 751.851 8.42667 751.305 7.96C750.758 7.48 749.978 7.24 748.965 7.24H745.005V12.84H748.965ZM765.442 17C765.148 17.92 764.622 18.6933 763.862 19.32C763.102 19.9333 762.055 20.24 760.722 20.24C759.775 20.24 758.935 20.0133 758.202 19.56C757.468 19.1067 756.895 18.4667 756.482 17.64C756.082 16.8 755.882 15.8333 755.882 14.74C755.882 13.6467 756.082 12.6867 756.482 11.86C756.882 11.02 757.442 10.3733 758.162 9.92C758.895 9.46667 759.742 9.24 760.702 9.24C761.675 9.24 762.535 9.48 763.282 9.96C764.042 10.4267 764.622 11.1067 765.022 12C765.422 12.88 765.588 13.9267 765.522 15.14H757.582C757.608 16.2467 757.908 17.1467 758.482 17.84C759.055 18.52 759.802 18.86 760.722 18.86C761.575 18.86 762.242 18.6533 762.722 18.24C763.215 17.8267 763.555 17.34 763.742 16.78L765.442 17ZM760.702 10.62C759.808 10.62 759.088 10.9267 758.542 11.54C758.008 12.1533 757.702 12.9133 757.622 13.82H763.802C763.722 12.9133 763.408 12.1533 762.862 11.54C762.315 10.9267 761.595 10.62 760.702 10.62ZM768.456 9.48H770.056V11.28H770.116C770.396 10.6533 770.823 10.16 771.396 9.8C771.97 9.42667 772.643 9.24 773.416 9.24C773.723 9.24 774.023 9.26667 774.316 9.32V10.94C773.876 10.9 773.55 10.88 773.336 10.88C772.363 10.88 771.583 11.18 770.996 11.78C770.423 12.38 770.136 13.3 770.136 14.54V20H768.456V9.48ZM783.099 12.54C782.966 11.9267 782.652 11.4467 782.159 11.1C781.666 10.74 781.092 10.56 780.439 10.56C779.746 10.56 779.192 10.7133 778.779 11.02C778.366 11.3267 778.159 11.74 778.159 12.26C778.159 12.7267 778.346 13.0667 778.719 13.28C779.092 13.4933 779.626 13.66 780.319 13.78L781.439 13.96C782.532 14.1467 783.379 14.4533 783.979 14.88C784.592 15.2933 784.899 15.9933 784.899 16.98C784.899 18.02 784.492 18.8267 783.679 19.4C782.879 19.96 781.846 20.24 780.579 20.24C779.312 20.24 778.266 19.94 777.439 19.34C776.626 18.74 776.146 17.9467 775.999 16.96L777.539 16.62C777.686 17.3667 778.032 17.94 778.579 18.34C779.126 18.7267 779.799 18.92 780.599 18.92C781.359 18.92 781.979 18.7533 782.459 18.42C782.939 18.0733 783.179 17.6133 783.179 17.04C783.179 16.5333 782.979 16.1667 782.579 15.94C782.192 15.7133 781.599 15.5267 780.799 15.38L779.699 15.18C778.699 15.0067 777.906 14.7133 777.319 14.3C776.732 13.8867 776.439 13.2133 776.439 12.28C776.439 11.6933 776.606 11.1667 776.939 10.7C777.286 10.2333 777.766 9.87333 778.379 9.62C778.992 9.36667 779.686 9.24 780.459 9.24C781.179 9.24 781.839 9.37333 782.439 9.64C783.052 9.90667 783.546 10.2667 783.919 10.72C784.306 11.1733 784.546 11.6667 784.639 12.2L783.099 12.54ZM792.112 9.24C793.098 9.24 793.965 9.46667 794.712 9.92C795.472 10.3733 796.058 11.0133 796.472 11.84C796.885 12.6667 797.092 13.6333 797.092 14.74C797.092 15.8467 796.885 16.8133 796.472 17.64C796.058 18.4667 795.472 19.1067 794.712 19.56C793.965 20.0133 793.098 20.24 792.112 20.24C791.125 20.24 790.252 20.0133 789.492 19.56C788.745 19.1067 788.165 18.4667 787.752 17.64C787.338 16.8133 787.132 15.8467 787.132 14.74C787.132 13.6333 787.338 12.6667 787.752 11.84C788.165 11.0133 788.745 10.3733 789.492 9.92C790.252 9.46667 791.125 9.24 792.112 9.24ZM792.112 18.86C793.098 18.86 793.885 18.4933 794.472 17.76C795.072 17.0133 795.372 16.0067 795.372 14.74C795.372 13.4733 795.072 12.4733 794.472 11.74C793.885 10.9933 793.098 10.62 792.112 10.62C791.125 10.62 790.332 10.9933 789.732 11.74C789.145 12.4733 788.852 13.4733 788.852 14.74C788.852 16.0067 789.145 17.0133 789.732 17.76C790.332 18.4933 791.125 18.86 792.112 18.86ZM801.619 9.48V10.98H801.679C801.999 10.4333 802.452 10.0067 803.039 9.7C803.625 9.39333 804.279 9.24 804.999 9.24C806.079 9.24 806.972 9.56 807.679 10.2C808.385 10.84 808.739 11.7667 808.739 12.98V20H807.059V13.56C807.059 12.5467 806.852 11.8133 806.439 11.36C806.039 10.8933 805.412 10.66 804.559 10.66C804.052 10.66 803.579 10.7867 803.139 11.04C802.712 11.2933 802.365 11.6867 802.099 12.22C801.832 12.74 801.699 13.3867 801.699 14.16V20H800.019V9.48H801.619ZM820.408 18.68C820.608 18.68 820.808 18.6467 821.008 18.58V20C820.835 20.0667 820.495 20.1 819.988 20.1C819.441 20.1 819.021 19.9867 818.728 19.76C818.448 19.5333 818.281 19.18 818.228 18.7H818.168C817.808 19.2333 817.301 19.6267 816.648 19.88C815.995 20.12 815.321 20.24 814.628 20.24C814.028 20.24 813.481 20.1133 812.988 19.86C812.495 19.6067 812.101 19.2467 811.808 18.78C811.515 18.3 811.368 17.7533 811.368 17.14C811.368 16.0467 811.728 15.26 812.448 14.78C813.181 14.2867 814.248 13.9533 815.648 13.78C816.341 13.6867 816.868 13.5933 817.228 13.5C817.588 13.3933 817.835 13.2667 817.968 13.12C818.115 12.9733 818.188 12.7733 818.188 12.52C818.188 11.9333 818.001 11.4733 817.628 11.14C817.255 10.8067 816.675 10.64 815.888 10.64C815.288 10.64 814.748 10.7933 814.268 11.1C813.801 11.4067 813.475 11.9067 813.288 12.6L811.748 12.22C811.988 11.26 812.481 10.5267 813.228 10.02C813.988 9.5 814.895 9.24 815.948 9.24C817.295 9.24 818.281 9.53333 818.908 10.12C819.548 10.7067 819.868 11.4933 819.868 12.48V18C819.868 18.2533 819.915 18.4333 820.008 18.54C820.101 18.6333 820.235 18.68 820.408 18.68ZM818.188 14.38C818.041 14.5533 817.755 14.6867 817.328 14.78C816.915 14.8733 816.301 14.9733 815.488 15.08C814.821 15.1733 814.255 15.3867 813.788 15.72C813.321 16.04 813.088 16.5067 813.088 17.12C813.088 17.6667 813.255 18.1 813.588 18.42C813.921 18.7267 814.375 18.88 814.948 18.88C815.455 18.88 815.955 18.78 816.448 18.58C816.941 18.38 817.355 18.0533 817.688 17.6C818.021 17.1333 818.188 16.5333 818.188 15.8V14.38ZM824.921 20H823.241V5.52H824.921V20ZM769.256 44H767.576V33.48H769.256V44ZM769.276 31.44H767.556V29.52H769.276V31.44ZM774.392 33.48V34.98H774.452C774.772 34.4333 775.226 34.0067 775.812 33.7C776.399 33.3933 777.052 33.24 777.772 33.24C778.852 33.24 779.746 33.56 780.452 34.2C781.159 34.84 781.512 35.7667 781.512 36.98V44H779.832V37.56C779.832 36.5467 779.626 35.8133 779.212 35.36C778.812 34.8933 778.186 34.66 777.332 34.66C776.826 34.66 776.352 34.7867 775.912 35.04C775.486 35.2933 775.139 35.6867 774.872 36.22C774.606 36.74 774.472 37.3867 774.472 38.16V44H772.792V33.48H774.392ZM788.503 30.7C788.063 30.7 787.717 30.7867 787.463 30.96C787.21 31.1333 787.083 31.4933 787.083 32.04V33.48H789.503V34.78H787.083V44H785.403V34.78H783.643V33.48H785.403V31.88C785.403 30.1467 786.35 29.28 788.243 29.28C788.897 29.28 789.41 29.3467 789.783 29.48V30.86C789.317 30.7533 788.89 30.7 788.503 30.7ZM796.057 33.24C797.044 33.24 797.91 33.4667 798.657 33.92C799.417 34.3733 800.004 35.0133 800.417 35.84C800.83 36.6667 801.037 37.6333 801.037 38.74C801.037 39.8467 800.83 40.8133 800.417 41.64C800.004 42.4667 799.417 43.1067 798.657 43.56C797.91 44.0133 797.044 44.24 796.057 44.24C795.07 44.24 794.197 44.0133 793.437 43.56C792.69 43.1067 792.11 42.4667 791.697 41.64C791.284 40.8133 791.077 39.8467 791.077 38.74C791.077 37.6333 791.284 36.6667 791.697 35.84C792.11 35.0133 792.69 34.3733 793.437 33.92C794.197 33.4667 795.07 33.24 796.057 33.24ZM796.057 42.86C797.044 42.86 797.83 42.4933 798.417 41.76C799.017 41.0133 799.317 40.0067 799.317 38.74C799.317 37.4733 799.017 36.4733 798.417 35.74C797.83 34.9933 797.044 34.62 796.057 34.62C795.07 34.62 794.277 34.9933 793.677 35.74C793.09 36.4733 792.797 37.4733 792.797 38.74C792.797 40.0067 793.09 41.0133 793.677 41.76C794.277 42.4933 795.07 42.86 796.057 42.86Z" fill="#9B9BA2"/>
</svg>
