<svg width="833" height="143" viewBox="0 0 833 143" fill="none" xmlns="http://www.w3.org/2000/svg">
<path fill-rule="evenodd" clip-rule="evenodd" d="M48.5 143C69.763 143 87 125.763 87 104.5C87 83.237 69.763 66 48.5 66C27.237 66 10 83.237 10 104.5C10 125.763 27.237 143 48.5 143ZM54.5 80.9883H46.0918L32.5859 90.8906L37.0977 97.5117L44.5977 92.4727V123H54.5V80.9883Z" fill="#B0F7B0"/>
<circle cx="293.5" cy="104.5" r="36" stroke="#9B9BA2" stroke-width="5"/>
<path d="M279.109 124V117.086L293.201 99.0977C294.393 97.5938 294.988 95.9922 294.988 94.293C294.988 93.0625 294.686 92.1055 294.08 91.4219C293.494 90.7383 292.742 90.3965 291.824 90.3965C290.906 90.3965 290.154 90.7383 289.568 91.4219C288.982 92.1055 288.689 93.0625 288.689 94.293V96.4023H279.109V94.6738C279.109 90.6699 280.34 87.457 282.801 85.0352C285.262 82.6133 288.348 81.4023 292.059 81.4023C295.672 81.4023 298.709 82.4961 301.17 84.6836C303.65 86.8516 304.891 89.6348 304.891 93.0332C304.891 95.084 304.461 97.0859 303.602 99.0391C302.742 100.973 301.375 103.092 299.5 105.396L291.414 115.299H304.891V124H279.109Z" fill="#9B9BA2"/>
<circle cx="538.5" cy="104.5" r="36" stroke="#9B9BA2" stroke-width="5"/>
<path d="M536.648 124.586C533.035 124.586 529.988 123.502 527.508 121.334C525.027 119.146 523.787 116.354 523.787 112.955V110.494H533.104V111.988C533.104 113.238 533.396 114.205 533.982 114.889C534.588 115.572 535.398 115.914 536.414 115.914C537.43 115.914 538.23 115.572 538.816 114.889C539.402 114.205 539.695 113.238 539.695 111.988V110.201C539.695 108.99 539.393 108.043 538.787 107.359C538.201 106.656 537.303 106.305 536.092 106.305H532.811V98.8047H536.092C538.104 98.8047 539.109 97.7012 539.109 95.4941V93.4141C539.109 92.3594 538.865 91.5488 538.377 90.9824C537.889 90.3965 537.234 90.1035 536.414 90.1035C535.594 90.1035 534.93 90.3965 534.422 90.9824C533.934 91.5488 533.689 92.3594 533.689 93.4141V94.5859H524.402V92.8574C524.402 89.5371 525.584 86.8027 527.947 84.6543C530.33 82.4863 533.27 81.4023 536.766 81.4023C540.262 81.4023 543.172 82.4375 545.496 84.5078C547.84 86.5781 549.012 89.2246 549.012 92.4473V93.6484C549.012 97.2031 547.586 100.123 544.734 102.408C546.258 103.463 547.449 104.752 548.309 106.275C549.168 107.799 549.598 109.488 549.598 111.344V113.131C549.598 116.432 548.338 119.166 545.818 121.334C543.299 123.502 540.242 124.586 536.648 124.586Z" fill="#9B9BA2"/>
<circle cx="783.5" cy="104.5" r="36" stroke="#9B9BA2" stroke-width="5"/>
<path d="M782.908 124V115.299H768.201V107.506L782.586 81.9883H792.195V107.799H797V115.299H792.195V124H782.908ZM775.877 107.799H782.908V94.9668L775.877 107.799Z" fill="#9B9BA2"/>
<line x1="106" y1="104" x2="236" y2="104" stroke="#9B9BA2" stroke-width="2" stroke-linecap="round"/>
<line x1="351" y1="104" x2="481" y2="104" stroke="#9B9BA2" stroke-width="2" stroke-linecap="round"/>
<line x1="596" y1="104" x2="726" y2="104" stroke="#9B9BA2" stroke-width="2" stroke-linecap="round"/>
<path d="M14.2247 13.72C15.7314 13.72 16.898 14.1067 17.7247 14.88C18.5514 15.64 18.9647 16.6933 18.9647 18.04C18.9647 19.4 18.5514 20.4667 17.7247 21.24C16.898 22 15.7314 22.38 14.2247 22.38H10.0047V28H8.20469V13.72H14.2247ZM13.9647 20.84C14.978 20.84 15.758 20.6067 16.3047 20.14C16.8514 19.66 17.1247 18.96 17.1247 18.04C17.1247 17.12 16.8514 16.4267 16.3047 15.96C15.758 15.48 14.978 15.24 13.9647 15.24H10.0047V20.84H13.9647ZM30.4417 25C30.1484 25.92 29.6217 26.6933 28.8617 27.32C28.1017 27.9333 27.0551 28.24 25.7217 28.24C24.7751 28.24 23.9351 28.0133 23.2017 27.56C22.4684 27.1067 21.8951 26.4667 21.4817 25.64C21.0817 24.8 20.8817 23.8333 20.8817 22.74C20.8817 21.6467 21.0817 20.6867 21.4817 19.86C21.8817 19.02 22.4417 18.3733 23.1617 17.92C23.8951 17.4667 24.7417 17.24 25.7017 17.24C26.6751 17.24 27.5351 17.48 28.2817 17.96C29.0417 18.4267 29.6217 19.1067 30.0217 20C30.4217 20.88 30.5884 21.9267 30.5217 23.14H22.5817C22.6084 24.2467 22.9084 25.1467 23.4817 25.84C24.0551 26.52 24.8017 26.86 25.7217 26.86C26.5751 26.86 27.2417 26.6533 27.7217 26.24C28.2151 25.8267 28.5551 25.34 28.7417 24.78L30.4417 25ZM25.7017 18.62C24.8084 18.62 24.0884 18.9267 23.5417 19.54C23.0084 20.1533 22.7017 20.9133 22.6217 21.82H28.8017C28.7217 20.9133 28.4084 20.1533 27.8617 19.54C27.3151 18.9267 26.5951 18.62 25.7017 18.62ZM33.4563 17.48H35.0563V19.28H35.1163C35.3963 18.6533 35.8229 18.16 36.3963 17.8C36.9696 17.4267 37.6429 17.24 38.4163 17.24C38.7229 17.24 39.0229 17.2667 39.3163 17.32V18.94C38.8763 18.9 38.5496 18.88 38.3363 18.88C37.3629 18.88 36.5829 19.18 35.9963 19.78C35.4229 20.38 35.1363 21.3 35.1363 22.54V28H33.4563V17.48ZM48.0989 20.54C47.9656 19.9267 47.6522 19.4467 47.1589 19.1C46.6656 18.74 46.0922 18.56 45.4389 18.56C44.7456 18.56 44.1922 18.7133 43.7789 19.02C43.3656 19.3267 43.1589 19.74 43.1589 20.26C43.1589 20.7267 43.3456 21.0667 43.7189 21.28C44.0922 21.4933 44.6256 21.66 45.3189 21.78L46.4389 21.96C47.5322 22.1467 48.3789 22.4533 48.9789 22.88C49.5922 23.2933 49.8989 23.9933 49.8989 24.98C49.8989 26.02 49.4922 26.8267 48.6789 27.4C47.8789 27.96 46.8456 28.24 45.5789 28.24C44.3122 28.24 43.2656 27.94 42.4389 27.34C41.6256 26.74 41.1456 25.9467 40.9989 24.96L42.5389 24.62C42.6856 25.3667 43.0322 25.94 43.5789 26.34C44.1256 26.7267 44.7989 26.92 45.5989 26.92C46.3589 26.92 46.9789 26.7533 47.4589 26.42C47.9389 26.0733 48.1789 25.6133 48.1789 25.04C48.1789 24.5333 47.9789 24.1667 47.5789 23.94C47.1922 23.7133 46.5989 23.5267 45.7989 23.38L44.6989 23.18C43.6989 23.0067 42.9056 22.7133 42.3189 22.3C41.7322 21.8867 41.4389 21.2133 41.4389 20.28C41.4389 19.6933 41.6056 19.1667 41.9389 18.7C42.2856 18.2333 42.7656 17.8733 43.3789 17.62C43.9922 17.3667 44.6856 17.24 45.4589 17.24C46.1789 17.24 46.8389 17.3733 47.4389 17.64C48.0522 17.9067 48.5456 18.2667 48.9189 18.72C49.3056 19.1733 49.5456 19.6667 49.6389 20.2L48.0989 20.54ZM57.1117 17.24C58.0984 17.24 58.9651 17.4667 59.7117 17.92C60.4717 18.3733 61.0584 19.0133 61.4717 19.84C61.8851 20.6667 62.0917 21.6333 62.0917 22.74C62.0917 23.8467 61.8851 24.8133 61.4717 25.64C61.0584 26.4667 60.4717 27.1067 59.7117 27.56C58.9651 28.0133 58.0984 28.24 57.1117 28.24C56.1251 28.24 55.2517 28.0133 54.4917 27.56C53.7451 27.1067 53.1651 26.4667 52.7517 25.64C52.3384 24.8133 52.1317 23.8467 52.1317 22.74C52.1317 21.6333 52.3384 20.6667 52.7517 19.84C53.1651 19.0133 53.7451 18.3733 54.4917 17.92C55.2517 17.4667 56.1251 17.24 57.1117 17.24ZM57.1117 26.86C58.0984 26.86 58.8851 26.4933 59.4717 25.76C60.0717 25.0133 60.3717 24.0067 60.3717 22.74C60.3717 21.4733 60.0717 20.4733 59.4717 19.74C58.8851 18.9933 58.0984 18.62 57.1117 18.62C56.1251 18.62 55.3317 18.9933 54.7317 19.74C54.1451 20.4733 53.8517 21.4733 53.8517 22.74C53.8517 24.0067 54.1451 25.0133 54.7317 25.76C55.3317 26.4933 56.1251 26.86 57.1117 26.86ZM66.6188 17.48V18.98H66.6788C66.9988 18.4333 67.4521 18.0067 68.0388 17.7C68.6254 17.3933 69.2788 17.24 69.9988 17.24C71.0788 17.24 71.9721 17.56 72.6788 18.2C73.3854 18.84 73.7388 19.7667 73.7388 20.98V28H72.0588V21.56C72.0588 20.5467 71.8521 19.8133 71.4388 19.36C71.0388 18.8933 70.4121 18.66 69.5588 18.66C69.0521 18.66 68.5788 18.7867 68.1388 19.04C67.7121 19.2933 67.3654 19.6867 67.0988 20.22C66.8321 20.74 66.6988 21.3867 66.6988 22.16V28H65.0188V17.48H66.6188ZM85.4081 26.68C85.6081 26.68 85.8081 26.6467 86.0081 26.58V28C85.8348 28.0667 85.4948 28.1 84.9881 28.1C84.4415 28.1 84.0215 27.9867 83.7281 27.76C83.4481 27.5333 83.2815 27.18 83.2281 26.7H83.1681C82.8081 27.2333 82.3015 27.6267 81.6481 27.88C80.9948 28.12 80.3215 28.24 79.6281 28.24C79.0281 28.24 78.4815 28.1133 77.9881 27.86C77.4948 27.6067 77.1015 27.2467 76.8081 26.78C76.5148 26.3 76.3681 25.7533 76.3681 25.14C76.3681 24.0467 76.7281 23.26 77.4481 22.78C78.1815 22.2867 79.2481 21.9533 80.6481 21.78C81.3415 21.6867 81.8681 21.5933 82.2281 21.5C82.5881 21.3933 82.8348 21.2667 82.9681 21.12C83.1148 20.9733 83.1881 20.7733 83.1881 20.52C83.1881 19.9333 83.0015 19.4733 82.6281 19.14C82.2548 18.8067 81.6748 18.64 80.8881 18.64C80.2881 18.64 79.7481 18.7933 79.2681 19.1C78.8015 19.4067 78.4748 19.9067 78.2881 20.6L76.7481 20.22C76.9881 19.26 77.4815 18.5267 78.2281 18.02C78.9881 17.5 79.8948 17.24 80.9481 17.24C82.2948 17.24 83.2815 17.5333 83.9081 18.12C84.5481 18.7067 84.8681 19.4933 84.8681 20.48V26C84.8681 26.2533 84.9148 26.4333 85.0081 26.54C85.1015 26.6333 85.2348 26.68 85.4081 26.68ZM83.1881 22.38C83.0415 22.5533 82.7548 22.6867 82.3281 22.78C81.9148 22.8733 81.3015 22.9733 80.4881 23.08C79.8215 23.1733 79.2548 23.3867 78.7881 23.72C78.3215 24.04 78.0881 24.5067 78.0881 25.12C78.0881 25.6667 78.2548 26.1 78.5881 26.42C78.9215 26.7267 79.3748 26.88 79.9481 26.88C80.4548 26.88 80.9548 26.78 81.4481 26.58C81.9415 26.38 82.3548 26.0533 82.6881 25.6C83.0215 25.1333 83.1881 24.5333 83.1881 23.8V22.38ZM89.9214 28H88.2414V13.52H89.9214V28ZM6.95961 52.24C6.03961 52.24 5.21961 52.0133 4.49961 51.56C3.77961 51.1067 3.21961 50.4667 2.81961 49.64C2.41961 48.8 2.21961 47.8333 2.21961 46.74C2.21961 45.6467 2.41961 44.6867 2.81961 43.86C3.21961 43.02 3.77961 42.3733 4.49961 41.92C5.21961 41.4667 6.03961 41.24 6.95961 41.24C7.73294 41.24 8.42628 41.4067 9.03961 41.74C9.65294 42.06 10.1063 42.5067 10.3996 43.08H10.4596V41.48H12.0596V55.68H10.3796V50.48H10.3196C10.0396 51.0267 9.59961 51.46 8.99961 51.78C8.39961 52.0867 7.71961 52.24 6.95961 52.24ZM7.23961 42.62C6.23961 42.62 5.43961 42.9933 4.83961 43.74C4.23961 44.4733 3.93961 45.4733 3.93961 46.74C3.93961 48.0067 4.23961 49.0133 4.83961 49.76C5.43961 50.4933 6.23961 50.86 7.23961 50.86C8.21294 50.86 8.99961 50.4933 9.59961 49.76C10.1996 49.0133 10.4996 48.0067 10.4996 46.74C10.4996 45.4733 10.1996 44.4733 9.59961 43.74C8.99961 42.9933 8.21294 42.62 7.23961 42.62ZM22.5782 52V50.5H22.5182C22.1849 51.0467 21.7249 51.4733 21.1382 51.78C20.5515 52.0867 19.8982 52.24 19.1782 52.24C18.0982 52.24 17.2049 51.92 16.4982 51.28C15.8049 50.64 15.4582 49.7133 15.4582 48.5V41.48H17.1382V47.92C17.1382 48.9333 17.3382 49.6733 17.7382 50.14C18.1382 50.5933 18.7649 50.82 19.6182 50.82C20.4182 50.82 21.0982 50.5267 21.6582 49.94C22.2182 49.34 22.4982 48.4667 22.4982 47.32V41.48H24.1782V52H22.5782ZM36.4476 49C36.1542 49.92 35.6276 50.6933 34.8676 51.32C34.1076 51.9333 33.0609 52.24 31.7276 52.24C30.7809 52.24 29.9409 52.0133 29.2076 51.56C28.4742 51.1067 27.9009 50.4667 27.4876 49.64C27.0876 48.8 26.8876 47.8333 26.8876 46.74C26.8876 45.6467 27.0876 44.6867 27.4876 43.86C27.8876 43.02 28.4476 42.3733 29.1676 41.92C29.9009 41.4667 30.7476 41.24 31.7076 41.24C32.6809 41.24 33.5409 41.48 34.2876 41.96C35.0476 42.4267 35.6276 43.1067 36.0276 44C36.4276 44.88 36.5942 45.9267 36.5276 47.14H28.5876C28.6142 48.2467 28.9142 49.1467 29.4876 49.84C30.0609 50.52 30.8076 50.86 31.7276 50.86C32.5809 50.86 33.2476 50.6533 33.7276 50.24C34.2209 49.8267 34.5609 49.34 34.7476 48.78L36.4476 49ZM31.7076 42.62C30.8142 42.62 30.0942 42.9267 29.5476 43.54C29.0142 44.1533 28.7076 44.9133 28.6276 45.82H34.8076C34.7276 44.9133 34.4142 44.1533 33.8676 43.54C33.3209 42.9267 32.6009 42.62 31.7076 42.62ZM45.8821 44.54C45.7488 43.9267 45.4354 43.4467 44.9421 43.1C44.4488 42.74 43.8754 42.56 43.2221 42.56C42.5288 42.56 41.9754 42.7133 41.5621 43.02C41.1488 43.3267 40.9421 43.74 40.9421 44.26C40.9421 44.7267 41.1288 45.0667 41.5021 45.28C41.8754 45.4933 42.4088 45.66 43.1021 45.78L44.2221 45.96C45.3154 46.1467 46.1621 46.4533 46.7621 46.88C47.3754 47.2933 47.6821 47.9933 47.6821 48.98C47.6821 50.02 47.2754 50.8267 46.4621 51.4C45.6621 51.96 44.6288 52.24 43.3621 52.24C42.0954 52.24 41.0488 51.94 40.2221 51.34C39.4088 50.74 38.9288 49.9467 38.7821 48.96L40.3221 48.62C40.4688 49.3667 40.8154 49.94 41.3621 50.34C41.9088 50.7267 42.5821 50.92 43.3821 50.92C44.1421 50.92 44.7621 50.7533 45.2421 50.42C45.7221 50.0733 45.9621 49.6133 45.9621 49.04C45.9621 48.5333 45.7621 48.1667 45.3621 47.94C44.9754 47.7133 44.3821 47.5267 43.5821 47.38L42.4821 47.18C41.4821 47.0067 40.6888 46.7133 40.1021 46.3C39.5154 45.8867 39.2221 45.2133 39.2221 44.28C39.2221 43.6933 39.3888 43.1667 39.7221 42.7C40.0688 42.2333 40.5488 41.8733 41.1621 41.62C41.7754 41.3667 42.4688 41.24 43.2421 41.24C43.9621 41.24 44.6221 41.3733 45.2221 41.64C45.8354 41.9067 46.3288 42.2667 46.7021 42.72C47.0888 43.1733 47.3288 43.6667 47.4221 44.2L45.8821 44.54ZM53.9559 50.8C54.1692 50.8 54.3892 50.78 54.6159 50.74C54.8425 50.6867 55.0159 50.6333 55.1359 50.58V52C55.0159 52.0667 54.8092 52.12 54.5159 52.16C54.2359 52.2133 53.9559 52.24 53.6759 52.24C52.7825 52.24 52.1359 52.06 51.7359 51.7C51.3359 51.3267 51.1359 50.7 51.1359 49.82V42.78H49.3759V41.48H51.1359V38.46H52.8159V41.48H55.2359V42.78H52.8159V49.64C52.8159 50.0667 52.8959 50.3667 53.0559 50.54C53.2292 50.7133 53.5292 50.8 53.9559 50.8ZM59.7149 52H58.0349V41.48H59.7149V52ZM59.7349 39.44H58.0149V37.52H59.7349V39.44ZM67.5512 41.24C68.5378 41.24 69.4045 41.4667 70.1512 41.92C70.9112 42.3733 71.4978 43.0133 71.9112 43.84C72.3245 44.6667 72.5312 45.6333 72.5312 46.74C72.5312 47.8467 72.3245 48.8133 71.9112 49.64C71.4978 50.4667 70.9112 51.1067 70.1512 51.56C69.4045 52.0133 68.5378 52.24 67.5512 52.24C66.5645 52.24 65.6912 52.0133 64.9312 51.56C64.1845 51.1067 63.6045 50.4667 63.1912 49.64C62.7778 48.8133 62.5712 47.8467 62.5712 46.74C62.5712 45.6333 62.7778 44.6667 63.1912 43.84C63.6045 43.0133 64.1845 42.3733 64.9312 41.92C65.6912 41.4667 66.5645 41.24 67.5512 41.24ZM67.5512 50.86C68.5378 50.86 69.3245 50.4933 69.9112 49.76C70.5112 49.0133 70.8112 48.0067 70.8112 46.74C70.8112 45.4733 70.5112 44.4733 69.9112 43.74C69.3245 42.9933 68.5378 42.62 67.5512 42.62C66.5645 42.62 65.7712 42.9933 65.1712 43.74C64.5845 44.4733 64.2912 45.4733 64.2912 46.74C64.2912 48.0067 64.5845 49.0133 65.1712 49.76C65.7712 50.4933 66.5645 50.86 67.5512 50.86ZM77.0582 41.48V42.98H77.1182C77.4382 42.4333 77.8915 42.0067 78.4782 41.7C79.0649 41.3933 79.7182 41.24 80.4382 41.24C81.5182 41.24 82.4115 41.56 83.1182 42.2C83.8249 42.84 84.1782 43.7667 84.1782 44.98V52H82.4982V45.56C82.4982 44.5467 82.2915 43.8133 81.8782 43.36C81.4782 42.8933 80.8515 42.66 79.9982 42.66C79.4915 42.66 79.0182 42.7867 78.5782 43.04C78.1515 43.2933 77.8049 43.6867 77.5382 44.22C77.2715 44.74 77.1382 45.3867 77.1382 46.16V52H75.4582V41.48H77.0582ZM93.9876 44.54C93.8542 43.9267 93.5409 43.4467 93.0476 43.1C92.5542 42.74 91.9809 42.56 91.3276 42.56C90.6342 42.56 90.0809 42.7133 89.6676 43.02C89.2542 43.3267 89.0476 43.74 89.0476 44.26C89.0476 44.7267 89.2342 45.0667 89.6076 45.28C89.9809 45.4933 90.5142 45.66 91.2076 45.78L92.3276 45.96C93.4209 46.1467 94.2676 46.4533 94.8676 46.88C95.4809 47.2933 95.7876 47.9933 95.7876 48.98C95.7876 50.02 95.3809 50.8267 94.5676 51.4C93.7676 51.96 92.7342 52.24 91.4676 52.24C90.2009 52.24 89.1542 51.94 88.3276 51.34C87.5142 50.74 87.0342 49.9467 86.8876 48.96L88.4276 48.62C88.5742 49.3667 88.9209 49.94 89.4676 50.34C90.0142 50.7267 90.6876 50.92 91.4876 50.92C92.2476 50.92 92.8676 50.7533 93.3476 50.42C93.8276 50.0733 94.0676 49.6133 94.0676 49.04C94.0676 48.5333 93.8676 48.1667 93.4676 47.94C93.0809 47.7133 92.4876 47.5267 91.6876 47.38L90.5876 47.18C89.5876 47.0067 88.7942 46.7133 88.2076 46.3C87.6209 45.8867 87.3276 45.2133 87.3276 44.28C87.3276 43.6933 87.4942 43.1667 87.8276 42.7C88.1742 42.2333 88.6542 41.8733 89.2676 41.62C89.8809 41.3667 90.5742 41.24 91.3476 41.24C92.0676 41.24 92.7276 41.3733 93.3276 41.64C93.9409 41.9067 94.4342 42.2667 94.8076 42.72C95.1942 43.1733 95.4342 43.6667 95.5276 44.2L93.9876 44.54Z" fill="#B0F7B0"/>
<path d="M249.811 13.72H261.271V15.28H256.431V28H254.631V15.28H249.811V13.72ZM270.23 17.48H272.05L267.97 28C267.53 29.12 267.117 29.96 266.73 30.52C266.343 31.0933 265.957 31.4667 265.57 31.64C265.197 31.8267 264.743 31.92 264.21 31.92C263.797 31.92 263.41 31.8867 263.05 31.82V30.34C263.33 30.42 263.637 30.46 263.97 30.46C264.317 30.46 264.603 30.4 264.83 30.28C265.057 30.1733 265.27 29.9733 265.47 29.68C265.67 29.3867 265.883 28.9533 266.11 28.38L266.31 27.88L262.07 17.48H263.91L267.11 25.9H267.17L270.23 17.48ZM279.599 28.24C278.839 28.24 278.159 28.0867 277.559 27.78C276.959 27.46 276.519 27.0267 276.239 26.48H276.179V31.68H274.499V17.48H276.099V19.08H276.159C276.453 18.5067 276.906 18.06 277.519 17.74C278.133 17.4067 278.826 17.24 279.599 17.24C280.519 17.24 281.339 17.4667 282.059 17.92C282.779 18.3733 283.339 19.02 283.739 19.86C284.139 20.6867 284.339 21.6467 284.339 22.74C284.339 23.8333 284.139 24.8 283.739 25.64C283.339 26.4667 282.779 27.1067 282.059 27.56C281.339 28.0133 280.519 28.24 279.599 28.24ZM279.319 18.62C278.346 18.62 277.559 18.9933 276.959 19.74C276.359 20.4733 276.059 21.4733 276.059 22.74C276.059 24.0067 276.359 25.0133 276.959 25.76C277.559 26.4933 278.346 26.86 279.319 26.86C280.319 26.86 281.119 26.4933 281.719 25.76C282.319 25.0133 282.619 24.0067 282.619 22.74C282.619 21.4733 282.319 20.4733 281.719 19.74C281.119 18.9933 280.319 18.62 279.319 18.62ZM296.133 25C295.84 25.92 295.313 26.6933 294.553 27.32C293.793 27.9333 292.746 28.24 291.413 28.24C290.466 28.24 289.626 28.0133 288.893 27.56C288.16 27.1067 287.586 26.4667 287.173 25.64C286.773 24.8 286.573 23.8333 286.573 22.74C286.573 21.6467 286.773 20.6867 287.173 19.86C287.573 19.02 288.133 18.3733 288.853 17.92C289.586 17.4667 290.433 17.24 291.393 17.24C292.366 17.24 293.226 17.48 293.973 17.96C294.733 18.4267 295.313 19.1067 295.713 20C296.113 20.88 296.28 21.9267 296.213 23.14H288.273C288.3 24.2467 288.6 25.1467 289.173 25.84C289.746 26.52 290.493 26.86 291.413 26.86C292.266 26.86 292.933 26.6533 293.413 26.24C293.906 25.8267 294.246 25.34 294.433 24.78L296.133 25ZM291.393 18.62C290.5 18.62 289.78 18.9267 289.233 19.54C288.7 20.1533 288.393 20.9133 288.313 21.82H294.493C294.413 20.9133 294.1 20.1533 293.553 19.54C293.006 18.9267 292.286 18.62 291.393 18.62ZM305.568 20.54C305.434 19.9267 305.121 19.4467 304.628 19.1C304.134 18.74 303.561 18.56 302.908 18.56C302.214 18.56 301.661 18.7133 301.248 19.02C300.834 19.3267 300.628 19.74 300.628 20.26C300.628 20.7267 300.814 21.0667 301.188 21.28C301.561 21.4933 302.094 21.66 302.788 21.78L303.908 21.96C305.001 22.1467 305.848 22.4533 306.448 22.88C307.061 23.2933 307.368 23.9933 307.368 24.98C307.368 26.02 306.961 26.8267 306.148 27.4C305.348 27.96 304.314 28.24 303.048 28.24C301.781 28.24 300.734 27.94 299.908 27.34C299.094 26.74 298.614 25.9467 298.468 24.96L300.008 24.62C300.154 25.3667 300.501 25.94 301.048 26.34C301.594 26.7267 302.268 26.92 303.068 26.92C303.828 26.92 304.448 26.7533 304.928 26.42C305.408 26.0733 305.648 25.6133 305.648 25.04C305.648 24.5333 305.448 24.1667 305.048 23.94C304.661 23.7133 304.068 23.5267 303.268 23.38L302.168 23.18C301.168 23.0067 300.374 22.7133 299.788 22.3C299.201 21.8867 298.908 21.2133 298.908 20.28C298.908 19.6933 299.074 19.1667 299.408 18.7C299.754 18.2333 300.234 17.8733 300.848 17.62C301.461 17.3667 302.154 17.24 302.928 17.24C303.648 17.24 304.308 17.3733 304.908 17.64C305.521 17.9067 306.014 18.2667 306.388 18.72C306.774 19.1733 307.014 19.6667 307.108 20.2L305.568 20.54ZM319.678 17.24C320.665 17.24 321.531 17.4667 322.278 17.92C323.038 18.3733 323.625 19.0133 324.038 19.84C324.451 20.6667 324.658 21.6333 324.658 22.74C324.658 23.8467 324.451 24.8133 324.038 25.64C323.625 26.4667 323.038 27.1067 322.278 27.56C321.531 28.0133 320.665 28.24 319.678 28.24C318.691 28.24 317.818 28.0133 317.058 27.56C316.311 27.1067 315.731 26.4667 315.318 25.64C314.905 24.8133 314.698 23.8467 314.698 22.74C314.698 21.6333 314.905 20.6667 315.318 19.84C315.731 19.0133 316.311 18.3733 317.058 17.92C317.818 17.4667 318.691 17.24 319.678 17.24ZM319.678 26.86C320.665 26.86 321.451 26.4933 322.038 25.76C322.638 25.0133 322.938 24.0067 322.938 22.74C322.938 21.4733 322.638 20.4733 322.038 19.74C321.451 18.9933 320.665 18.62 319.678 18.62C318.691 18.62 317.898 18.9933 317.298 19.74C316.711 20.4733 316.418 21.4733 316.418 22.74C316.418 24.0067 316.711 25.0133 317.298 25.76C317.898 26.4933 318.691 26.86 319.678 26.86ZM331.011 14.7C330.571 14.7 330.225 14.7867 329.971 14.96C329.718 15.1333 329.591 15.4933 329.591 16.04V17.48H332.011V18.78H329.591V28H327.911V18.78H326.151V17.48H327.911V15.88C327.911 14.1467 328.858 13.28 330.751 13.28C331.405 13.28 331.918 13.3467 332.291 13.48V14.86C331.825 14.7533 331.398 14.7 331.011 14.7ZM267.826 41.48H269.426V51.28C269.426 52.8667 268.993 54.0333 268.126 54.78C267.259 55.54 266.099 55.92 264.646 55.92C263.486 55.92 262.493 55.66 261.666 55.14C260.853 54.62 260.286 53.8333 259.966 52.78L261.566 52.4C261.779 53.1467 262.146 53.6867 262.666 54.02C263.186 54.3667 263.846 54.54 264.646 54.54C266.713 54.54 267.746 53.4267 267.746 51.2V49.78H267.686C267.419 50.2867 266.993 50.6867 266.406 50.98C265.819 51.2733 265.159 51.42 264.426 51.42C263.519 51.42 262.713 51.2133 262.006 50.8C261.313 50.3733 260.766 49.7733 260.366 49C259.979 48.2267 259.786 47.34 259.786 46.34C259.786 45.3267 259.979 44.4333 260.366 43.66C260.766 42.8867 261.313 42.2933 262.006 41.88C262.713 41.4533 263.519 41.24 264.426 41.24C265.173 41.24 265.846 41.3933 266.446 41.7C267.046 42.0067 267.486 42.4267 267.766 42.96H267.826V41.48ZM264.706 50.08C265.319 50.08 265.866 49.9267 266.346 49.62C266.826 49.3 267.199 48.86 267.466 48.3C267.733 47.7267 267.866 47.0733 267.866 46.34C267.866 45.2333 267.573 44.34 266.986 43.66C266.399 42.9667 265.639 42.62 264.706 42.62C263.746 42.62 262.973 42.96 262.386 43.64C261.799 44.32 261.506 45.22 261.506 46.34C261.506 47.46 261.799 48.3667 262.386 49.06C262.973 49.74 263.746 50.08 264.706 50.08ZM281.109 50.68C281.309 50.68 281.509 50.6467 281.709 50.58V52C281.536 52.0667 281.196 52.1 280.689 52.1C280.143 52.1 279.723 51.9867 279.429 51.76C279.149 51.5333 278.983 51.18 278.929 50.7H278.869C278.509 51.2333 278.003 51.6267 277.349 51.88C276.696 52.12 276.023 52.24 275.329 52.24C274.729 52.24 274.183 52.1133 273.689 51.86C273.196 51.6067 272.803 51.2467 272.509 50.78C272.216 50.3 272.069 49.7533 272.069 49.14C272.069 48.0467 272.429 47.26 273.149 46.78C273.883 46.2867 274.949 45.9533 276.349 45.78C277.043 45.6867 277.569 45.5933 277.929 45.5C278.289 45.3933 278.536 45.2667 278.669 45.12C278.816 44.9733 278.889 44.7733 278.889 44.52C278.889 43.9333 278.703 43.4733 278.329 43.14C277.956 42.8067 277.376 42.64 276.589 42.64C275.989 42.64 275.449 42.7933 274.969 43.1C274.503 43.4067 274.176 43.9067 273.989 44.6L272.449 44.22C272.689 43.26 273.183 42.5267 273.929 42.02C274.689 41.5 275.596 41.24 276.649 41.24C277.996 41.24 278.983 41.5333 279.609 42.12C280.249 42.7067 280.569 43.4933 280.569 44.48V50C280.569 50.2533 280.616 50.4333 280.709 50.54C280.803 50.6333 280.936 50.68 281.109 50.68ZM278.889 46.38C278.743 46.5533 278.456 46.6867 278.029 46.78C277.616 46.8733 277.003 46.9733 276.189 47.08C275.523 47.1733 274.956 47.3867 274.489 47.72C274.023 48.04 273.789 48.5067 273.789 49.12C273.789 49.6667 273.956 50.1 274.289 50.42C274.623 50.7267 275.076 50.88 275.649 50.88C276.156 50.88 276.656 50.78 277.149 50.58C277.643 50.38 278.056 50.0533 278.389 49.6C278.723 49.1333 278.889 48.5333 278.889 47.8V46.38ZM295.243 41.24C295.883 41.24 296.463 41.38 296.983 41.66C297.516 41.94 297.936 42.36 298.243 42.92C298.563 43.48 298.723 44.1667 298.723 44.98V52H297.043V45.56C297.043 44.5467 296.856 43.8133 296.483 43.36C296.109 42.8933 295.536 42.66 294.763 42.66C294.043 42.66 293.429 42.9467 292.923 43.52C292.416 44.0933 292.163 44.9467 292.163 46.08V52H290.483V45.56C290.483 44.5467 290.296 43.8133 289.923 43.36C289.563 42.8933 288.996 42.66 288.223 42.66C287.503 42.66 286.889 42.96 286.383 43.56C285.876 44.1467 285.623 45.0133 285.623 46.16V52H283.943V41.48H285.543V42.98H285.603C285.923 42.4333 286.356 42.0067 286.903 41.7C287.449 41.3933 288.043 41.24 288.683 41.24C289.363 41.24 289.969 41.3933 290.503 41.7C291.049 42.0067 291.469 42.46 291.763 43.06C292.616 41.8467 293.776 41.24 295.243 41.24ZM310.987 49C310.693 49.92 310.167 50.6933 309.407 51.32C308.647 51.9333 307.6 52.24 306.267 52.24C305.32 52.24 304.48 52.0133 303.747 51.56C303.013 51.1067 302.44 50.4667 302.027 49.64C301.627 48.8 301.427 47.8333 301.427 46.74C301.427 45.6467 301.627 44.6867 302.027 43.86C302.427 43.02 302.987 42.3733 303.707 41.92C304.44 41.4667 305.287 41.24 306.247 41.24C307.22 41.24 308.08 41.48 308.827 41.96C309.587 42.4267 310.167 43.1067 310.567 44C310.967 44.88 311.133 45.9267 311.067 47.14H303.127C303.153 48.2467 303.453 49.1467 304.027 49.84C304.6 50.52 305.347 50.86 306.267 50.86C307.12 50.86 307.787 50.6533 308.267 50.24C308.76 49.8267 309.1 49.34 309.287 48.78L310.987 49ZM306.247 42.62C305.353 42.62 304.633 42.9267 304.087 43.54C303.553 44.1533 303.247 44.9133 303.167 45.82H309.347C309.267 44.9133 308.953 44.1533 308.407 43.54C307.86 42.9267 307.14 42.62 306.247 42.62ZM320.421 44.54C320.288 43.9267 319.975 43.4467 319.481 43.1C318.988 42.74 318.415 42.56 317.761 42.56C317.068 42.56 316.515 42.7133 316.101 43.02C315.688 43.3267 315.481 43.74 315.481 44.26C315.481 44.7267 315.668 45.0667 316.041 45.28C316.415 45.4933 316.948 45.66 317.641 45.78L318.761 45.96C319.855 46.1467 320.701 46.4533 321.301 46.88C321.915 47.2933 322.221 47.9933 322.221 48.98C322.221 50.02 321.815 50.8267 321.001 51.4C320.201 51.96 319.168 52.24 317.901 52.24C316.635 52.24 315.588 51.94 314.761 51.34C313.948 50.74 313.468 49.9467 313.321 48.96L314.861 48.62C315.008 49.3667 315.355 49.94 315.901 50.34C316.448 50.7267 317.121 50.92 317.921 50.92C318.681 50.92 319.301 50.7533 319.781 50.42C320.261 50.0733 320.501 49.6133 320.501 49.04C320.501 48.5333 320.301 48.1667 319.901 47.94C319.515 47.7133 318.921 47.5267 318.121 47.38L317.021 47.18C316.021 47.0067 315.228 46.7133 314.641 46.3C314.055 45.8867 313.761 45.2133 313.761 44.28C313.761 43.6933 313.928 43.1667 314.261 42.7C314.608 42.2333 315.088 41.8733 315.701 41.62C316.315 41.3667 317.008 41.24 317.781 41.24C318.501 41.24 319.161 41.3733 319.761 41.64C320.375 41.9067 320.868 42.2667 321.241 42.72C321.628 43.1733 321.868 43.6667 321.961 44.2L320.421 44.54Z" fill="#9B9BA2"/>
<path d="M512.586 19.48C512.399 20.3067 512.046 21.0867 511.526 21.82C511.019 22.5533 510.339 23.1533 509.486 23.62C508.646 24.0733 507.666 24.3 506.546 24.3C505.266 24.3 504.126 24 503.126 23.4C502.126 22.8 501.346 21.94 500.786 20.82C500.239 19.6867 499.966 18.36 499.966 16.84C499.966 15.3333 500.239 14.02 500.786 12.9C501.346 11.78 502.126 10.92 503.126 10.32C504.126 9.72 505.266 9.42 506.546 9.42C507.599 9.42 508.526 9.62667 509.326 10.04C510.126 10.44 510.773 10.9333 511.266 11.52C511.759 12.1067 512.113 12.6867 512.326 13.26L510.566 13.66C510.246 12.8867 509.739 12.24 509.046 11.72C508.366 11.2 507.533 10.94 506.546 10.94C505.599 10.94 504.766 11.1733 504.046 11.64C503.339 12.1067 502.786 12.7867 502.386 13.68C501.999 14.56 501.806 15.6133 501.806 16.84C501.806 18.08 501.999 19.1467 502.386 20.04C502.786 20.9333 503.339 21.6133 504.046 22.08C504.766 22.5467 505.599 22.78 506.546 22.78C507.679 22.78 508.599 22.4467 509.306 21.78C510.026 21.1 510.519 20.2467 510.786 19.22L512.586 19.48ZM517.263 9.52V14.98H517.323C517.657 14.4333 518.11 14.0067 518.683 13.7C519.27 13.3933 519.91 13.24 520.603 13.24C521.67 13.24 522.55 13.56 523.243 14.2C523.95 14.84 524.303 15.7667 524.303 16.98V24H522.623V17.56C522.623 16.5467 522.417 15.8133 522.003 15.36C521.603 14.8933 520.977 14.66 520.123 14.66C519.643 14.66 519.183 14.8 518.743 15.08C518.303 15.36 517.943 15.7733 517.663 16.32C517.397 16.8667 517.263 17.52 517.263 18.28V24H515.583V9.52H517.263ZM531.993 13.24C532.979 13.24 533.846 13.4667 534.593 13.92C535.353 14.3733 535.939 15.0133 536.353 15.84C536.766 16.6667 536.973 17.6333 536.973 18.74C536.973 19.8467 536.766 20.8133 536.353 21.64C535.939 22.4667 535.353 23.1067 534.593 23.56C533.846 24.0133 532.979 24.24 531.993 24.24C531.006 24.24 530.133 24.0133 529.373 23.56C528.626 23.1067 528.046 22.4667 527.633 21.64C527.219 20.8133 527.013 19.8467 527.013 18.74C527.013 17.6333 527.219 16.6667 527.633 15.84C528.046 15.0133 528.626 14.3733 529.373 13.92C530.133 13.4667 531.006 13.24 531.993 13.24ZM531.993 22.86C532.979 22.86 533.766 22.4933 534.353 21.76C534.953 21.0133 535.253 20.0067 535.253 18.74C535.253 17.4733 534.953 16.4733 534.353 15.74C533.766 14.9933 532.979 14.62 531.993 14.62C531.006 14.62 530.213 14.9933 529.613 15.74C529.026 16.4733 528.733 17.4733 528.733 18.74C528.733 20.0067 529.026 21.0133 529.613 21.76C530.213 22.4933 531.006 22.86 531.993 22.86ZM544.2 13.24C545.186 13.24 546.053 13.4667 546.8 13.92C547.56 14.3733 548.146 15.0133 548.56 15.84C548.973 16.6667 549.18 17.6333 549.18 18.74C549.18 19.8467 548.973 20.8133 548.56 21.64C548.146 22.4667 547.56 23.1067 546.8 23.56C546.053 24.0133 545.186 24.24 544.2 24.24C543.213 24.24 542.34 24.0133 541.58 23.56C540.833 23.1067 540.253 22.4667 539.84 21.64C539.426 20.8133 539.22 19.8467 539.22 18.74C539.22 17.6333 539.426 16.6667 539.84 15.84C540.253 15.0133 540.833 14.3733 541.58 13.92C542.34 13.4667 543.213 13.24 544.2 13.24ZM544.2 22.86C545.186 22.86 545.973 22.4933 546.56 21.76C547.16 21.0133 547.46 20.0067 547.46 18.74C547.46 17.4733 547.16 16.4733 546.56 15.74C545.973 14.9933 545.186 14.62 544.2 14.62C543.213 14.62 542.42 14.9933 541.82 15.74C541.233 16.4733 540.94 17.4733 540.94 18.74C540.94 20.0067 541.233 21.0133 541.82 21.76C542.42 22.4933 543.213 22.86 544.2 22.86ZM558.527 16.54C558.393 15.9267 558.08 15.4467 557.587 15.1C557.093 14.74 556.52 14.56 555.867 14.56C555.173 14.56 554.62 14.7133 554.207 15.02C553.793 15.3267 553.587 15.74 553.587 16.26C553.587 16.7267 553.773 17.0667 554.147 17.28C554.52 17.4933 555.053 17.66 555.747 17.78L556.867 17.96C557.96 18.1467 558.807 18.4533 559.407 18.88C560.02 19.2933 560.327 19.9933 560.327 20.98C560.327 22.02 559.92 22.8267 559.107 23.4C558.307 23.96 557.273 24.24 556.007 24.24C554.74 24.24 553.693 23.94 552.867 23.34C552.053 22.74 551.573 21.9467 551.427 20.96L552.967 20.62C553.113 21.3667 553.46 21.94 554.007 22.34C554.553 22.7267 555.227 22.92 556.027 22.92C556.787 22.92 557.407 22.7533 557.887 22.42C558.367 22.0733 558.607 21.6133 558.607 21.04C558.607 20.5333 558.407 20.1667 558.007 19.94C557.62 19.7133 557.027 19.5267 556.227 19.38L555.127 19.18C554.127 19.0067 553.333 18.7133 552.747 18.3C552.16 17.8867 551.867 17.2133 551.867 16.28C551.867 15.6933 552.033 15.1667 552.367 14.7C552.713 14.2333 553.193 13.8733 553.807 13.62C554.42 13.3667 555.113 13.24 555.887 13.24C556.607 13.24 557.267 13.3733 557.867 13.64C558.48 13.9067 558.973 14.2667 559.347 14.72C559.733 15.1733 559.973 15.6667 560.067 16.2L558.527 16.54ZM572.119 21C571.826 21.92 571.299 22.6933 570.539 23.32C569.779 23.9333 568.733 24.24 567.399 24.24C566.453 24.24 565.613 24.0133 564.879 23.56C564.146 23.1067 563.573 22.4667 563.159 21.64C562.759 20.8 562.559 19.8333 562.559 18.74C562.559 17.6467 562.759 16.6867 563.159 15.86C563.559 15.02 564.119 14.3733 564.839 13.92C565.573 13.4667 566.419 13.24 567.379 13.24C568.353 13.24 569.213 13.48 569.959 13.96C570.719 14.4267 571.299 15.1067 571.699 16C572.099 16.88 572.266 17.9267 572.199 19.14H564.259C564.286 20.2467 564.586 21.1467 565.159 21.84C565.733 22.52 566.479 22.86 567.399 22.86C568.253 22.86 568.919 22.6533 569.399 22.24C569.893 21.8267 570.233 21.34 570.419 20.78L572.119 21ZM567.379 14.62C566.486 14.62 565.766 14.9267 565.219 15.54C564.686 16.1533 564.379 16.9133 564.299 17.82H570.479C570.399 16.9133 570.086 16.1533 569.539 15.54C568.993 14.9267 568.273 14.62 567.379 14.62ZM512.826 37.48H514.426V47.28C514.426 48.8667 513.993 50.0333 513.126 50.78C512.259 51.54 511.099 51.92 509.646 51.92C508.486 51.92 507.493 51.66 506.666 51.14C505.853 50.62 505.286 49.8333 504.966 48.78L506.566 48.4C506.779 49.1467 507.146 49.6867 507.666 50.02C508.186 50.3667 508.846 50.54 509.646 50.54C511.713 50.54 512.746 49.4267 512.746 47.2V45.78H512.686C512.419 46.2867 511.993 46.6867 511.406 46.98C510.819 47.2733 510.159 47.42 509.426 47.42C508.519 47.42 507.713 47.2133 507.006 46.8C506.313 46.3733 505.766 45.7733 505.366 45C504.979 44.2267 504.786 43.34 504.786 42.34C504.786 41.3267 504.979 40.4333 505.366 39.66C505.766 38.8867 506.313 38.2933 507.006 37.88C507.713 37.4533 508.519 37.24 509.426 37.24C510.173 37.24 510.846 37.3933 511.446 37.7C512.046 38.0067 512.486 38.4267 512.766 38.96H512.826V37.48ZM509.706 46.08C510.319 46.08 510.866 45.9267 511.346 45.62C511.826 45.3 512.199 44.86 512.466 44.3C512.733 43.7267 512.866 43.0733 512.866 42.34C512.866 41.2333 512.573 40.34 511.986 39.66C511.399 38.9667 510.639 38.62 509.706 38.62C508.746 38.62 507.973 38.96 507.386 39.64C506.799 40.32 506.506 41.22 506.506 42.34C506.506 43.46 506.799 44.3667 507.386 45.06C507.973 45.74 508.746 46.08 509.706 46.08ZM526.109 46.68C526.309 46.68 526.509 46.6467 526.709 46.58V48C526.536 48.0667 526.196 48.1 525.689 48.1C525.143 48.1 524.723 47.9867 524.429 47.76C524.149 47.5333 523.983 47.18 523.929 46.7H523.869C523.509 47.2333 523.003 47.6267 522.349 47.88C521.696 48.12 521.023 48.24 520.329 48.24C519.729 48.24 519.183 48.1133 518.689 47.86C518.196 47.6067 517.803 47.2467 517.509 46.78C517.216 46.3 517.069 45.7533 517.069 45.14C517.069 44.0467 517.429 43.26 518.149 42.78C518.883 42.2867 519.949 41.9533 521.349 41.78C522.043 41.6867 522.569 41.5933 522.929 41.5C523.289 41.3933 523.536 41.2667 523.669 41.12C523.816 40.9733 523.889 40.7733 523.889 40.52C523.889 39.9333 523.703 39.4733 523.329 39.14C522.956 38.8067 522.376 38.64 521.589 38.64C520.989 38.64 520.449 38.7933 519.969 39.1C519.503 39.4067 519.176 39.9067 518.989 40.6L517.449 40.22C517.689 39.26 518.183 38.5267 518.929 38.02C519.689 37.5 520.596 37.24 521.649 37.24C522.996 37.24 523.983 37.5333 524.609 38.12C525.249 38.7067 525.569 39.4933 525.569 40.48V46C525.569 46.2533 525.616 46.4333 525.709 46.54C525.803 46.6333 525.936 46.68 526.109 46.68ZM523.889 42.38C523.743 42.5533 523.456 42.6867 523.029 42.78C522.616 42.8733 522.003 42.9733 521.189 43.08C520.523 43.1733 519.956 43.3867 519.489 43.72C519.023 44.04 518.789 44.5067 518.789 45.12C518.789 45.6667 518.956 46.1 519.289 46.42C519.623 46.7267 520.076 46.88 520.649 46.88C521.156 46.88 521.656 46.78 522.149 46.58C522.643 46.38 523.056 46.0533 523.389 45.6C523.723 45.1333 523.889 44.5333 523.889 43.8V42.38ZM540.243 37.24C540.883 37.24 541.463 37.38 541.983 37.66C542.516 37.94 542.936 38.36 543.243 38.92C543.563 39.48 543.723 40.1667 543.723 40.98V48H542.043V41.56C542.043 40.5467 541.856 39.8133 541.483 39.36C541.109 38.8933 540.536 38.66 539.763 38.66C539.043 38.66 538.429 38.9467 537.923 39.52C537.416 40.0933 537.163 40.9467 537.163 42.08V48H535.483V41.56C535.483 40.5467 535.296 39.8133 534.923 39.36C534.563 38.8933 533.996 38.66 533.223 38.66C532.503 38.66 531.889 38.96 531.383 39.56C530.876 40.1467 530.623 41.0133 530.623 42.16V48H528.943V37.48H530.543V38.98H530.603C530.923 38.4333 531.356 38.0067 531.903 37.7C532.449 37.3933 533.043 37.24 533.683 37.24C534.363 37.24 534.969 37.3933 535.503 37.7C536.049 38.0067 536.469 38.46 536.763 39.06C537.616 37.8467 538.776 37.24 540.243 37.24ZM555.987 45C555.693 45.92 555.167 46.6933 554.407 47.32C553.647 47.9333 552.6 48.24 551.267 48.24C550.32 48.24 549.48 48.0133 548.747 47.56C548.013 47.1067 547.44 46.4667 547.027 45.64C546.627 44.8 546.427 43.8333 546.427 42.74C546.427 41.6467 546.627 40.6867 547.027 39.86C547.427 39.02 547.987 38.3733 548.707 37.92C549.44 37.4667 550.287 37.24 551.247 37.24C552.22 37.24 553.08 37.48 553.827 37.96C554.587 38.4267 555.167 39.1067 555.567 40C555.967 40.88 556.133 41.9267 556.067 43.14H548.127C548.153 44.2467 548.453 45.1467 549.027 45.84C549.6 46.52 550.347 46.86 551.267 46.86C552.12 46.86 552.787 46.6533 553.267 46.24C553.76 45.8267 554.1 45.34 554.287 44.78L555.987 45ZM551.247 38.62C550.353 38.62 549.633 38.9267 549.087 39.54C548.553 40.1533 548.247 40.9133 548.167 41.82H554.347C554.267 40.9133 553.953 40.1533 553.407 39.54C552.86 38.9267 552.14 38.62 551.247 38.62ZM565.421 40.54C565.288 39.9267 564.975 39.4467 564.481 39.1C563.988 38.74 563.415 38.56 562.761 38.56C562.068 38.56 561.515 38.7133 561.101 39.02C560.688 39.3267 560.481 39.74 560.481 40.26C560.481 40.7267 560.668 41.0667 561.041 41.28C561.415 41.4933 561.948 41.66 562.641 41.78L563.761 41.96C564.855 42.1467 565.701 42.4533 566.301 42.88C566.915 43.2933 567.221 43.9933 567.221 44.98C567.221 46.02 566.815 46.8267 566.001 47.4C565.201 47.96 564.168 48.24 562.901 48.24C561.635 48.24 560.588 47.94 559.761 47.34C558.948 46.74 558.468 45.9467 558.321 44.96L559.861 44.62C560.008 45.3667 560.355 45.94 560.901 46.34C561.448 46.7267 562.121 46.92 562.921 46.92C563.681 46.92 564.301 46.7533 564.781 46.42C565.261 46.0733 565.501 45.6133 565.501 45.04C565.501 44.5333 565.301 44.1667 564.901 43.94C564.515 43.7133 563.921 43.5267 563.121 43.38L562.021 43.18C561.021 43.0067 560.228 42.7133 559.641 42.3C559.055 41.8867 558.761 41.2133 558.761 40.28C558.761 39.6933 558.928 39.1667 559.261 38.7C559.608 38.2333 560.088 37.8733 560.701 37.62C561.315 37.3667 562.008 37.24 562.781 37.24C563.501 37.24 564.161 37.3733 564.761 37.64C565.375 37.9067 565.868 38.2667 566.241 38.72C566.628 39.1733 566.868 39.6667 566.961 40.2L565.421 40.54Z" fill="#9B9BA2"/>
<path d="M749.225 5.72C750.731 5.72 751.898 6.10667 752.725 6.88C753.551 7.64 753.965 8.69333 753.965 10.04C753.965 11.4 753.551 12.4667 752.725 13.24C751.898 14 750.731 14.38 749.225 14.38H745.005V20H743.205V5.72H749.225ZM748.965 12.84C749.978 12.84 750.758 12.6067 751.305 12.14C751.851 11.66 752.125 10.96 752.125 10.04C752.125 9.12 751.851 8.42667 751.305 7.96C750.758 7.48 749.978 7.24 748.965 7.24H745.005V12.84H748.965ZM765.442 17C765.148 17.92 764.622 18.6933 763.862 19.32C763.102 19.9333 762.055 20.24 760.722 20.24C759.775 20.24 758.935 20.0133 758.202 19.56C757.468 19.1067 756.895 18.4667 756.482 17.64C756.082 16.8 755.882 15.8333 755.882 14.74C755.882 13.6467 756.082 12.6867 756.482 11.86C756.882 11.02 757.442 10.3733 758.162 9.92C758.895 9.46667 759.742 9.24 760.702 9.24C761.675 9.24 762.535 9.48 763.282 9.96C764.042 10.4267 764.622 11.1067 765.022 12C765.422 12.88 765.588 13.9267 765.522 15.14H757.582C757.608 16.2467 757.908 17.1467 758.482 17.84C759.055 18.52 759.802 18.86 760.722 18.86C761.575 18.86 762.242 18.6533 762.722 18.24C763.215 17.8267 763.555 17.34 763.742 16.78L765.442 17ZM760.702 10.62C759.808 10.62 759.088 10.9267 758.542 11.54C758.008 12.1533 757.702 12.9133 757.622 13.82H763.802C763.722 12.9133 763.408 12.1533 762.862 11.54C762.315 10.9267 761.595 10.62 760.702 10.62ZM768.456 9.48H770.056V11.28H770.116C770.396 10.6533 770.823 10.16 771.396 9.8C771.97 9.42667 772.643 9.24 773.416 9.24C773.723 9.24 774.023 9.26667 774.316 9.32V10.94C773.876 10.9 773.55 10.88 773.336 10.88C772.363 10.88 771.583 11.18 770.996 11.78C770.423 12.38 770.136 13.3 770.136 14.54V20H768.456V9.48ZM783.099 12.54C782.966 11.9267 782.652 11.4467 782.159 11.1C781.666 10.74 781.092 10.56 780.439 10.56C779.746 10.56 779.192 10.7133 778.779 11.02C778.366 11.3267 778.159 11.74 778.159 12.26C778.159 12.7267 778.346 13.0667 778.719 13.28C779.092 13.4933 779.626 13.66 780.319 13.78L781.439 13.96C782.532 14.1467 783.379 14.4533 783.979 14.88C784.592 15.2933 784.899 15.9933 784.899 16.98C784.899 18.02 784.492 18.8267 783.679 19.4C782.879 19.96 781.846 20.24 780.579 20.24C779.312 20.24 778.266 19.94 777.439 19.34C776.626 18.74 776.146 17.9467 775.999 16.96L777.539 16.62C777.686 17.3667 778.032 17.94 778.579 18.34C779.126 18.7267 779.799 18.92 780.599 18.92C781.359 18.92 781.979 18.7533 782.459 18.42C782.939 18.0733 783.179 17.6133 783.179 17.04C783.179 16.5333 782.979 16.1667 782.579 15.94C782.192 15.7133 781.599 15.5267 780.799 15.38L779.699 15.18C778.699 15.0067 777.906 14.7133 777.319 14.3C776.732 13.8867 776.439 13.2133 776.439 12.28C776.439 11.6933 776.606 11.1667 776.939 10.7C777.286 10.2333 777.766 9.87333 778.379 9.62C778.992 9.36667 779.686 9.24 780.459 9.24C781.179 9.24 781.839 9.37333 782.439 9.64C783.052 9.90667 783.546 10.2667 783.919 10.72C784.306 11.1733 784.546 11.6667 784.639 12.2L783.099 12.54ZM792.112 9.24C793.098 9.24 793.965 9.46667 794.712 9.92C795.472 10.3733 796.058 11.0133 796.472 11.84C796.885 12.6667 797.092 13.6333 797.092 14.74C797.092 15.8467 796.885 16.8133 796.472 17.64C796.058 18.4667 795.472 19.1067 794.712 19.56C793.965 20.0133 793.098 20.24 792.112 20.24C791.125 20.24 790.252 20.0133 789.492 19.56C788.745 19.1067 788.165 18.4667 787.752 17.64C787.338 16.8133 787.132 15.8467 787.132 14.74C787.132 13.6333 787.338 12.6667 787.752 11.84C788.165 11.0133 788.745 10.3733 789.492 9.92C790.252 9.46667 791.125 9.24 792.112 9.24ZM792.112 18.86C793.098 18.86 793.885 18.4933 794.472 17.76C795.072 17.0133 795.372 16.0067 795.372 14.74C795.372 13.4733 795.072 12.4733 794.472 11.74C793.885 10.9933 793.098 10.62 792.112 10.62C791.125 10.62 790.332 10.9933 789.732 11.74C789.145 12.4733 788.852 13.4733 788.852 14.74C788.852 16.0067 789.145 17.0133 789.732 17.76C790.332 18.4933 791.125 18.86 792.112 18.86ZM801.619 9.48V10.98H801.679C801.999 10.4333 802.452 10.0067 803.039 9.7C803.625 9.39333 804.279 9.24 804.999 9.24C806.079 9.24 806.972 9.56 807.679 10.2C808.385 10.84 808.739 11.7667 808.739 12.98V20H807.059V13.56C807.059 12.5467 806.852 11.8133 806.439 11.36C806.039 10.8933 805.412 10.66 804.559 10.66C804.052 10.66 803.579 10.7867 803.139 11.04C802.712 11.2933 802.365 11.6867 802.099 12.22C801.832 12.74 801.699 13.3867 801.699 14.16V20H800.019V9.48H801.619ZM820.408 18.68C820.608 18.68 820.808 18.6467 821.008 18.58V20C820.835 20.0667 820.495 20.1 819.988 20.1C819.441 20.1 819.021 19.9867 818.728 19.76C818.448 19.5333 818.281 19.18 818.228 18.7H818.168C817.808 19.2333 817.301 19.6267 816.648 19.88C815.995 20.12 815.321 20.24 814.628 20.24C814.028 20.24 813.481 20.1133 812.988 19.86C812.495 19.6067 812.101 19.2467 811.808 18.78C811.515 18.3 811.368 17.7533 811.368 17.14C811.368 16.0467 811.728 15.26 812.448 14.78C813.181 14.2867 814.248 13.9533 815.648 13.78C816.341 13.6867 816.868 13.5933 817.228 13.5C817.588 13.3933 817.835 13.2667 817.968 13.12C818.115 12.9733 818.188 12.7733 818.188 12.52C818.188 11.9333 818.001 11.4733 817.628 11.14C817.255 10.8067 816.675 10.64 815.888 10.64C815.288 10.64 814.748 10.7933 814.268 11.1C813.801 11.4067 813.475 11.9067 813.288 12.6L811.748 12.22C811.988 11.26 812.481 10.5267 813.228 10.02C813.988 9.5 814.895 9.24 815.948 9.24C817.295 9.24 818.281 9.53333 818.908 10.12C819.548 10.7067 819.868 11.4933 819.868 12.48V18C819.868 18.2533 819.915 18.4333 820.008 18.54C820.101 18.6333 820.235 18.68 820.408 18.68ZM818.188 14.38C818.041 14.5533 817.755 14.6867 817.328 14.78C816.915 14.8733 816.301 14.9733 815.488 15.08C814.821 15.1733 814.255 15.3867 813.788 15.72C813.321 16.04 813.088 16.5067 813.088 17.12C813.088 17.6667 813.255 18.1 813.588 18.42C813.921 18.7267 814.375 18.88 814.948 18.88C815.455 18.88 815.955 18.78 816.448 18.58C816.941 18.38 817.355 18.0533 817.688 17.6C818.021 17.1333 818.188 16.5333 818.188 15.8V14.38ZM824.921 20H823.241V5.52H824.921V20ZM769.256 44H767.576V33.48H769.256V44ZM769.276 31.44H767.556V29.52H769.276V31.44ZM774.392 33.48V34.98H774.452C774.772 34.4333 775.226 34.0067 775.812 33.7C776.399 33.3933 777.052 33.24 777.772 33.24C778.852 33.24 779.746 33.56 780.452 34.2C781.159 34.84 781.512 35.7667 781.512 36.98V44H779.832V37.56C779.832 36.5467 779.626 35.8133 779.212 35.36C778.812 34.8933 778.186 34.66 777.332 34.66C776.826 34.66 776.352 34.7867 775.912 35.04C775.486 35.2933 775.139 35.6867 774.872 36.22C774.606 36.74 774.472 37.3867 774.472 38.16V44H772.792V33.48H774.392ZM788.503 30.7C788.063 30.7 787.717 30.7867 787.463 30.96C787.21 31.1333 787.083 31.4933 787.083 32.04V33.48H789.503V34.78H787.083V44H785.403V34.78H783.643V33.48H785.403V31.88C785.403 30.1467 786.35 29.28 788.243 29.28C788.897 29.28 789.41 29.3467 789.783 29.48V30.86C789.317 30.7533 788.89 30.7 788.503 30.7ZM796.057 33.24C797.044 33.24 797.91 33.4667 798.657 33.92C799.417 34.3733 800.004 35.0133 800.417 35.84C800.83 36.6667 801.037 37.6333 801.037 38.74C801.037 39.8467 800.83 40.8133 800.417 41.64C800.004 42.4667 799.417 43.1067 798.657 43.56C797.91 44.0133 797.044 44.24 796.057 44.24C795.07 44.24 794.197 44.0133 793.437 43.56C792.69 43.1067 792.11 42.4667 791.697 41.64C791.284 40.8133 791.077 39.8467 791.077 38.74C791.077 37.6333 791.284 36.6667 791.697 35.84C792.11 35.0133 792.69 34.3733 793.437 33.92C794.197 33.4667 795.07 33.24 796.057 33.24ZM796.057 42.86C797.044 42.86 797.83 42.4933 798.417 41.76C799.017 41.0133 799.317 40.0067 799.317 38.74C799.317 37.4733 799.017 36.4733 798.417 35.74C797.83 34.9933 797.044 34.62 796.057 34.62C795.07 34.62 794.277 34.9933 793.677 35.74C793.09 36.4733 792.797 37.4733 792.797 38.74C792.797 40.0067 793.09 41.0133 793.677 41.76C794.277 42.4933 795.07 42.86 796.057 42.86Z" fill="#9B9BA2"/>
</svg>
