<svg width="917" height="613" viewBox="0 0 917 613" fill="none" xmlns="http://www.w3.org/2000/svg">
<g clip-path="url(#clip0_24:172)">
<path d="M893.363 591.2L884.309 595.057L865.118 561.972L878.481 556.278L893.363 591.2Z" fill="#FFB6B6"/>
<path d="M818.544 599.767L808.703 599.766L804.021 561.806H818.547L818.544 599.767Z" fill="#FFB6B6"/>
<path d="M818.892 610.034L788.628 610.033V609.65C788.628 606.526 789.869 603.53 792.078 601.321C794.287 599.112 797.283 597.871 800.408 597.87H800.408L805.936 593.677L816.251 597.871L818.892 597.871L818.892 610.034Z" fill="#373746"/>
<path d="M898.868 597.771L871.027 609.636L870.876 609.284C869.652 606.41 869.619 603.167 870.785 600.269C871.951 597.371 874.221 595.054 877.095 593.829L877.095 593.829L880.536 587.803L891.669 587.618L894.1 586.583L898.868 597.771Z" fill="#373746"/>
<path d="M808.891 375.103L793.934 466.178L798.004 479.75L792.663 489.362L800.507 573.777L797.323 580.787L806.219 586.273H824.322L825.282 509.852L829.754 498.632V492.448L838.857 445.848L840.533 499.152L843.181 510.39L840.956 518.392L843.863 523.997L868.769 577.477H889.067L887.497 565.383C891.134 563.541 882.037 558.16 881.163 554.178L884.152 547.453L881.163 534.75L878.422 509.929L881.312 457.534L879.953 386.978C873.137 377.841 865.577 370.794 856.207 368.82L808.891 375.103Z" fill="#373746"/>
<path d="M845.316 255.162C856.645 255.162 865.829 245.978 865.829 234.649C865.829 223.32 856.645 214.136 845.316 214.136C833.987 214.136 824.803 223.32 824.803 234.649C824.803 245.978 833.987 255.162 845.316 255.162Z" fill="#FFB6B6"/>
<path d="M760.74 396.621C760.484 395.469 760.484 394.275 760.74 393.123C760.996 391.971 761.501 390.889 762.22 389.953C762.939 389.018 763.855 388.251 764.902 387.708C765.95 387.164 767.104 386.857 768.283 386.807L776.546 359.337L786.099 370.78L776.788 395.113C776.739 397.099 775.964 398.998 774.609 400.451C773.253 401.904 771.412 402.809 769.434 402.995C767.456 403.181 765.478 402.635 763.876 401.46C762.273 400.285 761.157 398.564 760.74 396.621Z" fill="#FFB6B6"/>
<path d="M814.344 283.708L810.641 276.942L805.868 278.535C805.868 278.535 800.6 281.934 793.224 294.768C789.812 300.703 782.437 338.765 782.437 338.765L765.198 384.412L782.773 387.383L797.437 349.765L814.437 313.765L814.344 283.708Z" fill="#6C63FF"/>
<path d="M844.555 374.815C858.998 374.815 873.571 377.659 879.539 387.825C879.383 385.615 878.992 381.782 878.586 378.265L877.093 368.816L878.605 360.153L880.605 358.153L877.024 354.571L879.467 336.487L887.532 293.884C888.164 290.533 887.671 287.066 886.129 284.024C884.588 280.981 882.084 278.534 879.007 277.061L871.259 273.335L858.698 261.685L835.976 261.515L828.563 271.152L809.05 277.78L812.325 345.54L810.178 350.55C810.66 350.992 811.675 351.936 812.225 352.545C813.002 353.405 812.012 357.835 811.352 360.399L810.445 367.23L813.3 369.27L809.588 373.654L808.847 379.219C812.532 378.347 828.463 374.815 844.555 374.815Z" fill="#6C63FF"/>
<path d="M850.563 254.158C850.651 253.965 850.739 253.771 850.826 253.577C850.792 253.578 850.759 253.583 850.725 253.584L850.563 254.158Z" fill="#2F2E41"/>
<path d="M866.399 215.069C865.425 214.15 864.159 213.602 862.823 213.522C861.496 213.565 860.151 214.763 860.426 216.061C857.99 211.747 854.111 208.429 849.472 206.69C844.833 204.95 839.73 204.9 835.057 206.549C831.761 207.712 828.528 210.039 827.77 213.452C827.697 214.348 827.429 215.217 826.987 216C826.604 216.419 826.106 216.716 825.556 216.855C825.006 216.995 824.427 216.97 823.891 216.785L823.859 216.775C823.675 216.712 823.477 216.706 823.29 216.757C823.103 216.809 822.935 216.915 822.809 217.062C822.683 217.209 822.604 217.391 822.582 217.584C822.56 217.777 822.597 217.972 822.687 218.143L823.62 219.883C822.444 220.145 821.222 220.119 820.059 219.807C819.865 219.757 819.661 219.767 819.474 219.837C819.287 219.907 819.126 220.033 819.013 220.198C818.901 220.363 818.842 220.559 818.845 220.759C818.848 220.959 818.913 221.153 819.03 221.314C820.581 223.435 822.605 225.165 824.941 226.366C827.278 227.567 829.862 228.206 832.489 228.232C836.216 228.21 839.982 226.925 843.609 227.782C845.013 228.114 846.324 228.755 847.447 229.66C848.57 230.564 849.476 231.709 850.099 233.009C850.722 234.309 851.046 235.733 851.048 237.175C851.049 238.617 850.727 240.04 850.106 241.342C851.221 240.123 853.375 240.412 854.515 241.607C855.04 242.246 855.428 242.987 855.655 243.783C855.882 244.579 855.943 245.413 855.835 246.233C855.531 248.746 854.785 251.185 853.631 253.438C858.039 253.302 862.298 251.817 865.835 249.183C869.371 246.55 872.014 242.894 873.407 238.71C874.799 234.526 874.874 230.015 873.62 225.787C872.367 221.559 869.847 217.818 866.399 215.069H866.399Z" fill="#2F2E41"/>
<path d="M203.437 138.481C231.603 138.481 254.437 115.647 254.437 87.481C254.437 59.3144 231.603 36.481 203.437 36.481C175.27 36.481 152.437 59.3144 152.437 87.481C152.437 115.647 175.27 138.481 203.437 138.481Z" fill="#6C63FF"/>
<path d="M60.0966 239.191C34.5065 182.587 35.4501 110.84 75.1649 63.0752C88.4519 129.308 124.738 188.707 177.604 230.762C198.05 246.907 222.473 262.735 228.059 288.181C231.535 304.015 226.608 320.762 218.091 334.555C209.574 348.347 197.701 359.693 185.964 370.875L184.647 374.701C133.574 339.341 85.6867 295.794 60.0966 239.191Z" fill="#F2F2F2"/>
<path d="M76.2697 63.7659C67.1298 113.814 73.9197 167.107 96.1353 212.96C100.938 222.874 106.673 232.512 114.352 240.485C122.033 248.462 131.218 253.483 141.784 256.568C151.443 259.389 161.65 261.155 170.456 266.274C179.737 271.67 185.497 280.723 187.741 291.106C190.486 303.81 188.503 316.742 186.125 329.321C183.484 343.288 180.52 357.754 184.346 371.794C184.81 373.495 182.143 374.115 181.68 372.417C175.022 347.989 187.967 323.896 186.158 299.336C185.314 287.876 181.011 276.601 171.184 269.961C162.592 264.155 152.068 262.325 142.263 259.554C131.968 256.644 122.722 252.2 114.854 244.828C106.806 237.286 100.682 227.852 95.647 218.104C84.2911 196.122 76.8052 171.903 72.8446 147.518C68.2902 119.492 68.5638 90.8924 73.6534 62.9579C73.9691 61.2291 76.5834 62.0484 76.2697 63.7659H76.2697Z" fill="white"/>
<path d="M88.1281 198.437C79.8377 201.094 70.8728 200.717 62.8343 197.375C54.7959 194.032 48.2073 187.941 44.2454 180.189C43.4491 178.617 45.8534 177.306 46.6507 178.879C50.3268 186.105 56.4646 191.778 63.9563 194.876C71.4481 197.973 79.8003 198.291 87.5055 195.771C89.1806 195.225 89.7936 197.894 88.1281 198.437H88.1281Z" fill="white"/>
<path d="M136.698 255.783C144.982 240.033 147.025 221.738 142.42 204.548C141.962 202.845 144.629 202.225 145.086 203.926C149.845 221.823 147.68 240.857 139.023 257.228C138.197 258.788 135.876 257.335 136.698 255.783H136.698Z" fill="white"/>
<path d="M71.8102 120.381C75.2321 120.021 78.5112 118.817 81.3529 116.877C84.1946 114.937 86.5099 112.322 88.091 109.266C88.897 107.696 91.2172 109.151 90.4164 110.711C88.6539 114.079 86.0933 116.964 82.9584 119.115C79.8236 121.265 76.2097 122.615 72.4328 123.047C72.0801 123.118 71.7139 123.051 71.4085 122.862C71.103 122.672 70.8813 122.373 70.7884 122.025C70.7077 121.672 70.7698 121.301 70.9611 120.993C71.1525 120.685 71.4576 120.465 71.8102 120.381Z" fill="white"/>
<path d="M285.487 63.6296C285.012 64.624 284.536 65.6184 284.072 66.6331C277.75 80.035 272.527 93.9284 268.454 108.176C268.122 109.273 267.802 110.389 267.501 111.493C258.056 145.923 255.085 181.808 258.74 217.324C260.207 231.455 262.747 245.453 266.338 259.199C271.299 278.182 278.187 298.37 276.633 317.325C276.493 319.304 276.231 321.273 275.847 323.22L189.417 376.011C189.161 376.032 188.915 376.074 188.657 376.096L185.303 378.361C185.068 377.665 184.84 376.939 184.605 376.243C184.467 375.839 184.349 375.424 184.211 375.021C184.125 374.749 184.04 374.476 183.947 374.235C183.918 374.144 183.89 374.053 183.873 373.982C183.78 373.741 183.719 373.507 183.639 373.286C182.35 369.226 181.088 365.151 179.852 361.059C179.84 361.039 179.84 361.039 179.847 361.008C170.511 329.806 163.697 297.55 161.995 265.286C161.944 264.315 161.881 263.326 161.869 262.331C161.183 247.783 161.687 233.204 163.376 218.739C164.326 210.821 165.677 202.956 167.422 195.175C171.971 175.078 179.653 155.822 190.186 138.112C211.188 102.811 243.246 74.6197 282.482 64.3824C283.486 64.1212 284.471 63.8711 285.487 63.6296Z" fill="#F2F2F2"/>
<path d="M285.963 64.8454C248.532 99.3034 221.868 145.942 211.999 195.929C209.865 206.736 208.641 217.885 209.972 228.874C211.303 239.868 215.613 249.407 222.192 258.231C228.206 266.299 235.292 273.854 239.241 283.243C243.403 293.139 242.551 303.836 238.092 313.477C232.635 325.273 223.266 334.405 213.793 343.017C203.276 352.579 192.199 362.344 186.802 375.858C186.148 377.496 183.645 376.385 184.298 374.75C193.689 351.237 218.531 339.794 231.873 319.095C238.098 309.437 241.451 297.844 237.603 286.626C234.238 276.817 226.937 269.019 220.777 260.904C214.308 252.382 209.602 243.267 207.759 232.644C205.873 221.777 206.664 210.557 208.512 199.743C212.68 175.354 221.284 151.509 232.803 129.655C246.041 104.535 263.478 81.8649 284.36 62.6251C285.653 61.4348 287.247 63.6629 285.963 64.8455L285.963 64.8454Z" fill="white"/>
<path d="M214.35 179.512C206.131 176.642 199.2 170.944 194.794 163.435C190.388 155.926 188.795 147.096 190.299 138.521C190.609 136.787 193.318 137.188 193.008 138.924C191.592 146.907 193.077 155.132 197.194 162.116C201.311 169.099 207.789 174.381 215.458 177.008C217.124 177.581 216.007 180.081 214.35 179.512H214.35Z" fill="white"/>
<path d="M218.604 254.543C234.701 246.954 247.347 233.577 254.02 217.079C254.68 215.444 257.182 216.554 256.523 218.187C249.547 235.343 236.359 249.237 219.59 257.096C217.992 257.844 217.014 255.287 218.604 254.543L218.604 254.543Z" fill="white"/>
<path d="M248.315 107.364C251.264 109.137 254.607 110.15 258.044 110.312C261.481 110.474 264.905 109.78 268.007 108.291C269.596 107.523 270.572 110.082 268.994 110.845C265.559 112.473 261.777 113.236 257.979 113.065C254.181 112.895 250.483 111.797 247.207 109.868C246.883 109.712 246.631 109.438 246.501 109.103C246.372 108.767 246.375 108.395 246.51 108.062C246.658 107.731 246.931 107.472 247.269 107.342C247.607 107.211 247.983 107.219 248.315 107.364Z" fill="white"/>
<path d="M490.097 177.191C464.507 120.587 465.45 48.8396 505.165 1.0752C518.452 67.3083 554.738 126.707 607.604 168.762C628.05 184.907 652.473 200.735 658.059 226.181C661.535 242.015 656.608 258.762 648.091 272.555C639.574 286.347 627.701 297.693 615.964 308.875L614.647 312.701C563.574 277.341 515.687 233.794 490.097 177.191Z" fill="#F2F2F2"/>
<path d="M506.27 1.76591C497.13 51.8142 503.92 105.107 526.135 150.96C530.938 160.874 536.673 170.512 544.352 178.485C552.033 186.462 561.218 191.483 571.784 194.568C581.443 197.389 591.65 199.155 600.456 204.274C609.737 209.67 615.497 218.723 617.741 229.106C620.486 241.81 618.503 254.742 616.125 267.321C613.484 281.288 610.52 295.754 614.346 309.794C614.81 311.495 612.143 312.115 611.68 310.417C605.022 285.989 617.967 261.896 616.158 237.336C615.314 225.876 611.011 214.601 601.184 207.961C592.592 202.155 582.068 200.325 572.263 197.554C561.968 194.644 552.722 190.2 544.854 182.828C536.806 175.286 530.682 165.852 525.647 156.104C514.291 134.122 506.805 109.903 502.845 85.5184C498.29 57.4917 498.564 28.8924 503.653 0.95791C503.969 -0.77093 506.583 0.0484087 506.27 1.76591H506.27Z" fill="white"/>
<path d="M518.128 136.437C509.838 139.094 500.873 138.717 492.834 135.375C484.796 132.032 478.207 125.941 474.245 118.189C473.449 116.617 475.853 115.306 476.651 116.879C480.327 124.105 486.465 129.778 493.956 132.876C501.448 135.973 509.8 136.291 517.506 133.771C519.181 133.225 519.794 135.894 518.128 136.437Z" fill="white"/>
<path d="M566.698 193.783C574.982 178.033 577.025 159.738 572.42 142.548C571.962 140.845 574.629 140.225 575.086 141.926C579.845 159.823 577.68 178.857 569.023 195.228C568.197 196.788 565.876 195.335 566.698 193.783H566.698Z" fill="white"/>
<path d="M501.81 58.381C505.232 58.0214 508.511 56.8175 511.353 54.8774C514.195 52.9373 516.51 50.3218 518.091 47.2657C518.897 45.6961 521.217 47.1513 520.416 48.7107C518.654 52.079 516.093 54.9645 512.958 57.115C509.824 59.2654 506.21 60.6155 502.433 61.0471C502.08 61.1177 501.714 61.0513 501.409 60.8615C501.103 60.6717 500.881 60.3728 500.788 60.0254C500.708 59.672 500.77 59.301 500.961 58.9931C501.152 58.6852 501.458 58.4653 501.81 58.3811V58.381Z" fill="white"/>
<path d="M715.487 1.62964C715.012 2.62402 714.536 3.61841 714.072 4.63312C707.75 18.035 702.527 31.9284 698.454 46.1761C698.122 47.2727 697.802 48.389 697.501 49.4928C688.056 83.9234 685.085 119.808 688.74 155.324C690.207 169.455 692.747 183.453 696.338 197.199C701.299 216.182 708.188 236.37 706.633 255.325C706.493 257.304 706.231 259.273 705.847 261.22L619.417 314.011C619.161 314.032 618.915 314.074 618.657 314.096L615.303 316.361C615.068 315.665 614.84 314.939 614.605 314.243C614.467 313.839 614.349 313.424 614.211 313.021C614.125 312.749 614.04 312.476 613.947 312.235C613.918 312.144 613.89 312.053 613.873 311.982C613.78 311.741 613.72 311.507 613.639 311.286C612.35 307.226 611.088 303.151 609.852 299.059C609.84 299.039 609.84 299.039 609.847 299.008C600.511 267.806 593.697 235.55 591.995 203.286C591.944 202.315 591.881 201.326 591.869 200.331C591.183 185.783 591.687 171.204 593.376 156.739C594.326 148.821 595.677 140.956 597.422 133.175C601.971 113.078 609.653 93.8219 620.186 76.1121C641.188 40.811 673.246 12.6197 712.482 2.38235C713.486 2.12119 714.471 1.87107 715.487 1.62964Z" fill="#F0F0F0"/>
<path d="M715.963 2.84543C678.532 37.3034 651.868 83.9423 641.999 133.929C639.865 144.736 638.641 155.885 639.972 166.874C641.303 177.868 645.613 187.407 652.192 196.231C658.206 204.299 665.292 211.854 669.241 221.243C673.403 231.139 672.551 241.836 668.092 251.477C662.635 263.273 653.266 272.405 643.793 281.017C633.276 290.579 622.199 300.344 616.802 313.858C616.148 315.496 613.645 314.385 614.298 312.75C623.689 289.237 648.531 277.794 661.873 257.095C668.098 247.437 671.451 235.844 667.603 224.626C664.238 214.817 656.937 207.019 650.777 198.904C644.308 190.382 639.602 181.267 637.759 170.644C635.873 159.777 636.664 148.557 638.512 137.743C642.68 113.354 651.284 89.5092 662.803 67.655C676.041 42.5351 693.478 19.8649 714.36 0.625074C715.653 -0.565216 717.247 1.66295 715.963 2.84546L715.963 2.84543Z" fill="white"/>
<path d="M644.35 117.512C636.131 114.642 629.2 108.944 624.794 101.435C620.388 93.9266 618.795 85.0964 620.299 76.5215C620.609 74.7875 623.318 75.1881 623.008 76.9244C621.592 84.9068 623.077 93.1321 627.194 100.116C631.311 107.099 637.789 112.381 645.458 115.008C647.124 115.581 646.007 118.082 644.35 117.512H644.35Z" fill="white"/>
<path d="M648.604 192.543C664.701 184.954 677.347 171.577 684.02 155.079C684.68 153.444 687.182 154.554 686.523 156.187C679.547 173.343 666.359 187.237 649.59 195.096C647.992 195.844 647.014 193.287 648.604 192.543L648.604 192.543Z" fill="white"/>
<path d="M678.315 45.3642C681.264 47.1373 684.607 48.1503 688.044 48.3121C691.481 48.474 694.905 47.7796 698.007 46.2914C699.596 45.5235 700.572 48.0823 698.994 48.8452C695.558 50.4735 691.777 51.2357 687.979 51.0653C684.181 50.895 680.483 49.7971 677.207 47.8678C676.883 47.7118 676.631 47.4383 676.501 47.1029C676.372 46.7675 676.375 46.3953 676.51 46.062C676.658 45.7312 676.931 45.4724 677.269 45.3417C677.607 45.2111 677.983 45.2192 678.315 45.3642Z" fill="white"/>
<path d="M163.937 596.981L173.383 604.297L210.112 610.67L250.937 509.19C250.937 509.19 275.937 430.981 345.937 446.981L570.936 442.981C570.936 442.981 640.02 435.901 651.436 468.481C653.599 474.652 711.937 610.981 711.937 610.981L752.838 605.208L747.937 488.981L650.791 263.481L481.936 252.938L307.937 264.981L163.937 596.981Z" fill="#7D7D9B"/>
<path d="M350.937 453.981C386.835 453.981 415.937 424.879 415.937 388.981C415.937 353.082 386.835 323.981 350.937 323.981C315.038 323.981 285.937 353.082 285.937 388.981C285.937 424.879 315.038 453.981 350.937 453.981Z" fill="#2F2E41"/>
<path d="M568.937 453.981C604.835 453.981 633.937 424.879 633.937 388.981C633.937 353.082 604.835 323.981 568.937 323.981C533.038 323.981 503.937 353.082 503.937 388.981C503.937 424.879 533.038 453.981 568.937 453.981Z" fill="#2F2E41"/>
<path d="M274.937 175.981L301.7 170.733C301.7 170.733 503.204 141.981 630.57 175.981L620.936 202.981L283.937 200.981L274.937 175.981Z" fill="#E6E6E6"/>
<path d="M546.626 315.481H375.617C354.853 315.481 336.908 301.104 332.947 281.294L314.232 187.69C313.818 185.648 313.835 183.541 314.281 181.505C314.727 179.469 315.592 177.549 316.823 175.866C318.109 174.101 319.745 172.619 321.629 171.513C323.512 170.406 325.603 169.699 327.771 169.434C417.964 158.239 507.273 158.22 593.221 169.376C595.359 169.638 597.421 170.337 599.277 171.43C601.133 172.522 602.745 173.985 604.011 175.728C605.234 177.386 606.102 179.278 606.561 181.286C607.021 183.294 607.062 185.375 606.683 187.4L589.407 280.717C585.678 300.86 567.686 315.481 546.626 315.481Z" fill="#C3C7FC"/>
<path d="M198.866 191.22L199.611 177.825C199.727 175.739 200.347 173.711 201.418 171.916C202.489 170.121 203.978 168.613 205.76 167.519C216.557 160.895 245.683 146.311 282.852 153.956C285.462 154.497 287.843 155.827 289.67 157.768C291.497 159.708 292.682 162.165 293.064 164.802L294.06 171.772L198.866 191.22Z" fill="#3F3D56"/>
<path d="M723.007 191.22L627.813 171.772L629.413 160.575C629.597 159.253 630.173 158.016 631.066 157.023C631.959 156.031 633.128 155.328 634.423 155.006C677.289 144.248 710.099 163.352 719.135 169.463C719.992 170.045 720.704 170.817 721.216 171.718C721.728 172.619 722.026 173.626 722.086 174.66L723.007 191.22Z" fill="#3F3D56"/>
<path d="M168.641 605.717C166.347 605.741 164.094 605.107 162.149 603.89C136.66 589.007 120.77 561.731 114.955 522.844C110.152 490.723 112.157 450.406 120.916 403.011C136.445 318.985 168.992 234.995 182.264 202.785C184.023 198.534 186.755 194.755 190.241 191.753C193.727 188.751 197.87 186.609 202.335 185.501C229.697 178.771 277.462 167.481 289.936 167.481C307.031 167.481 316.28 183.573 316.372 183.736L316.423 183.869L331.436 248.969V249.909C339.718 277.931 333.565 298.174 326.939 310.222C319.748 323.299 310.444 329.828 310.351 329.892C295.74 341.015 271.936 376.848 248.245 423.395C223.627 471.767 205.377 519.497 199.427 551.074C192.146 589.723 181.471 601.555 173.799 604.675C172.164 605.354 170.412 605.708 168.641 605.717Z" fill="#E6E6E6"/>
<path d="M540.989 307.481H379.409C369.872 307.468 360.636 304.144 353.277 298.078C345.919 292.011 340.895 283.578 339.064 274.219L321.381 183.183C320.988 181.168 321.013 179.093 321.453 177.088C321.893 175.083 322.74 173.189 323.941 171.524C325.142 169.859 326.672 168.458 328.435 167.407C330.199 166.356 332.159 165.678 334.195 165.414C419.419 154.526 503.809 154.507 585.02 165.357C587.028 165.631 588.959 166.308 590.698 167.348C592.437 168.387 593.947 169.769 595.138 171.408C596.328 173.047 597.175 174.911 597.626 176.886C598.077 178.861 598.123 180.907 597.762 182.9L581.438 273.657C579.739 283.146 574.755 291.735 567.359 297.919C559.964 304.103 550.629 307.488 540.989 307.481Z" fill="#E6E6E6"/>
<path d="M753.236 605.717C751.464 605.709 749.711 605.355 748.074 604.674C740.402 601.555 729.728 589.723 722.446 551.074C716.497 519.497 698.247 471.767 673.628 423.395C649.938 376.848 626.133 341.015 611.504 329.879C611.43 329.828 602.125 323.299 594.934 310.222C588.309 298.174 582.155 277.931 590.437 249.909L590.45 248.857L605.466 183.798L605.501 183.736C605.593 183.573 614.842 167.481 631.937 167.481C644.411 167.481 692.176 178.771 719.538 185.501C724.003 186.609 728.146 188.751 731.632 191.753C735.118 194.755 737.85 198.534 739.609 202.785C752.881 234.995 785.428 318.984 800.957 403.011C809.716 450.406 811.722 490.723 806.919 522.844C801.104 561.731 785.213 589.006 759.689 603.913C757.754 605.117 755.515 605.744 753.236 605.717Z" fill="#E6E6E6"/>
<path d="M350.937 416.981C372.476 416.981 389.937 399.52 389.937 377.981C389.937 356.442 372.476 338.981 350.937 338.981C329.397 338.981 311.937 356.442 311.937 377.981C311.937 399.52 329.397 416.981 350.937 416.981Z" fill="#3F3D56"/>
<path d="M350.937 403.981C365.296 403.981 376.937 392.34 376.937 377.981C376.937 363.622 365.296 351.981 350.937 351.981C336.577 351.981 324.937 363.622 324.937 377.981C324.937 392.34 336.577 403.981 350.937 403.981Z" fill="#2F2E41"/>
<path d="M568.937 416.981C590.476 416.981 607.937 399.52 607.937 377.981C607.937 356.442 590.476 338.981 568.937 338.981C547.397 338.981 529.937 356.442 529.937 377.981C529.937 399.52 547.397 416.981 568.937 416.981Z" fill="#3F3D56"/>
<path d="M568.937 403.981C583.296 403.981 594.937 392.34 594.937 377.981C594.937 363.622 583.296 351.981 568.937 351.981C554.577 351.981 542.937 363.622 542.937 377.981C542.937 392.34 554.577 403.981 568.937 403.981Z" fill="#2F2E41"/>
<path d="M435.937 330.981C437.593 330.981 438.937 329.638 438.937 327.981C438.937 326.324 437.593 324.981 435.937 324.981C434.28 324.981 432.937 326.324 432.937 327.981C432.937 329.638 434.28 330.981 435.937 330.981Z" fill="#2F2E41"/>
<path d="M448.937 330.981C450.593 330.981 451.937 329.638 451.937 327.981C451.937 326.324 450.593 324.981 448.937 324.981C447.28 324.981 445.937 326.324 445.937 327.981C445.937 329.638 447.28 330.981 448.937 330.981Z" fill="#2F2E41"/>
<path d="M442.937 341.981C444.593 341.981 445.937 340.638 445.937 338.981C445.937 337.324 444.593 335.981 442.937 335.981C441.28 335.981 439.937 337.324 439.937 338.981C439.937 340.638 441.28 341.981 442.937 341.981Z" fill="#2F2E41"/>
<path d="M454.937 341.981C456.593 341.981 457.937 340.638 457.937 338.981C457.937 337.324 456.593 335.981 454.937 335.981C453.28 335.981 451.937 337.324 451.937 338.981C451.937 340.638 453.28 341.981 454.937 341.981Z" fill="#2F2E41"/>
<path d="M466.937 341.981C468.593 341.981 469.937 340.638 469.937 338.981C469.937 337.324 468.593 335.981 466.937 335.981C465.28 335.981 463.937 337.324 463.937 338.981C463.937 340.638 465.28 341.981 466.937 341.981Z" fill="#2F2E41"/>
<path d="M478.937 341.981C480.593 341.981 481.937 340.638 481.937 338.981C481.937 337.324 480.593 335.981 478.937 335.981C477.28 335.981 475.937 337.324 475.937 338.981C475.937 340.638 477.28 341.981 478.937 341.981Z" fill="#2F2E41"/>
<path d="M461.937 330.981C463.593 330.981 464.937 329.638 464.937 327.981C464.937 326.324 463.593 324.981 461.937 324.981C460.28 324.981 458.937 326.324 458.937 327.981C458.937 329.638 460.28 330.981 461.937 330.981Z" fill="#2F2E41"/>
<path d="M474.937 330.981C476.593 330.981 477.937 329.638 477.937 327.981C477.937 326.324 476.593 324.981 474.937 324.981C473.28 324.981 471.937 326.324 471.937 327.981C471.937 329.638 473.28 330.981 474.937 330.981Z" fill="#2F2E41"/>
<path d="M487.937 330.981C489.593 330.981 490.937 329.638 490.937 327.981C490.937 326.324 489.593 324.981 487.937 324.981C486.28 324.981 484.937 326.324 484.937 327.981C484.937 329.638 486.28 330.981 487.937 330.981Z" fill="#2F2E41"/>
<path d="M473.937 420.481H447.937C446.743 420.481 445.598 420.007 444.755 419.163C443.911 418.319 443.437 417.174 443.437 415.981C443.437 414.787 443.911 413.643 444.755 412.799C445.598 411.955 446.743 411.481 447.937 411.481H473.937C475.13 411.481 476.275 411.955 477.119 412.799C477.962 413.643 478.437 414.787 478.437 415.981C478.437 417.174 477.962 418.319 477.119 419.163C476.275 420.007 475.13 420.481 473.937 420.481Z" fill="#2F2E41"/>
<path d="M301.781 224.867C300.103 224.863 298.475 224.293 297.161 223.25C295.847 222.206 294.922 220.751 294.537 219.118L290.549 202.189C290.098 200.265 290.429 198.241 291.47 196.561C292.511 194.88 294.176 193.682 296.1 193.229C298.024 192.776 300.048 193.105 301.73 194.144C303.411 195.183 304.611 196.847 305.066 198.77L309.053 215.698C309.31 216.794 309.315 217.934 309.069 219.032C308.824 220.13 308.333 221.159 307.633 222.04C306.934 222.922 306.044 223.634 305.031 224.124C304.017 224.613 302.906 224.868 301.781 224.867Z" fill="#3F3D56"/>
<path d="M621.093 223.867C619.968 223.868 618.857 223.613 617.843 223.124C616.83 222.634 615.94 221.922 615.241 221.04C614.541 220.159 614.05 219.13 613.805 218.032C613.559 216.934 613.564 215.794 613.821 214.698L617.808 197.77C618.263 195.847 619.463 194.183 621.144 193.144C622.825 192.105 624.85 191.776 626.774 192.229C628.698 192.682 630.363 193.88 631.404 195.561C632.444 197.241 632.776 199.265 632.324 201.189L628.337 218.118C627.952 219.751 627.027 221.206 625.713 222.25C624.398 223.293 622.771 223.863 621.093 223.867Z" fill="#3F3D56"/>
<path d="M246.765 274.834C244.311 274.835 241.917 274.08 239.907 272.671L231.538 266.812C229.963 265.709 228.677 264.242 227.789 262.537C226.901 260.832 226.437 258.937 226.437 257.015V239.071C226.441 235.468 227.874 232.014 230.422 229.466C232.969 226.918 236.424 225.485 240.027 225.481H252.846C256.449 225.485 259.904 226.918 262.451 229.466C264.999 232.014 266.432 235.468 266.437 239.071V257.191C266.433 259.064 265.991 260.91 265.146 262.582C264.301 264.253 263.077 265.704 261.571 266.818L253.859 272.501C251.805 274.017 249.318 274.835 246.765 274.834Z" fill="#3F3D56"/>
<path d="M252.846 340.481H240.027C236.424 340.477 232.969 339.044 230.422 336.496C227.874 333.948 226.441 330.494 226.437 326.891V308.947C226.437 307.025 226.901 305.131 227.789 303.425C228.677 301.72 229.963 300.253 231.538 299.15L239.907 293.291C241.957 291.855 244.407 291.098 246.91 291.129C249.414 291.159 251.844 291.975 253.859 293.461L261.571 299.144C263.077 300.258 264.301 301.709 265.146 303.38C265.991 305.052 266.433 306.898 266.437 308.771V326.891C266.432 330.494 264.999 333.948 262.451 336.496C259.904 339.044 256.449 340.477 252.846 340.481Z" fill="#3F3D56"/>
<path d="M292.846 302.981H274.903C272.98 302.98 271.086 302.516 269.381 301.628C267.675 300.74 266.209 299.455 265.106 297.88L259.247 289.51C257.81 287.46 257.053 285.01 257.084 282.507C257.114 280.004 257.93 277.573 259.417 275.559L265.1 267.846C266.214 266.34 267.664 265.116 269.336 264.271C271.008 263.426 272.854 262.985 274.727 262.981H292.846C296.449 262.985 299.904 264.418 302.452 266.966C304.999 269.514 306.433 272.968 306.437 276.571V289.391C306.433 292.994 304.999 296.448 302.452 298.996C299.904 301.544 296.449 302.977 292.846 302.981Z" fill="#3F3D56"/>
<path d="M216.97 302.981H199.027C195.424 302.977 191.969 301.544 189.422 298.996C186.874 296.448 185.441 292.994 185.437 289.391V276.571C185.441 272.968 186.874 269.514 189.422 266.966C191.969 264.418 195.424 262.985 199.027 262.981H217.146C219.019 262.985 220.866 263.426 222.537 264.271C224.209 265.116 225.66 266.34 226.773 267.846L232.457 275.559C233.943 277.573 234.759 280.004 234.789 282.507C234.82 285.01 234.063 287.46 232.626 289.51L226.768 297.88C225.664 299.455 224.198 300.74 222.493 301.628C220.787 302.516 218.893 302.98 216.97 302.981Z" fill="#3F3D56"/>
<path d="M675.937 254.981C688.639 254.981 698.937 244.684 698.937 231.981C698.937 219.278 688.639 208.981 675.937 208.981C663.234 208.981 652.937 219.278 652.937 231.981C652.937 244.684 663.234 254.981 675.937 254.981Z" fill="#3F3D56"/>
<path d="M726.937 307.981C739.639 307.981 749.937 297.684 749.937 284.981C749.937 272.278 739.639 261.981 726.937 261.981C714.234 261.981 703.937 272.278 703.937 284.981C703.937 297.684 714.234 307.981 726.937 307.981Z" fill="#3F3D56"/>
<path d="M675.937 357.981C688.639 357.981 698.937 347.684 698.937 334.981C698.937 322.278 688.639 311.981 675.937 311.981C663.234 311.981 652.937 322.278 652.937 334.981C652.937 347.684 663.234 357.981 675.937 357.981Z" fill="#3F3D56"/>
<path d="M624.937 306.981C637.639 306.981 647.937 296.684 647.937 283.981C647.937 271.278 637.639 260.981 624.937 260.981C612.234 260.981 601.937 271.278 601.937 283.981C601.937 296.684 612.234 306.981 624.937 306.981Z" fill="#3F3D56"/>
<path d="M726.937 299.981C723.97 299.981 721.07 299.101 718.603 297.453C716.136 295.805 714.214 293.462 713.078 290.721C711.943 287.98 711.646 284.964 712.225 282.055C712.804 279.145 714.232 276.472 716.33 274.374C718.428 272.277 721.1 270.848 724.01 270.269C726.92 269.69 729.936 269.987 732.677 271.123C735.418 272.258 737.76 274.181 739.409 276.647C741.057 279.114 741.937 282.014 741.937 284.981C741.932 288.958 740.35 292.771 737.538 295.583C734.726 298.395 730.913 299.976 726.937 299.981ZM726.937 271.981C724.365 271.981 721.852 272.743 719.714 274.172C717.576 275.6 715.91 277.631 714.926 280.006C713.942 282.382 713.685 284.995 714.186 287.517C714.688 290.039 715.926 292.355 717.744 294.173C719.562 295.991 721.879 297.23 724.4 297.731C726.922 298.233 729.536 297.975 731.911 296.991C734.287 296.007 736.317 294.341 737.746 292.203C739.174 290.066 739.937 287.552 739.937 284.981C739.933 281.534 738.562 278.23 736.125 275.793C733.688 273.356 730.383 271.985 726.937 271.981Z" fill="#E6E6E6"/>
<path d="M692.009 243.141L661.864 242.715L677.306 216.822L692.009 243.141ZM665.356 240.763L688.573 241.092L677.25 220.822L665.356 240.763Z" fill="#E6E6E6"/>
<path d="M636.937 295.981H612.937V271.981H636.937V295.981ZM614.937 293.981H634.937V273.981H614.937V293.981Z" fill="#E6E6E6"/>
<path d="M688.348 345.307L677.353 334.333L687.049 324.655L685.635 323.239L675.937 332.919L666.238 323.239L664.825 324.655L674.521 334.333L663.526 345.307L664.939 346.723L675.937 335.746L686.935 346.723L688.348 345.307Z" fill="#E6E6E6"/>
<path d="M246.732 73.8396C243.766 73.8396 240.866 72.9599 238.399 71.3116C235.932 69.6634 234.01 67.3207 232.874 64.5799C231.739 61.839 231.442 58.823 232.021 55.9133C232.599 53.0035 234.028 50.3308 236.126 48.233C238.224 46.1352 240.896 44.7066 243.806 44.1278C246.716 43.549 249.732 43.8461 252.473 44.9814C255.214 46.1167 257.556 48.0393 259.204 50.506C260.853 52.9728 261.732 55.8729 261.732 58.8396C261.728 62.8165 260.146 66.6292 257.334 69.4412C254.522 72.2533 250.709 73.8351 246.732 73.8396ZM246.732 45.8396C244.161 45.8396 241.648 46.602 239.51 48.0305C237.372 49.459 235.706 51.4893 234.722 53.8647C233.738 56.2402 233.481 58.854 233.982 61.3758C234.484 63.8975 235.722 66.2139 237.54 68.032C239.358 69.8501 241.674 71.0882 244.196 71.5898C246.718 72.0914 249.332 71.834 251.707 70.85C254.083 69.8661 256.113 68.1999 257.542 66.062C258.97 63.9242 259.732 61.4108 259.732 58.8396C259.729 55.393 258.358 52.0886 255.921 49.6514C253.483 47.2143 250.179 45.8434 246.732 45.8396Z" fill="#E6E6E6"/>
<path d="M212.805 48.9993L182.66 48.573L198.102 22.6799L212.805 48.9993ZM186.152 46.6218L209.369 46.9504L198.045 26.6799L186.152 46.6218Z" fill="#E6E6E6"/>
<path d="M168.437 85.481H144.437V61.481H168.437V85.481ZM146.437 83.481H166.437V63.481H146.437V83.481Z" fill="#E6E6E6"/>
<path d="M190.143 130.165L179.148 119.191L188.844 109.514L187.431 108.098L177.732 117.778L168.033 108.098L166.62 109.514L176.316 119.191L165.321 130.165L166.734 131.581L177.732 120.604L188.73 131.581L190.143 130.165Z" fill="#E6E6E6"/>
<path opacity="0.2" d="M867.437 344.481L828.622 373.694L872.437 354.481L867.437 344.481Z" fill="black"/>
<path d="M149.437 380.481L100.437 382.481L94.4365 349.481L136.437 336.481L149.437 380.481Z" fill="#A0616A"/>
<path d="M131.421 299.605L120.492 288.477L133.893 267.987L156.829 229.808C156.079 228.163 155.847 226.33 156.162 224.55C156.478 222.77 157.326 221.128 158.595 219.841C159.863 218.554 161.493 217.682 163.268 217.342C165.043 217.001 166.88 217.207 168.535 217.933C170.19 218.658 171.586 219.869 172.538 221.406C173.49 222.942 173.954 224.731 173.867 226.537C173.78 228.342 173.147 230.078 172.051 231.516C170.956 232.954 169.45 234.025 167.733 234.588L148.801 275.348L131.421 299.605Z" fill="#A0616A"/>
<path d="M119.315 325.01C118.032 326.997 116.203 328.573 114.048 329.549C111.893 330.524 109.503 330.859 107.163 330.512C104.936 330.249 102.834 329.342 101.115 327.901C99.3961 326.46 98.1355 324.549 97.4878 322.402C97.0107 320.878 96.8718 319.268 97.0807 317.685C97.2896 316.102 97.8414 314.583 98.6975 313.235C106.009 300.91 119.493 284.633 119.628 284.471L119.843 284.212L142.586 289.139L119.315 325.01Z" fill="#6C63FF"/>
<path d="M137.758 597.772L151.347 597.771L157.811 545.356L137.755 545.357L137.758 597.772Z" fill="#A0616A"/>
<path d="M134.291 593.335L161.053 593.334H161.054C165.577 593.334 169.915 595.131 173.113 598.33C176.311 601.528 178.108 605.866 178.109 610.389V610.943L134.292 610.945L134.291 593.335Z" fill="#373746"/>
<path d="M31.9482 591.89L45.3842 593.92L59.6122 543.061L41.9982 540.063L31.9482 591.89Z" fill="#A0616A"/>
<path d="M29.1833 586.985L55.6447 590.984L55.6458 590.984C60.118 591.661 64.1384 594.086 66.8227 597.726C69.507 601.367 70.6353 605.924 69.9594 610.397L69.8766 610.945L26.5518 604.396L29.1833 586.985Z" fill="#373746"/>
<path d="M98.4369 372.481L145.437 364.481L159.979 394.457L160.534 590.094L134.738 589.933L123.956 431.589L55.2331 577.902L27.5225 574.576L87.9317 417.734C87.9317 417.734 84.6064 390.023 95.1365 376.168L98.4369 372.481Z" fill="#373746"/>
<path d="M80.9888 313.422C80.2705 311.264 80.1942 308.944 80.7692 306.744C81.3442 304.544 82.5457 302.558 84.2278 301.027L90.9073 294.956L109.738 291.783L121.513 289.643L140.437 344.481L94.4741 365.598C90.4404 364.728 88.8291 362.521 91.1762 358.134L80.9888 313.422Z" fill="#6C63FF"/>
<path d="M123.171 331.926L136.319 323.535L153.594 340.884L186.203 371.222C187.967 370.829 189.809 370.981 191.485 371.657C193.161 372.334 194.592 373.503 195.589 375.011C196.586 376.519 197.101 378.293 197.068 380.1C197.034 381.908 196.452 383.662 195.4 385.131C194.348 386.601 192.874 387.716 191.174 388.329C189.474 388.943 187.627 389.026 185.879 388.568C184.131 388.109 182.563 387.131 181.383 385.762C180.203 384.393 179.466 382.698 179.27 380.901L143.309 353.947L123.171 331.926Z" fill="#A0616A"/>
<path d="M100.82 314.825C99.141 313.159 97.9777 311.044 97.4689 308.734C96.9601 306.424 97.1274 304.016 97.9506 301.799C98.6692 299.674 99.992 297.806 101.757 296.422C103.522 295.039 105.652 294.201 107.887 294.01C109.476 293.859 111.08 294.056 112.586 294.588C114.091 295.12 115.463 295.974 116.605 297.09C127.151 306.792 140.287 323.353 140.418 323.518L140.626 323.782L131.101 345.014L100.82 314.825Z" fill="#6C63FF"/>
<path d="M101.474 285.111C112.89 285.111 122.145 275.857 122.145 264.44C122.145 253.024 112.89 243.77 101.474 243.77C90.0574 243.77 80.8027 253.024 80.8027 264.44C80.8027 275.857 90.0574 285.111 101.474 285.111Z" fill="#A0616A"/>
<path d="M84.7378 293.888C81.5323 293.888 78.3298 293.693 75.1479 293.304L74.7117 293.251L71.3821 275.174C69.9699 267.512 71.5444 259.599 75.7823 253.061C80.0203 246.522 86.6002 241.854 94.1716 240.014C94.6768 239.886 95.2075 239.899 95.7054 240.054C96.2033 240.208 96.649 240.496 96.9935 240.887L97.7876 240.61C100.828 239.55 104.047 239.099 107.262 239.283C110.476 239.467 113.623 240.283 116.523 241.683C119.422 243.083 122.018 245.04 124.161 247.444C126.303 249.847 127.952 252.649 129.012 255.689L129.209 256.254L123.91 258.101C122.258 258.677 120.756 259.614 119.513 260.843C118.269 262.073 117.315 263.564 116.72 265.208C116.125 266.852 115.904 268.609 116.073 270.349C116.242 272.09 116.797 273.771 117.698 275.27L123.116 284.29L122.539 284.579C110.845 290.608 97.8945 293.798 84.7378 293.888Z" fill="#2F2E41"/>
<path d="M794.897 380.389C795.136 379.234 795.626 378.145 796.332 377.199C797.037 376.253 797.942 375.473 798.982 374.915C800.021 374.356 801.171 374.032 802.349 373.966C803.527 373.9 804.706 374.093 805.801 374.531L824.601 352.864L828.623 367.218L810.153 385.593C809.294 387.385 807.808 388.8 805.977 389.569C804.145 390.338 802.094 390.409 800.214 389.768C798.333 389.126 796.753 387.817 795.773 386.089C794.794 384.36 794.482 382.332 794.897 380.389H794.897Z" fill="#FFB6B6"/>
<path d="M878.788 285.13L886.49 284.714L887.65 289.609C887.65 289.609 887.536 295.878 880.513 308.908C873.491 321.939 819.08 379.953 819.08 379.953L807.296 366.58L836.421 336.58L854.06 305.136L878.788 285.13Z" fill="#6C63FF"/>
<path d="M1.24701 612.055H915.528C915.859 612.055 916.176 611.924 916.41 611.69C916.644 611.456 916.775 611.139 916.775 610.808C916.775 610.477 916.644 610.16 916.41 609.926C916.176 609.692 915.859 609.561 915.528 609.561H1.24701C0.916284 609.561 0.599108 609.692 0.36525 609.926C0.131392 610.16 0 610.477 0 610.808C0 611.139 0.131392 611.456 0.36525 611.69C0.599108 611.924 0.916284 612.055 1.24701 612.055Z" fill="#CCCCCC"/>
</g>
<defs>
<clipPath id="clip0_24:172">
<rect width="916.775" height="612.055" fill="white"/>
</clipPath>
</defs>
</svg>
