<svg width="704" height="634" viewBox="0 0 704 634" fill="none" xmlns="http://www.w3.org/2000/svg">
<g clip-path="url(#clip0_40:361)">
<path d="M174.426 160.824C162.321 124.653 124.939 104.549 100.347 112.773C75.7546 120.997 57.9988 159.539 70.1041 195.71C81.309 229.191 115.261 248.52 138.618 245.071C138.45 245.364 138.339 245.686 138.291 246.02L137.577 251.975C137.523 252.429 137.585 252.889 137.759 253.312C137.932 253.735 138.211 254.106 138.569 254.391C138.927 254.676 139.351 254.865 139.802 254.94C140.254 255.015 140.716 254.973 141.147 254.819L153.178 250.506C153.609 250.352 153.993 250.09 154.294 249.746C154.594 249.402 154.802 248.986 154.897 248.539C154.992 248.092 154.971 247.628 154.837 247.191C154.702 246.754 154.457 246.359 154.127 246.043L149.79 241.899C149.636 241.758 149.465 241.635 149.283 241.534C170.115 230.312 185.656 194.378 174.426 160.824Z" fill="#F2F2F2"/>
<path d="M130.604 134.213C140.657 139.399 148.334 148.245 152.051 158.926C155.768 169.606 155.241 181.306 150.579 191.609C149.538 193.978 153.366 195.224 154.4 192.87C159.296 181.722 159.794 169.136 155.794 157.636C151.795 146.136 143.594 136.573 132.837 130.864C130.566 129.661 128.317 133.001 130.604 134.213Z" fill="white"/>
<path d="M664.524 108.099C652.419 71.9276 615.037 51.824 590.445 60.0477C565.852 68.2714 548.096 106.813 560.202 142.985C571.407 176.466 605.359 195.795 628.716 192.345C628.547 192.638 628.436 192.961 628.389 193.295L627.675 199.249C627.62 199.703 627.683 200.164 627.857 200.587C628.03 201.009 628.309 201.381 628.667 201.666C629.024 201.951 629.449 202.14 629.9 202.214C630.351 202.289 630.814 202.248 631.245 202.093L643.276 197.781C643.706 197.627 644.09 197.365 644.391 197.02C644.692 196.676 644.9 196.261 644.995 195.813C645.09 195.366 645.069 194.902 644.934 194.465C644.8 194.029 644.555 193.633 644.225 193.317L639.888 189.173C639.733 189.032 639.563 188.91 639.38 188.809C660.212 177.587 675.753 141.653 664.524 108.099Z" fill="#F2F2F2"/>
<path d="M620.7 81.4869C630.753 86.6731 638.43 95.5195 642.147 106.2C645.864 116.881 645.337 128.58 640.674 138.883C639.633 141.252 643.462 142.498 644.496 140.145C649.391 128.996 649.889 116.41 645.89 104.911C641.891 93.4108 633.69 83.8475 622.933 78.1385C620.662 76.9358 618.413 80.2752 620.7 81.4869Z" fill="white"/>
<path d="M379.917 49.8813C367.811 13.7098 330.429 -6.39376 305.837 1.82996C281.245 10.0537 263.489 48.5956 275.594 84.767C286.799 118.248 320.752 137.577 344.108 134.128C343.94 134.42 343.829 134.743 343.782 135.077L343.067 141.032C343.013 141.486 343.076 141.946 343.249 142.369C343.423 142.792 343.702 143.163 344.059 143.448C344.417 143.733 344.841 143.922 345.293 143.997C345.744 144.072 346.207 144.03 346.637 143.875L358.668 139.563C359.099 139.409 359.483 139.147 359.784 138.803C360.085 138.458 360.292 138.043 360.387 137.596C360.483 137.149 360.462 136.684 360.327 136.248C360.192 135.811 359.948 135.416 359.617 135.1L355.28 130.956C355.126 130.815 354.956 130.692 354.773 130.591C375.605 119.369 391.146 83.4352 379.917 49.8813Z" fill="#F2F2F2"/>
<path d="M336.093 23.2694C346.145 28.4556 353.823 37.302 357.54 47.9825C361.257 58.6631 360.729 70.3624 356.067 80.6658C355.026 83.0348 358.855 84.2807 359.889 81.9271C364.784 70.7789 365.282 58.1929 361.283 46.6931C357.283 35.1932 349.083 25.6299 338.325 19.921C336.055 18.7182 333.805 22.0577 336.093 23.2694Z" fill="white"/>
<path d="M319.202 223.932C320.795 223.932 322.086 222.641 322.086 221.049C322.086 219.457 320.795 218.166 319.202 218.166C317.61 218.166 316.318 219.457 316.318 221.049C316.318 222.641 317.61 223.932 319.202 223.932Z" fill="#CCCCCC"/>
<path d="M313.056 339.575C316.203 339.575 318.754 337.025 318.754 333.88C318.754 330.735 316.203 328.185 313.056 328.185C309.91 328.185 307.359 330.735 307.359 333.88C307.359 337.025 309.91 339.575 313.056 339.575Z" fill="#CCCCCC"/>
<path d="M217.679 317.647C219.497 317.647 220.971 316.173 220.971 314.356C220.971 312.538 219.497 311.065 217.679 311.065C215.861 311.065 214.387 312.538 214.387 314.356C214.387 316.173 215.861 317.647 217.679 317.647Z" fill="#CCCCCC"/>
<path d="M267.692 263.764C269.661 263.764 271.257 262.168 271.257 260.2C271.257 258.232 269.661 256.636 267.692 256.636C265.723 256.636 264.127 258.232 264.127 260.2C264.127 262.168 265.723 263.764 267.692 263.764Z" fill="#CCCCCC"/>
<path d="M443.12 472.41C444.713 472.41 446.004 471.12 446.004 469.528C446.004 467.935 444.713 466.645 443.12 466.645C441.528 466.645 440.236 467.935 440.236 469.528C440.236 471.12 441.528 472.41 443.12 472.41Z" fill="#CCCCCC"/>
<path d="M348.672 413.133C351.818 413.133 354.369 410.583 354.369 407.438C354.369 404.292 351.818 401.743 348.672 401.743C345.525 401.743 342.975 404.292 342.975 407.438C342.975 410.583 345.525 413.133 348.672 413.133Z" fill="#CCCCCC"/>
<path d="M413.548 338.165C415.366 338.165 416.84 336.692 416.84 334.874C416.84 333.057 415.366 331.583 413.548 331.583C411.73 331.583 410.256 333.057 410.256 334.874C410.256 336.692 411.73 338.165 413.548 338.165Z" fill="#CCCCCC"/>
<path d="M435.198 408.893C437.167 408.893 438.763 407.297 438.763 405.329C438.763 403.361 437.167 401.765 435.198 401.765C433.229 401.765 431.633 403.361 431.633 405.329C431.633 407.297 433.229 408.893 435.198 408.893Z" fill="#CCCCCC"/>
<path d="M627.221 592.438C630.367 589.805 626.116 579.551 617.726 569.535C609.337 559.519 599.986 553.533 596.84 556.166C593.695 558.798 597.946 569.052 606.335 579.069C614.725 589.085 624.076 595.071 627.221 592.438Z" fill="#373746"/>
<path d="M561.695 613.395C587.832 613.395 609.02 592.215 609.02 566.088C609.02 539.961 587.832 518.781 561.695 518.781C535.557 518.781 514.369 539.961 514.369 566.088C514.369 592.215 535.557 613.395 561.695 613.395Z" fill="#373746"/>
<path d="M581.727 603.215H567.35V628.964H581.727V603.215Z" fill="#373746"/>
<path d="M552.971 603.215H538.594V628.964H552.971V603.215Z" fill="#373746"/>
<path d="M569.745 633.755C576.362 633.755 581.726 631.744 581.726 629.264C581.726 626.783 576.362 624.772 569.745 624.772C563.128 624.772 557.764 626.783 557.764 629.264C557.764 631.744 563.128 633.755 569.745 633.755Z" fill="#373746"/>
<path d="M540.991 633.156C547.608 633.156 552.972 631.145 552.972 628.665C552.972 626.184 547.608 624.174 540.991 624.174C534.374 624.174 529.01 626.184 529.01 628.665C529.01 631.145 534.374 633.156 540.991 633.156Z" fill="#373746"/>
<path d="M546.835 506.621C551.061 489.61 569.714 479.599 588.499 484.261C607.283 488.924 619.085 506.494 614.859 523.506C610.633 540.517 596.614 540.572 577.829 535.91C559.045 531.247 542.609 523.633 546.835 506.621Z" fill="#E6E6E6"/>
<path d="M529.771 554.273C531.529 550.568 523.382 543.026 511.575 537.428C499.767 531.829 488.77 530.295 487.011 534C485.253 537.706 493.4 545.248 505.208 550.846C517.016 556.444 528.013 557.978 529.771 554.273Z" fill="#373746"/>
<path d="M554.62 571.878C563.334 571.878 570.398 564.816 570.398 556.106C570.398 547.395 563.334 540.333 554.62 540.333C545.906 540.333 538.842 547.395 538.842 556.106C538.842 564.816 545.906 571.878 554.62 571.878Z" fill="white"/>
<path d="M548.134 555.709C551.039 555.709 553.394 553.356 553.394 550.452C553.394 547.548 551.039 545.195 548.134 545.195C545.23 545.195 542.875 547.548 542.875 550.452C542.875 553.356 545.23 555.709 548.134 555.709Z" fill="#3F3D56"/>
<path d="M564.518 588.966C564.766 590.324 564.743 591.718 564.451 593.068C564.16 594.418 563.605 595.697 562.819 596.832C562.033 597.968 561.031 598.937 559.87 599.686C558.709 600.434 557.412 600.947 556.053 601.194C554.694 601.441 553.3 601.418 551.95 601.127C550.599 600.836 549.32 600.281 548.184 599.496C547.048 598.71 546.078 597.708 545.329 596.548C544.581 595.387 544.068 594.091 543.821 592.732L543.817 592.712C542.782 586.998 547.202 584.976 552.918 583.941C558.635 582.907 563.483 583.252 564.518 588.966Z" fill="white"/>
<path d="M172.611 533.015C177.277 520.812 177.953 509.733 174.121 508.269C170.288 506.805 163.399 515.51 158.733 527.713C154.068 539.915 153.392 550.994 157.224 552.459C161.056 553.923 167.945 545.218 172.611 533.015Z" fill="#373746"/>
<path d="M121.929 613.395C148.066 613.395 169.254 592.215 169.254 566.088C169.254 539.961 148.066 518.781 121.929 518.781C95.7919 518.781 74.6035 539.961 74.6035 566.088C74.6035 592.215 95.7919 613.395 121.929 613.395Z" fill="#373746"/>
<path d="M114.741 603.215H100.363V628.964H114.741V603.215Z" fill="#373746"/>
<path d="M143.496 603.215H129.119V628.964H143.496V603.215Z" fill="#373746"/>
<path d="M112.344 633.755C118.961 633.755 124.326 631.744 124.326 629.264C124.326 626.783 118.961 624.772 112.344 624.772C105.727 624.772 100.363 626.783 100.363 629.264C100.363 631.744 105.727 633.755 112.344 633.755Z" fill="#373746"/>
<path d="M141.1 633.156C147.717 633.156 153.081 631.145 153.081 628.665C153.081 626.184 147.717 624.174 141.1 624.174C134.483 624.174 129.119 626.184 129.119 628.665C129.119 631.145 134.483 633.156 141.1 633.156Z" fill="#373746"/>
<path d="M123.128 570.279C132.061 570.279 139.302 563.041 139.302 554.111C139.302 545.182 132.061 537.943 123.128 537.943C114.195 537.943 106.953 545.182 106.953 554.111C106.953 563.041 114.195 570.279 123.128 570.279Z" fill="white"/>
<path d="M123.128 559.501C126.106 559.501 128.519 557.088 128.519 554.111C128.519 551.135 126.106 548.722 123.128 548.722C120.15 548.722 117.736 551.135 117.736 554.111C117.736 557.088 120.15 559.501 123.128 559.501Z" fill="#3F3D56"/>
<path d="M76.0219 522.093C72.2006 504.986 84.4158 487.7 103.305 483.484C122.195 479.268 140.606 489.718 144.427 506.825C148.248 523.932 135.73 530.241 116.84 534.457C97.9505 538.674 79.8432 539.2 76.0219 522.093Z" fill="#E6E6E6"/>
<path d="M90.0057 554.273C91.7638 550.568 83.6169 543.026 71.8091 537.428C60.0013 531.83 49.0039 530.295 47.2458 534.001C45.4877 537.706 53.6346 545.248 65.4425 550.846C77.2503 556.444 88.2476 557.979 90.0057 554.273Z" fill="#373746"/>
<path d="M98.6836 583.154C98.6836 587.784 110.61 596.927 123.844 596.927C137.078 596.927 149.486 583.892 149.486 579.262C149.486 574.632 137.078 580.16 123.844 580.16C110.61 580.16 98.6836 578.524 98.6836 583.154Z" fill="white"/>
<path d="M347.99 568.358C374.127 568.358 395.315 547.178 395.315 521.051C395.315 494.924 374.127 473.744 347.99 473.744C321.852 473.744 300.664 494.924 300.664 521.051C300.664 547.178 321.852 568.358 347.99 568.358Z" fill="#373746"/>
<path d="M340.799 558.178H326.422V583.928H340.799V558.178Z" fill="#373746"/>
<path d="M369.555 558.178H355.178V583.928H369.555V558.178Z" fill="#373746"/>
<path d="M338.403 588.718C345.02 588.718 350.384 586.708 350.384 584.227C350.384 581.747 345.02 579.736 338.403 579.736C331.786 579.736 326.422 581.747 326.422 584.227C326.422 586.708 331.786 588.718 338.403 588.718Z" fill="#373746"/>
<path d="M367.159 588.12C373.776 588.12 379.14 586.109 379.14 583.628C379.14 581.148 373.776 579.137 367.159 579.137C360.542 579.137 355.178 581.148 355.178 583.628C355.178 586.109 360.542 588.12 367.159 588.12Z" fill="#373746"/>
<path d="M302.082 477.057C298.261 459.95 310.476 442.664 329.366 438.448C348.256 434.232 366.666 444.682 370.488 461.789C374.309 478.896 361.79 485.205 342.901 489.421C324.011 493.638 305.904 494.164 302.082 477.057Z" fill="#633CFF"/>
<path d="M398.986 500.379C409.235 490.126 414.933 479.207 411.713 475.991C408.493 472.774 397.574 478.479 387.325 488.732C377.076 498.985 371.378 509.904 374.598 513.12C377.818 516.336 388.737 510.632 398.986 500.379Z" fill="#373746"/>
<path d="M309.842 516.416C313.062 513.2 307.364 502.28 297.115 492.027C286.866 481.774 275.947 476.07 272.727 479.286C269.507 482.502 275.205 493.421 285.454 503.674C295.703 513.928 306.622 519.632 309.842 516.416Z" fill="#373746"/>
<path d="M635.704 220.811C634.133 172.304 600.897 134.016 561.47 135.291C473.722 137.891 471.579 298.742 556.297 310.296L554.504 324.549L580.669 323.702L577.956 309.595C612.036 302.065 637.128 264.788 635.704 220.811Z" fill="#FF6584"/>
<path d="M517.836 247.705L507.951 248.025C504.076 229.61 503.463 210.66 506.138 192.033L516.022 191.713C512.372 211.211 512.976 229.875 517.836 247.705Z" fill="white"/>
<path d="M581.951 309.373L552.297 310.333L552.51 316.92L582.164 315.961L581.951 309.373Z" fill="#3F3D56"/>
<path d="M495.82 561.606L492.834 560.209L566.252 311.332L569.237 312.73L495.82 561.606Z" fill="#3F3D56"/>
<path d="M696.47 261.829C714.4 216.728 699.216 168.36 662.557 153.798C581.064 121.169 514.868 267.794 587.93 312.192L580.594 324.544L604.922 334.208L608.069 320.192C642.323 326.886 680.215 302.72 696.47 261.829Z" fill="#633CFF"/>
<path d="M577.66 239.456L568.469 235.805C572.269 217.376 579.274 199.755 589.165 183.745L598.355 187.395C587.222 203.816 580.324 221.169 577.66 239.456Z" fill="white"/>
<path d="M584.247 310.629L581.812 316.754L609.385 327.707L611.82 321.582L584.247 310.629Z" fill="#3F3D56"/>
<path d="M495.24 555.055L492.375 553.425L594.876 319.601L597.74 321.23L495.24 555.055Z" fill="#3F3D56"/>
<path d="M139.328 223.945C119.93 179.455 74.889 156.16 38.7267 171.915C-41.8445 206.755 15.6495 357.004 98.6394 336.434L102.244 350.34L126.242 339.885L118.505 327.779C147.386 308.19 156.915 264.281 139.328 223.945Z" fill="#633CFF"/>
<path d="M39.7545 292.49L30.6883 296.44C20.278 280.762 12.6994 263.38 8.29688 245.085L17.363 241.135C21.1813 260.601 28.6451 277.719 39.7545 292.49Z" fill="white"/>
<path d="M122.134 326.097L94.9355 337.947L97.5698 343.989L124.768 332.139L122.134 326.097Z" fill="#3F3D56"/>
<path d="M185.063 562.243C184.639 562.348 184.19 562.28 183.816 562.055C183.441 561.829 183.172 561.464 183.067 561.04L111.412 334.083L114.612 333.29L186.266 560.247C186.318 560.457 186.328 560.675 186.296 560.889C186.264 561.103 186.19 561.309 186.078 561.494C185.966 561.679 185.819 561.841 185.645 561.969C185.471 562.098 185.273 562.191 185.063 562.243Z" fill="#3F3D56"/>
<path d="M204.214 634H31.6907C31.3992 634 31.1197 633.884 30.9137 633.678C30.7076 633.472 30.5918 633.193 30.5918 632.902C30.5918 632.61 30.7076 632.331 30.9137 632.125C31.1197 631.919 31.3992 631.803 31.6907 631.803H204.214C204.505 631.803 204.784 631.919 204.991 632.125C205.197 632.331 205.312 632.61 205.312 632.902C205.312 633.193 205.197 633.472 204.991 633.678C204.784 633.884 204.505 634 204.214 634Z" fill="#CCCCCC"/>
<path d="M642.663 634H470.14C469.848 634 469.569 633.884 469.363 633.678C469.157 633.472 469.041 633.193 469.041 632.902C469.041 632.61 469.157 632.331 469.363 632.125C469.569 631.919 469.848 631.803 470.14 631.803H642.663C642.954 631.803 643.234 631.919 643.44 632.125C643.646 632.331 643.762 632.61 643.762 632.902C643.762 633.193 643.646 633.472 643.44 633.678C643.234 633.884 642.954 634 642.663 634Z" fill="#CCCCCC"/>
<path d="M437.174 588.964H264.652C264.36 588.964 264.081 588.848 263.875 588.642C263.668 588.436 263.553 588.157 263.553 587.865C263.553 587.574 263.668 587.295 263.875 587.089C264.081 586.883 264.36 586.767 264.652 586.767H437.174C437.466 586.767 437.745 586.883 437.951 587.089C438.158 587.295 438.273 587.574 438.273 587.865C438.273 588.157 438.158 588.436 437.951 588.642C437.745 588.848 437.466 588.964 437.174 588.964Z" fill="#CCCCCC"/>
<path d="M345.997 530.515C354.93 530.515 362.171 523.277 362.171 514.347C362.171 505.418 354.93 498.179 345.997 498.179C337.064 498.179 329.822 505.418 329.822 514.347C329.822 523.277 337.064 530.515 345.997 530.515Z" fill="white"/>
<path d="M345.997 519.737C348.975 519.737 351.388 517.324 351.388 514.347C351.388 511.371 348.975 508.958 345.997 508.958C343.019 508.958 340.605 511.371 340.605 514.347C340.605 517.324 343.019 519.737 345.997 519.737Z" fill="#3F3D56"/>
<path d="M358.837 544.25C359.336 546.993 358.725 549.823 357.138 552.116C355.55 554.409 353.116 555.978 350.372 556.478C347.627 556.977 344.796 556.366 342.502 554.779C340.208 553.192 338.639 550.76 338.139 548.016L338.135 547.996C337.1 542.281 341.52 540.259 347.237 539.225C352.953 538.19 357.802 538.535 358.837 544.25Z" fill="white"/>
</g>
<defs>
<clipPath id="clip0_40:361">
<rect width="704" height="634" fill="white"/>
</clipPath>
</defs>
</svg>
