<svg width="845" height="155" viewBox="0 0 845 155" fill="none" xmlns="http://www.w3.org/2000/svg">
<line x1="115" y1="107" x2="243" y2="107" stroke="#B0F7B0" stroke-width="4" stroke-linecap="round"/>
<line x1="609" y1="107" x2="737" y2="107" stroke="#B0F7B0" stroke-width="4" stroke-linecap="round"/>
<line x1="360" y1="107" x2="488" y2="107" stroke="#B0F7B0" stroke-width="4" stroke-linecap="round"/>
<path d="M48.5 69.75C27.11 69.75 9.75 87.11 9.75 108.5C9.75 129.89 27.11 147.25 48.5 147.25C69.89 147.25 87.25 129.89 87.25 108.5C87.25 87.11 69.89 69.75 48.5 69.75ZM40.75 127.875L21.375 108.5L26.8387 103.036L40.75 116.909L70.1613 87.4975L75.625 93L40.75 127.875Z" fill="#B0F7B0"/>
<path d="M301.5 69.75C280.11 69.75 262.75 87.11 262.75 108.5C262.75 129.89 280.11 147.25 301.5 147.25C322.89 147.25 340.25 129.89 340.25 108.5C340.25 87.11 322.89 69.75 301.5 69.75ZM293.75 127.875L274.375 108.5L279.839 103.036L293.75 116.909L323.161 87.4975L328.625 93L293.75 127.875Z" fill="#B0F7B0"/>
<path d="M546.5 69.75C525.11 69.75 507.75 87.11 507.75 108.5C507.75 129.89 525.11 147.25 546.5 147.25C567.89 147.25 585.25 129.89 585.25 108.5C585.25 87.11 567.89 69.75 546.5 69.75ZM538.75 127.875L519.375 108.5L524.839 103.036L538.75 116.909L568.161 87.4975L573.625 93L538.75 127.875Z" fill="#B0F7B0"/>
<path d="M14.2247 9.72C15.7314 9.72 16.898 10.1067 17.7247 10.88C18.5514 11.64 18.9647 12.6933 18.9647 14.04C18.9647 15.4 18.5514 16.4667 17.7247 17.24C16.898 18 15.7314 18.38 14.2247 18.38H10.0047V24H8.20469V9.72H14.2247ZM13.9647 16.84C14.978 16.84 15.758 16.6067 16.3047 16.14C16.8514 15.66 17.1247 14.96 17.1247 14.04C17.1247 13.12 16.8514 12.4267 16.3047 11.96C15.758 11.48 14.978 11.24 13.9647 11.24H10.0047V16.84H13.9647ZM30.4417 21C30.1484 21.92 29.6217 22.6933 28.8617 23.32C28.1017 23.9333 27.0551 24.24 25.7217 24.24C24.7751 24.24 23.9351 24.0133 23.2017 23.56C22.4684 23.1067 21.8951 22.4667 21.4817 21.64C21.0817 20.8 20.8817 19.8333 20.8817 18.74C20.8817 17.6467 21.0817 16.6867 21.4817 15.86C21.8817 15.02 22.4417 14.3733 23.1617 13.92C23.8951 13.4667 24.7417 13.24 25.7017 13.24C26.6751 13.24 27.5351 13.48 28.2817 13.96C29.0417 14.4267 29.6217 15.1067 30.0217 16C30.4217 16.88 30.5884 17.9267 30.5217 19.14H22.5817C22.6084 20.2467 22.9084 21.1467 23.4817 21.84C24.0551 22.52 24.8017 22.86 25.7217 22.86C26.5751 22.86 27.2417 22.6533 27.7217 22.24C28.2151 21.8267 28.5551 21.34 28.7417 20.78L30.4417 21ZM25.7017 14.62C24.8084 14.62 24.0884 14.9267 23.5417 15.54C23.0084 16.1533 22.7017 16.9133 22.6217 17.82H28.8017C28.7217 16.9133 28.4084 16.1533 27.8617 15.54C27.3151 14.9267 26.5951 14.62 25.7017 14.62ZM33.4563 13.48H35.0563V15.28H35.1163C35.3963 14.6533 35.8229 14.16 36.3963 13.8C36.9696 13.4267 37.6429 13.24 38.4163 13.24C38.7229 13.24 39.0229 13.2667 39.3163 13.32V14.94C38.8763 14.9 38.5496 14.88 38.3363 14.88C37.3629 14.88 36.5829 15.18 35.9963 15.78C35.4229 16.38 35.1363 17.3 35.1363 18.54V24H33.4563V13.48ZM48.0989 16.54C47.9656 15.9267 47.6522 15.4467 47.1589 15.1C46.6656 14.74 46.0922 14.56 45.4389 14.56C44.7456 14.56 44.1922 14.7133 43.7789 15.02C43.3656 15.3267 43.1589 15.74 43.1589 16.26C43.1589 16.7267 43.3456 17.0667 43.7189 17.28C44.0922 17.4933 44.6256 17.66 45.3189 17.78L46.4389 17.96C47.5322 18.1467 48.3789 18.4533 48.9789 18.88C49.5922 19.2933 49.8989 19.9933 49.8989 20.98C49.8989 22.02 49.4922 22.8267 48.6789 23.4C47.8789 23.96 46.8456 24.24 45.5789 24.24C44.3122 24.24 43.2656 23.94 42.4389 23.34C41.6256 22.74 41.1456 21.9467 40.9989 20.96L42.5389 20.62C42.6856 21.3667 43.0322 21.94 43.5789 22.34C44.1256 22.7267 44.7989 22.92 45.5989 22.92C46.3589 22.92 46.9789 22.7533 47.4589 22.42C47.9389 22.0733 48.1789 21.6133 48.1789 21.04C48.1789 20.5333 47.9789 20.1667 47.5789 19.94C47.1922 19.7133 46.5989 19.5267 45.7989 19.38L44.6989 19.18C43.6989 19.0067 42.9056 18.7133 42.3189 18.3C41.7322 17.8867 41.4389 17.2133 41.4389 16.28C41.4389 15.6933 41.6056 15.1667 41.9389 14.7C42.2856 14.2333 42.7656 13.8733 43.3789 13.62C43.9922 13.3667 44.6856 13.24 45.4589 13.24C46.1789 13.24 46.8389 13.3733 47.4389 13.64C48.0522 13.9067 48.5456 14.2667 48.9189 14.72C49.3056 15.1733 49.5456 15.6667 49.6389 16.2L48.0989 16.54ZM57.1117 13.24C58.0984 13.24 58.9651 13.4667 59.7117 13.92C60.4717 14.3733 61.0584 15.0133 61.4717 15.84C61.8851 16.6667 62.0917 17.6333 62.0917 18.74C62.0917 19.8467 61.8851 20.8133 61.4717 21.64C61.0584 22.4667 60.4717 23.1067 59.7117 23.56C58.9651 24.0133 58.0984 24.24 57.1117 24.24C56.1251 24.24 55.2517 24.0133 54.4917 23.56C53.7451 23.1067 53.1651 22.4667 52.7517 21.64C52.3384 20.8133 52.1317 19.8467 52.1317 18.74C52.1317 17.6333 52.3384 16.6667 52.7517 15.84C53.1651 15.0133 53.7451 14.3733 54.4917 13.92C55.2517 13.4667 56.1251 13.24 57.1117 13.24ZM57.1117 22.86C58.0984 22.86 58.8851 22.4933 59.4717 21.76C60.0717 21.0133 60.3717 20.0067 60.3717 18.74C60.3717 17.4733 60.0717 16.4733 59.4717 15.74C58.8851 14.9933 58.0984 14.62 57.1117 14.62C56.1251 14.62 55.3317 14.9933 54.7317 15.74C54.1451 16.4733 53.8517 17.4733 53.8517 18.74C53.8517 20.0067 54.1451 21.0133 54.7317 21.76C55.3317 22.4933 56.1251 22.86 57.1117 22.86ZM66.6188 13.48V14.98H66.6788C66.9988 14.4333 67.4521 14.0067 68.0388 13.7C68.6254 13.3933 69.2788 13.24 69.9988 13.24C71.0788 13.24 71.9721 13.56 72.6788 14.2C73.3854 14.84 73.7388 15.7667 73.7388 16.98V24H72.0588V17.56C72.0588 16.5467 71.8521 15.8133 71.4388 15.36C71.0388 14.8933 70.4121 14.66 69.5588 14.66C69.0521 14.66 68.5788 14.7867 68.1388 15.04C67.7121 15.2933 67.3654 15.6867 67.0988 16.22C66.8321 16.74 66.6988 17.3867 66.6988 18.16V24H65.0188V13.48H66.6188ZM85.4081 22.68C85.6081 22.68 85.8081 22.6467 86.0081 22.58V24C85.8348 24.0667 85.4948 24.1 84.9881 24.1C84.4415 24.1 84.0215 23.9867 83.7281 23.76C83.4481 23.5333 83.2815 23.18 83.2281 22.7H83.1681C82.8081 23.2333 82.3015 23.6267 81.6481 23.88C80.9948 24.12 80.3215 24.24 79.6281 24.24C79.0281 24.24 78.4815 24.1133 77.9881 23.86C77.4948 23.6067 77.1015 23.2467 76.8081 22.78C76.5148 22.3 76.3681 21.7533 76.3681 21.14C76.3681 20.0467 76.7281 19.26 77.4481 18.78C78.1815 18.2867 79.2481 17.9533 80.6481 17.78C81.3415 17.6867 81.8681 17.5933 82.2281 17.5C82.5881 17.3933 82.8348 17.2667 82.9681 17.12C83.1148 16.9733 83.1881 16.7733 83.1881 16.52C83.1881 15.9333 83.0015 15.4733 82.6281 15.14C82.2548 14.8067 81.6748 14.64 80.8881 14.64C80.2881 14.64 79.7481 14.7933 79.2681 15.1C78.8015 15.4067 78.4748 15.9067 78.2881 16.6L76.7481 16.22C76.9881 15.26 77.4815 14.5267 78.2281 14.02C78.9881 13.5 79.8948 13.24 80.9481 13.24C82.2948 13.24 83.2815 13.5333 83.9081 14.12C84.5481 14.7067 84.8681 15.4933 84.8681 16.48V22C84.8681 22.2533 84.9148 22.4333 85.0081 22.54C85.1015 22.6333 85.2348 22.68 85.4081 22.68ZM83.1881 18.38C83.0415 18.5533 82.7548 18.6867 82.3281 18.78C81.9148 18.8733 81.3015 18.9733 80.4881 19.08C79.8215 19.1733 79.2548 19.3867 78.7881 19.72C78.3215 20.04 78.0881 20.5067 78.0881 21.12C78.0881 21.6667 78.2548 22.1 78.5881 22.42C78.9215 22.7267 79.3748 22.88 79.9481 22.88C80.4548 22.88 80.9548 22.78 81.4481 22.58C81.9415 22.38 82.3548 22.0533 82.6881 21.6C83.0215 21.1333 83.1881 20.5333 83.1881 19.8V18.38ZM89.9214 24H88.2414V9.52H89.9214V24ZM6.95961 48.24C6.03961 48.24 5.21961 48.0133 4.49961 47.56C3.77961 47.1067 3.21961 46.4667 2.81961 45.64C2.41961 44.8 2.21961 43.8333 2.21961 42.74C2.21961 41.6467 2.41961 40.6867 2.81961 39.86C3.21961 39.02 3.77961 38.3733 4.49961 37.92C5.21961 37.4667 6.03961 37.24 6.95961 37.24C7.73294 37.24 8.42628 37.4067 9.03961 37.74C9.65294 38.06 10.1063 38.5067 10.3996 39.08H10.4596V37.48H12.0596V51.68H10.3796V46.48H10.3196C10.0396 47.0267 9.59961 47.46 8.99961 47.78C8.39961 48.0867 7.71961 48.24 6.95961 48.24ZM7.23961 38.62C6.23961 38.62 5.43961 38.9933 4.83961 39.74C4.23961 40.4733 3.93961 41.4733 3.93961 42.74C3.93961 44.0067 4.23961 45.0133 4.83961 45.76C5.43961 46.4933 6.23961 46.86 7.23961 46.86C8.21294 46.86 8.99961 46.4933 9.59961 45.76C10.1996 45.0133 10.4996 44.0067 10.4996 42.74C10.4996 41.4733 10.1996 40.4733 9.59961 39.74C8.99961 38.9933 8.21294 38.62 7.23961 38.62ZM22.5782 48V46.5H22.5182C22.1849 47.0467 21.7249 47.4733 21.1382 47.78C20.5515 48.0867 19.8982 48.24 19.1782 48.24C18.0982 48.24 17.2049 47.92 16.4982 47.28C15.8049 46.64 15.4582 45.7133 15.4582 44.5V37.48H17.1382V43.92C17.1382 44.9333 17.3382 45.6733 17.7382 46.14C18.1382 46.5933 18.7649 46.82 19.6182 46.82C20.4182 46.82 21.0982 46.5267 21.6582 45.94C22.2182 45.34 22.4982 44.4667 22.4982 43.32V37.48H24.1782V48H22.5782ZM36.4476 45C36.1542 45.92 35.6276 46.6933 34.8676 47.32C34.1076 47.9333 33.0609 48.24 31.7276 48.24C30.7809 48.24 29.9409 48.0133 29.2076 47.56C28.4742 47.1067 27.9009 46.4667 27.4876 45.64C27.0876 44.8 26.8876 43.8333 26.8876 42.74C26.8876 41.6467 27.0876 40.6867 27.4876 39.86C27.8876 39.02 28.4476 38.3733 29.1676 37.92C29.9009 37.4667 30.7476 37.24 31.7076 37.24C32.6809 37.24 33.5409 37.48 34.2876 37.96C35.0476 38.4267 35.6276 39.1067 36.0276 40C36.4276 40.88 36.5942 41.9267 36.5276 43.14H28.5876C28.6142 44.2467 28.9142 45.1467 29.4876 45.84C30.0609 46.52 30.8076 46.86 31.7276 46.86C32.5809 46.86 33.2476 46.6533 33.7276 46.24C34.2209 45.8267 34.5609 45.34 34.7476 44.78L36.4476 45ZM31.7076 38.62C30.8142 38.62 30.0942 38.9267 29.5476 39.54C29.0142 40.1533 28.7076 40.9133 28.6276 41.82H34.8076C34.7276 40.9133 34.4142 40.1533 33.8676 39.54C33.3209 38.9267 32.6009 38.62 31.7076 38.62ZM45.8821 40.54C45.7488 39.9267 45.4354 39.4467 44.9421 39.1C44.4488 38.74 43.8754 38.56 43.2221 38.56C42.5288 38.56 41.9754 38.7133 41.5621 39.02C41.1488 39.3267 40.9421 39.74 40.9421 40.26C40.9421 40.7267 41.1288 41.0667 41.5021 41.28C41.8754 41.4933 42.4088 41.66 43.1021 41.78L44.2221 41.96C45.3154 42.1467 46.1621 42.4533 46.7621 42.88C47.3754 43.2933 47.6821 43.9933 47.6821 44.98C47.6821 46.02 47.2754 46.8267 46.4621 47.4C45.6621 47.96 44.6288 48.24 43.3621 48.24C42.0954 48.24 41.0488 47.94 40.2221 47.34C39.4088 46.74 38.9288 45.9467 38.7821 44.96L40.3221 44.62C40.4688 45.3667 40.8154 45.94 41.3621 46.34C41.9088 46.7267 42.5821 46.92 43.3821 46.92C44.1421 46.92 44.7621 46.7533 45.2421 46.42C45.7221 46.0733 45.9621 45.6133 45.9621 45.04C45.9621 44.5333 45.7621 44.1667 45.3621 43.94C44.9754 43.7133 44.3821 43.5267 43.5821 43.38L42.4821 43.18C41.4821 43.0067 40.6888 42.7133 40.1021 42.3C39.5154 41.8867 39.2221 41.2133 39.2221 40.28C39.2221 39.6933 39.3888 39.1667 39.7221 38.7C40.0688 38.2333 40.5488 37.8733 41.1621 37.62C41.7754 37.3667 42.4688 37.24 43.2421 37.24C43.9621 37.24 44.6221 37.3733 45.2221 37.64C45.8354 37.9067 46.3288 38.2667 46.7021 38.72C47.0888 39.1733 47.3288 39.6667 47.4221 40.2L45.8821 40.54ZM53.9559 46.8C54.1692 46.8 54.3892 46.78 54.6159 46.74C54.8425 46.6867 55.0159 46.6333 55.1359 46.58V48C55.0159 48.0667 54.8092 48.12 54.5159 48.16C54.2359 48.2133 53.9559 48.24 53.6759 48.24C52.7825 48.24 52.1359 48.06 51.7359 47.7C51.3359 47.3267 51.1359 46.7 51.1359 45.82V38.78H49.3759V37.48H51.1359V34.46H52.8159V37.48H55.2359V38.78H52.8159V45.64C52.8159 46.0667 52.8959 46.3667 53.0559 46.54C53.2292 46.7133 53.5292 46.8 53.9559 46.8ZM59.7149 48H58.0349V37.48H59.7149V48ZM59.7349 35.44H58.0149V33.52H59.7349V35.44ZM67.5512 37.24C68.5378 37.24 69.4045 37.4667 70.1512 37.92C70.9112 38.3733 71.4978 39.0133 71.9112 39.84C72.3245 40.6667 72.5312 41.6333 72.5312 42.74C72.5312 43.8467 72.3245 44.8133 71.9112 45.64C71.4978 46.4667 70.9112 47.1067 70.1512 47.56C69.4045 48.0133 68.5378 48.24 67.5512 48.24C66.5645 48.24 65.6912 48.0133 64.9312 47.56C64.1845 47.1067 63.6045 46.4667 63.1912 45.64C62.7778 44.8133 62.5712 43.8467 62.5712 42.74C62.5712 41.6333 62.7778 40.6667 63.1912 39.84C63.6045 39.0133 64.1845 38.3733 64.9312 37.92C65.6912 37.4667 66.5645 37.24 67.5512 37.24ZM67.5512 46.86C68.5378 46.86 69.3245 46.4933 69.9112 45.76C70.5112 45.0133 70.8112 44.0067 70.8112 42.74C70.8112 41.4733 70.5112 40.4733 69.9112 39.74C69.3245 38.9933 68.5378 38.62 67.5512 38.62C66.5645 38.62 65.7712 38.9933 65.1712 39.74C64.5845 40.4733 64.2912 41.4733 64.2912 42.74C64.2912 44.0067 64.5845 45.0133 65.1712 45.76C65.7712 46.4933 66.5645 46.86 67.5512 46.86ZM77.0582 37.48V38.98H77.1182C77.4382 38.4333 77.8915 38.0067 78.4782 37.7C79.0649 37.3933 79.7182 37.24 80.4382 37.24C81.5182 37.24 82.4115 37.56 83.1182 38.2C83.8249 38.84 84.1782 39.7667 84.1782 40.98V48H82.4982V41.56C82.4982 40.5467 82.2915 39.8133 81.8782 39.36C81.4782 38.8933 80.8515 38.66 79.9982 38.66C79.4915 38.66 79.0182 38.7867 78.5782 39.04C78.1515 39.2933 77.8049 39.6867 77.5382 40.22C77.2715 40.74 77.1382 41.3867 77.1382 42.16V48H75.4582V37.48H77.0582ZM93.9876 40.54C93.8542 39.9267 93.5409 39.4467 93.0476 39.1C92.5542 38.74 91.9809 38.56 91.3276 38.56C90.6342 38.56 90.0809 38.7133 89.6676 39.02C89.2542 39.3267 89.0476 39.74 89.0476 40.26C89.0476 40.7267 89.2342 41.0667 89.6076 41.28C89.9809 41.4933 90.5142 41.66 91.2076 41.78L92.3276 41.96C93.4209 42.1467 94.2676 42.4533 94.8676 42.88C95.4809 43.2933 95.7876 43.9933 95.7876 44.98C95.7876 46.02 95.3809 46.8267 94.5676 47.4C93.7676 47.96 92.7342 48.24 91.4676 48.24C90.2009 48.24 89.1542 47.94 88.3276 47.34C87.5142 46.74 87.0342 45.9467 86.8876 44.96L88.4276 44.62C88.5742 45.3667 88.9209 45.94 89.4676 46.34C90.0142 46.7267 90.6876 46.92 91.4876 46.92C92.2476 46.92 92.8676 46.7533 93.3476 46.42C93.8276 46.0733 94.0676 45.6133 94.0676 45.04C94.0676 44.5333 93.8676 44.1667 93.4676 43.94C93.0809 43.7133 92.4876 43.5267 91.6876 43.38L90.5876 43.18C89.5876 43.0067 88.7942 42.7133 88.2076 42.3C87.6209 41.8867 87.3276 41.2133 87.3276 40.28C87.3276 39.6933 87.4942 39.1667 87.8276 38.7C88.1742 38.2333 88.6542 37.8733 89.2676 37.62C89.8809 37.3667 90.5742 37.24 91.3476 37.24C92.0676 37.24 92.7276 37.3733 93.3276 37.64C93.9409 37.9067 94.4342 38.2667 94.8076 38.72C95.1942 39.1733 95.4342 39.6667 95.5276 40.2L93.9876 40.54Z" fill="#B0F7B0"/>
<path d="M260.811 9.72H272.271V11.28H267.431V24H265.631V11.28H260.811V9.72ZM281.23 13.48H283.05L278.97 24C278.53 25.12 278.117 25.96 277.73 26.52C277.343 27.0933 276.957 27.4667 276.57 27.64C276.197 27.8267 275.743 27.92 275.21 27.92C274.797 27.92 274.41 27.8867 274.05 27.82V26.34C274.33 26.42 274.637 26.46 274.97 26.46C275.317 26.46 275.603 26.4 275.83 26.28C276.057 26.1733 276.27 25.9733 276.47 25.68C276.67 25.3867 276.883 24.9533 277.11 24.38L277.31 23.88L273.07 13.48H274.91L278.11 21.9H278.17L281.23 13.48ZM290.599 24.24C289.839 24.24 289.159 24.0867 288.559 23.78C287.959 23.46 287.519 23.0267 287.239 22.48H287.179V27.68H285.499V13.48H287.099V15.08H287.159C287.453 14.5067 287.906 14.06 288.519 13.74C289.133 13.4067 289.826 13.24 290.599 13.24C291.519 13.24 292.339 13.4667 293.059 13.92C293.779 14.3733 294.339 15.02 294.739 15.86C295.139 16.6867 295.339 17.6467 295.339 18.74C295.339 19.8333 295.139 20.8 294.739 21.64C294.339 22.4667 293.779 23.1067 293.059 23.56C292.339 24.0133 291.519 24.24 290.599 24.24ZM290.319 14.62C289.346 14.62 288.559 14.9933 287.959 15.74C287.359 16.4733 287.059 17.4733 287.059 18.74C287.059 20.0067 287.359 21.0133 287.959 21.76C288.559 22.4933 289.346 22.86 290.319 22.86C291.319 22.86 292.119 22.4933 292.719 21.76C293.319 21.0133 293.619 20.0067 293.619 18.74C293.619 17.4733 293.319 16.4733 292.719 15.74C292.119 14.9933 291.319 14.62 290.319 14.62ZM307.133 21C306.84 21.92 306.313 22.6933 305.553 23.32C304.793 23.9333 303.746 24.24 302.413 24.24C301.466 24.24 300.626 24.0133 299.893 23.56C299.16 23.1067 298.586 22.4667 298.173 21.64C297.773 20.8 297.573 19.8333 297.573 18.74C297.573 17.6467 297.773 16.6867 298.173 15.86C298.573 15.02 299.133 14.3733 299.853 13.92C300.586 13.4667 301.433 13.24 302.393 13.24C303.366 13.24 304.226 13.48 304.973 13.96C305.733 14.4267 306.313 15.1067 306.713 16C307.113 16.88 307.28 17.9267 307.213 19.14H299.273C299.3 20.2467 299.6 21.1467 300.173 21.84C300.746 22.52 301.493 22.86 302.413 22.86C303.266 22.86 303.933 22.6533 304.413 22.24C304.906 21.8267 305.246 21.34 305.433 20.78L307.133 21ZM302.393 14.62C301.5 14.62 300.78 14.9267 300.233 15.54C299.7 16.1533 299.393 16.9133 299.313 17.82H305.493C305.413 16.9133 305.1 16.1533 304.553 15.54C304.006 14.9267 303.286 14.62 302.393 14.62ZM316.568 16.54C316.434 15.9267 316.121 15.4467 315.628 15.1C315.134 14.74 314.561 14.56 313.908 14.56C313.214 14.56 312.661 14.7133 312.248 15.02C311.834 15.3267 311.628 15.74 311.628 16.26C311.628 16.7267 311.814 17.0667 312.188 17.28C312.561 17.4933 313.094 17.66 313.788 17.78L314.908 17.96C316.001 18.1467 316.848 18.4533 317.448 18.88C318.061 19.2933 318.368 19.9933 318.368 20.98C318.368 22.02 317.961 22.8267 317.148 23.4C316.348 23.96 315.314 24.24 314.048 24.24C312.781 24.24 311.734 23.94 310.908 23.34C310.094 22.74 309.614 21.9467 309.468 20.96L311.008 20.62C311.154 21.3667 311.501 21.94 312.048 22.34C312.594 22.7267 313.268 22.92 314.068 22.92C314.828 22.92 315.448 22.7533 315.928 22.42C316.408 22.0733 316.648 21.6133 316.648 21.04C316.648 20.5333 316.448 20.1667 316.048 19.94C315.661 19.7133 315.068 19.5267 314.268 19.38L313.168 19.18C312.168 19.0067 311.374 18.7133 310.788 18.3C310.201 17.8867 309.908 17.2133 309.908 16.28C309.908 15.6933 310.074 15.1667 310.408 14.7C310.754 14.2333 311.234 13.8733 311.848 13.62C312.461 13.3667 313.154 13.24 313.928 13.24C314.648 13.24 315.308 13.3733 315.908 13.64C316.521 13.9067 317.014 14.2667 317.388 14.72C317.774 15.1733 318.014 15.6667 318.108 16.2L316.568 16.54ZM330.678 13.24C331.665 13.24 332.531 13.4667 333.278 13.92C334.038 14.3733 334.625 15.0133 335.038 15.84C335.451 16.6667 335.658 17.6333 335.658 18.74C335.658 19.8467 335.451 20.8133 335.038 21.64C334.625 22.4667 334.038 23.1067 333.278 23.56C332.531 24.0133 331.665 24.24 330.678 24.24C329.691 24.24 328.818 24.0133 328.058 23.56C327.311 23.1067 326.731 22.4667 326.318 21.64C325.905 20.8133 325.698 19.8467 325.698 18.74C325.698 17.6333 325.905 16.6667 326.318 15.84C326.731 15.0133 327.311 14.3733 328.058 13.92C328.818 13.4667 329.691 13.24 330.678 13.24ZM330.678 22.86C331.665 22.86 332.451 22.4933 333.038 21.76C333.638 21.0133 333.938 20.0067 333.938 18.74C333.938 17.4733 333.638 16.4733 333.038 15.74C332.451 14.9933 331.665 14.62 330.678 14.62C329.691 14.62 328.898 14.9933 328.298 15.74C327.711 16.4733 327.418 17.4733 327.418 18.74C327.418 20.0067 327.711 21.0133 328.298 21.76C328.898 22.4933 329.691 22.86 330.678 22.86ZM342.011 10.7C341.571 10.7 341.225 10.7867 340.971 10.96C340.718 11.1333 340.591 11.4933 340.591 12.04V13.48H343.011V14.78H340.591V24H338.911V14.78H337.151V13.48H338.911V11.88C338.911 10.1467 339.858 9.28 341.751 9.28C342.405 9.28 342.918 9.34667 343.291 9.48V10.86C342.825 10.7533 342.398 10.7 342.011 10.7ZM278.826 37.48H280.426V47.28C280.426 48.8667 279.993 50.0333 279.126 50.78C278.259 51.54 277.099 51.92 275.646 51.92C274.486 51.92 273.493 51.66 272.666 51.14C271.853 50.62 271.286 49.8333 270.966 48.78L272.566 48.4C272.779 49.1467 273.146 49.6867 273.666 50.02C274.186 50.3667 274.846 50.54 275.646 50.54C277.713 50.54 278.746 49.4267 278.746 47.2V45.78H278.686C278.419 46.2867 277.993 46.6867 277.406 46.98C276.819 47.2733 276.159 47.42 275.426 47.42C274.519 47.42 273.713 47.2133 273.006 46.8C272.313 46.3733 271.766 45.7733 271.366 45C270.979 44.2267 270.786 43.34 270.786 42.34C270.786 41.3267 270.979 40.4333 271.366 39.66C271.766 38.8867 272.313 38.2933 273.006 37.88C273.713 37.4533 274.519 37.24 275.426 37.24C276.173 37.24 276.846 37.3933 277.446 37.7C278.046 38.0067 278.486 38.4267 278.766 38.96H278.826V37.48ZM275.706 46.08C276.319 46.08 276.866 45.9267 277.346 45.62C277.826 45.3 278.199 44.86 278.466 44.3C278.733 43.7267 278.866 43.0733 278.866 42.34C278.866 41.2333 278.573 40.34 277.986 39.66C277.399 38.9667 276.639 38.62 275.706 38.62C274.746 38.62 273.973 38.96 273.386 39.64C272.799 40.32 272.506 41.22 272.506 42.34C272.506 43.46 272.799 44.3667 273.386 45.06C273.973 45.74 274.746 46.08 275.706 46.08ZM292.109 46.68C292.309 46.68 292.509 46.6467 292.709 46.58V48C292.536 48.0667 292.196 48.1 291.689 48.1C291.143 48.1 290.723 47.9867 290.429 47.76C290.149 47.5333 289.983 47.18 289.929 46.7H289.869C289.509 47.2333 289.003 47.6267 288.349 47.88C287.696 48.12 287.023 48.24 286.329 48.24C285.729 48.24 285.183 48.1133 284.689 47.86C284.196 47.6067 283.803 47.2467 283.509 46.78C283.216 46.3 283.069 45.7533 283.069 45.14C283.069 44.0467 283.429 43.26 284.149 42.78C284.883 42.2867 285.949 41.9533 287.349 41.78C288.043 41.6867 288.569 41.5933 288.929 41.5C289.289 41.3933 289.536 41.2667 289.669 41.12C289.816 40.9733 289.889 40.7733 289.889 40.52C289.889 39.9333 289.703 39.4733 289.329 39.14C288.956 38.8067 288.376 38.64 287.589 38.64C286.989 38.64 286.449 38.7933 285.969 39.1C285.503 39.4067 285.176 39.9067 284.989 40.6L283.449 40.22C283.689 39.26 284.183 38.5267 284.929 38.02C285.689 37.5 286.596 37.24 287.649 37.24C288.996 37.24 289.983 37.5333 290.609 38.12C291.249 38.7067 291.569 39.4933 291.569 40.48V46C291.569 46.2533 291.616 46.4333 291.709 46.54C291.803 46.6333 291.936 46.68 292.109 46.68ZM289.889 42.38C289.743 42.5533 289.456 42.6867 289.029 42.78C288.616 42.8733 288.003 42.9733 287.189 43.08C286.523 43.1733 285.956 43.3867 285.489 43.72C285.023 44.04 284.789 44.5067 284.789 45.12C284.789 45.6667 284.956 46.1 285.289 46.42C285.623 46.7267 286.076 46.88 286.649 46.88C287.156 46.88 287.656 46.78 288.149 46.58C288.643 46.38 289.056 46.0533 289.389 45.6C289.723 45.1333 289.889 44.5333 289.889 43.8V42.38ZM306.243 37.24C306.883 37.24 307.463 37.38 307.983 37.66C308.516 37.94 308.936 38.36 309.243 38.92C309.563 39.48 309.723 40.1667 309.723 40.98V48H308.043V41.56C308.043 40.5467 307.856 39.8133 307.483 39.36C307.109 38.8933 306.536 38.66 305.763 38.66C305.043 38.66 304.429 38.9467 303.923 39.52C303.416 40.0933 303.163 40.9467 303.163 42.08V48H301.483V41.56C301.483 40.5467 301.296 39.8133 300.923 39.36C300.563 38.8933 299.996 38.66 299.223 38.66C298.503 38.66 297.889 38.96 297.383 39.56C296.876 40.1467 296.623 41.0133 296.623 42.16V48H294.943V37.48H296.543V38.98H296.603C296.923 38.4333 297.356 38.0067 297.903 37.7C298.449 37.3933 299.043 37.24 299.683 37.24C300.363 37.24 300.969 37.3933 301.503 37.7C302.049 38.0067 302.469 38.46 302.763 39.06C303.616 37.8467 304.776 37.24 306.243 37.24ZM321.987 45C321.693 45.92 321.167 46.6933 320.407 47.32C319.647 47.9333 318.6 48.24 317.267 48.24C316.32 48.24 315.48 48.0133 314.747 47.56C314.013 47.1067 313.44 46.4667 313.027 45.64C312.627 44.8 312.427 43.8333 312.427 42.74C312.427 41.6467 312.627 40.6867 313.027 39.86C313.427 39.02 313.987 38.3733 314.707 37.92C315.44 37.4667 316.287 37.24 317.247 37.24C318.22 37.24 319.08 37.48 319.827 37.96C320.587 38.4267 321.167 39.1067 321.567 40C321.967 40.88 322.133 41.9267 322.067 43.14H314.127C314.153 44.2467 314.453 45.1467 315.027 45.84C315.6 46.52 316.347 46.86 317.267 46.86C318.12 46.86 318.787 46.6533 319.267 46.24C319.76 45.8267 320.1 45.34 320.287 44.78L321.987 45ZM317.247 38.62C316.353 38.62 315.633 38.9267 315.087 39.54C314.553 40.1533 314.247 40.9133 314.167 41.82H320.347C320.267 40.9133 319.953 40.1533 319.407 39.54C318.86 38.9267 318.14 38.62 317.247 38.62ZM331.421 40.54C331.288 39.9267 330.975 39.4467 330.481 39.1C329.988 38.74 329.415 38.56 328.761 38.56C328.068 38.56 327.515 38.7133 327.101 39.02C326.688 39.3267 326.481 39.74 326.481 40.26C326.481 40.7267 326.668 41.0667 327.041 41.28C327.415 41.4933 327.948 41.66 328.641 41.78L329.761 41.96C330.855 42.1467 331.701 42.4533 332.301 42.88C332.915 43.2933 333.221 43.9933 333.221 44.98C333.221 46.02 332.815 46.8267 332.001 47.4C331.201 47.96 330.168 48.24 328.901 48.24C327.635 48.24 326.588 47.94 325.761 47.34C324.948 46.74 324.468 45.9467 324.321 44.96L325.861 44.62C326.008 45.3667 326.355 45.94 326.901 46.34C327.448 46.7267 328.121 46.92 328.921 46.92C329.681 46.92 330.301 46.7533 330.781 46.42C331.261 46.0733 331.501 45.6133 331.501 45.04C331.501 44.5333 331.301 44.1667 330.901 43.94C330.515 43.7133 329.921 43.5267 329.121 43.38L328.021 43.18C327.021 43.0067 326.228 42.7133 325.641 42.3C325.055 41.8867 324.761 41.2133 324.761 40.28C324.761 39.6933 324.928 39.1667 325.261 38.7C325.608 38.2333 326.088 37.8733 326.701 37.62C327.315 37.3667 328.008 37.24 328.781 37.24C329.501 37.24 330.161 37.3733 330.761 37.64C331.375 37.9067 331.868 38.2667 332.241 38.72C332.628 39.1733 332.868 39.6667 332.961 40.2L331.421 40.54Z" fill="#B0F7B0"/>
<path d="M520.586 15.48C520.399 16.3067 520.046 17.0867 519.526 17.82C519.019 18.5533 518.339 19.1533 517.486 19.62C516.646 20.0733 515.666 20.3 514.546 20.3C513.266 20.3 512.126 20 511.126 19.4C510.126 18.8 509.346 17.94 508.786 16.82C508.239 15.6867 507.966 14.36 507.966 12.84C507.966 11.3333 508.239 10.02 508.786 8.9C509.346 7.78 510.126 6.92 511.126 6.32C512.126 5.72 513.266 5.42 514.546 5.42C515.599 5.42 516.526 5.62667 517.326 6.04C518.126 6.44 518.773 6.93333 519.266 7.52C519.759 8.10667 520.113 8.68667 520.326 9.26L518.566 9.66C518.246 8.88667 517.739 8.24 517.046 7.72C516.366 7.2 515.533 6.94 514.546 6.94C513.599 6.94 512.766 7.17333 512.046 7.64C511.339 8.10667 510.786 8.78667 510.386 9.68C509.999 10.56 509.806 11.6133 509.806 12.84C509.806 14.08 509.999 15.1467 510.386 16.04C510.786 16.9333 511.339 17.6133 512.046 18.08C512.766 18.5467 513.599 18.78 514.546 18.78C515.679 18.78 516.599 18.4467 517.306 17.78C518.026 17.1 518.519 16.2467 518.786 15.22L520.586 15.48ZM525.263 5.52V10.98H525.323C525.657 10.4333 526.11 10.0067 526.683 9.7C527.27 9.39333 527.91 9.24 528.603 9.24C529.67 9.24 530.55 9.56 531.243 10.2C531.95 10.84 532.303 11.7667 532.303 12.98V20H530.623V13.56C530.623 12.5467 530.417 11.8133 530.003 11.36C529.603 10.8933 528.977 10.66 528.123 10.66C527.643 10.66 527.183 10.8 526.743 11.08C526.303 11.36 525.943 11.7733 525.663 12.32C525.397 12.8667 525.263 13.52 525.263 14.28V20H523.583V5.52H525.263ZM539.993 9.24C540.979 9.24 541.846 9.46667 542.593 9.92C543.353 10.3733 543.939 11.0133 544.353 11.84C544.766 12.6667 544.973 13.6333 544.973 14.74C544.973 15.8467 544.766 16.8133 544.353 17.64C543.939 18.4667 543.353 19.1067 542.593 19.56C541.846 20.0133 540.979 20.24 539.993 20.24C539.006 20.24 538.133 20.0133 537.373 19.56C536.626 19.1067 536.046 18.4667 535.633 17.64C535.219 16.8133 535.013 15.8467 535.013 14.74C535.013 13.6333 535.219 12.6667 535.633 11.84C536.046 11.0133 536.626 10.3733 537.373 9.92C538.133 9.46667 539.006 9.24 539.993 9.24ZM539.993 18.86C540.979 18.86 541.766 18.4933 542.353 17.76C542.953 17.0133 543.253 16.0067 543.253 14.74C543.253 13.4733 542.953 12.4733 542.353 11.74C541.766 10.9933 540.979 10.62 539.993 10.62C539.006 10.62 538.213 10.9933 537.613 11.74C537.026 12.4733 536.733 13.4733 536.733 14.74C536.733 16.0067 537.026 17.0133 537.613 17.76C538.213 18.4933 539.006 18.86 539.993 18.86ZM552.2 9.24C553.186 9.24 554.053 9.46667 554.8 9.92C555.56 10.3733 556.146 11.0133 556.56 11.84C556.973 12.6667 557.18 13.6333 557.18 14.74C557.18 15.8467 556.973 16.8133 556.56 17.64C556.146 18.4667 555.56 19.1067 554.8 19.56C554.053 20.0133 553.186 20.24 552.2 20.24C551.213 20.24 550.34 20.0133 549.58 19.56C548.833 19.1067 548.253 18.4667 547.84 17.64C547.426 16.8133 547.22 15.8467 547.22 14.74C547.22 13.6333 547.426 12.6667 547.84 11.84C548.253 11.0133 548.833 10.3733 549.58 9.92C550.34 9.46667 551.213 9.24 552.2 9.24ZM552.2 18.86C553.186 18.86 553.973 18.4933 554.56 17.76C555.16 17.0133 555.46 16.0067 555.46 14.74C555.46 13.4733 555.16 12.4733 554.56 11.74C553.973 10.9933 553.186 10.62 552.2 10.62C551.213 10.62 550.42 10.9933 549.82 11.74C549.233 12.4733 548.94 13.4733 548.94 14.74C548.94 16.0067 549.233 17.0133 549.82 17.76C550.42 18.4933 551.213 18.86 552.2 18.86ZM566.527 12.54C566.393 11.9267 566.08 11.4467 565.587 11.1C565.093 10.74 564.52 10.56 563.867 10.56C563.173 10.56 562.62 10.7133 562.207 11.02C561.793 11.3267 561.587 11.74 561.587 12.26C561.587 12.7267 561.773 13.0667 562.147 13.28C562.52 13.4933 563.053 13.66 563.747 13.78L564.867 13.96C565.96 14.1467 566.807 14.4533 567.407 14.88C568.02 15.2933 568.327 15.9933 568.327 16.98C568.327 18.02 567.92 18.8267 567.107 19.4C566.307 19.96 565.273 20.24 564.007 20.24C562.74 20.24 561.693 19.94 560.867 19.34C560.053 18.74 559.573 17.9467 559.427 16.96L560.967 16.62C561.113 17.3667 561.46 17.94 562.007 18.34C562.553 18.7267 563.227 18.92 564.027 18.92C564.787 18.92 565.407 18.7533 565.887 18.42C566.367 18.0733 566.607 17.6133 566.607 17.04C566.607 16.5333 566.407 16.1667 566.007 15.94C565.62 15.7133 565.027 15.5267 564.227 15.38L563.127 15.18C562.127 15.0067 561.333 14.7133 560.747 14.3C560.16 13.8867 559.867 13.2133 559.867 12.28C559.867 11.6933 560.033 11.1667 560.367 10.7C560.713 10.2333 561.193 9.87333 561.807 9.62C562.42 9.36667 563.113 9.24 563.887 9.24C564.607 9.24 565.267 9.37333 565.867 9.64C566.48 9.90667 566.973 10.2667 567.347 10.72C567.733 11.1733 567.973 11.6667 568.067 12.2L566.527 12.54ZM580.119 17C579.826 17.92 579.299 18.6933 578.539 19.32C577.779 19.9333 576.733 20.24 575.399 20.24C574.453 20.24 573.613 20.0133 572.879 19.56C572.146 19.1067 571.573 18.4667 571.159 17.64C570.759 16.8 570.559 15.8333 570.559 14.74C570.559 13.6467 570.759 12.6867 571.159 11.86C571.559 11.02 572.119 10.3733 572.839 9.92C573.573 9.46667 574.419 9.24 575.379 9.24C576.353 9.24 577.213 9.48 577.959 9.96C578.719 10.4267 579.299 11.1067 579.699 12C580.099 12.88 580.266 13.9267 580.199 15.14H572.259C572.286 16.2467 572.586 17.1467 573.159 17.84C573.733 18.52 574.479 18.86 575.399 18.86C576.253 18.86 576.919 18.6533 577.399 18.24C577.893 17.8267 578.233 17.34 578.419 16.78L580.119 17ZM575.379 10.62C574.486 10.62 573.766 10.9267 573.219 11.54C572.686 12.1533 572.379 12.9133 572.299 13.82H578.479C578.399 12.9133 578.086 12.1533 577.539 11.54C576.993 10.9267 576.273 10.62 575.379 10.62ZM520.826 33.48H522.426V43.28C522.426 44.8667 521.993 46.0333 521.126 46.78C520.259 47.54 519.099 47.92 517.646 47.92C516.486 47.92 515.493 47.66 514.666 47.14C513.853 46.62 513.286 45.8333 512.966 44.78L514.566 44.4C514.779 45.1467 515.146 45.6867 515.666 46.02C516.186 46.3667 516.846 46.54 517.646 46.54C519.713 46.54 520.746 45.4267 520.746 43.2V41.78H520.686C520.419 42.2867 519.993 42.6867 519.406 42.98C518.819 43.2733 518.159 43.42 517.426 43.42C516.519 43.42 515.713 43.2133 515.006 42.8C514.313 42.3733 513.766 41.7733 513.366 41C512.979 40.2267 512.786 39.34 512.786 38.34C512.786 37.3267 512.979 36.4333 513.366 35.66C513.766 34.8867 514.313 34.2933 515.006 33.88C515.713 33.4533 516.519 33.24 517.426 33.24C518.173 33.24 518.846 33.3933 519.446 33.7C520.046 34.0067 520.486 34.4267 520.766 34.96H520.826V33.48ZM517.706 42.08C518.319 42.08 518.866 41.9267 519.346 41.62C519.826 41.3 520.199 40.86 520.466 40.3C520.733 39.7267 520.866 39.0733 520.866 38.34C520.866 37.2333 520.573 36.34 519.986 35.66C519.399 34.9667 518.639 34.62 517.706 34.62C516.746 34.62 515.973 34.96 515.386 35.64C514.799 36.32 514.506 37.22 514.506 38.34C514.506 39.46 514.799 40.3667 515.386 41.06C515.973 41.74 516.746 42.08 517.706 42.08ZM534.109 42.68C534.309 42.68 534.509 42.6467 534.709 42.58V44C534.536 44.0667 534.196 44.1 533.689 44.1C533.143 44.1 532.723 43.9867 532.429 43.76C532.149 43.5333 531.983 43.18 531.929 42.7H531.869C531.509 43.2333 531.003 43.6267 530.349 43.88C529.696 44.12 529.023 44.24 528.329 44.24C527.729 44.24 527.183 44.1133 526.689 43.86C526.196 43.6067 525.803 43.2467 525.509 42.78C525.216 42.3 525.069 41.7533 525.069 41.14C525.069 40.0467 525.429 39.26 526.149 38.78C526.883 38.2867 527.949 37.9533 529.349 37.78C530.043 37.6867 530.569 37.5933 530.929 37.5C531.289 37.3933 531.536 37.2667 531.669 37.12C531.816 36.9733 531.889 36.7733 531.889 36.52C531.889 35.9333 531.703 35.4733 531.329 35.14C530.956 34.8067 530.376 34.64 529.589 34.64C528.989 34.64 528.449 34.7933 527.969 35.1C527.503 35.4067 527.176 35.9067 526.989 36.6L525.449 36.22C525.689 35.26 526.183 34.5267 526.929 34.02C527.689 33.5 528.596 33.24 529.649 33.24C530.996 33.24 531.983 33.5333 532.609 34.12C533.249 34.7067 533.569 35.4933 533.569 36.48V42C533.569 42.2533 533.616 42.4333 533.709 42.54C533.803 42.6333 533.936 42.68 534.109 42.68ZM531.889 38.38C531.743 38.5533 531.456 38.6867 531.029 38.78C530.616 38.8733 530.003 38.9733 529.189 39.08C528.523 39.1733 527.956 39.3867 527.489 39.72C527.023 40.04 526.789 40.5067 526.789 41.12C526.789 41.6667 526.956 42.1 527.289 42.42C527.623 42.7267 528.076 42.88 528.649 42.88C529.156 42.88 529.656 42.78 530.149 42.58C530.643 42.38 531.056 42.0533 531.389 41.6C531.723 41.1333 531.889 40.5333 531.889 39.8V38.38ZM548.243 33.24C548.883 33.24 549.463 33.38 549.983 33.66C550.516 33.94 550.936 34.36 551.243 34.92C551.563 35.48 551.723 36.1667 551.723 36.98V44H550.043V37.56C550.043 36.5467 549.856 35.8133 549.483 35.36C549.109 34.8933 548.536 34.66 547.763 34.66C547.043 34.66 546.429 34.9467 545.923 35.52C545.416 36.0933 545.163 36.9467 545.163 38.08V44H543.483V37.56C543.483 36.5467 543.296 35.8133 542.923 35.36C542.563 34.8933 541.996 34.66 541.223 34.66C540.503 34.66 539.889 34.96 539.383 35.56C538.876 36.1467 538.623 37.0133 538.623 38.16V44H536.943V33.48H538.543V34.98H538.603C538.923 34.4333 539.356 34.0067 539.903 33.7C540.449 33.3933 541.043 33.24 541.683 33.24C542.363 33.24 542.969 33.3933 543.503 33.7C544.049 34.0067 544.469 34.46 544.763 35.06C545.616 33.8467 546.776 33.24 548.243 33.24ZM563.987 41C563.693 41.92 563.167 42.6933 562.407 43.32C561.647 43.9333 560.6 44.24 559.267 44.24C558.32 44.24 557.48 44.0133 556.747 43.56C556.013 43.1067 555.44 42.4667 555.027 41.64C554.627 40.8 554.427 39.8333 554.427 38.74C554.427 37.6467 554.627 36.6867 555.027 35.86C555.427 35.02 555.987 34.3733 556.707 33.92C557.44 33.4667 558.287 33.24 559.247 33.24C560.22 33.24 561.08 33.48 561.827 33.96C562.587 34.4267 563.167 35.1067 563.567 36C563.967 36.88 564.133 37.9267 564.067 39.14H556.127C556.153 40.2467 556.453 41.1467 557.027 41.84C557.6 42.52 558.347 42.86 559.267 42.86C560.12 42.86 560.787 42.6533 561.267 42.24C561.76 41.8267 562.1 41.34 562.287 40.78L563.987 41ZM559.247 34.62C558.353 34.62 557.633 34.9267 557.087 35.54C556.553 36.1533 556.247 36.9133 556.167 37.82H562.347C562.267 36.9133 561.953 36.1533 561.407 35.54C560.86 34.9267 560.14 34.62 559.247 34.62ZM573.421 36.54C573.288 35.9267 572.975 35.4467 572.481 35.1C571.988 34.74 571.415 34.56 570.761 34.56C570.068 34.56 569.515 34.7133 569.101 35.02C568.688 35.3267 568.481 35.74 568.481 36.26C568.481 36.7267 568.668 37.0667 569.041 37.28C569.415 37.4933 569.948 37.66 570.641 37.78L571.761 37.96C572.855 38.1467 573.701 38.4533 574.301 38.88C574.915 39.2933 575.221 39.9933 575.221 40.98C575.221 42.02 574.815 42.8267 574.001 43.4C573.201 43.96 572.168 44.24 570.901 44.24C569.635 44.24 568.588 43.94 567.761 43.34C566.948 42.74 566.468 41.9467 566.321 40.96L567.861 40.62C568.008 41.3667 568.355 41.94 568.901 42.34C569.448 42.7267 570.121 42.92 570.921 42.92C571.681 42.92 572.301 42.7533 572.781 42.42C573.261 42.0733 573.501 41.6133 573.501 41.04C573.501 40.5333 573.301 40.1667 572.901 39.94C572.515 39.7133 571.921 39.5267 571.121 39.38L570.021 39.18C569.021 39.0067 568.228 38.7133 567.641 38.3C567.055 37.8867 566.761 37.2133 566.761 36.28C566.761 35.6933 566.928 35.1667 567.261 34.7C567.608 34.2333 568.088 33.8733 568.701 33.62C569.315 33.3667 570.008 33.24 570.781 33.24C571.501 33.24 572.161 33.3733 572.761 33.64C573.375 33.9067 573.868 34.2667 574.241 34.72C574.628 35.1733 574.868 35.6667 574.961 36.2L573.421 36.54Z" fill="#B0F7B0"/>
<path d="M761.225 5.72C762.731 5.72 763.898 6.10667 764.725 6.88C765.551 7.64 765.965 8.69333 765.965 10.04C765.965 11.4 765.551 12.4667 764.725 13.24C763.898 14 762.731 14.38 761.225 14.38H757.005V20H755.205V5.72H761.225ZM760.965 12.84C761.978 12.84 762.758 12.6067 763.305 12.14C763.851 11.66 764.125 10.96 764.125 10.04C764.125 9.12 763.851 8.42667 763.305 7.96C762.758 7.48 761.978 7.24 760.965 7.24H757.005V12.84H760.965ZM777.442 17C777.148 17.92 776.622 18.6933 775.862 19.32C775.102 19.9333 774.055 20.24 772.722 20.24C771.775 20.24 770.935 20.0133 770.202 19.56C769.468 19.1067 768.895 18.4667 768.482 17.64C768.082 16.8 767.882 15.8333 767.882 14.74C767.882 13.6467 768.082 12.6867 768.482 11.86C768.882 11.02 769.442 10.3733 770.162 9.92C770.895 9.46667 771.742 9.24 772.702 9.24C773.675 9.24 774.535 9.48 775.282 9.96C776.042 10.4267 776.622 11.1067 777.022 12C777.422 12.88 777.588 13.9267 777.522 15.14H769.582C769.608 16.2467 769.908 17.1467 770.482 17.84C771.055 18.52 771.802 18.86 772.722 18.86C773.575 18.86 774.242 18.6533 774.722 18.24C775.215 17.8267 775.555 17.34 775.742 16.78L777.442 17ZM772.702 10.62C771.808 10.62 771.088 10.9267 770.542 11.54C770.008 12.1533 769.702 12.9133 769.622 13.82H775.802C775.722 12.9133 775.408 12.1533 774.862 11.54C774.315 10.9267 773.595 10.62 772.702 10.62ZM780.456 9.48H782.056V11.28H782.116C782.396 10.6533 782.823 10.16 783.396 9.8C783.97 9.42667 784.643 9.24 785.416 9.24C785.723 9.24 786.023 9.26667 786.316 9.32V10.94C785.876 10.9 785.55 10.88 785.336 10.88C784.363 10.88 783.583 11.18 782.996 11.78C782.423 12.38 782.136 13.3 782.136 14.54V20H780.456V9.48ZM795.099 12.54C794.966 11.9267 794.652 11.4467 794.159 11.1C793.666 10.74 793.092 10.56 792.439 10.56C791.746 10.56 791.192 10.7133 790.779 11.02C790.366 11.3267 790.159 11.74 790.159 12.26C790.159 12.7267 790.346 13.0667 790.719 13.28C791.092 13.4933 791.626 13.66 792.319 13.78L793.439 13.96C794.532 14.1467 795.379 14.4533 795.979 14.88C796.592 15.2933 796.899 15.9933 796.899 16.98C796.899 18.02 796.492 18.8267 795.679 19.4C794.879 19.96 793.846 20.24 792.579 20.24C791.312 20.24 790.266 19.94 789.439 19.34C788.626 18.74 788.146 17.9467 787.999 16.96L789.539 16.62C789.686 17.3667 790.032 17.94 790.579 18.34C791.126 18.7267 791.799 18.92 792.599 18.92C793.359 18.92 793.979 18.7533 794.459 18.42C794.939 18.0733 795.179 17.6133 795.179 17.04C795.179 16.5333 794.979 16.1667 794.579 15.94C794.192 15.7133 793.599 15.5267 792.799 15.38L791.699 15.18C790.699 15.0067 789.906 14.7133 789.319 14.3C788.732 13.8867 788.439 13.2133 788.439 12.28C788.439 11.6933 788.606 11.1667 788.939 10.7C789.286 10.2333 789.766 9.87333 790.379 9.62C790.992 9.36667 791.686 9.24 792.459 9.24C793.179 9.24 793.839 9.37333 794.439 9.64C795.052 9.90667 795.546 10.2667 795.919 10.72C796.306 11.1733 796.546 11.6667 796.639 12.2L795.099 12.54ZM804.112 9.24C805.098 9.24 805.965 9.46667 806.712 9.92C807.472 10.3733 808.058 11.0133 808.472 11.84C808.885 12.6667 809.092 13.6333 809.092 14.74C809.092 15.8467 808.885 16.8133 808.472 17.64C808.058 18.4667 807.472 19.1067 806.712 19.56C805.965 20.0133 805.098 20.24 804.112 20.24C803.125 20.24 802.252 20.0133 801.492 19.56C800.745 19.1067 800.165 18.4667 799.752 17.64C799.338 16.8133 799.132 15.8467 799.132 14.74C799.132 13.6333 799.338 12.6667 799.752 11.84C800.165 11.0133 800.745 10.3733 801.492 9.92C802.252 9.46667 803.125 9.24 804.112 9.24ZM804.112 18.86C805.098 18.86 805.885 18.4933 806.472 17.76C807.072 17.0133 807.372 16.0067 807.372 14.74C807.372 13.4733 807.072 12.4733 806.472 11.74C805.885 10.9933 805.098 10.62 804.112 10.62C803.125 10.62 802.332 10.9933 801.732 11.74C801.145 12.4733 800.852 13.4733 800.852 14.74C800.852 16.0067 801.145 17.0133 801.732 17.76C802.332 18.4933 803.125 18.86 804.112 18.86ZM813.619 9.48V10.98H813.679C813.999 10.4333 814.452 10.0067 815.039 9.7C815.625 9.39333 816.279 9.24 816.999 9.24C818.079 9.24 818.972 9.56 819.679 10.2C820.385 10.84 820.739 11.7667 820.739 12.98V20H819.059V13.56C819.059 12.5467 818.852 11.8133 818.439 11.36C818.039 10.8933 817.412 10.66 816.559 10.66C816.052 10.66 815.579 10.7867 815.139 11.04C814.712 11.2933 814.365 11.6867 814.099 12.22C813.832 12.74 813.699 13.3867 813.699 14.16V20H812.019V9.48H813.619ZM832.408 18.68C832.608 18.68 832.808 18.6467 833.008 18.58V20C832.835 20.0667 832.495 20.1 831.988 20.1C831.441 20.1 831.021 19.9867 830.728 19.76C830.448 19.5333 830.281 19.18 830.228 18.7H830.168C829.808 19.2333 829.301 19.6267 828.648 19.88C827.995 20.12 827.321 20.24 826.628 20.24C826.028 20.24 825.481 20.1133 824.988 19.86C824.495 19.6067 824.101 19.2467 823.808 18.78C823.515 18.3 823.368 17.7533 823.368 17.14C823.368 16.0467 823.728 15.26 824.448 14.78C825.181 14.2867 826.248 13.9533 827.648 13.78C828.341 13.6867 828.868 13.5933 829.228 13.5C829.588 13.3933 829.835 13.2667 829.968 13.12C830.115 12.9733 830.188 12.7733 830.188 12.52C830.188 11.9333 830.001 11.4733 829.628 11.14C829.255 10.8067 828.675 10.64 827.888 10.64C827.288 10.64 826.748 10.7933 826.268 11.1C825.801 11.4067 825.475 11.9067 825.288 12.6L823.748 12.22C823.988 11.26 824.481 10.5267 825.228 10.02C825.988 9.5 826.895 9.24 827.948 9.24C829.295 9.24 830.281 9.53333 830.908 10.12C831.548 10.7067 831.868 11.4933 831.868 12.48V18C831.868 18.2533 831.915 18.4333 832.008 18.54C832.101 18.6333 832.235 18.68 832.408 18.68ZM830.188 14.38C830.041 14.5533 829.755 14.6867 829.328 14.78C828.915 14.8733 828.301 14.9733 827.488 15.08C826.821 15.1733 826.255 15.3867 825.788 15.72C825.321 16.04 825.088 16.5067 825.088 17.12C825.088 17.6667 825.255 18.1 825.588 18.42C825.921 18.7267 826.375 18.88 826.948 18.88C827.455 18.88 827.955 18.78 828.448 18.58C828.941 18.38 829.355 18.0533 829.688 17.6C830.021 17.1333 830.188 16.5333 830.188 15.8V14.38ZM836.921 20H835.241V5.52H836.921V20ZM781.256 44H779.576V33.48H781.256V44ZM781.276 31.44H779.556V29.52H781.276V31.44ZM786.392 33.48V34.98H786.452C786.772 34.4333 787.226 34.0067 787.812 33.7C788.399 33.3933 789.052 33.24 789.772 33.24C790.852 33.24 791.746 33.56 792.452 34.2C793.159 34.84 793.512 35.7667 793.512 36.98V44H791.832V37.56C791.832 36.5467 791.626 35.8133 791.212 35.36C790.812 34.8933 790.186 34.66 789.332 34.66C788.826 34.66 788.352 34.7867 787.912 35.04C787.486 35.2933 787.139 35.6867 786.872 36.22C786.606 36.74 786.472 37.3867 786.472 38.16V44H784.792V33.48H786.392ZM800.503 30.7C800.063 30.7 799.717 30.7867 799.463 30.96C799.21 31.1333 799.083 31.4933 799.083 32.04V33.48H801.503V34.78H799.083V44H797.403V34.78H795.643V33.48H797.403V31.88C797.403 30.1467 798.35 29.28 800.243 29.28C800.897 29.28 801.41 29.3467 801.783 29.48V30.86C801.317 30.7533 800.89 30.7 800.503 30.7ZM808.057 33.24C809.044 33.24 809.91 33.4667 810.657 33.92C811.417 34.3733 812.004 35.0133 812.417 35.84C812.83 36.6667 813.037 37.6333 813.037 38.74C813.037 39.8467 812.83 40.8133 812.417 41.64C812.004 42.4667 811.417 43.1067 810.657 43.56C809.91 44.0133 809.044 44.24 808.057 44.24C807.07 44.24 806.197 44.0133 805.437 43.56C804.69 43.1067 804.11 42.4667 803.697 41.64C803.284 40.8133 803.077 39.8467 803.077 38.74C803.077 37.6333 803.284 36.6667 803.697 35.84C804.11 35.0133 804.69 34.3733 805.437 33.92C806.197 33.4667 807.07 33.24 808.057 33.24ZM808.057 42.86C809.044 42.86 809.83 42.4933 810.417 41.76C811.017 41.0133 811.317 40.0067 811.317 38.74C811.317 37.4733 811.017 36.4733 810.417 35.74C809.83 34.9933 809.044 34.62 808.057 34.62C807.07 34.62 806.277 34.9933 805.677 35.74C805.09 36.4733 804.797 37.4733 804.797 38.74C804.797 40.0067 805.09 41.0133 805.677 41.76C806.277 42.4933 807.07 42.86 808.057 42.86Z" fill="#B0F7B0"/>
<path fill-rule="evenodd" clip-rule="evenodd" d="M795.5 147C816.763 147 834 129.763 834 108.5C834 87.237 816.763 70 795.5 70C774.237 70 757 87.237 757 108.5C757 129.763 774.237 147 795.5 147ZM795.908 118.299V127H805.195V118.299H810V110.799H805.195V84.9883H795.586L781.201 110.506V118.299H795.908ZM795.908 110.799H788.877L795.908 97.9668V110.799Z" fill="#B0F7B0"/>
</svg>
