<svg width="841" height="151" viewBox="0 0 841 151" fill="none" xmlns="http://www.w3.org/2000/svg">
<line x1="115" y1="103" x2="243" y2="103" stroke="#B0F7B0" stroke-width="4" stroke-linecap="round"/>
<line x1="359" y1="104" x2="489" y2="104" stroke="#9B9BA2" stroke-width="2" stroke-linecap="round"/>
<line x1="604" y1="104" x2="734" y2="104" stroke="#9B9BA2" stroke-width="2" stroke-linecap="round"/>
<path d="M48.5 65.75C27.11 65.75 9.75 83.11 9.75 104.5C9.75 125.89 27.11 143.25 48.5 143.25C69.89 143.25 87.25 125.89 87.25 104.5C87.25 83.11 69.89 65.75 48.5 65.75ZM40.75 123.875L21.375 104.5L26.8387 99.0363L40.75 112.909L70.1613 83.4975L75.625 89L40.75 123.875Z" fill="#B0F7B0"/>
<path fill-rule="evenodd" clip-rule="evenodd" d="M301.5 143C322.763 143 340 125.763 340 104.5C340 83.237 322.763 66 301.5 66C280.237 66 263 83.237 263 104.5C263 125.763 280.237 143 301.5 143ZM289.109 116.086V123H314.891V114.299H301.414L309.5 104.396C311.375 102.092 312.742 99.9727 313.602 98.0391C314.461 96.0859 314.891 94.084 314.891 92.0332C314.891 88.6348 313.65 85.8516 311.17 83.6836C308.709 81.4961 305.672 80.4023 302.059 80.4023C298.348 80.4023 295.262 81.6133 292.801 84.0352C290.34 86.457 289.109 89.6699 289.109 93.6738V95.4023H298.689V93.293C298.689 92.0625 298.982 91.1055 299.568 90.4219C300.154 89.7383 300.906 89.3965 301.824 89.3965C302.742 89.3965 303.494 89.7383 304.08 90.4219C304.686 91.1055 304.988 92.0625 304.988 93.293C304.988 94.9922 304.393 96.5938 303.201 98.0977L289.109 116.086Z" fill="#B0F7B0"/>
<path d="M14.2247 5.72C15.7314 5.72 16.898 6.10667 17.7247 6.88C18.5514 7.64 18.9647 8.69333 18.9647 10.04C18.9647 11.4 18.5514 12.4667 17.7247 13.24C16.898 14 15.7314 14.38 14.2247 14.38H10.0047V20H8.20469V5.72H14.2247ZM13.9647 12.84C14.978 12.84 15.758 12.6067 16.3047 12.14C16.8514 11.66 17.1247 10.96 17.1247 10.04C17.1247 9.12 16.8514 8.42667 16.3047 7.96C15.758 7.48 14.978 7.24 13.9647 7.24H10.0047V12.84H13.9647ZM30.4417 17C30.1484 17.92 29.6217 18.6933 28.8617 19.32C28.1017 19.9333 27.0551 20.24 25.7217 20.24C24.7751 20.24 23.9351 20.0133 23.2017 19.56C22.4684 19.1067 21.8951 18.4667 21.4817 17.64C21.0817 16.8 20.8817 15.8333 20.8817 14.74C20.8817 13.6467 21.0817 12.6867 21.4817 11.86C21.8817 11.02 22.4417 10.3733 23.1617 9.92C23.8951 9.46667 24.7417 9.24 25.7017 9.24C26.6751 9.24 27.5351 9.48 28.2817 9.96C29.0417 10.4267 29.6217 11.1067 30.0217 12C30.4217 12.88 30.5884 13.9267 30.5217 15.14H22.5817C22.6084 16.2467 22.9084 17.1467 23.4817 17.84C24.0551 18.52 24.8017 18.86 25.7217 18.86C26.5751 18.86 27.2417 18.6533 27.7217 18.24C28.2151 17.8267 28.5551 17.34 28.7417 16.78L30.4417 17ZM25.7017 10.62C24.8084 10.62 24.0884 10.9267 23.5417 11.54C23.0084 12.1533 22.7017 12.9133 22.6217 13.82H28.8017C28.7217 12.9133 28.4084 12.1533 27.8617 11.54C27.3151 10.9267 26.5951 10.62 25.7017 10.62ZM33.4563 9.48H35.0563V11.28H35.1163C35.3963 10.6533 35.8229 10.16 36.3963 9.8C36.9696 9.42667 37.6429 9.24 38.4163 9.24C38.7229 9.24 39.0229 9.26667 39.3163 9.32V10.94C38.8763 10.9 38.5496 10.88 38.3363 10.88C37.3629 10.88 36.5829 11.18 35.9963 11.78C35.4229 12.38 35.1363 13.3 35.1363 14.54V20H33.4563V9.48ZM48.0989 12.54C47.9656 11.9267 47.6522 11.4467 47.1589 11.1C46.6656 10.74 46.0922 10.56 45.4389 10.56C44.7456 10.56 44.1922 10.7133 43.7789 11.02C43.3656 11.3267 43.1589 11.74 43.1589 12.26C43.1589 12.7267 43.3456 13.0667 43.7189 13.28C44.0922 13.4933 44.6256 13.66 45.3189 13.78L46.4389 13.96C47.5322 14.1467 48.3789 14.4533 48.9789 14.88C49.5922 15.2933 49.8989 15.9933 49.8989 16.98C49.8989 18.02 49.4922 18.8267 48.6789 19.4C47.8789 19.96 46.8456 20.24 45.5789 20.24C44.3122 20.24 43.2656 19.94 42.4389 19.34C41.6256 18.74 41.1456 17.9467 40.9989 16.96L42.5389 16.62C42.6856 17.3667 43.0322 17.94 43.5789 18.34C44.1256 18.7267 44.7989 18.92 45.5989 18.92C46.3589 18.92 46.9789 18.7533 47.4589 18.42C47.9389 18.0733 48.1789 17.6133 48.1789 17.04C48.1789 16.5333 47.9789 16.1667 47.5789 15.94C47.1922 15.7133 46.5989 15.5267 45.7989 15.38L44.6989 15.18C43.6989 15.0067 42.9056 14.7133 42.3189 14.3C41.7322 13.8867 41.4389 13.2133 41.4389 12.28C41.4389 11.6933 41.6056 11.1667 41.9389 10.7C42.2856 10.2333 42.7656 9.87333 43.3789 9.62C43.9922 9.36667 44.6856 9.24 45.4589 9.24C46.1789 9.24 46.8389 9.37333 47.4389 9.64C48.0522 9.90667 48.5456 10.2667 48.9189 10.72C49.3056 11.1733 49.5456 11.6667 49.6389 12.2L48.0989 12.54ZM57.1117 9.24C58.0984 9.24 58.9651 9.46667 59.7117 9.92C60.4717 10.3733 61.0584 11.0133 61.4717 11.84C61.8851 12.6667 62.0917 13.6333 62.0917 14.74C62.0917 15.8467 61.8851 16.8133 61.4717 17.64C61.0584 18.4667 60.4717 19.1067 59.7117 19.56C58.9651 20.0133 58.0984 20.24 57.1117 20.24C56.1251 20.24 55.2517 20.0133 54.4917 19.56C53.7451 19.1067 53.1651 18.4667 52.7517 17.64C52.3384 16.8133 52.1317 15.8467 52.1317 14.74C52.1317 13.6333 52.3384 12.6667 52.7517 11.84C53.1651 11.0133 53.7451 10.3733 54.4917 9.92C55.2517 9.46667 56.1251 9.24 57.1117 9.24ZM57.1117 18.86C58.0984 18.86 58.8851 18.4933 59.4717 17.76C60.0717 17.0133 60.3717 16.0067 60.3717 14.74C60.3717 13.4733 60.0717 12.4733 59.4717 11.74C58.8851 10.9933 58.0984 10.62 57.1117 10.62C56.1251 10.62 55.3317 10.9933 54.7317 11.74C54.1451 12.4733 53.8517 13.4733 53.8517 14.74C53.8517 16.0067 54.1451 17.0133 54.7317 17.76C55.3317 18.4933 56.1251 18.86 57.1117 18.86ZM66.6188 9.48V10.98H66.6788C66.9988 10.4333 67.4521 10.0067 68.0388 9.7C68.6254 9.39333 69.2788 9.24 69.9988 9.24C71.0788 9.24 71.9721 9.56 72.6788 10.2C73.3854 10.84 73.7388 11.7667 73.7388 12.98V20H72.0588V13.56C72.0588 12.5467 71.8521 11.8133 71.4388 11.36C71.0388 10.8933 70.4121 10.66 69.5588 10.66C69.0521 10.66 68.5788 10.7867 68.1388 11.04C67.7121 11.2933 67.3654 11.6867 67.0988 12.22C66.8321 12.74 66.6988 13.3867 66.6988 14.16V20H65.0188V9.48H66.6188ZM85.4081 18.68C85.6081 18.68 85.8081 18.6467 86.0081 18.58V20C85.8348 20.0667 85.4948 20.1 84.9881 20.1C84.4415 20.1 84.0215 19.9867 83.7281 19.76C83.4481 19.5333 83.2815 19.18 83.2281 18.7H83.1681C82.8081 19.2333 82.3015 19.6267 81.6481 19.88C80.9948 20.12 80.3215 20.24 79.6281 20.24C79.0281 20.24 78.4815 20.1133 77.9881 19.86C77.4948 19.6067 77.1015 19.2467 76.8081 18.78C76.5148 18.3 76.3681 17.7533 76.3681 17.14C76.3681 16.0467 76.7281 15.26 77.4481 14.78C78.1815 14.2867 79.2481 13.9533 80.6481 13.78C81.3415 13.6867 81.8681 13.5933 82.2281 13.5C82.5881 13.3933 82.8348 13.2667 82.9681 13.12C83.1148 12.9733 83.1881 12.7733 83.1881 12.52C83.1881 11.9333 83.0015 11.4733 82.6281 11.14C82.2548 10.8067 81.6748 10.64 80.8881 10.64C80.2881 10.64 79.7481 10.7933 79.2681 11.1C78.8015 11.4067 78.4748 11.9067 78.2881 12.6L76.7481 12.22C76.9881 11.26 77.4815 10.5267 78.2281 10.02C78.9881 9.5 79.8948 9.24 80.9481 9.24C82.2948 9.24 83.2815 9.53333 83.9081 10.12C84.5481 10.7067 84.8681 11.4933 84.8681 12.48V18C84.8681 18.2533 84.9148 18.4333 85.0081 18.54C85.1015 18.6333 85.2348 18.68 85.4081 18.68ZM83.1881 14.38C83.0415 14.5533 82.7548 14.6867 82.3281 14.78C81.9148 14.8733 81.3015 14.9733 80.4881 15.08C79.8215 15.1733 79.2548 15.3867 78.7881 15.72C78.3215 16.04 78.0881 16.5067 78.0881 17.12C78.0881 17.6667 78.2548 18.1 78.5881 18.42C78.9215 18.7267 79.3748 18.88 79.9481 18.88C80.4548 18.88 80.9548 18.78 81.4481 18.58C81.9415 18.38 82.3548 18.0533 82.6881 17.6C83.0215 17.1333 83.1881 16.5333 83.1881 15.8V14.38ZM89.9214 20H88.2414V5.52H89.9214V20ZM6.95961 44.24C6.03961 44.24 5.21961 44.0133 4.49961 43.56C3.77961 43.1067 3.21961 42.4667 2.81961 41.64C2.41961 40.8 2.21961 39.8333 2.21961 38.74C2.21961 37.6467 2.41961 36.6867 2.81961 35.86C3.21961 35.02 3.77961 34.3733 4.49961 33.92C5.21961 33.4667 6.03961 33.24 6.95961 33.24C7.73294 33.24 8.42628 33.4067 9.03961 33.74C9.65294 34.06 10.1063 34.5067 10.3996 35.08H10.4596V33.48H12.0596V47.68H10.3796V42.48H10.3196C10.0396 43.0267 9.59961 43.46 8.99961 43.78C8.39961 44.0867 7.71961 44.24 6.95961 44.24ZM7.23961 34.62C6.23961 34.62 5.43961 34.9933 4.83961 35.74C4.23961 36.4733 3.93961 37.4733 3.93961 38.74C3.93961 40.0067 4.23961 41.0133 4.83961 41.76C5.43961 42.4933 6.23961 42.86 7.23961 42.86C8.21294 42.86 8.99961 42.4933 9.59961 41.76C10.1996 41.0133 10.4996 40.0067 10.4996 38.74C10.4996 37.4733 10.1996 36.4733 9.59961 35.74C8.99961 34.9933 8.21294 34.62 7.23961 34.62ZM22.5782 44V42.5H22.5182C22.1849 43.0467 21.7249 43.4733 21.1382 43.78C20.5515 44.0867 19.8982 44.24 19.1782 44.24C18.0982 44.24 17.2049 43.92 16.4982 43.28C15.8049 42.64 15.4582 41.7133 15.4582 40.5V33.48H17.1382V39.92C17.1382 40.9333 17.3382 41.6733 17.7382 42.14C18.1382 42.5933 18.7649 42.82 19.6182 42.82C20.4182 42.82 21.0982 42.5267 21.6582 41.94C22.2182 41.34 22.4982 40.4667 22.4982 39.32V33.48H24.1782V44H22.5782ZM36.4476 41C36.1542 41.92 35.6276 42.6933 34.8676 43.32C34.1076 43.9333 33.0609 44.24 31.7276 44.24C30.7809 44.24 29.9409 44.0133 29.2076 43.56C28.4742 43.1067 27.9009 42.4667 27.4876 41.64C27.0876 40.8 26.8876 39.8333 26.8876 38.74C26.8876 37.6467 27.0876 36.6867 27.4876 35.86C27.8876 35.02 28.4476 34.3733 29.1676 33.92C29.9009 33.4667 30.7476 33.24 31.7076 33.24C32.6809 33.24 33.5409 33.48 34.2876 33.96C35.0476 34.4267 35.6276 35.1067 36.0276 36C36.4276 36.88 36.5942 37.9267 36.5276 39.14H28.5876C28.6142 40.2467 28.9142 41.1467 29.4876 41.84C30.0609 42.52 30.8076 42.86 31.7276 42.86C32.5809 42.86 33.2476 42.6533 33.7276 42.24C34.2209 41.8267 34.5609 41.34 34.7476 40.78L36.4476 41ZM31.7076 34.62C30.8142 34.62 30.0942 34.9267 29.5476 35.54C29.0142 36.1533 28.7076 36.9133 28.6276 37.82H34.8076C34.7276 36.9133 34.4142 36.1533 33.8676 35.54C33.3209 34.9267 32.6009 34.62 31.7076 34.62ZM45.8821 36.54C45.7488 35.9267 45.4354 35.4467 44.9421 35.1C44.4488 34.74 43.8754 34.56 43.2221 34.56C42.5288 34.56 41.9754 34.7133 41.5621 35.02C41.1488 35.3267 40.9421 35.74 40.9421 36.26C40.9421 36.7267 41.1288 37.0667 41.5021 37.28C41.8754 37.4933 42.4088 37.66 43.1021 37.78L44.2221 37.96C45.3154 38.1467 46.1621 38.4533 46.7621 38.88C47.3754 39.2933 47.6821 39.9933 47.6821 40.98C47.6821 42.02 47.2754 42.8267 46.4621 43.4C45.6621 43.96 44.6288 44.24 43.3621 44.24C42.0954 44.24 41.0488 43.94 40.2221 43.34C39.4088 42.74 38.9288 41.9467 38.7821 40.96L40.3221 40.62C40.4688 41.3667 40.8154 41.94 41.3621 42.34C41.9088 42.7267 42.5821 42.92 43.3821 42.92C44.1421 42.92 44.7621 42.7533 45.2421 42.42C45.7221 42.0733 45.9621 41.6133 45.9621 41.04C45.9621 40.5333 45.7621 40.1667 45.3621 39.94C44.9754 39.7133 44.3821 39.5267 43.5821 39.38L42.4821 39.18C41.4821 39.0067 40.6888 38.7133 40.1021 38.3C39.5154 37.8867 39.2221 37.2133 39.2221 36.28C39.2221 35.6933 39.3888 35.1667 39.7221 34.7C40.0688 34.2333 40.5488 33.8733 41.1621 33.62C41.7754 33.3667 42.4688 33.24 43.2421 33.24C43.9621 33.24 44.6221 33.3733 45.2221 33.64C45.8354 33.9067 46.3288 34.2667 46.7021 34.72C47.0888 35.1733 47.3288 35.6667 47.4221 36.2L45.8821 36.54ZM53.9559 42.8C54.1692 42.8 54.3892 42.78 54.6159 42.74C54.8425 42.6867 55.0159 42.6333 55.1359 42.58V44C55.0159 44.0667 54.8092 44.12 54.5159 44.16C54.2359 44.2133 53.9559 44.24 53.6759 44.24C52.7825 44.24 52.1359 44.06 51.7359 43.7C51.3359 43.3267 51.1359 42.7 51.1359 41.82V34.78H49.3759V33.48H51.1359V30.46H52.8159V33.48H55.2359V34.78H52.8159V41.64C52.8159 42.0667 52.8959 42.3667 53.0559 42.54C53.2292 42.7133 53.5292 42.8 53.9559 42.8ZM59.7149 44H58.0349V33.48H59.7149V44ZM59.7349 31.44H58.0149V29.52H59.7349V31.44ZM67.5512 33.24C68.5378 33.24 69.4045 33.4667 70.1512 33.92C70.9112 34.3733 71.4978 35.0133 71.9112 35.84C72.3245 36.6667 72.5312 37.6333 72.5312 38.74C72.5312 39.8467 72.3245 40.8133 71.9112 41.64C71.4978 42.4667 70.9112 43.1067 70.1512 43.56C69.4045 44.0133 68.5378 44.24 67.5512 44.24C66.5645 44.24 65.6912 44.0133 64.9312 43.56C64.1845 43.1067 63.6045 42.4667 63.1912 41.64C62.7778 40.8133 62.5712 39.8467 62.5712 38.74C62.5712 37.6333 62.7778 36.6667 63.1912 35.84C63.6045 35.0133 64.1845 34.3733 64.9312 33.92C65.6912 33.4667 66.5645 33.24 67.5512 33.24ZM67.5512 42.86C68.5378 42.86 69.3245 42.4933 69.9112 41.76C70.5112 41.0133 70.8112 40.0067 70.8112 38.74C70.8112 37.4733 70.5112 36.4733 69.9112 35.74C69.3245 34.9933 68.5378 34.62 67.5512 34.62C66.5645 34.62 65.7712 34.9933 65.1712 35.74C64.5845 36.4733 64.2912 37.4733 64.2912 38.74C64.2912 40.0067 64.5845 41.0133 65.1712 41.76C65.7712 42.4933 66.5645 42.86 67.5512 42.86ZM77.0582 33.48V34.98H77.1182C77.4382 34.4333 77.8915 34.0067 78.4782 33.7C79.0649 33.3933 79.7182 33.24 80.4382 33.24C81.5182 33.24 82.4115 33.56 83.1182 34.2C83.8249 34.84 84.1782 35.7667 84.1782 36.98V44H82.4982V37.56C82.4982 36.5467 82.2915 35.8133 81.8782 35.36C81.4782 34.8933 80.8515 34.66 79.9982 34.66C79.4915 34.66 79.0182 34.7867 78.5782 35.04C78.1515 35.2933 77.8049 35.6867 77.5382 36.22C77.2715 36.74 77.1382 37.3867 77.1382 38.16V44H75.4582V33.48H77.0582ZM93.9876 36.54C93.8542 35.9267 93.5409 35.4467 93.0476 35.1C92.5542 34.74 91.9809 34.56 91.3276 34.56C90.6342 34.56 90.0809 34.7133 89.6676 35.02C89.2542 35.3267 89.0476 35.74 89.0476 36.26C89.0476 36.7267 89.2342 37.0667 89.6076 37.28C89.9809 37.4933 90.5142 37.66 91.2076 37.78L92.3276 37.96C93.4209 38.1467 94.2676 38.4533 94.8676 38.88C95.4809 39.2933 95.7876 39.9933 95.7876 40.98C95.7876 42.02 95.3809 42.8267 94.5676 43.4C93.7676 43.96 92.7342 44.24 91.4676 44.24C90.2009 44.24 89.1542 43.94 88.3276 43.34C87.5142 42.74 87.0342 41.9467 86.8876 40.96L88.4276 40.62C88.5742 41.3667 88.9209 41.94 89.4676 42.34C90.0142 42.7267 90.6876 42.92 91.4876 42.92C92.2476 42.92 92.8676 42.7533 93.3476 42.42C93.8276 42.0733 94.0676 41.6133 94.0676 41.04C94.0676 40.5333 93.8676 40.1667 93.4676 39.94C93.0809 39.7133 92.4876 39.5267 91.6876 39.38L90.5876 39.18C89.5876 39.0067 88.7942 38.7133 88.2076 38.3C87.6209 37.8867 87.3276 37.2133 87.3276 36.28C87.3276 35.6933 87.4942 35.1667 87.8276 34.7C88.1742 34.2333 88.6542 33.8733 89.2676 33.62C89.8809 33.3667 90.5742 33.24 91.3476 33.24C92.0676 33.24 92.7276 33.3733 93.3276 33.64C93.9409 33.9067 94.4342 34.2667 94.8076 34.72C95.1942 35.1733 95.4342 35.6667 95.5276 36.2L93.9876 36.54Z" fill="#B0F7B0"/>
<path d="M260.811 5.72H272.271V7.28H267.431V20H265.631V7.28H260.811V5.72ZM281.23 9.48H283.05L278.97 20C278.53 21.12 278.117 21.96 277.73 22.52C277.343 23.0933 276.957 23.4667 276.57 23.64C276.197 23.8267 275.743 23.92 275.21 23.92C274.797 23.92 274.41 23.8867 274.05 23.82V22.34C274.33 22.42 274.637 22.46 274.97 22.46C275.317 22.46 275.603 22.4 275.83 22.28C276.057 22.1733 276.27 21.9733 276.47 21.68C276.67 21.3867 276.883 20.9533 277.11 20.38L277.31 19.88L273.07 9.48H274.91L278.11 17.9H278.17L281.23 9.48ZM290.599 20.24C289.839 20.24 289.159 20.0867 288.559 19.78C287.959 19.46 287.519 19.0267 287.239 18.48H287.179V23.68H285.499V9.48H287.099V11.08H287.159C287.453 10.5067 287.906 10.06 288.519 9.74C289.133 9.40667 289.826 9.24 290.599 9.24C291.519 9.24 292.339 9.46667 293.059 9.92C293.779 10.3733 294.339 11.02 294.739 11.86C295.139 12.6867 295.339 13.6467 295.339 14.74C295.339 15.8333 295.139 16.8 294.739 17.64C294.339 18.4667 293.779 19.1067 293.059 19.56C292.339 20.0133 291.519 20.24 290.599 20.24ZM290.319 10.62C289.346 10.62 288.559 10.9933 287.959 11.74C287.359 12.4733 287.059 13.4733 287.059 14.74C287.059 16.0067 287.359 17.0133 287.959 17.76C288.559 18.4933 289.346 18.86 290.319 18.86C291.319 18.86 292.119 18.4933 292.719 17.76C293.319 17.0133 293.619 16.0067 293.619 14.74C293.619 13.4733 293.319 12.4733 292.719 11.74C292.119 10.9933 291.319 10.62 290.319 10.62ZM307.133 17C306.84 17.92 306.313 18.6933 305.553 19.32C304.793 19.9333 303.746 20.24 302.413 20.24C301.466 20.24 300.626 20.0133 299.893 19.56C299.16 19.1067 298.586 18.4667 298.173 17.64C297.773 16.8 297.573 15.8333 297.573 14.74C297.573 13.6467 297.773 12.6867 298.173 11.86C298.573 11.02 299.133 10.3733 299.853 9.92C300.586 9.46667 301.433 9.24 302.393 9.24C303.366 9.24 304.226 9.48 304.973 9.96C305.733 10.4267 306.313 11.1067 306.713 12C307.113 12.88 307.28 13.9267 307.213 15.14H299.273C299.3 16.2467 299.6 17.1467 300.173 17.84C300.746 18.52 301.493 18.86 302.413 18.86C303.266 18.86 303.933 18.6533 304.413 18.24C304.906 17.8267 305.246 17.34 305.433 16.78L307.133 17ZM302.393 10.62C301.5 10.62 300.78 10.9267 300.233 11.54C299.7 12.1533 299.393 12.9133 299.313 13.82H305.493C305.413 12.9133 305.1 12.1533 304.553 11.54C304.006 10.9267 303.286 10.62 302.393 10.62ZM316.568 12.54C316.434 11.9267 316.121 11.4467 315.628 11.1C315.134 10.74 314.561 10.56 313.908 10.56C313.214 10.56 312.661 10.7133 312.248 11.02C311.834 11.3267 311.628 11.74 311.628 12.26C311.628 12.7267 311.814 13.0667 312.188 13.28C312.561 13.4933 313.094 13.66 313.788 13.78L314.908 13.96C316.001 14.1467 316.848 14.4533 317.448 14.88C318.061 15.2933 318.368 15.9933 318.368 16.98C318.368 18.02 317.961 18.8267 317.148 19.4C316.348 19.96 315.314 20.24 314.048 20.24C312.781 20.24 311.734 19.94 310.908 19.34C310.094 18.74 309.614 17.9467 309.468 16.96L311.008 16.62C311.154 17.3667 311.501 17.94 312.048 18.34C312.594 18.7267 313.268 18.92 314.068 18.92C314.828 18.92 315.448 18.7533 315.928 18.42C316.408 18.0733 316.648 17.6133 316.648 17.04C316.648 16.5333 316.448 16.1667 316.048 15.94C315.661 15.7133 315.068 15.5267 314.268 15.38L313.168 15.18C312.168 15.0067 311.374 14.7133 310.788 14.3C310.201 13.8867 309.908 13.2133 309.908 12.28C309.908 11.6933 310.074 11.1667 310.408 10.7C310.754 10.2333 311.234 9.87333 311.848 9.62C312.461 9.36667 313.154 9.24 313.928 9.24C314.648 9.24 315.308 9.37333 315.908 9.64C316.521 9.90667 317.014 10.2667 317.388 10.72C317.774 11.1733 318.014 11.6667 318.108 12.2L316.568 12.54ZM330.678 9.24C331.665 9.24 332.531 9.46667 333.278 9.92C334.038 10.3733 334.625 11.0133 335.038 11.84C335.451 12.6667 335.658 13.6333 335.658 14.74C335.658 15.8467 335.451 16.8133 335.038 17.64C334.625 18.4667 334.038 19.1067 333.278 19.56C332.531 20.0133 331.665 20.24 330.678 20.24C329.691 20.24 328.818 20.0133 328.058 19.56C327.311 19.1067 326.731 18.4667 326.318 17.64C325.905 16.8133 325.698 15.8467 325.698 14.74C325.698 13.6333 325.905 12.6667 326.318 11.84C326.731 11.0133 327.311 10.3733 328.058 9.92C328.818 9.46667 329.691 9.24 330.678 9.24ZM330.678 18.86C331.665 18.86 332.451 18.4933 333.038 17.76C333.638 17.0133 333.938 16.0067 333.938 14.74C333.938 13.4733 333.638 12.4733 333.038 11.74C332.451 10.9933 331.665 10.62 330.678 10.62C329.691 10.62 328.898 10.9933 328.298 11.74C327.711 12.4733 327.418 13.4733 327.418 14.74C327.418 16.0067 327.711 17.0133 328.298 17.76C328.898 18.4933 329.691 18.86 330.678 18.86ZM342.011 6.7C341.571 6.7 341.225 6.78667 340.971 6.96C340.718 7.13333 340.591 7.49333 340.591 8.04V9.48H343.011V10.78H340.591V20H338.911V10.78H337.151V9.48H338.911V7.88C338.911 6.14667 339.858 5.28 341.751 5.28C342.405 5.28 342.918 5.34667 343.291 5.48V6.86C342.825 6.75333 342.398 6.7 342.011 6.7ZM278.826 33.48H280.426V43.28C280.426 44.8667 279.993 46.0333 279.126 46.78C278.259 47.54 277.099 47.92 275.646 47.92C274.486 47.92 273.493 47.66 272.666 47.14C271.853 46.62 271.286 45.8333 270.966 44.78L272.566 44.4C272.779 45.1467 273.146 45.6867 273.666 46.02C274.186 46.3667 274.846 46.54 275.646 46.54C277.713 46.54 278.746 45.4267 278.746 43.2V41.78H278.686C278.419 42.2867 277.993 42.6867 277.406 42.98C276.819 43.2733 276.159 43.42 275.426 43.42C274.519 43.42 273.713 43.2133 273.006 42.8C272.313 42.3733 271.766 41.7733 271.366 41C270.979 40.2267 270.786 39.34 270.786 38.34C270.786 37.3267 270.979 36.4333 271.366 35.66C271.766 34.8867 272.313 34.2933 273.006 33.88C273.713 33.4533 274.519 33.24 275.426 33.24C276.173 33.24 276.846 33.3933 277.446 33.7C278.046 34.0067 278.486 34.4267 278.766 34.96H278.826V33.48ZM275.706 42.08C276.319 42.08 276.866 41.9267 277.346 41.62C277.826 41.3 278.199 40.86 278.466 40.3C278.733 39.7267 278.866 39.0733 278.866 38.34C278.866 37.2333 278.573 36.34 277.986 35.66C277.399 34.9667 276.639 34.62 275.706 34.62C274.746 34.62 273.973 34.96 273.386 35.64C272.799 36.32 272.506 37.22 272.506 38.34C272.506 39.46 272.799 40.3667 273.386 41.06C273.973 41.74 274.746 42.08 275.706 42.08ZM292.109 42.68C292.309 42.68 292.509 42.6467 292.709 42.58V44C292.536 44.0667 292.196 44.1 291.689 44.1C291.143 44.1 290.723 43.9867 290.429 43.76C290.149 43.5333 289.983 43.18 289.929 42.7H289.869C289.509 43.2333 289.003 43.6267 288.349 43.88C287.696 44.12 287.023 44.24 286.329 44.24C285.729 44.24 285.183 44.1133 284.689 43.86C284.196 43.6067 283.803 43.2467 283.509 42.78C283.216 42.3 283.069 41.7533 283.069 41.14C283.069 40.0467 283.429 39.26 284.149 38.78C284.883 38.2867 285.949 37.9533 287.349 37.78C288.043 37.6867 288.569 37.5933 288.929 37.5C289.289 37.3933 289.536 37.2667 289.669 37.12C289.816 36.9733 289.889 36.7733 289.889 36.52C289.889 35.9333 289.703 35.4733 289.329 35.14C288.956 34.8067 288.376 34.64 287.589 34.64C286.989 34.64 286.449 34.7933 285.969 35.1C285.503 35.4067 285.176 35.9067 284.989 36.6L283.449 36.22C283.689 35.26 284.183 34.5267 284.929 34.02C285.689 33.5 286.596 33.24 287.649 33.24C288.996 33.24 289.983 33.5333 290.609 34.12C291.249 34.7067 291.569 35.4933 291.569 36.48V42C291.569 42.2533 291.616 42.4333 291.709 42.54C291.803 42.6333 291.936 42.68 292.109 42.68ZM289.889 38.38C289.743 38.5533 289.456 38.6867 289.029 38.78C288.616 38.8733 288.003 38.9733 287.189 39.08C286.523 39.1733 285.956 39.3867 285.489 39.72C285.023 40.04 284.789 40.5067 284.789 41.12C284.789 41.6667 284.956 42.1 285.289 42.42C285.623 42.7267 286.076 42.88 286.649 42.88C287.156 42.88 287.656 42.78 288.149 42.58C288.643 42.38 289.056 42.0533 289.389 41.6C289.723 41.1333 289.889 40.5333 289.889 39.8V38.38ZM306.243 33.24C306.883 33.24 307.463 33.38 307.983 33.66C308.516 33.94 308.936 34.36 309.243 34.92C309.563 35.48 309.723 36.1667 309.723 36.98V44H308.043V37.56C308.043 36.5467 307.856 35.8133 307.483 35.36C307.109 34.8933 306.536 34.66 305.763 34.66C305.043 34.66 304.429 34.9467 303.923 35.52C303.416 36.0933 303.163 36.9467 303.163 38.08V44H301.483V37.56C301.483 36.5467 301.296 35.8133 300.923 35.36C300.563 34.8933 299.996 34.66 299.223 34.66C298.503 34.66 297.889 34.96 297.383 35.56C296.876 36.1467 296.623 37.0133 296.623 38.16V44H294.943V33.48H296.543V34.98H296.603C296.923 34.4333 297.356 34.0067 297.903 33.7C298.449 33.3933 299.043 33.24 299.683 33.24C300.363 33.24 300.969 33.3933 301.503 33.7C302.049 34.0067 302.469 34.46 302.763 35.06C303.616 33.8467 304.776 33.24 306.243 33.24ZM321.987 41C321.693 41.92 321.167 42.6933 320.407 43.32C319.647 43.9333 318.6 44.24 317.267 44.24C316.32 44.24 315.48 44.0133 314.747 43.56C314.013 43.1067 313.44 42.4667 313.027 41.64C312.627 40.8 312.427 39.8333 312.427 38.74C312.427 37.6467 312.627 36.6867 313.027 35.86C313.427 35.02 313.987 34.3733 314.707 33.92C315.44 33.4667 316.287 33.24 317.247 33.24C318.22 33.24 319.08 33.48 319.827 33.96C320.587 34.4267 321.167 35.1067 321.567 36C321.967 36.88 322.133 37.9267 322.067 39.14H314.127C314.153 40.2467 314.453 41.1467 315.027 41.84C315.6 42.52 316.347 42.86 317.267 42.86C318.12 42.86 318.787 42.6533 319.267 42.24C319.76 41.8267 320.1 41.34 320.287 40.78L321.987 41ZM317.247 34.62C316.353 34.62 315.633 34.9267 315.087 35.54C314.553 36.1533 314.247 36.9133 314.167 37.82H320.347C320.267 36.9133 319.953 36.1533 319.407 35.54C318.86 34.9267 318.14 34.62 317.247 34.62ZM331.421 36.54C331.288 35.9267 330.975 35.4467 330.481 35.1C329.988 34.74 329.415 34.56 328.761 34.56C328.068 34.56 327.515 34.7133 327.101 35.02C326.688 35.3267 326.481 35.74 326.481 36.26C326.481 36.7267 326.668 37.0667 327.041 37.28C327.415 37.4933 327.948 37.66 328.641 37.78L329.761 37.96C330.855 38.1467 331.701 38.4533 332.301 38.88C332.915 39.2933 333.221 39.9933 333.221 40.98C333.221 42.02 332.815 42.8267 332.001 43.4C331.201 43.96 330.168 44.24 328.901 44.24C327.635 44.24 326.588 43.94 325.761 43.34C324.948 42.74 324.468 41.9467 324.321 40.96L325.861 40.62C326.008 41.3667 326.355 41.94 326.901 42.34C327.448 42.7267 328.121 42.92 328.921 42.92C329.681 42.92 330.301 42.7533 330.781 42.42C331.261 42.0733 331.501 41.6133 331.501 41.04C331.501 40.5333 331.301 40.1667 330.901 39.94C330.515 39.7133 329.921 39.5267 329.121 39.38L328.021 39.18C327.021 39.0067 326.228 38.7133 325.641 38.3C325.055 37.8867 324.761 37.2133 324.761 36.28C324.761 35.6933 324.928 35.1667 325.261 34.7C325.608 34.2333 326.088 33.8733 326.701 33.62C327.315 33.3667 328.008 33.24 328.781 33.24C329.501 33.24 330.161 33.3733 330.761 33.64C331.375 33.9067 331.868 34.2667 332.241 34.72C332.628 35.1733 332.868 35.6667 332.961 36.2L331.421 36.54Z" fill="#B0F7B0"/>
<path d="M520.586 15.48C520.399 16.3067 520.046 17.0867 519.526 17.82C519.019 18.5533 518.339 19.1533 517.486 19.62C516.646 20.0733 515.666 20.3 514.546 20.3C513.266 20.3 512.126 20 511.126 19.4C510.126 18.8 509.346 17.94 508.786 16.82C508.239 15.6867 507.966 14.36 507.966 12.84C507.966 11.3333 508.239 10.02 508.786 8.9C509.346 7.78 510.126 6.92 511.126 6.32C512.126 5.72 513.266 5.42 514.546 5.42C515.599 5.42 516.526 5.62667 517.326 6.04C518.126 6.44 518.773 6.93333 519.266 7.52C519.759 8.10667 520.113 8.68667 520.326 9.26L518.566 9.66C518.246 8.88667 517.739 8.24 517.046 7.72C516.366 7.2 515.533 6.94 514.546 6.94C513.599 6.94 512.766 7.17333 512.046 7.64C511.339 8.10667 510.786 8.78667 510.386 9.68C509.999 10.56 509.806 11.6133 509.806 12.84C509.806 14.08 509.999 15.1467 510.386 16.04C510.786 16.9333 511.339 17.6133 512.046 18.08C512.766 18.5467 513.599 18.78 514.546 18.78C515.679 18.78 516.599 18.4467 517.306 17.78C518.026 17.1 518.519 16.2467 518.786 15.22L520.586 15.48ZM525.263 5.52V10.98H525.323C525.657 10.4333 526.11 10.0067 526.683 9.7C527.27 9.39333 527.91 9.24 528.603 9.24C529.67 9.24 530.55 9.56 531.243 10.2C531.95 10.84 532.303 11.7667 532.303 12.98V20H530.623V13.56C530.623 12.5467 530.417 11.8133 530.003 11.36C529.603 10.8933 528.977 10.66 528.123 10.66C527.643 10.66 527.183 10.8 526.743 11.08C526.303 11.36 525.943 11.7733 525.663 12.32C525.397 12.8667 525.263 13.52 525.263 14.28V20H523.583V5.52H525.263ZM539.993 9.24C540.979 9.24 541.846 9.46667 542.593 9.92C543.353 10.3733 543.939 11.0133 544.353 11.84C544.766 12.6667 544.973 13.6333 544.973 14.74C544.973 15.8467 544.766 16.8133 544.353 17.64C543.939 18.4667 543.353 19.1067 542.593 19.56C541.846 20.0133 540.979 20.24 539.993 20.24C539.006 20.24 538.133 20.0133 537.373 19.56C536.626 19.1067 536.046 18.4667 535.633 17.64C535.219 16.8133 535.013 15.8467 535.013 14.74C535.013 13.6333 535.219 12.6667 535.633 11.84C536.046 11.0133 536.626 10.3733 537.373 9.92C538.133 9.46667 539.006 9.24 539.993 9.24ZM539.993 18.86C540.979 18.86 541.766 18.4933 542.353 17.76C542.953 17.0133 543.253 16.0067 543.253 14.74C543.253 13.4733 542.953 12.4733 542.353 11.74C541.766 10.9933 540.979 10.62 539.993 10.62C539.006 10.62 538.213 10.9933 537.613 11.74C537.026 12.4733 536.733 13.4733 536.733 14.74C536.733 16.0067 537.026 17.0133 537.613 17.76C538.213 18.4933 539.006 18.86 539.993 18.86ZM552.2 9.24C553.186 9.24 554.053 9.46667 554.8 9.92C555.56 10.3733 556.146 11.0133 556.56 11.84C556.973 12.6667 557.18 13.6333 557.18 14.74C557.18 15.8467 556.973 16.8133 556.56 17.64C556.146 18.4667 555.56 19.1067 554.8 19.56C554.053 20.0133 553.186 20.24 552.2 20.24C551.213 20.24 550.34 20.0133 549.58 19.56C548.833 19.1067 548.253 18.4667 547.84 17.64C547.426 16.8133 547.22 15.8467 547.22 14.74C547.22 13.6333 547.426 12.6667 547.84 11.84C548.253 11.0133 548.833 10.3733 549.58 9.92C550.34 9.46667 551.213 9.24 552.2 9.24ZM552.2 18.86C553.186 18.86 553.973 18.4933 554.56 17.76C555.16 17.0133 555.46 16.0067 555.46 14.74C555.46 13.4733 555.16 12.4733 554.56 11.74C553.973 10.9933 553.186 10.62 552.2 10.62C551.213 10.62 550.42 10.9933 549.82 11.74C549.233 12.4733 548.94 13.4733 548.94 14.74C548.94 16.0067 549.233 17.0133 549.82 17.76C550.42 18.4933 551.213 18.86 552.2 18.86ZM566.527 12.54C566.393 11.9267 566.08 11.4467 565.587 11.1C565.093 10.74 564.52 10.56 563.867 10.56C563.173 10.56 562.62 10.7133 562.207 11.02C561.793 11.3267 561.587 11.74 561.587 12.26C561.587 12.7267 561.773 13.0667 562.147 13.28C562.52 13.4933 563.053 13.66 563.747 13.78L564.867 13.96C565.96 14.1467 566.807 14.4533 567.407 14.88C568.02 15.2933 568.327 15.9933 568.327 16.98C568.327 18.02 567.92 18.8267 567.107 19.4C566.307 19.96 565.273 20.24 564.007 20.24C562.74 20.24 561.693 19.94 560.867 19.34C560.053 18.74 559.573 17.9467 559.427 16.96L560.967 16.62C561.113 17.3667 561.46 17.94 562.007 18.34C562.553 18.7267 563.227 18.92 564.027 18.92C564.787 18.92 565.407 18.7533 565.887 18.42C566.367 18.0733 566.607 17.6133 566.607 17.04C566.607 16.5333 566.407 16.1667 566.007 15.94C565.62 15.7133 565.027 15.5267 564.227 15.38L563.127 15.18C562.127 15.0067 561.333 14.7133 560.747 14.3C560.16 13.8867 559.867 13.2133 559.867 12.28C559.867 11.6933 560.033 11.1667 560.367 10.7C560.713 10.2333 561.193 9.87333 561.807 9.62C562.42 9.36667 563.113 9.24 563.887 9.24C564.607 9.24 565.267 9.37333 565.867 9.64C566.48 9.90667 566.973 10.2667 567.347 10.72C567.733 11.1733 567.973 11.6667 568.067 12.2L566.527 12.54ZM580.119 17C579.826 17.92 579.299 18.6933 578.539 19.32C577.779 19.9333 576.733 20.24 575.399 20.24C574.453 20.24 573.613 20.0133 572.879 19.56C572.146 19.1067 571.573 18.4667 571.159 17.64C570.759 16.8 570.559 15.8333 570.559 14.74C570.559 13.6467 570.759 12.6867 571.159 11.86C571.559 11.02 572.119 10.3733 572.839 9.92C573.573 9.46667 574.419 9.24 575.379 9.24C576.353 9.24 577.213 9.48 577.959 9.96C578.719 10.4267 579.299 11.1067 579.699 12C580.099 12.88 580.266 13.9267 580.199 15.14H572.259C572.286 16.2467 572.586 17.1467 573.159 17.84C573.733 18.52 574.479 18.86 575.399 18.86C576.253 18.86 576.919 18.6533 577.399 18.24C577.893 17.8267 578.233 17.34 578.419 16.78L580.119 17ZM575.379 10.62C574.486 10.62 573.766 10.9267 573.219 11.54C572.686 12.1533 572.379 12.9133 572.299 13.82H578.479C578.399 12.9133 578.086 12.1533 577.539 11.54C576.993 10.9267 576.273 10.62 575.379 10.62ZM520.826 33.48H522.426V43.28C522.426 44.8667 521.993 46.0333 521.126 46.78C520.259 47.54 519.099 47.92 517.646 47.92C516.486 47.92 515.493 47.66 514.666 47.14C513.853 46.62 513.286 45.8333 512.966 44.78L514.566 44.4C514.779 45.1467 515.146 45.6867 515.666 46.02C516.186 46.3667 516.846 46.54 517.646 46.54C519.713 46.54 520.746 45.4267 520.746 43.2V41.78H520.686C520.419 42.2867 519.993 42.6867 519.406 42.98C518.819 43.2733 518.159 43.42 517.426 43.42C516.519 43.42 515.713 43.2133 515.006 42.8C514.313 42.3733 513.766 41.7733 513.366 41C512.979 40.2267 512.786 39.34 512.786 38.34C512.786 37.3267 512.979 36.4333 513.366 35.66C513.766 34.8867 514.313 34.2933 515.006 33.88C515.713 33.4533 516.519 33.24 517.426 33.24C518.173 33.24 518.846 33.3933 519.446 33.7C520.046 34.0067 520.486 34.4267 520.766 34.96H520.826V33.48ZM517.706 42.08C518.319 42.08 518.866 41.9267 519.346 41.62C519.826 41.3 520.199 40.86 520.466 40.3C520.733 39.7267 520.866 39.0733 520.866 38.34C520.866 37.2333 520.573 36.34 519.986 35.66C519.399 34.9667 518.639 34.62 517.706 34.62C516.746 34.62 515.973 34.96 515.386 35.64C514.799 36.32 514.506 37.22 514.506 38.34C514.506 39.46 514.799 40.3667 515.386 41.06C515.973 41.74 516.746 42.08 517.706 42.08ZM534.109 42.68C534.309 42.68 534.509 42.6467 534.709 42.58V44C534.536 44.0667 534.196 44.1 533.689 44.1C533.143 44.1 532.723 43.9867 532.429 43.76C532.149 43.5333 531.983 43.18 531.929 42.7H531.869C531.509 43.2333 531.003 43.6267 530.349 43.88C529.696 44.12 529.023 44.24 528.329 44.24C527.729 44.24 527.183 44.1133 526.689 43.86C526.196 43.6067 525.803 43.2467 525.509 42.78C525.216 42.3 525.069 41.7533 525.069 41.14C525.069 40.0467 525.429 39.26 526.149 38.78C526.883 38.2867 527.949 37.9533 529.349 37.78C530.043 37.6867 530.569 37.5933 530.929 37.5C531.289 37.3933 531.536 37.2667 531.669 37.12C531.816 36.9733 531.889 36.7733 531.889 36.52C531.889 35.9333 531.703 35.4733 531.329 35.14C530.956 34.8067 530.376 34.64 529.589 34.64C528.989 34.64 528.449 34.7933 527.969 35.1C527.503 35.4067 527.176 35.9067 526.989 36.6L525.449 36.22C525.689 35.26 526.183 34.5267 526.929 34.02C527.689 33.5 528.596 33.24 529.649 33.24C530.996 33.24 531.983 33.5333 532.609 34.12C533.249 34.7067 533.569 35.4933 533.569 36.48V42C533.569 42.2533 533.616 42.4333 533.709 42.54C533.803 42.6333 533.936 42.68 534.109 42.68ZM531.889 38.38C531.743 38.5533 531.456 38.6867 531.029 38.78C530.616 38.8733 530.003 38.9733 529.189 39.08C528.523 39.1733 527.956 39.3867 527.489 39.72C527.023 40.04 526.789 40.5067 526.789 41.12C526.789 41.6667 526.956 42.1 527.289 42.42C527.623 42.7267 528.076 42.88 528.649 42.88C529.156 42.88 529.656 42.78 530.149 42.58C530.643 42.38 531.056 42.0533 531.389 41.6C531.723 41.1333 531.889 40.5333 531.889 39.8V38.38ZM548.243 33.24C548.883 33.24 549.463 33.38 549.983 33.66C550.516 33.94 550.936 34.36 551.243 34.92C551.563 35.48 551.723 36.1667 551.723 36.98V44H550.043V37.56C550.043 36.5467 549.856 35.8133 549.483 35.36C549.109 34.8933 548.536 34.66 547.763 34.66C547.043 34.66 546.429 34.9467 545.923 35.52C545.416 36.0933 545.163 36.9467 545.163 38.08V44H543.483V37.56C543.483 36.5467 543.296 35.8133 542.923 35.36C542.563 34.8933 541.996 34.66 541.223 34.66C540.503 34.66 539.889 34.96 539.383 35.56C538.876 36.1467 538.623 37.0133 538.623 38.16V44H536.943V33.48H538.543V34.98H538.603C538.923 34.4333 539.356 34.0067 539.903 33.7C540.449 33.3933 541.043 33.24 541.683 33.24C542.363 33.24 542.969 33.3933 543.503 33.7C544.049 34.0067 544.469 34.46 544.763 35.06C545.616 33.8467 546.776 33.24 548.243 33.24ZM563.987 41C563.693 41.92 563.167 42.6933 562.407 43.32C561.647 43.9333 560.6 44.24 559.267 44.24C558.32 44.24 557.48 44.0133 556.747 43.56C556.013 43.1067 555.44 42.4667 555.027 41.64C554.627 40.8 554.427 39.8333 554.427 38.74C554.427 37.6467 554.627 36.6867 555.027 35.86C555.427 35.02 555.987 34.3733 556.707 33.92C557.44 33.4667 558.287 33.24 559.247 33.24C560.22 33.24 561.08 33.48 561.827 33.96C562.587 34.4267 563.167 35.1067 563.567 36C563.967 36.88 564.133 37.9267 564.067 39.14H556.127C556.153 40.2467 556.453 41.1467 557.027 41.84C557.6 42.52 558.347 42.86 559.267 42.86C560.12 42.86 560.787 42.6533 561.267 42.24C561.76 41.8267 562.1 41.34 562.287 40.78L563.987 41ZM559.247 34.62C558.353 34.62 557.633 34.9267 557.087 35.54C556.553 36.1533 556.247 36.9133 556.167 37.82H562.347C562.267 36.9133 561.953 36.1533 561.407 35.54C560.86 34.9267 560.14 34.62 559.247 34.62ZM573.421 36.54C573.288 35.9267 572.975 35.4467 572.481 35.1C571.988 34.74 571.415 34.56 570.761 34.56C570.068 34.56 569.515 34.7133 569.101 35.02C568.688 35.3267 568.481 35.74 568.481 36.26C568.481 36.7267 568.668 37.0667 569.041 37.28C569.415 37.4933 569.948 37.66 570.641 37.78L571.761 37.96C572.855 38.1467 573.701 38.4533 574.301 38.88C574.915 39.2933 575.221 39.9933 575.221 40.98C575.221 42.02 574.815 42.8267 574.001 43.4C573.201 43.96 572.168 44.24 570.901 44.24C569.635 44.24 568.588 43.94 567.761 43.34C566.948 42.74 566.468 41.9467 566.321 40.96L567.861 40.62C568.008 41.3667 568.355 41.94 568.901 42.34C569.448 42.7267 570.121 42.92 570.921 42.92C571.681 42.92 572.301 42.7533 572.781 42.42C573.261 42.0733 573.501 41.6133 573.501 41.04C573.501 40.5333 573.301 40.1667 572.901 39.94C572.515 39.7133 571.921 39.5267 571.121 39.38L570.021 39.18C569.021 39.0067 568.228 38.7133 567.641 38.3C567.055 37.8867 566.761 37.2133 566.761 36.28C566.761 35.6933 566.928 35.1667 567.261 34.7C567.608 34.2333 568.088 33.8733 568.701 33.62C569.315 33.3667 570.008 33.24 570.781 33.24C571.501 33.24 572.161 33.3733 572.761 33.64C573.375 33.9067 573.868 34.2667 574.241 34.72C574.628 35.1733 574.868 35.6667 574.961 36.2L573.421 36.54Z" fill="#9B9BA2"/>
<path d="M757.225 5.72C758.731 5.72 759.898 6.10667 760.725 6.88C761.551 7.64 761.965 8.69333 761.965 10.04C761.965 11.4 761.551 12.4667 760.725 13.24C759.898 14 758.731 14.38 757.225 14.38H753.005V20H751.205V5.72H757.225ZM756.965 12.84C757.978 12.84 758.758 12.6067 759.305 12.14C759.851 11.66 760.125 10.96 760.125 10.04C760.125 9.12 759.851 8.42667 759.305 7.96C758.758 7.48 757.978 7.24 756.965 7.24H753.005V12.84H756.965ZM773.442 17C773.148 17.92 772.622 18.6933 771.862 19.32C771.102 19.9333 770.055 20.24 768.722 20.24C767.775 20.24 766.935 20.0133 766.202 19.56C765.468 19.1067 764.895 18.4667 764.482 17.64C764.082 16.8 763.882 15.8333 763.882 14.74C763.882 13.6467 764.082 12.6867 764.482 11.86C764.882 11.02 765.442 10.3733 766.162 9.92C766.895 9.46667 767.742 9.24 768.702 9.24C769.675 9.24 770.535 9.48 771.282 9.96C772.042 10.4267 772.622 11.1067 773.022 12C773.422 12.88 773.588 13.9267 773.522 15.14H765.582C765.608 16.2467 765.908 17.1467 766.482 17.84C767.055 18.52 767.802 18.86 768.722 18.86C769.575 18.86 770.242 18.6533 770.722 18.24C771.215 17.8267 771.555 17.34 771.742 16.78L773.442 17ZM768.702 10.62C767.808 10.62 767.088 10.9267 766.542 11.54C766.008 12.1533 765.702 12.9133 765.622 13.82H771.802C771.722 12.9133 771.408 12.1533 770.862 11.54C770.315 10.9267 769.595 10.62 768.702 10.62ZM776.456 9.48H778.056V11.28H778.116C778.396 10.6533 778.823 10.16 779.396 9.8C779.97 9.42667 780.643 9.24 781.416 9.24C781.723 9.24 782.023 9.26667 782.316 9.32V10.94C781.876 10.9 781.55 10.88 781.336 10.88C780.363 10.88 779.583 11.18 778.996 11.78C778.423 12.38 778.136 13.3 778.136 14.54V20H776.456V9.48ZM791.099 12.54C790.966 11.9267 790.652 11.4467 790.159 11.1C789.666 10.74 789.092 10.56 788.439 10.56C787.746 10.56 787.192 10.7133 786.779 11.02C786.366 11.3267 786.159 11.74 786.159 12.26C786.159 12.7267 786.346 13.0667 786.719 13.28C787.092 13.4933 787.626 13.66 788.319 13.78L789.439 13.96C790.532 14.1467 791.379 14.4533 791.979 14.88C792.592 15.2933 792.899 15.9933 792.899 16.98C792.899 18.02 792.492 18.8267 791.679 19.4C790.879 19.96 789.846 20.24 788.579 20.24C787.312 20.24 786.266 19.94 785.439 19.34C784.626 18.74 784.146 17.9467 783.999 16.96L785.539 16.62C785.686 17.3667 786.032 17.94 786.579 18.34C787.126 18.7267 787.799 18.92 788.599 18.92C789.359 18.92 789.979 18.7533 790.459 18.42C790.939 18.0733 791.179 17.6133 791.179 17.04C791.179 16.5333 790.979 16.1667 790.579 15.94C790.192 15.7133 789.599 15.5267 788.799 15.38L787.699 15.18C786.699 15.0067 785.906 14.7133 785.319 14.3C784.732 13.8867 784.439 13.2133 784.439 12.28C784.439 11.6933 784.606 11.1667 784.939 10.7C785.286 10.2333 785.766 9.87333 786.379 9.62C786.992 9.36667 787.686 9.24 788.459 9.24C789.179 9.24 789.839 9.37333 790.439 9.64C791.052 9.90667 791.546 10.2667 791.919 10.72C792.306 11.1733 792.546 11.6667 792.639 12.2L791.099 12.54ZM800.112 9.24C801.098 9.24 801.965 9.46667 802.712 9.92C803.472 10.3733 804.058 11.0133 804.472 11.84C804.885 12.6667 805.092 13.6333 805.092 14.74C805.092 15.8467 804.885 16.8133 804.472 17.64C804.058 18.4667 803.472 19.1067 802.712 19.56C801.965 20.0133 801.098 20.24 800.112 20.24C799.125 20.24 798.252 20.0133 797.492 19.56C796.745 19.1067 796.165 18.4667 795.752 17.64C795.338 16.8133 795.132 15.8467 795.132 14.74C795.132 13.6333 795.338 12.6667 795.752 11.84C796.165 11.0133 796.745 10.3733 797.492 9.92C798.252 9.46667 799.125 9.24 800.112 9.24ZM800.112 18.86C801.098 18.86 801.885 18.4933 802.472 17.76C803.072 17.0133 803.372 16.0067 803.372 14.74C803.372 13.4733 803.072 12.4733 802.472 11.74C801.885 10.9933 801.098 10.62 800.112 10.62C799.125 10.62 798.332 10.9933 797.732 11.74C797.145 12.4733 796.852 13.4733 796.852 14.74C796.852 16.0067 797.145 17.0133 797.732 17.76C798.332 18.4933 799.125 18.86 800.112 18.86ZM809.619 9.48V10.98H809.679C809.999 10.4333 810.452 10.0067 811.039 9.7C811.625 9.39333 812.279 9.24 812.999 9.24C814.079 9.24 814.972 9.56 815.679 10.2C816.385 10.84 816.739 11.7667 816.739 12.98V20H815.059V13.56C815.059 12.5467 814.852 11.8133 814.439 11.36C814.039 10.8933 813.412 10.66 812.559 10.66C812.052 10.66 811.579 10.7867 811.139 11.04C810.712 11.2933 810.365 11.6867 810.099 12.22C809.832 12.74 809.699 13.3867 809.699 14.16V20H808.019V9.48H809.619ZM828.408 18.68C828.608 18.68 828.808 18.6467 829.008 18.58V20C828.835 20.0667 828.495 20.1 827.988 20.1C827.441 20.1 827.021 19.9867 826.728 19.76C826.448 19.5333 826.281 19.18 826.228 18.7H826.168C825.808 19.2333 825.301 19.6267 824.648 19.88C823.995 20.12 823.321 20.24 822.628 20.24C822.028 20.24 821.481 20.1133 820.988 19.86C820.495 19.6067 820.101 19.2467 819.808 18.78C819.515 18.3 819.368 17.7533 819.368 17.14C819.368 16.0467 819.728 15.26 820.448 14.78C821.181 14.2867 822.248 13.9533 823.648 13.78C824.341 13.6867 824.868 13.5933 825.228 13.5C825.588 13.3933 825.835 13.2667 825.968 13.12C826.115 12.9733 826.188 12.7733 826.188 12.52C826.188 11.9333 826.001 11.4733 825.628 11.14C825.255 10.8067 824.675 10.64 823.888 10.64C823.288 10.64 822.748 10.7933 822.268 11.1C821.801 11.4067 821.475 11.9067 821.288 12.6L819.748 12.22C819.988 11.26 820.481 10.5267 821.228 10.02C821.988 9.5 822.895 9.24 823.948 9.24C825.295 9.24 826.281 9.53333 826.908 10.12C827.548 10.7067 827.868 11.4933 827.868 12.48V18C827.868 18.2533 827.915 18.4333 828.008 18.54C828.101 18.6333 828.235 18.68 828.408 18.68ZM826.188 14.38C826.041 14.5533 825.755 14.6867 825.328 14.78C824.915 14.8733 824.301 14.9733 823.488 15.08C822.821 15.1733 822.255 15.3867 821.788 15.72C821.321 16.04 821.088 16.5067 821.088 17.12C821.088 17.6667 821.255 18.1 821.588 18.42C821.921 18.7267 822.375 18.88 822.948 18.88C823.455 18.88 823.955 18.78 824.448 18.58C824.941 18.38 825.355 18.0533 825.688 17.6C826.021 17.1333 826.188 16.5333 826.188 15.8V14.38ZM832.921 20H831.241V5.52H832.921V20ZM777.256 44H775.576V33.48H777.256V44ZM777.276 31.44H775.556V29.52H777.276V31.44ZM782.392 33.48V34.98H782.452C782.772 34.4333 783.226 34.0067 783.812 33.7C784.399 33.3933 785.052 33.24 785.772 33.24C786.852 33.24 787.746 33.56 788.452 34.2C789.159 34.84 789.512 35.7667 789.512 36.98V44H787.832V37.56C787.832 36.5467 787.626 35.8133 787.212 35.36C786.812 34.8933 786.186 34.66 785.332 34.66C784.826 34.66 784.352 34.7867 783.912 35.04C783.486 35.2933 783.139 35.6867 782.872 36.22C782.606 36.74 782.472 37.3867 782.472 38.16V44H780.792V33.48H782.392ZM796.503 30.7C796.063 30.7 795.717 30.7867 795.463 30.96C795.21 31.1333 795.083 31.4933 795.083 32.04V33.48H797.503V34.78H795.083V44H793.403V34.78H791.643V33.48H793.403V31.88C793.403 30.1467 794.35 29.28 796.243 29.28C796.897 29.28 797.41 29.3467 797.783 29.48V30.86C797.317 30.7533 796.89 30.7 796.503 30.7ZM804.057 33.24C805.044 33.24 805.91 33.4667 806.657 33.92C807.417 34.3733 808.004 35.0133 808.417 35.84C808.83 36.6667 809.037 37.6333 809.037 38.74C809.037 39.8467 808.83 40.8133 808.417 41.64C808.004 42.4667 807.417 43.1067 806.657 43.56C805.91 44.0133 805.044 44.24 804.057 44.24C803.07 44.24 802.197 44.0133 801.437 43.56C800.69 43.1067 800.11 42.4667 799.697 41.64C799.284 40.8133 799.077 39.8467 799.077 38.74C799.077 37.6333 799.284 36.6667 799.697 35.84C800.11 35.0133 800.69 34.3733 801.437 33.92C802.197 33.4667 803.07 33.24 804.057 33.24ZM804.057 42.86C805.044 42.86 805.83 42.4933 806.417 41.76C807.017 41.0133 807.317 40.0067 807.317 38.74C807.317 37.4733 807.017 36.4733 806.417 35.74C805.83 34.9933 805.044 34.62 804.057 34.62C803.07 34.62 802.277 34.9933 801.677 35.74C801.09 36.4733 800.797 37.4733 800.797 38.74C800.797 40.0067 801.09 41.0133 801.677 41.76C802.277 42.4933 803.07 42.86 804.057 42.86Z" fill="#9B9BA2"/>
<circle cx="546.5" cy="104.5" r="36" stroke="#9B9BA2" stroke-width="5"/>
<path d="M544.648 124.586C541.035 124.586 537.988 123.502 535.508 121.334C533.027 119.146 531.787 116.354 531.787 112.955V110.494H541.104V111.988C541.104 113.238 541.396 114.205 541.982 114.889C542.588 115.572 543.398 115.914 544.414 115.914C545.43 115.914 546.23 115.572 546.816 114.889C547.402 114.205 547.695 113.238 547.695 111.988V110.201C547.695 108.99 547.393 108.043 546.787 107.359C546.201 106.656 545.303 106.305 544.092 106.305H540.811V98.8047H544.092C546.104 98.8047 547.109 97.7012 547.109 95.4941V93.4141C547.109 92.3594 546.865 91.5488 546.377 90.9824C545.889 90.3965 545.234 90.1035 544.414 90.1035C543.594 90.1035 542.93 90.3965 542.422 90.9824C541.934 91.5488 541.689 92.3594 541.689 93.4141V94.5859H532.402V92.8574C532.402 89.5371 533.584 86.8027 535.947 84.6543C538.33 82.4863 541.27 81.4023 544.766 81.4023C548.262 81.4023 551.172 82.4375 553.496 84.5078C555.84 86.5781 557.012 89.2246 557.012 92.4473V93.6484C557.012 97.2031 555.586 100.123 552.734 102.408C554.258 103.463 555.449 104.752 556.309 106.275C557.168 107.799 557.598 109.488 557.598 111.344V113.131C557.598 116.432 556.338 119.166 553.818 121.334C551.299 123.502 548.242 124.586 544.648 124.586Z" fill="#9B9BA2"/>
<circle cx="791.5" cy="104.5" r="36" stroke="#9B9BA2" stroke-width="5"/>
<path d="M790.908 124V115.299H776.201V107.506L790.586 81.9883H800.195V107.799H805V115.299H800.195V124H790.908ZM783.877 107.799H790.908V94.9668L783.877 107.799Z" fill="#9B9BA2"/>
</svg>
