<svg width="88" height="71" viewBox="0 0 88 71" fill="none" xmlns="http://www.w3.org/2000/svg">
<g clip-path="url(#clip0_28:638)">
<path d="M2.519 35.4695L26.4 31.057L13.849 40.5823C12.463 41.9801 13.4447 44.3695 15.4041 44.3695H46.0254C44.7274 40.7085 44 36.816 44 32.807V26.9453L27.5371 14.7977C24.2619 12.5956 19.9347 12.8549 16.9414 15.4342L0.798875 31.5673C-0.903375 32.9997 0.3245 35.7857 2.519 35.4695ZM79.0886 40.1982L65.2479 33.2216C64.1519 32.669 63.2301 31.8194 62.5858 30.7682C61.9415 29.717 61.6001 28.5056 61.6 27.2698V22.182H70.4L74.2624 25.3201C75.0874 26.1521 76.2066 26.6195 77.374 26.6195H81.6324C82.4495 26.6194 83.2504 26.3899 83.9455 25.9566C84.6405 25.5233 85.2022 24.9034 85.5676 24.1663L87.5352 20.1976C87.9006 19.4605 88.0553 18.6354 87.9819 17.8146C87.9086 16.9939 87.6101 16.21 87.12 15.5507L76.8721 1.76945C76.0403 0.651758 74.7367 0 73.3521 0H40.7028C39.7224 0 39.2315 1.18842 39.9245 1.88732L48.4 8.86945L40.2078 12.3141C39.3965 12.7231 39.3965 13.8894 40.2078 14.2985L48.4 17.7445V32.807C48.4 42.8025 53.3541 52.1365 61.6 57.682C34.7064 58.6263 14.223 63.3689 1.91125 66.1285C0.79475 66.3781 0 67.3779 0 68.5316C0 69.8906 1.09312 71 2.442 71H71.0655C79.7679 71.0014 87.5119 64.4048 87.9766 55.6407C88.3231 49.0843 84.8512 43.1048 79.0886 40.1982ZM67.2623 9.18701L73.5391 10.7693C73.161 12.2822 71.8245 13.3888 70.2213 13.3014C68.4393 13.2029 66.6669 11.5638 67.2623 9.18701Z" fill="#633CFF"/>
</g>
<defs>
<clipPath id="clip0_28:638">
<rect width="88" height="71" fill="white"/>
</clipPath>
</defs>
</svg>
