<svg width="81" height="72" viewBox="0 0 81 72" fill="none" xmlns="http://www.w3.org/2000/svg">
<path d="M77.625 9H63V3.375C63 1.50469 61.4953 0 59.625 0H21.375C19.5047 0 18 1.50469 18 3.375V9H3.375C1.50469 9 0 10.5047 0 12.375V20.25C0 25.2703 3.16406 30.4312 8.70469 34.4109C13.1344 37.6031 18.5203 39.6281 24.1734 40.275C28.5891 47.6016 33.75 50.625 33.75 50.625V60.75H27C22.0359 60.75 18 63.6609 18 68.625V70.3125C18 71.2406 18.7594 72 19.6875 72H61.3125C62.2406 72 63 71.2406 63 70.3125V68.625C63 63.6609 58.9641 60.75 54 60.75H47.25V50.625C47.25 50.625 52.4109 47.6016 56.8266 40.275C62.4938 39.6281 67.8797 37.6031 72.2953 34.4109C77.8219 30.4312 81 25.2703 81 20.25V12.375C81 10.5047 79.4953 9 77.625 9ZM13.9641 27.1125C10.5328 24.6375 9 21.8813 9 20.25V18H18.0281C18.1687 22.5844 18.8438 26.6062 19.8281 30.1219C17.7047 29.3906 15.7219 28.3781 13.9641 27.1125ZM72 20.25C72 22.5141 69.5109 25.3266 67.0359 27.1125C65.2781 28.3781 63.2812 29.3906 61.1578 30.1219C62.1422 26.6062 62.8172 22.5844 62.9578 18H72V20.25Z" fill="#633CFF"/>
</svg>
