<svg id="Layer_1" data-name="Layer 1" xmlns="http://www.w3.org/2000/svg" viewBox="0 0 265 115">
  <path d="M254.25,54.07H228.09a8.61,8.61,0,0,0-8.6,8.59V85.2a8.61,8.61,0,0,0,8.6,8.6h26.16a8.61,8.61,0,0,0,8.6-8.6V62.66a8.61,8.61,0,0,0-8.6-8.59ZM158.1,24.43h-3.21v-.57c.88,0,1.44-.17,1.05-.94-.6-1.17,2-1.11,2.36-.86.67.45.23,1.74-.2,2.37Zm-4.4.78h3.9c-.43.65-1.64,2.86-2.43,2.87a8,8,0,0,1-1.47-2.87Zm74.52,37.45h25.9V85.2h-25.9V62.66Zm-53.14,0h36a8.61,8.61,0,0,0-8.6-8.59H174.86a8.61,8.61,0,0,0-8.59,8.59V85.2a8.61,8.61,0,0,0,8.59,8.6h27.66a8.61,8.61,0,0,0,8.6-8.6V70.33H181.87A6.66,6.66,0,0,0,188.51,77h14.41V85.2H175.08V62.66Zm-112.52,0H97a8.61,8.61,0,0,0-8.59-8.59H61.75a8.61,8.61,0,0,0-8.6,8.59v7a8.61,8.61,0,0,0,8.6,8.59H88.44v7H53.15a8.61,8.61,0,0,0,8.6,8.6H89.26a8.61,8.61,0,0,0,8.59-8.6v-7a8.61,8.61,0,0,0-8.59-8.59H62.56v-7ZM13,62.66H45.51a8.61,8.61,0,0,0-8.6-8.59H10.75a8.61,8.61,0,0,0-8.6,8.59V85.2a8.61,8.61,0,0,0,8.6,8.6H36.91a8.61,8.61,0,0,0,8.6-8.6H13V62.66ZM166.38,20.51a2.43,2.43,0,0,1-.65.23c-1.22,1.73-.48,1.53-2.65,3a16.24,16.24,0,0,0,.77,5.8.22.22,0,0,1,0,.18.25.25,0,0,1-.15.1c-.52.11-1.27.31-1.71.39a11.47,11.47,0,0,1,0,3c-.37,1.92-5,6.14-6.05,6.36-1.51.29-3.21-1-5.85-2.21-.74-.32-3.18-1.92-4.46-2.35-1.07-.36-2.13,2.23-.81,2.93.61.32,1.59.75,1.9,1.56.92,2.38-.14,11.56-2,13.4-.9,0-1.66-.83-2.33-.61-1.19.65-.43,4.29,0,4.92,7.33,7.54,6.46,13.12,9.57,17.29,1.42,0,.49,1.5,1.57,3.27a6.82,6.82,0,0,1-.24,3V83l-.24.71v2c-.22,1-.46,2.27-.66,3.18-.43,1.91,1.24,3.39.24,5.21,0,1.11,0,.89-.67,1.8,0,1.73-.41,5.39,0,6.68a20.26,20.26,0,0,0,4.36,5.07c2,.87,4.87.68,3.93,3.78-5.76,1.77-9.44-1-12.51-1l-.15.53a13.19,13.19,0,0,1-4-.62,45.53,45.53,0,0,1,.85-5.26l.66-1c.24-.7-.24-5.78-.28-7.15-1.23-.91-1.47-3.66-1.47-5.17a17.71,17.71,0,0,1-.43-4.07,7.58,7.58,0,0,1-.19-2.65c.19-.61.87-.88,1-1.38v-1.7c.32-1.8.22-2.62-.86-3.7-2.69,0-3.06.17-4.54-2.13-.46-.71-4.23-6.66-4.6-6.82-3.14-1.37-2.51-.84-3.88-3.27a3.19,3.19,0,0,0-1.63,1.39c-1.12,1.67-3.11,7.12-3.68,9-.31,1.07,0,2.25-.47,3.13-.35.64-1.47.84-1.71,1.28-1.1,2-.27,1.82-2.37,3.22-.37.48-.38,1.21-.66,1.8l-.47.66c-.35.76.37,2.14.23,2.61a34.85,34.85,0,0,1-1.32,3.64c-1,2.28-.84,5.3-1.8,6.7-.49.71-1.66,0-2.56.6,0,.49-1.47,3.74-1.75,4.64v5.16c.26.87,1,1.7.78,2.8s-4.31,1.16-6.53.84c-1.48-.21-1.92-1.31-1.9-2.57,0-1.49,3-11.18,2.86-11.82-2.29-2.57.62-5.22,1.47-7.62.42-1.17.16-2.81.62-3.89l2.41-4.4c1.47-1.39.82-1.46,1.61-2.7.69-1.08,1.53-1.81,1-3.46-1-3.32,1.14-8,1.27-11.51-.37-.4-1.64-.27-1.8-1.33-.33-2.16.82-6,1.52-6.35.31-.16.67,0,1-.18,0-1.62-1.61-10.63-.39-11.09.76-.28,2.49-.43,2.82-.58,0-.38-.28-1.2-.6-1.25-.54-.07-1.64-.28-2.52-.48-2.69-.62-.2-11.24-.16-11.28.74-1,4.17.34,4.59-1.33,1.15-1.47-.89-7.11,3-14,1.32-2.35,3.86-4.72,6.81-3.71,1,.33.39,1.76,2.13.23a6.28,6.28,0,0,0-.61-2.36C128.21,3.1,138-1.58,144.89,3.35a7.38,7.38,0,0,1,1.8.9c.38,2,2.32,5.44.38,7.72a7.27,7.27,0,0,0-2.37,1,6.67,6.67,0,0,0,.24,2c.13.43.38.6-.26.86-.08,0-.05.29,0,.39a8.07,8.07,0,0,0,4.38-.72h1.28V13.91H151V12.65h.61v2.18h1.6v.7h23.68v1.22h1V12.26h.88v3.65h2V18h6.27v-.62h1v.28h3V19.4h-3v.27h-1v-.62h-6.27v.62H178v-.42h-1.18v1.26Z" fill="#633cff" fill-rule="evenodd"/>
</svg>
