<svg width="79" height="72" viewBox="0 0 79 72" fill="none" xmlns="http://www.w3.org/2000/svg">
<path d="M54.3128 13.4176C57.9487 13.4176 60.8962 10.4702 60.8962 6.83431C60.8962 3.19844 57.9487 0.250977 54.3128 0.250977C50.677 0.250977 47.7295 3.19844 47.7295 6.83431C47.7295 10.4702 50.677 13.4176 54.3128 13.4176Z" fill="#633CFF"/>
<path d="M78.9988 38.1052V22.6344L62.3759 15.5902C59.183 14.2406 55.4963 15.3927 53.653 18.3552L50.3613 23.6219C48.1559 27.5061 44.0742 30.4027 39.1367 31.2586L39.3342 31.4561C41.6055 33.7273 44.3376 34.9781 47.4317 35.3073C50.0651 33.9248 52.4351 32.0815 54.3113 29.909L56.2863 39.784L52.468 43.4048L49.3738 46.3344V48.8361V71.0219H55.9571V51.2719L62.8696 44.6886L68.7946 71.0219H75.7071L68.5313 34.8136L66.4905 24.6094L72.4155 26.9136V38.1052H78.9988Z" fill="#633CFF"/>
<path d="M33.8709 25.6297C34.5951 26.1234 35.418 26.4197 36.2409 26.5843C36.6689 26.6501 37.0639 26.7159 37.4918 26.7159C37.9197 26.7159 38.3476 26.683 38.7426 26.5843C39.1705 26.5184 39.5655 26.3868 39.9605 26.2222C40.7505 25.893 41.5076 25.4322 42.133 24.7739C43.7459 23.1609 44.3384 20.9226 43.9434 18.8489C43.713 17.6309 43.1205 16.413 42.133 15.4584C41.5076 14.833 40.7505 14.3393 39.9605 14.0101C39.5655 13.8455 39.1705 13.7139 38.7426 13.648C38.3147 13.5822 37.9197 13.5164 37.4918 13.5164C37.0968 13.5164 36.7347 13.5493 36.3397 13.6151C35.8789 13.6809 35.418 13.8126 34.9901 13.9772C34.233 14.3393 33.4759 14.833 32.8505 15.4584C31.863 16.413 31.2705 17.6309 31.0401 18.8489C30.6451 20.9226 31.2376 23.1609 32.8505 24.7739C33.1468 25.103 33.5089 25.3664 33.8709 25.6297Z" fill="#633CFF"/>
<path d="M36.9978 33.7601L30.4145 27.1767C30.0853 26.8476 29.7561 26.5842 29.3941 26.3209C28.6699 25.8601 27.847 25.5309 27.0241 25.3992C26.5961 25.3005 26.2011 25.2676 25.7732 25.2676C24.0945 25.2676 22.4157 25.9259 21.132 27.2097L10.1378 38.2038C8.78823 39.5534 8.09698 41.4297 8.22865 43.273C8.22865 43.8655 8.36031 44.4909 8.59073 45.0834L12.1128 54.7938L0.164062 66.7426L4.80531 71.4167L18.762 57.4601V50.1526L23.0411 54.1355V71.0217H29.6245V51.2717L22.6461 44.2934L30.4145 36.5251L32.7516 38.8622C36.9978 43.0097 42.5278 45.5772 49.3086 45.5772L48.8478 38.7634C43.9103 38.6976 39.9603 36.7226 36.9978 33.7601Z" fill="#633CFF"/>
</svg>
