<svg width="694" height="653" viewBox="0 0 694 653" fill="none" xmlns="http://www.w3.org/2000/svg">
<g clip-path="url(#clip0_28:945)">
<path d="M403.271 426.794V653H694V426.794H403.271ZM656.036 487.287H633.519V464.751H656.036V487.287Z" fill="#373746"/>
<path d="M378.887 426.794H0V485.926H378.887V426.794Z" fill="#373746"/>
<path d="M378.887 510.331H0V569.463H378.887V510.331Z" fill="#373746"/>
<path d="M378.887 593.867H0V653H378.887V593.867Z" fill="#373746"/>
<path d="M86.2812 141.455H67.5244V165.859H86.2812V141.455Z" fill="#373746"/>
<path d="M573.02 350.766V331.994H548.636V350.766H573.02Z" fill="#373746"/>
<path d="M266.309 510.331H378.887V569.463H232.199L266.309 510.331Z" fill="#633CFF"/>
<path d="M218.113 593.867H378.886V653H184.004L218.113 593.867Z" fill="#633CFF"/>
<path d="M278.417 290.65C276.802 289.03 275.199 287.356 273.652 285.676L275.331 284.128C276.857 285.788 278.438 287.439 280.031 289.037L278.417 290.65Z" fill="#3F3D56"/>
<path d="M264.586 274.963C261.723 271.282 258.981 267.439 256.436 263.539L258.345 262.29C260.857 266.137 263.562 269.929 266.387 273.56L264.586 274.963ZM249.259 251.478C247.045 247.379 244.975 243.135 243.107 238.864L245.197 237.948C247.039 242.162 249.081 246.348 251.266 250.392L249.259 251.478ZM238.02 225.784C236.515 221.382 235.172 216.856 234.027 212.331L236.239 211.771C237.367 216.236 238.693 220.701 240.178 225.044L238.02 225.784ZM233.391 198.217L231.142 198.596C230.368 193.993 229.775 189.309 229.379 184.676L231.653 184.482C232.043 189.054 232.627 193.675 233.391 198.217V198.217ZM231.044 170.652L228.763 170.658C228.751 165.997 228.934 161.28 229.306 156.635L231.581 156.818C231.213 161.4 231.032 166.054 231.044 170.652V170.652ZM233.261 143.076L231.011 142.705C231.768 138.105 232.728 133.479 233.864 128.955L236.077 129.511C234.955 133.975 234.008 138.538 233.261 143.076V143.076ZM538.706 77.0013C536.155 73.1829 533.41 69.4213 530.547 65.8203L532.332 64.3988C535.234 68.0489 538.017 71.8618 540.602 75.732L538.706 77.0013ZM240.004 116.227L237.845 115.49C239.349 111.081 241.056 106.678 242.92 102.402L245.011 103.315C243.172 107.534 241.487 111.878 240.004 116.227V116.227ZM521.493 55.3506C518.347 52.0024 515.021 48.7427 511.609 45.6625L513.137 43.9669C516.596 47.0892 519.966 50.3931 523.154 53.7866L521.493 55.3506ZM251.061 90.8581L249.052 89.7765C251.258 85.671 253.662 81.6076 256.196 77.6978L258.109 78.9399C255.609 82.7977 253.238 86.8073 251.061 90.8581ZM500.964 36.817C497.311 34.0258 493.498 31.3527 489.63 28.8719L490.862 26.9497C494.781 29.4643 498.646 32.1733 502.348 35.0017L500.964 36.817ZM266.108 67.64L264.302 66.2453C267.147 62.5567 270.18 58.9401 273.317 55.4964L275.003 57.0345C271.907 60.4327 268.915 64.0006 266.108 67.6399L266.108 67.64ZM477.685 21.8819C473.626 19.7252 469.427 17.7106 465.207 15.8949L466.107 13.7969C470.385 15.6378 474.64 17.6791 478.754 19.8649L477.685 21.8819ZM284.734 47.1971L283.181 45.5257C286.592 42.35 290.174 39.2803 293.829 36.4015L295.24 38.1958C291.634 41.0356 288.1 44.0642 284.734 47.1971ZM452.279 10.9539C447.916 9.48988 443.444 8.19212 438.988 7.09681L439.532 4.87911C444.049 5.98993 448.582 7.3055 453.004 8.78875L452.279 10.9539ZM306.45 30.0942L305.192 28.1899C309.076 25.6213 313.113 23.1848 317.192 20.9486L318.288 22.9512C314.264 25.1569 310.281 27.5602 306.45 30.0942ZM425.423 4.35228C420.887 3.62941 416.262 3.08826 411.678 2.74426L411.849 0.467934C416.496 0.816413 421.183 1.36469 425.782 2.09763L425.423 4.35228ZM330.685 16.8106L329.759 14.7241C334.009 12.8342 338.396 11.0978 342.797 9.56241L343.548 11.7184C339.206 13.2333 334.878 14.9463 330.685 16.8106ZM397.848 2.28291C393.263 2.31986 388.614 2.5498 384.03 2.96699L383.823 0.693018C388.469 0.270692 393.182 0.0370786 397.829 0L397.848 2.28291ZM356.787 7.70438L356.215 5.49407C360.716 4.32778 365.341 3.32985 369.922 2.53244L370.313 4.78213C365.789 5.56859 361.228 6.55396 356.787 7.70438Z" fill="#DFDFE1"/>
<path d="M549.165 94.991C548.154 92.9732 547.088 90.9484 545.996 88.9729L547.992 87.8672C549.099 89.8699 550.18 91.9225 551.203 93.9679L549.165 94.991Z" fill="#3F3D56"/>
<path d="M610.345 653L503.76 468.243L479.845 426.794L424.625 331.055L397.175 283.477L369.724 331.055L314.504 426.794L290.589 468.243L280.386 485.927H378.887V426.794H403.271V653H610.345ZM473.582 557.758C476.29 557.758 478.936 558.562 481.187 560.067C483.438 561.572 485.192 563.712 486.228 566.215C487.264 568.718 487.535 571.472 487.007 574.13C486.479 576.787 485.175 579.228 483.261 581.143C481.347 583.059 478.908 584.364 476.253 584.892C473.598 585.421 470.846 585.15 468.344 584.113C465.843 583.076 463.706 581.32 462.202 579.068C460.698 576.815 459.895 574.166 459.895 571.457C459.899 567.825 461.343 564.343 463.909 561.775C466.475 559.207 469.954 557.762 473.582 557.758ZM394.632 377.814L379.274 361.334L395.74 345.963L411.098 362.443L394.632 377.814Z" fill="#633CFF"/>
<path d="M379.698 246.794C385.998 246.794 391.104 241.683 391.104 235.378C391.104 229.074 385.998 223.963 379.698 223.963C373.399 223.963 368.292 229.074 368.292 235.378C368.292 241.683 373.399 246.794 379.698 246.794Z" fill="#F2F2F2"/>
<path d="M392.826 70.2306C370.97 74.4444 350.852 85.0502 335.018 100.707C319.184 116.363 308.345 136.368 303.871 158.19C299.396 180.012 301.488 202.672 309.881 223.304C318.275 243.936 332.593 261.614 351.025 274.102C369.457 286.591 391.175 293.328 413.433 293.463C435.691 293.597 457.489 287.123 476.071 274.859C494.653 262.595 509.183 245.092 517.825 224.563C526.468 204.033 528.833 181.4 524.623 159.526C521.827 145.001 516.201 131.171 508.064 118.823C499.928 106.475 489.441 95.8514 477.203 87.5596C464.964 79.2678 451.214 73.4697 436.737 70.4964C422.259 67.5231 407.338 67.4328 392.826 70.2306ZM382.287 248.83C379.628 249.342 376.878 249.054 374.383 248.002C371.888 246.95 369.761 245.182 368.271 242.92C366.781 240.658 365.994 238.005 366.01 235.296C366.027 232.586 366.845 229.943 368.363 227.699C369.881 225.455 372.029 223.713 374.536 222.691C377.043 221.669 379.797 221.415 382.449 221.959C385.101 222.504 387.532 223.823 389.434 225.751C391.337 227.678 392.626 230.127 393.138 232.787C393.82 236.354 393.061 240.047 391.027 243.054C388.992 246.062 385.849 248.139 382.287 248.83ZM458.124 148.879L436.014 153.142L431.754 131.013L453.865 126.75L458.124 148.879Z" fill="#F2F2F2"/>
<path d="M178.23 384.125C219.148 384.125 252.319 350.927 252.319 309.975C252.319 269.022 219.148 235.824 178.23 235.824C137.311 235.824 104.141 269.022 104.141 309.975C104.141 350.927 137.311 384.125 178.23 384.125Z" fill="#373746"/>
<path d="M149.616 411.517L127.467 407.504L134.651 361.219L156.799 365.232L149.616 411.517Z" fill="#373746"/>
<path d="M201.094 373.257L178.946 369.244L171.763 408.959L193.911 412.972L201.094 373.257Z" fill="#373746"/>
<path d="M201.012 428.09C203.523 425.123 199.15 417.286 191.245 410.586C183.34 403.886 174.896 400.859 172.386 403.826C169.875 406.793 174.248 414.629 182.153 421.33C190.058 428.03 198.502 431.057 201.012 428.09Z" fill="#373746"/>
<path d="M157.639 426.802C160.15 423.835 155.777 415.998 147.872 409.298C139.967 402.597 131.523 399.571 129.013 402.538C126.502 405.505 130.875 413.341 138.78 420.042C146.685 426.742 155.129 429.769 157.639 426.802Z" fill="#373746"/>
<path d="M183.417 317.179C197.402 317.179 208.739 305.833 208.739 291.837C208.739 277.84 197.402 266.494 183.417 266.494C169.433 266.494 158.096 277.84 158.096 291.837C158.096 305.833 169.433 317.179 183.417 317.179Z" fill="white"/>
<path d="M193.824 291.2C198.486 291.2 202.265 287.418 202.265 282.753C202.265 278.088 198.486 274.305 193.824 274.305C189.163 274.305 185.384 278.088 185.384 282.753C185.384 287.418 189.163 291.2 193.824 291.2Z" fill="#3F3D56"/>
<path d="M119.784 229.307C118.67 201.855 142.31 178.603 172.585 177.372C202.86 176.142 228.306 197.398 229.421 224.849C230.535 252.301 209.49 258.538 179.214 259.769C148.939 261 120.898 256.758 119.784 229.307Z" fill="#633CFF"/>
<path d="M249.239 307.81C269.181 303.236 284.184 294.448 282.749 288.182C281.314 281.916 263.985 280.546 244.043 285.121C224.101 289.695 209.098 298.483 210.533 304.749C211.968 311.014 229.297 312.385 249.239 307.81Z" fill="#373746"/>
<path d="M103.806 332.016C123.748 327.441 138.751 318.653 137.316 312.388C135.881 306.122 118.551 304.751 98.6091 309.326C78.6672 313.901 63.6643 322.689 65.0992 328.954C66.5342 335.22 83.8637 336.591 103.806 332.016Z" fill="#373746"/>
<path d="M157.881 339.196C157.486 341.38 157.525 343.619 157.995 345.787C158.465 347.956 159.357 350.01 160.62 351.833C163.172 355.515 167.08 358.033 171.485 358.831C175.891 359.629 180.433 358.643 184.112 356.09C187.791 353.536 190.306 349.625 191.104 345.215C192.764 336.034 185.671 332.785 176.497 331.123C167.323 329.461 159.542 330.015 157.881 339.196Z" fill="white"/>
</g>
<defs>
<clipPath id="clip0_28:945">
<rect width="694" height="653" fill="white"/>
</clipPath>
</defs>
</svg>
