<svg id="Layer_1" data-name="Layer 1" xmlns="http://www.w3.org/2000/svg" viewBox="0 0 722.83 212.6">
  <g>
    <path d="M6.44,205.59s-.08-56.38-.24-74.06q-.25-22.8-.63-54.14C5.33,56.49,5,32.12,4.46,7Q14.38,7.27,27,7c7.27,0,15.86.6,25.77.44s21.06.27,33.45-.06c-.17,3.14-.25,6.85-.25,11.15q-.24,5.7-.24,13.87V51.74c-2.32-.16-5.21-.25-8.68-.25-3,0-6.77,0-11.39.13s-10.08.21-16.36.37v9.17c0,3,0,6.61-.12,10.9s0,5.35.12,10.8H60.09c5.7,0,7.57-.16,17.15-.5v16c0,3.8-.68,15-.68,20.38s.08-.51.25,5.76c-2.15-.16-4.8-.25-7.93-.25h-6c-4.13,0-7,.09-12.82.25.17,7.44.29,20.36.38,28.62s.28,33.9.61,43.15Z" fill="#633cff"/>
    <path d="M136.21,154.1a3.6,3.6,0,0,0,2.85-1.6c.84-1.06,1.52-3.34,2.06-6.85a144.32,144.32,0,0,0,1.14-15.52q.35-10.27.34-27.86,0-16.67-.34-26.71a142.73,142.73,0,0,0-1.14-15.3q-.81-5.25-2.17-7a4,4,0,0,0-3.2-1.71,4.25,4.25,0,0,0-3.65,1.93q-1.36,1.95-2.06,7.65t-.91,16q-.23,10.28-.22,26.71,0,16.68.45,26.6c.3,6.62.72,11.69,1.25,15.18s1.26,5.79,2.17,6.85a4.33,4.33,0,0,0,3.43,1.6m-.46,31.28q-14.16,0-24-5.25a41.07,41.07,0,0,1-16-15.52q-6.18-10.28-9-25.35a188.82,188.82,0,0,1-2.86-34.93,239.2,239.2,0,0,1,2.29-34.59q2.27-15.64,8.1-26.95a44.23,44.23,0,0,1,15.76-17.58q9.93-6.27,25.45-6.28,15.76,0,25.92,5.82a41.06,41.06,0,0,1,16,16.79q5.82,11,8,26.71a264.6,264.6,0,0,1,2.17,35.85q-.22,22.38-3.42,37.9t-9.48,25.12a37,37,0,0,1-16,13.93q-9.7,4.32-22.95,4.33" fill="#633cff"/>
    <path d="M235.42,101.82a13.61,13.61,0,0,0,10.81-5.14q3.92-4.94,3.92-16.51,0-11.36-3.68-17.89t-11.76-5.9q0,8.58.11,16.61t.36,14.47q.24,7.5.24,14.36m18.77,86.34-4-16.16c-1.27-5.23-2.85-9.47-4.75-16.84s-4.12-15.64-6.65-24.83a1.39,1.39,0,0,1-1,.24h-2.37l1,51.08H210q-8.08,0-17.58.24.22-19,.47-43.95.24-21.39.36-51.32c.08-20,.85-41.09.85-66.28,7.13-1.26,32.75-.55,38.3-.55,22,0,32.22,1.31,42.43,11.37s19.54,23.78,19.54,43.58c0,10.45-1.1,19.16-4.66,26.13A47.2,47.2,0,0,1,275.1,118q1.42,4.76,7.13,22c3.8,11.48,9.34,25.23,16.63,45.34q-5,.24-11.65.71-5.7.48-14,1.07t-19,1.08" fill="#633cff"/>
    <path d="M388.33,179.17q.23-18,.24-42.18,0-20.73-.24-49.87c-.16-19.42.31-37.85,0-62.56,3.52-.16,32.12-5.95,38-6.28,2.08,6.34,5.24,14.34,8.12,22.63q3.6,10.74,8.89,26.09t12.23,34.87Q454.88,87,453.44,64.2c-1-15.2-2.32-26.61-4.07-47.91,3,.17,33,.21,39.12.05.15,13.33-.59,138.35.22,165.66-2.57.32-26.7,3-33.42,3.46q-3.6-10.25-8.16-23.41c-2.72-7.47-5.92-13.56-9.6-23.72l-12.24-33.78q.48,12.69,1.2,31t2.4,44.39q-4.8,0-11-.25-5.28-.24-12.84-.36t-16.68-.13" fill="#633cff"/>
    <path d="M498.62,188.05V138q0-23.29-.25-54.51c-.17-20.82-.41-34.48-.74-58.76H523q8.31,0,19.46-.25c0,16.36.08,25.06.24,43.89q.24,24,.38,55t.61,64.67H498.62Z" fill="#633cff"/>
    <path d="M546.55,73.46q.23-3.46.23-9.42,0-5-.11-13.13t-.35-20.32s76.11-2.71,91.24-3c-.15,3.47-.31,9.4-.46,13.7q-.24,5.7-.35,13.75c-.07,5.37,0,7.42.12,14.36h-6.49c-2.16,0-4.75,0-7.75-.13s-6.45-.12-10.31-.12V92.4c0,8.59,0,22.32.12,33s.19,10.8.34,23.68.31,27.26.47,43.12q-4.41-.25-10.42-.25-5.34,0-13.09.13t-18.18.37q.23-15.36.23-35.44c0-11.4,0-13.48-.11-29.5s-.2-34.11-.35-54.27Z" fill="#633cff"/>
    <path d="M295.05,61.54c.16-2.31.25-5.45.25-9.42q0-4.95-.13-13.13t-.37-20.32s73.43,5.08,90.33,7.5c-.17,3.47-.32,11.54-.41,16.91s0,19,.13,26h-6.94c-2.31,0-1.66,0-4.88-.13s-6.9-.12-11-.12V92.1c0,8.6,0,10.69.12,21.35s.21,12.16.38,25,.33,27.25.49,43.11c-3.14-.16-6.85-.25-11.15-.25q-5.7,0-14,.13t-19.45.37q.24-15.36.25-35.43c0-11.4,0-14.85-.12-30.88s-.21-34.1-.38-54.26Z" fill="#633cff"/>
    <path d="M643.09,194.92c-.16-14.37,1.74-33.89,1.59-51.73q-.24-23-.57-54.26c-.23-20.82-.5-47.2-.8-72.31,4.27,0,60.72-6.73,74.61-6.9V45.44c0,5.37.15,5.8.45,12.24q-6.4.26-12.58.25-5.26.26-11.1.25c-3.89,0-7.36.09-10.42.25q-.22,4.95-.11,9c.08,2.73.11,10.64.11,12.78v6.69q1.38,0,8,.13t20.38-.38v25.15c0,5,.07,5.15.22,11.26h-8c-2.59,0-5.57,0-8.92-.13s-7-.12-10.76-.12v6c0,4,.23,14.72.68,21.33,2.45.16,5.35.33,8.7.49l10.07.62q6,.38,13.28.62c-.16,2.81-.23,6.28-.23,10.41q-.23,5.21-.23,12.88v24.93c-6.72-.17-64.76-5-74.37-5.16" fill="#633cff"/>
  </g>
</svg>
