<svg width="830" height="144" viewBox="0 0 830 144" fill="none" xmlns="http://www.w3.org/2000/svg">
<path d="M293.5 58.75C272.11 58.75 254.75 76.11 254.75 97.5C254.75 118.89 272.11 136.25 293.5 136.25C314.89 136.25 332.25 118.89 332.25 97.5C332.25 76.11 314.89 58.75 293.5 58.75ZM285.75 116.875L266.375 97.5L271.839 92.0363L285.75 105.909L315.161 76.4975L320.625 82L285.75 116.875Z" fill="#B0F7B0"/>
<path fill-rule="evenodd" clip-rule="evenodd" d="M783.5 136C804.763 136 822 118.763 822 97.5C822 76.237 804.763 59 783.5 59C762.237 59 745 76.237 745 97.5C745 118.763 762.237 136 783.5 136ZM783.908 107.299V116H793.195V107.299H798V99.7988H793.195V73.9883H783.586L769.201 99.5059V107.299H783.908ZM783.908 99.7988H776.877L783.908 86.9668V99.7988Z" fill="#B0F7B0"/>
<path d="M538.5 58.75C517.11 58.75 499.75 76.11 499.75 97.5C499.75 118.89 517.11 136.25 538.5 136.25C559.89 136.25 577.25 118.89 577.25 97.5C577.25 76.11 559.89 58.75 538.5 58.75ZM530.75 116.875L511.375 97.5L516.839 92.0363L530.75 105.909L560.161 76.4975L565.625 82L530.75 116.875Z" fill="#B0F7B0"/>
<line x1="107" y1="96" x2="235" y2="96" stroke="#B0F7B0" stroke-width="4" stroke-linecap="round"/>
<line x1="351" y1="97" x2="481" y2="97" stroke="#9B9BA2" stroke-width="2" stroke-linecap="round"/>
<line x1="596" y1="97" x2="726" y2="97" stroke="#9B9BA2" stroke-width="2" stroke-linecap="round"/>
<path d="M48.5 58.75C27.11 58.75 9.75 76.11 9.75 97.5C9.75 118.89 27.11 136.25 48.5 136.25C69.89 136.25 87.25 118.89 87.25 97.5C87.25 76.11 69.89 58.75 48.5 58.75ZM40.75 116.875L21.375 97.5L26.8387 92.0363L40.75 105.909L70.1613 76.4975L75.625 82L40.75 116.875Z" fill="#B0F7B0"/>
<path d="M14.2247 5.72C15.7314 5.72 16.898 6.10667 17.7247 6.88C18.5514 7.64 18.9647 8.69333 18.9647 10.04C18.9647 11.4 18.5514 12.4667 17.7247 13.24C16.898 14 15.7314 14.38 14.2247 14.38H10.0047V20H8.20469V5.72H14.2247ZM13.9647 12.84C14.978 12.84 15.758 12.6067 16.3047 12.14C16.8514 11.66 17.1247 10.96 17.1247 10.04C17.1247 9.12 16.8514 8.42667 16.3047 7.96C15.758 7.48 14.978 7.24 13.9647 7.24H10.0047V12.84H13.9647ZM30.4417 17C30.1484 17.92 29.6217 18.6933 28.8617 19.32C28.1017 19.9333 27.0551 20.24 25.7217 20.24C24.7751 20.24 23.9351 20.0133 23.2017 19.56C22.4684 19.1067 21.8951 18.4667 21.4817 17.64C21.0817 16.8 20.8817 15.8333 20.8817 14.74C20.8817 13.6467 21.0817 12.6867 21.4817 11.86C21.8817 11.02 22.4417 10.3733 23.1617 9.92C23.8951 9.46667 24.7417 9.24 25.7017 9.24C26.6751 9.24 27.5351 9.48 28.2817 9.96C29.0417 10.4267 29.6217 11.1067 30.0217 12C30.4217 12.88 30.5884 13.9267 30.5217 15.14H22.5817C22.6084 16.2467 22.9084 17.1467 23.4817 17.84C24.0551 18.52 24.8017 18.86 25.7217 18.86C26.5751 18.86 27.2417 18.6533 27.7217 18.24C28.2151 17.8267 28.5551 17.34 28.7417 16.78L30.4417 17ZM25.7017 10.62C24.8084 10.62 24.0884 10.9267 23.5417 11.54C23.0084 12.1533 22.7017 12.9133 22.6217 13.82H28.8017C28.7217 12.9133 28.4084 12.1533 27.8617 11.54C27.3151 10.9267 26.5951 10.62 25.7017 10.62ZM33.4563 9.48H35.0563V11.28H35.1163C35.3963 10.6533 35.8229 10.16 36.3963 9.8C36.9696 9.42667 37.6429 9.24 38.4163 9.24C38.7229 9.24 39.0229 9.26667 39.3163 9.32V10.94C38.8763 10.9 38.5496 10.88 38.3363 10.88C37.3629 10.88 36.5829 11.18 35.9963 11.78C35.4229 12.38 35.1363 13.3 35.1363 14.54V20H33.4563V9.48ZM48.0989 12.54C47.9656 11.9267 47.6522 11.4467 47.1589 11.1C46.6656 10.74 46.0922 10.56 45.4389 10.56C44.7456 10.56 44.1922 10.7133 43.7789 11.02C43.3656 11.3267 43.1589 11.74 43.1589 12.26C43.1589 12.7267 43.3456 13.0667 43.7189 13.28C44.0922 13.4933 44.6256 13.66 45.3189 13.78L46.4389 13.96C47.5322 14.1467 48.3789 14.4533 48.9789 14.88C49.5922 15.2933 49.8989 15.9933 49.8989 16.98C49.8989 18.02 49.4922 18.8267 48.6789 19.4C47.8789 19.96 46.8456 20.24 45.5789 20.24C44.3122 20.24 43.2656 19.94 42.4389 19.34C41.6256 18.74 41.1456 17.9467 40.9989 16.96L42.5389 16.62C42.6856 17.3667 43.0322 17.94 43.5789 18.34C44.1256 18.7267 44.7989 18.92 45.5989 18.92C46.3589 18.92 46.9789 18.7533 47.4589 18.42C47.9389 18.0733 48.1789 17.6133 48.1789 17.04C48.1789 16.5333 47.9789 16.1667 47.5789 15.94C47.1922 15.7133 46.5989 15.5267 45.7989 15.38L44.6989 15.18C43.6989 15.0067 42.9056 14.7133 42.3189 14.3C41.7322 13.8867 41.4389 13.2133 41.4389 12.28C41.4389 11.6933 41.6056 11.1667 41.9389 10.7C42.2856 10.2333 42.7656 9.87333 43.3789 9.62C43.9922 9.36667 44.6856 9.24 45.4589 9.24C46.1789 9.24 46.8389 9.37333 47.4389 9.64C48.0522 9.90667 48.5456 10.2667 48.9189 10.72C49.3056 11.1733 49.5456 11.6667 49.6389 12.2L48.0989 12.54ZM57.1117 9.24C58.0984 9.24 58.9651 9.46667 59.7117 9.92C60.4717 10.3733 61.0584 11.0133 61.4717 11.84C61.8851 12.6667 62.0917 13.6333 62.0917 14.74C62.0917 15.8467 61.8851 16.8133 61.4717 17.64C61.0584 18.4667 60.4717 19.1067 59.7117 19.56C58.9651 20.0133 58.0984 20.24 57.1117 20.24C56.1251 20.24 55.2517 20.0133 54.4917 19.56C53.7451 19.1067 53.1651 18.4667 52.7517 17.64C52.3384 16.8133 52.1317 15.8467 52.1317 14.74C52.1317 13.6333 52.3384 12.6667 52.7517 11.84C53.1651 11.0133 53.7451 10.3733 54.4917 9.92C55.2517 9.46667 56.1251 9.24 57.1117 9.24ZM57.1117 18.86C58.0984 18.86 58.8851 18.4933 59.4717 17.76C60.0717 17.0133 60.3717 16.0067 60.3717 14.74C60.3717 13.4733 60.0717 12.4733 59.4717 11.74C58.8851 10.9933 58.0984 10.62 57.1117 10.62C56.1251 10.62 55.3317 10.9933 54.7317 11.74C54.1451 12.4733 53.8517 13.4733 53.8517 14.74C53.8517 16.0067 54.1451 17.0133 54.7317 17.76C55.3317 18.4933 56.1251 18.86 57.1117 18.86ZM66.6188 9.48V10.98H66.6788C66.9988 10.4333 67.4521 10.0067 68.0388 9.7C68.6254 9.39333 69.2788 9.24 69.9988 9.24C71.0788 9.24 71.9721 9.56 72.6788 10.2C73.3854 10.84 73.7388 11.7667 73.7388 12.98V20H72.0588V13.56C72.0588 12.5467 71.8521 11.8133 71.4388 11.36C71.0388 10.8933 70.4121 10.66 69.5588 10.66C69.0521 10.66 68.5788 10.7867 68.1388 11.04C67.7121 11.2933 67.3654 11.6867 67.0988 12.22C66.8321 12.74 66.6988 13.3867 66.6988 14.16V20H65.0188V9.48H66.6188ZM85.4081 18.68C85.6081 18.68 85.8081 18.6467 86.0081 18.58V20C85.8348 20.0667 85.4948 20.1 84.9881 20.1C84.4415 20.1 84.0215 19.9867 83.7281 19.76C83.4481 19.5333 83.2815 19.18 83.2281 18.7H83.1681C82.8081 19.2333 82.3015 19.6267 81.6481 19.88C80.9948 20.12 80.3215 20.24 79.6281 20.24C79.0281 20.24 78.4815 20.1133 77.9881 19.86C77.4948 19.6067 77.1015 19.2467 76.8081 18.78C76.5148 18.3 76.3681 17.7533 76.3681 17.14C76.3681 16.0467 76.7281 15.26 77.4481 14.78C78.1815 14.2867 79.2481 13.9533 80.6481 13.78C81.3415 13.6867 81.8681 13.5933 82.2281 13.5C82.5881 13.3933 82.8348 13.2667 82.9681 13.12C83.1148 12.9733 83.1881 12.7733 83.1881 12.52C83.1881 11.9333 83.0015 11.4733 82.6281 11.14C82.2548 10.8067 81.6748 10.64 80.8881 10.64C80.2881 10.64 79.7481 10.7933 79.2681 11.1C78.8015 11.4067 78.4748 11.9067 78.2881 12.6L76.7481 12.22C76.9881 11.26 77.4815 10.5267 78.2281 10.02C78.9881 9.5 79.8948 9.24 80.9481 9.24C82.2948 9.24 83.2815 9.53333 83.9081 10.12C84.5481 10.7067 84.8681 11.4933 84.8681 12.48V18C84.8681 18.2533 84.9148 18.4333 85.0081 18.54C85.1015 18.6333 85.2348 18.68 85.4081 18.68ZM83.1881 14.38C83.0415 14.5533 82.7548 14.6867 82.3281 14.78C81.9148 14.8733 81.3015 14.9733 80.4881 15.08C79.8215 15.1733 79.2548 15.3867 78.7881 15.72C78.3215 16.04 78.0881 16.5067 78.0881 17.12C78.0881 17.6667 78.2548 18.1 78.5881 18.42C78.9215 18.7267 79.3748 18.88 79.9481 18.88C80.4548 18.88 80.9548 18.78 81.4481 18.58C81.9415 18.38 82.3548 18.0533 82.6881 17.6C83.0215 17.1333 83.1881 16.5333 83.1881 15.8V14.38ZM89.9214 20H88.2414V5.52H89.9214V20ZM6.95961 44.24C6.03961 44.24 5.21961 44.0133 4.49961 43.56C3.77961 43.1067 3.21961 42.4667 2.81961 41.64C2.41961 40.8 2.21961 39.8333 2.21961 38.74C2.21961 37.6467 2.41961 36.6867 2.81961 35.86C3.21961 35.02 3.77961 34.3733 4.49961 33.92C5.21961 33.4667 6.03961 33.24 6.95961 33.24C7.73294 33.24 8.42628 33.4067 9.03961 33.74C9.65294 34.06 10.1063 34.5067 10.3996 35.08H10.4596V33.48H12.0596V47.68H10.3796V42.48H10.3196C10.0396 43.0267 9.59961 43.46 8.99961 43.78C8.39961 44.0867 7.71961 44.24 6.95961 44.24ZM7.23961 34.62C6.23961 34.62 5.43961 34.9933 4.83961 35.74C4.23961 36.4733 3.93961 37.4733 3.93961 38.74C3.93961 40.0067 4.23961 41.0133 4.83961 41.76C5.43961 42.4933 6.23961 42.86 7.23961 42.86C8.21294 42.86 8.99961 42.4933 9.59961 41.76C10.1996 41.0133 10.4996 40.0067 10.4996 38.74C10.4996 37.4733 10.1996 36.4733 9.59961 35.74C8.99961 34.9933 8.21294 34.62 7.23961 34.62ZM22.5782 44V42.5H22.5182C22.1849 43.0467 21.7249 43.4733 21.1382 43.78C20.5515 44.0867 19.8982 44.24 19.1782 44.24C18.0982 44.24 17.2049 43.92 16.4982 43.28C15.8049 42.64 15.4582 41.7133 15.4582 40.5V33.48H17.1382V39.92C17.1382 40.9333 17.3382 41.6733 17.7382 42.14C18.1382 42.5933 18.7649 42.82 19.6182 42.82C20.4182 42.82 21.0982 42.5267 21.6582 41.94C22.2182 41.34 22.4982 40.4667 22.4982 39.32V33.48H24.1782V44H22.5782ZM36.4476 41C36.1542 41.92 35.6276 42.6933 34.8676 43.32C34.1076 43.9333 33.0609 44.24 31.7276 44.24C30.7809 44.24 29.9409 44.0133 29.2076 43.56C28.4742 43.1067 27.9009 42.4667 27.4876 41.64C27.0876 40.8 26.8876 39.8333 26.8876 38.74C26.8876 37.6467 27.0876 36.6867 27.4876 35.86C27.8876 35.02 28.4476 34.3733 29.1676 33.92C29.9009 33.4667 30.7476 33.24 31.7076 33.24C32.6809 33.24 33.5409 33.48 34.2876 33.96C35.0476 34.4267 35.6276 35.1067 36.0276 36C36.4276 36.88 36.5942 37.9267 36.5276 39.14H28.5876C28.6142 40.2467 28.9142 41.1467 29.4876 41.84C30.0609 42.52 30.8076 42.86 31.7276 42.86C32.5809 42.86 33.2476 42.6533 33.7276 42.24C34.2209 41.8267 34.5609 41.34 34.7476 40.78L36.4476 41ZM31.7076 34.62C30.8142 34.62 30.0942 34.9267 29.5476 35.54C29.0142 36.1533 28.7076 36.9133 28.6276 37.82H34.8076C34.7276 36.9133 34.4142 36.1533 33.8676 35.54C33.3209 34.9267 32.6009 34.62 31.7076 34.62ZM45.8821 36.54C45.7488 35.9267 45.4354 35.4467 44.9421 35.1C44.4488 34.74 43.8754 34.56 43.2221 34.56C42.5288 34.56 41.9754 34.7133 41.5621 35.02C41.1488 35.3267 40.9421 35.74 40.9421 36.26C40.9421 36.7267 41.1288 37.0667 41.5021 37.28C41.8754 37.4933 42.4088 37.66 43.1021 37.78L44.2221 37.96C45.3154 38.1467 46.1621 38.4533 46.7621 38.88C47.3754 39.2933 47.6821 39.9933 47.6821 40.98C47.6821 42.02 47.2754 42.8267 46.4621 43.4C45.6621 43.96 44.6288 44.24 43.3621 44.24C42.0954 44.24 41.0488 43.94 40.2221 43.34C39.4088 42.74 38.9288 41.9467 38.7821 40.96L40.3221 40.62C40.4688 41.3667 40.8154 41.94 41.3621 42.34C41.9088 42.7267 42.5821 42.92 43.3821 42.92C44.1421 42.92 44.7621 42.7533 45.2421 42.42C45.7221 42.0733 45.9621 41.6133 45.9621 41.04C45.9621 40.5333 45.7621 40.1667 45.3621 39.94C44.9754 39.7133 44.3821 39.5267 43.5821 39.38L42.4821 39.18C41.4821 39.0067 40.6888 38.7133 40.1021 38.3C39.5154 37.8867 39.2221 37.2133 39.2221 36.28C39.2221 35.6933 39.3888 35.1667 39.7221 34.7C40.0688 34.2333 40.5488 33.8733 41.1621 33.62C41.7754 33.3667 42.4688 33.24 43.2421 33.24C43.9621 33.24 44.6221 33.3733 45.2221 33.64C45.8354 33.9067 46.3288 34.2667 46.7021 34.72C47.0888 35.1733 47.3288 35.6667 47.4221 36.2L45.8821 36.54ZM53.9559 42.8C54.1692 42.8 54.3892 42.78 54.6159 42.74C54.8425 42.6867 55.0159 42.6333 55.1359 42.58V44C55.0159 44.0667 54.8092 44.12 54.5159 44.16C54.2359 44.2133 53.9559 44.24 53.6759 44.24C52.7825 44.24 52.1359 44.06 51.7359 43.7C51.3359 43.3267 51.1359 42.7 51.1359 41.82V34.78H49.3759V33.48H51.1359V30.46H52.8159V33.48H55.2359V34.78H52.8159V41.64C52.8159 42.0667 52.8959 42.3667 53.0559 42.54C53.2292 42.7133 53.5292 42.8 53.9559 42.8ZM59.7149 44H58.0349V33.48H59.7149V44ZM59.7349 31.44H58.0149V29.52H59.7349V31.44ZM67.5512 33.24C68.5378 33.24 69.4045 33.4667 70.1512 33.92C70.9112 34.3733 71.4978 35.0133 71.9112 35.84C72.3245 36.6667 72.5312 37.6333 72.5312 38.74C72.5312 39.8467 72.3245 40.8133 71.9112 41.64C71.4978 42.4667 70.9112 43.1067 70.1512 43.56C69.4045 44.0133 68.5378 44.24 67.5512 44.24C66.5645 44.24 65.6912 44.0133 64.9312 43.56C64.1845 43.1067 63.6045 42.4667 63.1912 41.64C62.7778 40.8133 62.5712 39.8467 62.5712 38.74C62.5712 37.6333 62.7778 36.6667 63.1912 35.84C63.6045 35.0133 64.1845 34.3733 64.9312 33.92C65.6912 33.4667 66.5645 33.24 67.5512 33.24ZM67.5512 42.86C68.5378 42.86 69.3245 42.4933 69.9112 41.76C70.5112 41.0133 70.8112 40.0067 70.8112 38.74C70.8112 37.4733 70.5112 36.4733 69.9112 35.74C69.3245 34.9933 68.5378 34.62 67.5512 34.62C66.5645 34.62 65.7712 34.9933 65.1712 35.74C64.5845 36.4733 64.2912 37.4733 64.2912 38.74C64.2912 40.0067 64.5845 41.0133 65.1712 41.76C65.7712 42.4933 66.5645 42.86 67.5512 42.86ZM77.0582 33.48V34.98H77.1182C77.4382 34.4333 77.8915 34.0067 78.4782 33.7C79.0649 33.3933 79.7182 33.24 80.4382 33.24C81.5182 33.24 82.4115 33.56 83.1182 34.2C83.8249 34.84 84.1782 35.7667 84.1782 36.98V44H82.4982V37.56C82.4982 36.5467 82.2915 35.8133 81.8782 35.36C81.4782 34.8933 80.8515 34.66 79.9982 34.66C79.4915 34.66 79.0182 34.7867 78.5782 35.04C78.1515 35.2933 77.8049 35.6867 77.5382 36.22C77.2715 36.74 77.1382 37.3867 77.1382 38.16V44H75.4582V33.48H77.0582ZM93.9876 36.54C93.8542 35.9267 93.5409 35.4467 93.0476 35.1C92.5542 34.74 91.9809 34.56 91.3276 34.56C90.6342 34.56 90.0809 34.7133 89.6676 35.02C89.2542 35.3267 89.0476 35.74 89.0476 36.26C89.0476 36.7267 89.2342 37.0667 89.6076 37.28C89.9809 37.4933 90.5142 37.66 91.2076 37.78L92.3276 37.96C93.4209 38.1467 94.2676 38.4533 94.8676 38.88C95.4809 39.2933 95.7876 39.9933 95.7876 40.98C95.7876 42.02 95.3809 42.8267 94.5676 43.4C93.7676 43.96 92.7342 44.24 91.4676 44.24C90.2009 44.24 89.1542 43.94 88.3276 43.34C87.5142 42.74 87.0342 41.9467 86.8876 40.96L88.4276 40.62C88.5742 41.3667 88.9209 41.94 89.4676 42.34C90.0142 42.7267 90.6876 42.92 91.4876 42.92C92.2476 42.92 92.8676 42.7533 93.3476 42.42C93.8276 42.0733 94.0676 41.6133 94.0676 41.04C94.0676 40.5333 93.8676 40.1667 93.4676 39.94C93.0809 39.7133 92.4876 39.5267 91.6876 39.38L90.5876 39.18C89.5876 39.0067 88.7942 38.7133 88.2076 38.3C87.6209 37.8867 87.3276 37.2133 87.3276 36.28C87.3276 35.6933 87.4942 35.1667 87.8276 34.7C88.1742 34.2333 88.6542 33.8733 89.2676 33.62C89.8809 33.3667 90.5742 33.24 91.3476 33.24C92.0676 33.24 92.7276 33.3733 93.3276 33.64C93.9409 33.9067 94.4342 34.2667 94.8076 34.72C95.1942 35.1733 95.4342 35.6667 95.5276 36.2L93.9876 36.54Z" fill="#B0F7B0"/>
<path d="M252.811 5.72H264.271V7.28H259.431V20H257.631V7.28H252.811V5.72ZM273.23 9.48H275.05L270.97 20C270.53 21.12 270.117 21.96 269.73 22.52C269.343 23.0933 268.957 23.4667 268.57 23.64C268.197 23.8267 267.743 23.92 267.21 23.92C266.797 23.92 266.41 23.8867 266.05 23.82V22.34C266.33 22.42 266.637 22.46 266.97 22.46C267.317 22.46 267.603 22.4 267.83 22.28C268.057 22.1733 268.27 21.9733 268.47 21.68C268.67 21.3867 268.883 20.9533 269.11 20.38L269.31 19.88L265.07 9.48H266.91L270.11 17.9H270.17L273.23 9.48ZM282.599 20.24C281.839 20.24 281.159 20.0867 280.559 19.78C279.959 19.46 279.519 19.0267 279.239 18.48H279.179V23.68H277.499V9.48H279.099V11.08H279.159C279.453 10.5067 279.906 10.06 280.519 9.74C281.133 9.40667 281.826 9.24 282.599 9.24C283.519 9.24 284.339 9.46667 285.059 9.92C285.779 10.3733 286.339 11.02 286.739 11.86C287.139 12.6867 287.339 13.6467 287.339 14.74C287.339 15.8333 287.139 16.8 286.739 17.64C286.339 18.4667 285.779 19.1067 285.059 19.56C284.339 20.0133 283.519 20.24 282.599 20.24ZM282.319 10.62C281.346 10.62 280.559 10.9933 279.959 11.74C279.359 12.4733 279.059 13.4733 279.059 14.74C279.059 16.0067 279.359 17.0133 279.959 17.76C280.559 18.4933 281.346 18.86 282.319 18.86C283.319 18.86 284.119 18.4933 284.719 17.76C285.319 17.0133 285.619 16.0067 285.619 14.74C285.619 13.4733 285.319 12.4733 284.719 11.74C284.119 10.9933 283.319 10.62 282.319 10.62ZM299.133 17C298.84 17.92 298.313 18.6933 297.553 19.32C296.793 19.9333 295.746 20.24 294.413 20.24C293.466 20.24 292.626 20.0133 291.893 19.56C291.16 19.1067 290.586 18.4667 290.173 17.64C289.773 16.8 289.573 15.8333 289.573 14.74C289.573 13.6467 289.773 12.6867 290.173 11.86C290.573 11.02 291.133 10.3733 291.853 9.92C292.586 9.46667 293.433 9.24 294.393 9.24C295.366 9.24 296.226 9.48 296.973 9.96C297.733 10.4267 298.313 11.1067 298.713 12C299.113 12.88 299.28 13.9267 299.213 15.14H291.273C291.3 16.2467 291.6 17.1467 292.173 17.84C292.746 18.52 293.493 18.86 294.413 18.86C295.266 18.86 295.933 18.6533 296.413 18.24C296.906 17.8267 297.246 17.34 297.433 16.78L299.133 17ZM294.393 10.62C293.5 10.62 292.78 10.9267 292.233 11.54C291.7 12.1533 291.393 12.9133 291.313 13.82H297.493C297.413 12.9133 297.1 12.1533 296.553 11.54C296.006 10.9267 295.286 10.62 294.393 10.62ZM308.568 12.54C308.434 11.9267 308.121 11.4467 307.628 11.1C307.134 10.74 306.561 10.56 305.908 10.56C305.214 10.56 304.661 10.7133 304.248 11.02C303.834 11.3267 303.628 11.74 303.628 12.26C303.628 12.7267 303.814 13.0667 304.188 13.28C304.561 13.4933 305.094 13.66 305.788 13.78L306.908 13.96C308.001 14.1467 308.848 14.4533 309.448 14.88C310.061 15.2933 310.368 15.9933 310.368 16.98C310.368 18.02 309.961 18.8267 309.148 19.4C308.348 19.96 307.314 20.24 306.048 20.24C304.781 20.24 303.734 19.94 302.908 19.34C302.094 18.74 301.614 17.9467 301.468 16.96L303.008 16.62C303.154 17.3667 303.501 17.94 304.048 18.34C304.594 18.7267 305.268 18.92 306.068 18.92C306.828 18.92 307.448 18.7533 307.928 18.42C308.408 18.0733 308.648 17.6133 308.648 17.04C308.648 16.5333 308.448 16.1667 308.048 15.94C307.661 15.7133 307.068 15.5267 306.268 15.38L305.168 15.18C304.168 15.0067 303.374 14.7133 302.788 14.3C302.201 13.8867 301.908 13.2133 301.908 12.28C301.908 11.6933 302.074 11.1667 302.408 10.7C302.754 10.2333 303.234 9.87333 303.848 9.62C304.461 9.36667 305.154 9.24 305.928 9.24C306.648 9.24 307.308 9.37333 307.908 9.64C308.521 9.90667 309.014 10.2667 309.388 10.72C309.774 11.1733 310.014 11.6667 310.108 12.2L308.568 12.54ZM322.678 9.24C323.665 9.24 324.531 9.46667 325.278 9.92C326.038 10.3733 326.625 11.0133 327.038 11.84C327.451 12.6667 327.658 13.6333 327.658 14.74C327.658 15.8467 327.451 16.8133 327.038 17.64C326.625 18.4667 326.038 19.1067 325.278 19.56C324.531 20.0133 323.665 20.24 322.678 20.24C321.691 20.24 320.818 20.0133 320.058 19.56C319.311 19.1067 318.731 18.4667 318.318 17.64C317.905 16.8133 317.698 15.8467 317.698 14.74C317.698 13.6333 317.905 12.6667 318.318 11.84C318.731 11.0133 319.311 10.3733 320.058 9.92C320.818 9.46667 321.691 9.24 322.678 9.24ZM322.678 18.86C323.665 18.86 324.451 18.4933 325.038 17.76C325.638 17.0133 325.938 16.0067 325.938 14.74C325.938 13.4733 325.638 12.4733 325.038 11.74C324.451 10.9933 323.665 10.62 322.678 10.62C321.691 10.62 320.898 10.9933 320.298 11.74C319.711 12.4733 319.418 13.4733 319.418 14.74C319.418 16.0067 319.711 17.0133 320.298 17.76C320.898 18.4933 321.691 18.86 322.678 18.86ZM334.011 6.7C333.571 6.7 333.225 6.78667 332.971 6.96C332.718 7.13333 332.591 7.49333 332.591 8.04V9.48H335.011V10.78H332.591V20H330.911V10.78H329.151V9.48H330.911V7.88C330.911 6.14667 331.858 5.28 333.751 5.28C334.405 5.28 334.918 5.34667 335.291 5.48V6.86C334.825 6.75333 334.398 6.7 334.011 6.7ZM270.826 33.48H272.426V43.28C272.426 44.8667 271.993 46.0333 271.126 46.78C270.259 47.54 269.099 47.92 267.646 47.92C266.486 47.92 265.493 47.66 264.666 47.14C263.853 46.62 263.286 45.8333 262.966 44.78L264.566 44.4C264.779 45.1467 265.146 45.6867 265.666 46.02C266.186 46.3667 266.846 46.54 267.646 46.54C269.713 46.54 270.746 45.4267 270.746 43.2V41.78H270.686C270.419 42.2867 269.993 42.6867 269.406 42.98C268.819 43.2733 268.159 43.42 267.426 43.42C266.519 43.42 265.713 43.2133 265.006 42.8C264.313 42.3733 263.766 41.7733 263.366 41C262.979 40.2267 262.786 39.34 262.786 38.34C262.786 37.3267 262.979 36.4333 263.366 35.66C263.766 34.8867 264.313 34.2933 265.006 33.88C265.713 33.4533 266.519 33.24 267.426 33.24C268.173 33.24 268.846 33.3933 269.446 33.7C270.046 34.0067 270.486 34.4267 270.766 34.96H270.826V33.48ZM267.706 42.08C268.319 42.08 268.866 41.9267 269.346 41.62C269.826 41.3 270.199 40.86 270.466 40.3C270.733 39.7267 270.866 39.0733 270.866 38.34C270.866 37.2333 270.573 36.34 269.986 35.66C269.399 34.9667 268.639 34.62 267.706 34.62C266.746 34.62 265.973 34.96 265.386 35.64C264.799 36.32 264.506 37.22 264.506 38.34C264.506 39.46 264.799 40.3667 265.386 41.06C265.973 41.74 266.746 42.08 267.706 42.08ZM284.109 42.68C284.309 42.68 284.509 42.6467 284.709 42.58V44C284.536 44.0667 284.196 44.1 283.689 44.1C283.143 44.1 282.723 43.9867 282.429 43.76C282.149 43.5333 281.983 43.18 281.929 42.7H281.869C281.509 43.2333 281.003 43.6267 280.349 43.88C279.696 44.12 279.023 44.24 278.329 44.24C277.729 44.24 277.183 44.1133 276.689 43.86C276.196 43.6067 275.803 43.2467 275.509 42.78C275.216 42.3 275.069 41.7533 275.069 41.14C275.069 40.0467 275.429 39.26 276.149 38.78C276.883 38.2867 277.949 37.9533 279.349 37.78C280.043 37.6867 280.569 37.5933 280.929 37.5C281.289 37.3933 281.536 37.2667 281.669 37.12C281.816 36.9733 281.889 36.7733 281.889 36.52C281.889 35.9333 281.703 35.4733 281.329 35.14C280.956 34.8067 280.376 34.64 279.589 34.64C278.989 34.64 278.449 34.7933 277.969 35.1C277.503 35.4067 277.176 35.9067 276.989 36.6L275.449 36.22C275.689 35.26 276.183 34.5267 276.929 34.02C277.689 33.5 278.596 33.24 279.649 33.24C280.996 33.24 281.983 33.5333 282.609 34.12C283.249 34.7067 283.569 35.4933 283.569 36.48V42C283.569 42.2533 283.616 42.4333 283.709 42.54C283.803 42.6333 283.936 42.68 284.109 42.68ZM281.889 38.38C281.743 38.5533 281.456 38.6867 281.029 38.78C280.616 38.8733 280.003 38.9733 279.189 39.08C278.523 39.1733 277.956 39.3867 277.489 39.72C277.023 40.04 276.789 40.5067 276.789 41.12C276.789 41.6667 276.956 42.1 277.289 42.42C277.623 42.7267 278.076 42.88 278.649 42.88C279.156 42.88 279.656 42.78 280.149 42.58C280.643 42.38 281.056 42.0533 281.389 41.6C281.723 41.1333 281.889 40.5333 281.889 39.8V38.38ZM298.243 33.24C298.883 33.24 299.463 33.38 299.983 33.66C300.516 33.94 300.936 34.36 301.243 34.92C301.563 35.48 301.723 36.1667 301.723 36.98V44H300.043V37.56C300.043 36.5467 299.856 35.8133 299.483 35.36C299.109 34.8933 298.536 34.66 297.763 34.66C297.043 34.66 296.429 34.9467 295.923 35.52C295.416 36.0933 295.163 36.9467 295.163 38.08V44H293.483V37.56C293.483 36.5467 293.296 35.8133 292.923 35.36C292.563 34.8933 291.996 34.66 291.223 34.66C290.503 34.66 289.889 34.96 289.383 35.56C288.876 36.1467 288.623 37.0133 288.623 38.16V44H286.943V33.48H288.543V34.98H288.603C288.923 34.4333 289.356 34.0067 289.903 33.7C290.449 33.3933 291.043 33.24 291.683 33.24C292.363 33.24 292.969 33.3933 293.503 33.7C294.049 34.0067 294.469 34.46 294.763 35.06C295.616 33.8467 296.776 33.24 298.243 33.24ZM313.987 41C313.693 41.92 313.167 42.6933 312.407 43.32C311.647 43.9333 310.6 44.24 309.267 44.24C308.32 44.24 307.48 44.0133 306.747 43.56C306.013 43.1067 305.44 42.4667 305.027 41.64C304.627 40.8 304.427 39.8333 304.427 38.74C304.427 37.6467 304.627 36.6867 305.027 35.86C305.427 35.02 305.987 34.3733 306.707 33.92C307.44 33.4667 308.287 33.24 309.247 33.24C310.22 33.24 311.08 33.48 311.827 33.96C312.587 34.4267 313.167 35.1067 313.567 36C313.967 36.88 314.133 37.9267 314.067 39.14H306.127C306.153 40.2467 306.453 41.1467 307.027 41.84C307.6 42.52 308.347 42.86 309.267 42.86C310.12 42.86 310.787 42.6533 311.267 42.24C311.76 41.8267 312.1 41.34 312.287 40.78L313.987 41ZM309.247 34.62C308.353 34.62 307.633 34.9267 307.087 35.54C306.553 36.1533 306.247 36.9133 306.167 37.82H312.347C312.267 36.9133 311.953 36.1533 311.407 35.54C310.86 34.9267 310.14 34.62 309.247 34.62ZM323.421 36.54C323.288 35.9267 322.975 35.4467 322.481 35.1C321.988 34.74 321.415 34.56 320.761 34.56C320.068 34.56 319.515 34.7133 319.101 35.02C318.688 35.3267 318.481 35.74 318.481 36.26C318.481 36.7267 318.668 37.0667 319.041 37.28C319.415 37.4933 319.948 37.66 320.641 37.78L321.761 37.96C322.855 38.1467 323.701 38.4533 324.301 38.88C324.915 39.2933 325.221 39.9933 325.221 40.98C325.221 42.02 324.815 42.8267 324.001 43.4C323.201 43.96 322.168 44.24 320.901 44.24C319.635 44.24 318.588 43.94 317.761 43.34C316.948 42.74 316.468 41.9467 316.321 40.96L317.861 40.62C318.008 41.3667 318.355 41.94 318.901 42.34C319.448 42.7267 320.121 42.92 320.921 42.92C321.681 42.92 322.301 42.7533 322.781 42.42C323.261 42.0733 323.501 41.6133 323.501 41.04C323.501 40.5333 323.301 40.1667 322.901 39.94C322.515 39.7133 321.921 39.5267 321.121 39.38L320.021 39.18C319.021 39.0067 318.228 38.7133 317.641 38.3C317.055 37.8867 316.761 37.2133 316.761 36.28C316.761 35.6933 316.928 35.1667 317.261 34.7C317.608 34.2333 318.088 33.8733 318.701 33.62C319.315 33.3667 320.008 33.24 320.781 33.24C321.501 33.24 322.161 33.3733 322.761 33.64C323.375 33.9067 323.868 34.2667 324.241 34.72C324.628 35.1733 324.868 35.6667 324.961 36.2L323.421 36.54Z" fill="#B0F7B0"/>
<path d="M515.586 15.48C515.399 16.3067 515.046 17.0867 514.526 17.82C514.019 18.5533 513.339 19.1533 512.486 19.62C511.646 20.0733 510.666 20.3 509.546 20.3C508.266 20.3 507.126 20 506.126 19.4C505.126 18.8 504.346 17.94 503.786 16.82C503.239 15.6867 502.966 14.36 502.966 12.84C502.966 11.3333 503.239 10.02 503.786 8.9C504.346 7.78 505.126 6.92 506.126 6.32C507.126 5.72 508.266 5.42 509.546 5.42C510.599 5.42 511.526 5.62667 512.326 6.04C513.126 6.44 513.773 6.93333 514.266 7.52C514.759 8.10667 515.113 8.68667 515.326 9.26L513.566 9.66C513.246 8.88667 512.739 8.24 512.046 7.72C511.366 7.2 510.533 6.94 509.546 6.94C508.599 6.94 507.766 7.17333 507.046 7.64C506.339 8.10667 505.786 8.78667 505.386 9.68C504.999 10.56 504.806 11.6133 504.806 12.84C504.806 14.08 504.999 15.1467 505.386 16.04C505.786 16.9333 506.339 17.6133 507.046 18.08C507.766 18.5467 508.599 18.78 509.546 18.78C510.679 18.78 511.599 18.4467 512.306 17.78C513.026 17.1 513.519 16.2467 513.786 15.22L515.586 15.48ZM520.263 5.52V10.98H520.323C520.657 10.4333 521.11 10.0067 521.683 9.7C522.27 9.39333 522.91 9.24 523.603 9.24C524.67 9.24 525.55 9.56 526.243 10.2C526.95 10.84 527.303 11.7667 527.303 12.98V20H525.623V13.56C525.623 12.5467 525.417 11.8133 525.003 11.36C524.603 10.8933 523.977 10.66 523.123 10.66C522.643 10.66 522.183 10.8 521.743 11.08C521.303 11.36 520.943 11.7733 520.663 12.32C520.397 12.8667 520.263 13.52 520.263 14.28V20H518.583V5.52H520.263ZM534.993 9.24C535.979 9.24 536.846 9.46667 537.593 9.92C538.353 10.3733 538.939 11.0133 539.353 11.84C539.766 12.6667 539.973 13.6333 539.973 14.74C539.973 15.8467 539.766 16.8133 539.353 17.64C538.939 18.4667 538.353 19.1067 537.593 19.56C536.846 20.0133 535.979 20.24 534.993 20.24C534.006 20.24 533.133 20.0133 532.373 19.56C531.626 19.1067 531.046 18.4667 530.633 17.64C530.219 16.8133 530.013 15.8467 530.013 14.74C530.013 13.6333 530.219 12.6667 530.633 11.84C531.046 11.0133 531.626 10.3733 532.373 9.92C533.133 9.46667 534.006 9.24 534.993 9.24ZM534.993 18.86C535.979 18.86 536.766 18.4933 537.353 17.76C537.953 17.0133 538.253 16.0067 538.253 14.74C538.253 13.4733 537.953 12.4733 537.353 11.74C536.766 10.9933 535.979 10.62 534.993 10.62C534.006 10.62 533.213 10.9933 532.613 11.74C532.026 12.4733 531.733 13.4733 531.733 14.74C531.733 16.0067 532.026 17.0133 532.613 17.76C533.213 18.4933 534.006 18.86 534.993 18.86ZM547.2 9.24C548.186 9.24 549.053 9.46667 549.8 9.92C550.56 10.3733 551.146 11.0133 551.56 11.84C551.973 12.6667 552.18 13.6333 552.18 14.74C552.18 15.8467 551.973 16.8133 551.56 17.64C551.146 18.4667 550.56 19.1067 549.8 19.56C549.053 20.0133 548.186 20.24 547.2 20.24C546.213 20.24 545.34 20.0133 544.58 19.56C543.833 19.1067 543.253 18.4667 542.84 17.64C542.426 16.8133 542.22 15.8467 542.22 14.74C542.22 13.6333 542.426 12.6667 542.84 11.84C543.253 11.0133 543.833 10.3733 544.58 9.92C545.34 9.46667 546.213 9.24 547.2 9.24ZM547.2 18.86C548.186 18.86 548.973 18.4933 549.56 17.76C550.16 17.0133 550.46 16.0067 550.46 14.74C550.46 13.4733 550.16 12.4733 549.56 11.74C548.973 10.9933 548.186 10.62 547.2 10.62C546.213 10.62 545.42 10.9933 544.82 11.74C544.233 12.4733 543.94 13.4733 543.94 14.74C543.94 16.0067 544.233 17.0133 544.82 17.76C545.42 18.4933 546.213 18.86 547.2 18.86ZM561.527 12.54C561.393 11.9267 561.08 11.4467 560.587 11.1C560.093 10.74 559.52 10.56 558.867 10.56C558.173 10.56 557.62 10.7133 557.207 11.02C556.793 11.3267 556.587 11.74 556.587 12.26C556.587 12.7267 556.773 13.0667 557.147 13.28C557.52 13.4933 558.053 13.66 558.747 13.78L559.867 13.96C560.96 14.1467 561.807 14.4533 562.407 14.88C563.02 15.2933 563.327 15.9933 563.327 16.98C563.327 18.02 562.92 18.8267 562.107 19.4C561.307 19.96 560.273 20.24 559.007 20.24C557.74 20.24 556.693 19.94 555.867 19.34C555.053 18.74 554.573 17.9467 554.427 16.96L555.967 16.62C556.113 17.3667 556.46 17.94 557.007 18.34C557.553 18.7267 558.227 18.92 559.027 18.92C559.787 18.92 560.407 18.7533 560.887 18.42C561.367 18.0733 561.607 17.6133 561.607 17.04C561.607 16.5333 561.407 16.1667 561.007 15.94C560.62 15.7133 560.027 15.5267 559.227 15.38L558.127 15.18C557.127 15.0067 556.333 14.7133 555.747 14.3C555.16 13.8867 554.867 13.2133 554.867 12.28C554.867 11.6933 555.033 11.1667 555.367 10.7C555.713 10.2333 556.193 9.87333 556.807 9.62C557.42 9.36667 558.113 9.24 558.887 9.24C559.607 9.24 560.267 9.37333 560.867 9.64C561.48 9.90667 561.973 10.2667 562.347 10.72C562.733 11.1733 562.973 11.6667 563.067 12.2L561.527 12.54ZM575.119 17C574.826 17.92 574.299 18.6933 573.539 19.32C572.779 19.9333 571.733 20.24 570.399 20.24C569.453 20.24 568.613 20.0133 567.879 19.56C567.146 19.1067 566.573 18.4667 566.159 17.64C565.759 16.8 565.559 15.8333 565.559 14.74C565.559 13.6467 565.759 12.6867 566.159 11.86C566.559 11.02 567.119 10.3733 567.839 9.92C568.573 9.46667 569.419 9.24 570.379 9.24C571.353 9.24 572.213 9.48 572.959 9.96C573.719 10.4267 574.299 11.1067 574.699 12C575.099 12.88 575.266 13.9267 575.199 15.14H567.259C567.286 16.2467 567.586 17.1467 568.159 17.84C568.733 18.52 569.479 18.86 570.399 18.86C571.253 18.86 571.919 18.6533 572.399 18.24C572.893 17.8267 573.233 17.34 573.419 16.78L575.119 17ZM570.379 10.62C569.486 10.62 568.766 10.9267 568.219 11.54C567.686 12.1533 567.379 12.9133 567.299 13.82H573.479C573.399 12.9133 573.086 12.1533 572.539 11.54C571.993 10.9267 571.273 10.62 570.379 10.62ZM515.826 33.48H517.426V43.28C517.426 44.8667 516.993 46.0333 516.126 46.78C515.259 47.54 514.099 47.92 512.646 47.92C511.486 47.92 510.493 47.66 509.666 47.14C508.853 46.62 508.286 45.8333 507.966 44.78L509.566 44.4C509.779 45.1467 510.146 45.6867 510.666 46.02C511.186 46.3667 511.846 46.54 512.646 46.54C514.713 46.54 515.746 45.4267 515.746 43.2V41.78H515.686C515.419 42.2867 514.993 42.6867 514.406 42.98C513.819 43.2733 513.159 43.42 512.426 43.42C511.519 43.42 510.713 43.2133 510.006 42.8C509.313 42.3733 508.766 41.7733 508.366 41C507.979 40.2267 507.786 39.34 507.786 38.34C507.786 37.3267 507.979 36.4333 508.366 35.66C508.766 34.8867 509.313 34.2933 510.006 33.88C510.713 33.4533 511.519 33.24 512.426 33.24C513.173 33.24 513.846 33.3933 514.446 33.7C515.046 34.0067 515.486 34.4267 515.766 34.96H515.826V33.48ZM512.706 42.08C513.319 42.08 513.866 41.9267 514.346 41.62C514.826 41.3 515.199 40.86 515.466 40.3C515.733 39.7267 515.866 39.0733 515.866 38.34C515.866 37.2333 515.573 36.34 514.986 35.66C514.399 34.9667 513.639 34.62 512.706 34.62C511.746 34.62 510.973 34.96 510.386 35.64C509.799 36.32 509.506 37.22 509.506 38.34C509.506 39.46 509.799 40.3667 510.386 41.06C510.973 41.74 511.746 42.08 512.706 42.08ZM529.109 42.68C529.309 42.68 529.509 42.6467 529.709 42.58V44C529.536 44.0667 529.196 44.1 528.689 44.1C528.143 44.1 527.723 43.9867 527.429 43.76C527.149 43.5333 526.983 43.18 526.929 42.7H526.869C526.509 43.2333 526.003 43.6267 525.349 43.88C524.696 44.12 524.023 44.24 523.329 44.24C522.729 44.24 522.183 44.1133 521.689 43.86C521.196 43.6067 520.803 43.2467 520.509 42.78C520.216 42.3 520.069 41.7533 520.069 41.14C520.069 40.0467 520.429 39.26 521.149 38.78C521.883 38.2867 522.949 37.9533 524.349 37.78C525.043 37.6867 525.569 37.5933 525.929 37.5C526.289 37.3933 526.536 37.2667 526.669 37.12C526.816 36.9733 526.889 36.7733 526.889 36.52C526.889 35.9333 526.703 35.4733 526.329 35.14C525.956 34.8067 525.376 34.64 524.589 34.64C523.989 34.64 523.449 34.7933 522.969 35.1C522.503 35.4067 522.176 35.9067 521.989 36.6L520.449 36.22C520.689 35.26 521.183 34.5267 521.929 34.02C522.689 33.5 523.596 33.24 524.649 33.24C525.996 33.24 526.983 33.5333 527.609 34.12C528.249 34.7067 528.569 35.4933 528.569 36.48V42C528.569 42.2533 528.616 42.4333 528.709 42.54C528.803 42.6333 528.936 42.68 529.109 42.68ZM526.889 38.38C526.743 38.5533 526.456 38.6867 526.029 38.78C525.616 38.8733 525.003 38.9733 524.189 39.08C523.523 39.1733 522.956 39.3867 522.489 39.72C522.023 40.04 521.789 40.5067 521.789 41.12C521.789 41.6667 521.956 42.1 522.289 42.42C522.623 42.7267 523.076 42.88 523.649 42.88C524.156 42.88 524.656 42.78 525.149 42.58C525.643 42.38 526.056 42.0533 526.389 41.6C526.723 41.1333 526.889 40.5333 526.889 39.8V38.38ZM543.243 33.24C543.883 33.24 544.463 33.38 544.983 33.66C545.516 33.94 545.936 34.36 546.243 34.92C546.563 35.48 546.723 36.1667 546.723 36.98V44H545.043V37.56C545.043 36.5467 544.856 35.8133 544.483 35.36C544.109 34.8933 543.536 34.66 542.763 34.66C542.043 34.66 541.429 34.9467 540.923 35.52C540.416 36.0933 540.163 36.9467 540.163 38.08V44H538.483V37.56C538.483 36.5467 538.296 35.8133 537.923 35.36C537.563 34.8933 536.996 34.66 536.223 34.66C535.503 34.66 534.889 34.96 534.383 35.56C533.876 36.1467 533.623 37.0133 533.623 38.16V44H531.943V33.48H533.543V34.98H533.603C533.923 34.4333 534.356 34.0067 534.903 33.7C535.449 33.3933 536.043 33.24 536.683 33.24C537.363 33.24 537.969 33.3933 538.503 33.7C539.049 34.0067 539.469 34.46 539.763 35.06C540.616 33.8467 541.776 33.24 543.243 33.24ZM558.987 41C558.693 41.92 558.167 42.6933 557.407 43.32C556.647 43.9333 555.6 44.24 554.267 44.24C553.32 44.24 552.48 44.0133 551.747 43.56C551.013 43.1067 550.44 42.4667 550.027 41.64C549.627 40.8 549.427 39.8333 549.427 38.74C549.427 37.6467 549.627 36.6867 550.027 35.86C550.427 35.02 550.987 34.3733 551.707 33.92C552.44 33.4667 553.287 33.24 554.247 33.24C555.22 33.24 556.08 33.48 556.827 33.96C557.587 34.4267 558.167 35.1067 558.567 36C558.967 36.88 559.133 37.9267 559.067 39.14H551.127C551.153 40.2467 551.453 41.1467 552.027 41.84C552.6 42.52 553.347 42.86 554.267 42.86C555.12 42.86 555.787 42.6533 556.267 42.24C556.76 41.8267 557.1 41.34 557.287 40.78L558.987 41ZM554.247 34.62C553.353 34.62 552.633 34.9267 552.087 35.54C551.553 36.1533 551.247 36.9133 551.167 37.82H557.347C557.267 36.9133 556.953 36.1533 556.407 35.54C555.86 34.9267 555.14 34.62 554.247 34.62ZM568.421 36.54C568.288 35.9267 567.975 35.4467 567.481 35.1C566.988 34.74 566.415 34.56 565.761 34.56C565.068 34.56 564.515 34.7133 564.101 35.02C563.688 35.3267 563.481 35.74 563.481 36.26C563.481 36.7267 563.668 37.0667 564.041 37.28C564.415 37.4933 564.948 37.66 565.641 37.78L566.761 37.96C567.855 38.1467 568.701 38.4533 569.301 38.88C569.915 39.2933 570.221 39.9933 570.221 40.98C570.221 42.02 569.815 42.8267 569.001 43.4C568.201 43.96 567.168 44.24 565.901 44.24C564.635 44.24 563.588 43.94 562.761 43.34C561.948 42.74 561.468 41.9467 561.321 40.96L562.861 40.62C563.008 41.3667 563.355 41.94 563.901 42.34C564.448 42.7267 565.121 42.92 565.921 42.92C566.681 42.92 567.301 42.7533 567.781 42.42C568.261 42.0733 568.501 41.6133 568.501 41.04C568.501 40.5333 568.301 40.1667 567.901 39.94C567.515 39.7133 566.921 39.5267 566.121 39.38L565.021 39.18C564.021 39.0067 563.228 38.7133 562.641 38.3C562.055 37.8867 561.761 37.2133 561.761 36.28C561.761 35.6933 561.928 35.1667 562.261 34.7C562.608 34.2333 563.088 33.8733 563.701 33.62C564.315 33.3667 565.008 33.24 565.781 33.24C566.501 33.24 567.161 33.3733 567.761 33.64C568.375 33.9067 568.868 34.2667 569.241 34.72C569.628 35.1733 569.868 35.6667 569.961 36.2L568.421 36.54Z" fill="#B0F7B0"/>
<path d="M746.225 5.72C747.731 5.72 748.898 6.10667 749.725 6.88C750.551 7.64 750.965 8.69333 750.965 10.04C750.965 11.4 750.551 12.4667 749.725 13.24C748.898 14 747.731 14.38 746.225 14.38H742.005V20H740.205V5.72H746.225ZM745.965 12.84C746.978 12.84 747.758 12.6067 748.305 12.14C748.851 11.66 749.125 10.96 749.125 10.04C749.125 9.12 748.851 8.42667 748.305 7.96C747.758 7.48 746.978 7.24 745.965 7.24H742.005V12.84H745.965ZM762.442 17C762.148 17.92 761.622 18.6933 760.862 19.32C760.102 19.9333 759.055 20.24 757.722 20.24C756.775 20.24 755.935 20.0133 755.202 19.56C754.468 19.1067 753.895 18.4667 753.482 17.64C753.082 16.8 752.882 15.8333 752.882 14.74C752.882 13.6467 753.082 12.6867 753.482 11.86C753.882 11.02 754.442 10.3733 755.162 9.92C755.895 9.46667 756.742 9.24 757.702 9.24C758.675 9.24 759.535 9.48 760.282 9.96C761.042 10.4267 761.622 11.1067 762.022 12C762.422 12.88 762.588 13.9267 762.522 15.14H754.582C754.608 16.2467 754.908 17.1467 755.482 17.84C756.055 18.52 756.802 18.86 757.722 18.86C758.575 18.86 759.242 18.6533 759.722 18.24C760.215 17.8267 760.555 17.34 760.742 16.78L762.442 17ZM757.702 10.62C756.808 10.62 756.088 10.9267 755.542 11.54C755.008 12.1533 754.702 12.9133 754.622 13.82H760.802C760.722 12.9133 760.408 12.1533 759.862 11.54C759.315 10.9267 758.595 10.62 757.702 10.62ZM765.456 9.48H767.056V11.28H767.116C767.396 10.6533 767.823 10.16 768.396 9.8C768.97 9.42667 769.643 9.24 770.416 9.24C770.723 9.24 771.023 9.26667 771.316 9.32V10.94C770.876 10.9 770.55 10.88 770.336 10.88C769.363 10.88 768.583 11.18 767.996 11.78C767.423 12.38 767.136 13.3 767.136 14.54V20H765.456V9.48ZM780.099 12.54C779.966 11.9267 779.652 11.4467 779.159 11.1C778.666 10.74 778.092 10.56 777.439 10.56C776.746 10.56 776.192 10.7133 775.779 11.02C775.366 11.3267 775.159 11.74 775.159 12.26C775.159 12.7267 775.346 13.0667 775.719 13.28C776.092 13.4933 776.626 13.66 777.319 13.78L778.439 13.96C779.532 14.1467 780.379 14.4533 780.979 14.88C781.592 15.2933 781.899 15.9933 781.899 16.98C781.899 18.02 781.492 18.8267 780.679 19.4C779.879 19.96 778.846 20.24 777.579 20.24C776.312 20.24 775.266 19.94 774.439 19.34C773.626 18.74 773.146 17.9467 772.999 16.96L774.539 16.62C774.686 17.3667 775.032 17.94 775.579 18.34C776.126 18.7267 776.799 18.92 777.599 18.92C778.359 18.92 778.979 18.7533 779.459 18.42C779.939 18.0733 780.179 17.6133 780.179 17.04C780.179 16.5333 779.979 16.1667 779.579 15.94C779.192 15.7133 778.599 15.5267 777.799 15.38L776.699 15.18C775.699 15.0067 774.906 14.7133 774.319 14.3C773.732 13.8867 773.439 13.2133 773.439 12.28C773.439 11.6933 773.606 11.1667 773.939 10.7C774.286 10.2333 774.766 9.87333 775.379 9.62C775.992 9.36667 776.686 9.24 777.459 9.24C778.179 9.24 778.839 9.37333 779.439 9.64C780.052 9.90667 780.546 10.2667 780.919 10.72C781.306 11.1733 781.546 11.6667 781.639 12.2L780.099 12.54ZM789.112 9.24C790.098 9.24 790.965 9.46667 791.712 9.92C792.472 10.3733 793.058 11.0133 793.472 11.84C793.885 12.6667 794.092 13.6333 794.092 14.74C794.092 15.8467 793.885 16.8133 793.472 17.64C793.058 18.4667 792.472 19.1067 791.712 19.56C790.965 20.0133 790.098 20.24 789.112 20.24C788.125 20.24 787.252 20.0133 786.492 19.56C785.745 19.1067 785.165 18.4667 784.752 17.64C784.338 16.8133 784.132 15.8467 784.132 14.74C784.132 13.6333 784.338 12.6667 784.752 11.84C785.165 11.0133 785.745 10.3733 786.492 9.92C787.252 9.46667 788.125 9.24 789.112 9.24ZM789.112 18.86C790.098 18.86 790.885 18.4933 791.472 17.76C792.072 17.0133 792.372 16.0067 792.372 14.74C792.372 13.4733 792.072 12.4733 791.472 11.74C790.885 10.9933 790.098 10.62 789.112 10.62C788.125 10.62 787.332 10.9933 786.732 11.74C786.145 12.4733 785.852 13.4733 785.852 14.74C785.852 16.0067 786.145 17.0133 786.732 17.76C787.332 18.4933 788.125 18.86 789.112 18.86ZM798.619 9.48V10.98H798.679C798.999 10.4333 799.452 10.0067 800.039 9.7C800.625 9.39333 801.279 9.24 801.999 9.24C803.079 9.24 803.972 9.56 804.679 10.2C805.385 10.84 805.739 11.7667 805.739 12.98V20H804.059V13.56C804.059 12.5467 803.852 11.8133 803.439 11.36C803.039 10.8933 802.412 10.66 801.559 10.66C801.052 10.66 800.579 10.7867 800.139 11.04C799.712 11.2933 799.365 11.6867 799.099 12.22C798.832 12.74 798.699 13.3867 798.699 14.16V20H797.019V9.48H798.619ZM817.408 18.68C817.608 18.68 817.808 18.6467 818.008 18.58V20C817.835 20.0667 817.495 20.1 816.988 20.1C816.441 20.1 816.021 19.9867 815.728 19.76C815.448 19.5333 815.281 19.18 815.228 18.7H815.168C814.808 19.2333 814.301 19.6267 813.648 19.88C812.995 20.12 812.321 20.24 811.628 20.24C811.028 20.24 810.481 20.1133 809.988 19.86C809.495 19.6067 809.101 19.2467 808.808 18.78C808.515 18.3 808.368 17.7533 808.368 17.14C808.368 16.0467 808.728 15.26 809.448 14.78C810.181 14.2867 811.248 13.9533 812.648 13.78C813.341 13.6867 813.868 13.5933 814.228 13.5C814.588 13.3933 814.835 13.2667 814.968 13.12C815.115 12.9733 815.188 12.7733 815.188 12.52C815.188 11.9333 815.001 11.4733 814.628 11.14C814.255 10.8067 813.675 10.64 812.888 10.64C812.288 10.64 811.748 10.7933 811.268 11.1C810.801 11.4067 810.475 11.9067 810.288 12.6L808.748 12.22C808.988 11.26 809.481 10.5267 810.228 10.02C810.988 9.5 811.895 9.24 812.948 9.24C814.295 9.24 815.281 9.53333 815.908 10.12C816.548 10.7067 816.868 11.4933 816.868 12.48V18C816.868 18.2533 816.915 18.4333 817.008 18.54C817.101 18.6333 817.235 18.68 817.408 18.68ZM815.188 14.38C815.041 14.5533 814.755 14.6867 814.328 14.78C813.915 14.8733 813.301 14.9733 812.488 15.08C811.821 15.1733 811.255 15.3867 810.788 15.72C810.321 16.04 810.088 16.5067 810.088 17.12C810.088 17.6667 810.255 18.1 810.588 18.42C810.921 18.7267 811.375 18.88 811.948 18.88C812.455 18.88 812.955 18.78 813.448 18.58C813.941 18.38 814.355 18.0533 814.688 17.6C815.021 17.1333 815.188 16.5333 815.188 15.8V14.38ZM821.921 20H820.241V5.52H821.921V20ZM766.256 44H764.576V33.48H766.256V44ZM766.276 31.44H764.556V29.52H766.276V31.44ZM771.392 33.48V34.98H771.452C771.772 34.4333 772.226 34.0067 772.812 33.7C773.399 33.3933 774.052 33.24 774.772 33.24C775.852 33.24 776.746 33.56 777.452 34.2C778.159 34.84 778.512 35.7667 778.512 36.98V44H776.832V37.56C776.832 36.5467 776.626 35.8133 776.212 35.36C775.812 34.8933 775.186 34.66 774.332 34.66C773.826 34.66 773.352 34.7867 772.912 35.04C772.486 35.2933 772.139 35.6867 771.872 36.22C771.606 36.74 771.472 37.3867 771.472 38.16V44H769.792V33.48H771.392ZM785.503 30.7C785.063 30.7 784.717 30.7867 784.463 30.96C784.21 31.1333 784.083 31.4933 784.083 32.04V33.48H786.503V34.78H784.083V44H782.403V34.78H780.643V33.48H782.403V31.88C782.403 30.1467 783.35 29.28 785.243 29.28C785.897 29.28 786.41 29.3467 786.783 29.48V30.86C786.317 30.7533 785.89 30.7 785.503 30.7ZM793.057 33.24C794.044 33.24 794.91 33.4667 795.657 33.92C796.417 34.3733 797.004 35.0133 797.417 35.84C797.83 36.6667 798.037 37.6333 798.037 38.74C798.037 39.8467 797.83 40.8133 797.417 41.64C797.004 42.4667 796.417 43.1067 795.657 43.56C794.91 44.0133 794.044 44.24 793.057 44.24C792.07 44.24 791.197 44.0133 790.437 43.56C789.69 43.1067 789.11 42.4667 788.697 41.64C788.284 40.8133 788.077 39.8467 788.077 38.74C788.077 37.6333 788.284 36.6667 788.697 35.84C789.11 35.0133 789.69 34.3733 790.437 33.92C791.197 33.4667 792.07 33.24 793.057 33.24ZM793.057 42.86C794.044 42.86 794.83 42.4933 795.417 41.76C796.017 41.0133 796.317 40.0067 796.317 38.74C796.317 37.4733 796.017 36.4733 795.417 35.74C794.83 34.9933 794.044 34.62 793.057 34.62C792.07 34.62 791.277 34.9933 790.677 35.74C790.09 36.4733 789.797 37.4733 789.797 38.74C789.797 40.0067 790.09 41.0133 790.677 41.76C791.277 42.4933 792.07 42.86 793.057 42.86Z" fill="#B0F7B0"/>
</svg>
