<svg id="Layer_1" data-name="Layer 1" xmlns="http://www.w3.org/2000/svg" viewBox="0 0 365 245">
  <g>
    <path d="M316.31,65.4,304.8,71.92V26.33h11.51Zm23-47.77A47.62,47.62,0,0,1,310.61,3.2C303.4,11.76,289.51,18,276,18c5,3.23,5.77,6.67,5.77,11.23V72.56a12.77,12.77,0,0,1-5.15,10.89,14.7,14.7,0,0,1,5.15,10.82V108c8.89,11.1,29.6,16.44,29.6,16.44-4.35-4.22-6.47-11.06-6.47-15.46V83.85l25.5,43.06L365,137.7h0c-4.16-4.42-33.56-53.16-41.14-65.85l15.45-8.34V17.63Z" fill="#633cff"/>
    <path d="M167.31,56.25s-.49-7.17,5.13-11.32H139.06c4.25,3,5.25,7.7,5.25,12.47v54.82c6,7.37,22.51,14.28,31.81,12.5,0,0-8.81-3.77-8.81-13.81V56.25Z" fill="#633cff"/>
    <path d="M201.78,35.23h12.34L244.64,18H174.87l-32,17.26h35.92l0,83.11s21.85-.52,28-8.17a16.59,16.59,0,0,1-5-11.4V35.23Z" fill="#633cff"/>
    <path d="M247.74,65.52l-11.49,6.55V49.91l11.5-6.4Zm23,12.16c0-3.15.6-8.46,4.33-12.07a13.26,13.26,0,0,1-4.33-9.55V44.45c0-4.55.94-7,4.33-9.21L254.72,23.87,208.47,49.5s4.8,2.22,4.8,6.06l0,18.74c0,4.07-1.87,6.87-4.94,9.15a12,12,0,0,1,4.94,9.32v18.75c4.81,4.59,13.17,10.71,24.34,12.56a33.12,33.12,0,0,0,7.13.63s-8.49-6-8.49-13.94c0-7.24,0-28.47,0-28.47l11.48-6.24,0,41.43s20.44-1,27.6-8.79c-1.44-1.3-4.58-5.49-4.58-9.25Z" fill="#633cff"/>
    <path d="M98.67,212.47V182.58c0-5.06,1.9-7.65,4.94-10.58-3-2.93-4.94-6-4.94-12V142.69c0-3.23.88-7.31,5-9.88h-28V172l-11.54,6.41v-45.6H34.59c5.44,3.41,6.54,8.85,6.54,13V174c0,6.42-1,10.7-6.32,15.88,5.45,5.26,6.32,9.35,6.32,15.77,0,0,0,19.85,0,22.41,0,4.95-1.33,10.83-6.51,14.08h29.6V190l11.48-6.25V223h28c-4.1-2.57-5-5.57-5-10.55" fill="#633cff"/>
    <path d="M282.77,206.07H271.22V141.72h11.55Zm22.93-51V132.81c-11.14-1.36-21.07-7.13-28.39-14.64-7.49,7.67-17.68,13.51-29.11,14.73V175c0,5.66-.27,10.7-5.62,14.87,5.45,4.06,5.62,9.24,5.62,14.53v10.62A47.68,47.68,0,0,1,277,230.15a47.63,47.63,0,0,1,28.7-15.07V187.54A21.14,21.14,0,0,1,312.27,172c-3.7-3.2-6.57-7.1-6.57-17" fill="#633cff"/>
    <path d="M213.67,172l-11.51,6.41V141.72h11.51Zm7.15,8.23L236.69,172V132.81a47.62,47.62,0,0,1-28.59-14.42c-8.17,8.61-20.86,13.84-33.74,14.42,4.19,2.44,4.82,4.94,4.82,9.33v18a16,16,0,0,1-4.82,12c3.78,3.32,4.82,7.27,4.82,11.43v21.32c0,4.43-1.16,7.68-4.94,10.05h33.09c-4.2-2.92-5-6.7-5-10.59V190.07l19.36,34.75,37,16.63s-30.23-48.51-37.81-61.22" fill="#633cff"/>
    <path d="M133.2,141.82h11.56v30.29l-11.56,6.3Zm5.67,88.31A47.73,47.73,0,0,1,167.66,215V182l-22.85,11.82v12.22h-11.6V189.91L167.66,172V132.81a46.69,46.69,0,0,1-28.79-14.44,48.86,48.86,0,0,1-28.68,14.44V179a14.49,14.49,0,0,1-4.61,10.94c3.18,3.08,4.61,5.23,4.61,9.66v15.49a47.63,47.63,0,0,1,28.68,15.07" fill="#633cff"/>
    <path d="M63.66,57.15V18C52.41,16.76,42.37,10.34,34.94,2.83,27.52,10.34,17.48,16.76,6.24,18l0,32.5c0,6.35-1.55,10.3-6.22,14.82,4.76,3.75,6.24,7.3,6.24,14.36v39.76H50.82s9.15.47,12.84,8.28V65.49L35.3,79.31c3.37,1.13,5.35,3.81,5.35,8.17v12.1H29.28V26.33H40.77V68.71Z" fill="#633cff"/>
    <path d="M132.7,101.43V94.58c0-5.64,1.34-7.61,4.5-11.28-3.24-3.12-4.54-5.84-4.54-12l0-36.12H109.7V99.54H98.22V31.6l-23-10.74s0,15.23,0,31.88c0,5.69-1,10.08-5.34,12.76,4.36,3.65,5.34,7.45,5.34,12.86,0,9.1,0,8.34,0,16,0,0,.16,8,.16,12.32a12.5,12.5,0,0,1-4.93,9.85c15.38-.26,26.61,3.85,34.24,10.54,4.56-4,14.71-13.93,28.87-15.91a15.55,15.55,0,0,1,3.33-.23c-3.88-2.48-4.16-5.65-4.16-9.48" fill="#633cff"/>
  </g>
</svg>
