<svg width="613" height="102" viewBox="0 0 613 102" fill="none" xmlns="http://www.w3.org/2000/svg">
<path d="M611.53 75.34L609.65 68.87L607.89 62.96L601.58 42.38C600.68 39.38 599.78 36.46 598.93 33.58L598.79 33.09L611.15 18.21L605.34 0L543.09 0.0599999L541.19 3.06L540.45 0.0599999L477.74 0.12L476.2 3.56L475.6 0.12L412.37 0.21L411.26 4.34L410.84 0.21L347 0.27L346.38 7.02L346.19 0.27L282.02 0.34L281.81 6.51L281.14 0.33L217.53 0.4L217.1 4.4L215.96 0.4H185.28L182.84 17.51L181.44 13.98L180.76 13.92L175.4 0.43L145.09 0.46L144.48 3.74L142.88 0.46H112.88L112.2 3.52L110.44 0.46H80.7L77.27 13.84H69.22L67.67 19.66L53.67 0.54H24.73L0 77.39L26.29 101.69H54.94L59.49 84.57L61.71 87.04H69.37L82.09 101.69H111.52L112.1 98.92L114.19 101.69H143.89L144.42 98.69L146.31 101.69H176.26L178.57 85.69L186.3 101.69H216.64L217.02 98.01L218.34 101.69H281.46L281.68 95.85L282.38 101.69H346L346.62 95.31L346.83 101.69H378.09L379.09 97.2L379.39 101.69H410.22L411.53 97.84L411.91 101.69H442.41L443.98 98.26L444.43 101.69H474.64L476.45 98.56L476.96 101.69H506.91L524.22 77.01L523.39 73.06H532.99L546.46 54.21L558.09 101.62H587.48L612.09 77.21L611.53 75.34ZM314.2 56.58L314.52 46.09H344.57L344.83 42.61L345.31 56.61L314.2 56.58Z" fill="#05023A"/>
<path d="M54.9901 17.97L50.9901 31.91H68.7301L72.4601 18.14H80.5701L84.0301 4.78L107.41 4.75L90.9301 75.61L65.7201 75.62L73.2701 45.53L64.1701 45.52L60.2301 60.18H43.9001L47.9801 45.51L38.7501 45.54L29.8601 75.63L5.12012 75.64L27.8401 4.83L50.7901 4.81L46.9801 17.67L54.9901 17.97Z" fill="#633CFF"/>
<path d="M139.65 4.8999L125.72 75.7699L100.51 75.7799L116.27 4.9199L139.65 4.8999Z" fill="#633CFF"/>
<path d="M173.75 52.7899L175.84 38.1399L166.71 37.9699L160.67 75.5899L135.42 75.5999L148.65 4.7199L172.06 4.6899L170 17.8199L178.02 18.0199L176.12 31.7299L185.13 31.8499L188.97 4.6699L212.4 4.6499L204.19 75.5699L178.91 75.5799L182.08 52.9899L173.75 52.7899Z" fill="#633CFF"/>
<path d="M274.7 60.9498L274.06 75.5498L213.84 75.5698L221.34 4.63984L277.17 4.58984L276.61 17.1398L243.78 17.1698L242.74 31.6498L275.98 31.7298L275.38 45.4398L241.51 45.4598L240.38 60.8198L274.7 60.9498Z" fill="#633CFF"/>
<path d="M602.2 4.27002L606.2 16.86H589.9L590 17.25C590.67 20.01 591.41 22.81 592.19 25.66C592.97 28.51 593.81 31.45 594.67 34.41C595.53 37.37 596.43 40.41 597.35 43.41C598.27 46.41 599.21 49.49 600.14 52.53C600.713 54.3767 601.283 56.2467 601.85 58.14C602.44 60.03 603.02 61.94 603.59 63.85C604.16 65.76 604.75 67.71 605.33 69.64C605.91 71.57 606.47 73.52 607.01 75.45H581.57L565.57 16.9H549.27L546.09 4.32002L602.2 4.27002Z" fill="#633CFF"/>
<path d="M543.62 31.1901L547.09 45.2801L513.05 45.3001L519.36 75.4701L493.96 75.4801L480.95 4.39008L537.04 4.33008L540.13 16.9201L507.12 16.9501L510.1 31.1801L543.62 31.1901Z" fill="#633CFF"/>
<path d="M446.03 52.5602L449.17 75.4902H423.79L415.94 4.4502H471.94L484.23 75.5402H458.87L455.56 52.6402L446.03 52.5602ZM462.48 24.6502L461.05 15.6502H449.96L450.96 23.9202L442.25 23.8502L441.13 15.6602H430.42L431.55 24.6602H441.4L441.86 27.9802H436.86L438.67 41.8702H444.62L444.21 37.2102H453.02L453.76 41.9602H459.76L457.65 28.1202H452.74L452.31 24.7602H462.46" fill="#633CFF"/>
<path d="M402.03 38.71H410.4L414.09 75.5H388.75L386.49 45.5L377.09 45.33L379.09 75.52H353.72L351 4.52002H406.95L409.61 30.86H401.25L402.03 38.71ZM385.5 31.71L384.4 17.11H375.29L376.23 31.72H385.5" fill="#633CFF"/>
<path d="M309.92 17.12L342.39 17.09L342.03 4.52002L286.13 4.58002L283.74 75.55L344.04 75.53L343.63 60.94L309.15 60.95L309.92 17.12Z" fill="#633CFF"/>
<path d="M8.41987 75.6399C6.60987 75.6399 6.18987 76.6399 7.49987 77.9299L25.4399 95.1199C27.022 96.4806 29.0068 97.2851 31.0899 97.4099H46.9199C48.7399 97.4099 49.2099 96.3199 47.9699 94.9799L32.0899 78.0399C30.5823 76.6007 28.6109 75.7462 26.5299 75.6299L8.41987 75.6399Z" fill="#180B7A"/>
<path d="M69.0295 75.6199C67.2095 75.6199 66.6695 76.7599 67.8395 78.1599L81.8395 94.8599C83.255 96.374 85.2 97.2838 87.2695 97.3999H103.83C105.65 97.3999 106.25 96.2099 105.16 94.7499L92.8995 78.2699C92.2491 77.4878 91.4447 76.8481 90.5363 76.3905C89.6279 75.9328 88.6351 75.6671 87.6195 75.6099L69.0295 75.6199Z" fill="#180B7A"/>
<path d="M47.2096 60.21C45.3896 60.21 44.8896 61.29 46.0896 62.66L61.6796 80.21C62.943 81.6022 64.7026 82.4425 66.5796 82.55C68.0596 82.49 68.4196 81.21 67.3696 79.72L66.2896 78.21C65.1995 76.449 64.8407 74.3318 65.2896 72.31L65.5896 71.22C65.8061 70.2281 65.8138 69.202 65.6124 68.2069C65.411 67.2119 65.0048 66.2696 64.4196 65.44L62.2996 62.76C61.6171 62.0016 60.7912 61.3858 59.8695 60.9481C58.9479 60.5104 57.9487 60.2596 56.9296 60.21H47.2096Z" fill="#180B7A"/>
<path d="M103.81 75.7798C101.99 75.7798 101.39 76.9898 102.46 78.4498L114.46 94.7398C115.106 95.5247 115.908 96.1672 116.815 96.6268C117.722 97.0863 118.714 97.3529 119.73 97.4098H136.03C137.85 97.4098 138.55 96.1498 137.58 94.6098L127.5 78.6098C126.918 77.793 126.161 77.1173 125.283 76.6327C124.406 76.148 123.431 75.8668 122.43 75.8098L103.81 75.7798Z" fill="#180B7A"/>
<path d="M138.73 75.6001C136.91 75.6001 136.2 76.8701 137.15 78.4201L146.87 94.3301C147.436 95.1478 148.18 95.8265 149.046 96.315C149.912 96.8035 150.878 97.089 151.87 97.1501H167.87C168.244 97.214 168.628 97.1648 168.973 97.0088C169.318 96.8528 169.609 96.5971 169.808 96.2746C170.007 95.9521 170.105 95.5775 170.089 95.1989C170.073 94.8203 169.945 94.4551 169.72 94.1501L162.09 78.5601C161.617 77.6972 160.931 76.969 160.098 76.4442C159.266 75.9194 158.313 75.6151 157.33 75.5601L138.73 75.6001Z" fill="#180B7A"/>
<path d="M182.22 75.5798C181.854 75.5462 181.486 75.6141 181.156 75.7759C180.826 75.9378 180.547 76.1874 180.35 76.4973C180.153 76.8073 180.045 77.1656 180.037 77.533C180.03 77.9003 180.125 78.2625 180.31 78.5798L187.62 94.3998C188.076 95.2643 188.749 95.9953 189.573 96.5213C190.397 97.0472 191.344 97.3499 192.32 97.3998H208.88C209.264 97.4412 209.653 97.3787 210.005 97.2188C210.357 97.059 210.659 96.8076 210.881 96.4909C211.102 96.1742 211.235 95.8039 211.265 95.4185C211.295 95.0331 211.22 94.6468 211.05 94.2998L205.33 78.6798C204.955 77.7957 204.339 77.035 203.552 76.485C202.765 75.9349 201.839 75.6178 200.88 75.5698L182.22 75.5798Z" fill="#180B7A"/>
<path d="M217.15 75.5698C216.764 75.53 216.375 75.5937 216.023 75.7542C215.67 75.9148 215.367 76.1664 215.144 76.4831C214.921 76.7999 214.786 77.1704 214.754 77.5565C214.721 77.9426 214.793 78.3304 214.96 78.6798L220.36 93.7698C220.72 94.6591 221.328 95.4261 222.111 95.9793C222.895 96.5325 223.821 96.8486 224.78 96.8898H273.78C274.196 96.9034 274.61 96.8242 274.991 96.6578C275.373 96.4913 275.712 96.242 275.985 95.9278C276.258 95.6136 276.458 95.2426 276.569 94.8416C276.681 94.4406 276.701 94.0198 276.63 93.6098L274.54 78.8198C274.386 77.9233 273.926 77.1079 273.239 76.5118C272.551 75.9158 271.679 75.5759 270.77 75.5498L217.15 75.5698Z" fill="#180B7A"/>
<path d="M287.09 75.5499C286.667 75.5333 286.246 75.6092 285.856 75.7722C285.465 75.9352 285.115 76.1814 284.829 76.4937C284.543 76.806 284.329 77.1768 284.202 77.5803C284.074 77.9837 284.036 78.4102 284.09 78.8299L285.74 94.1199C285.857 95.014 286.291 95.8365 286.962 96.4383C287.634 97.0401 288.499 97.3812 289.4 97.3999H338.15C339.055 97.3766 339.922 97.0347 340.598 96.4347C341.275 95.8346 341.719 95.0149 341.85 94.1199L343.65 78.8099C343.71 78.3959 343.679 77.9737 343.559 77.5731C343.438 77.1724 343.232 76.8029 342.954 76.4905C342.675 76.178 342.332 75.9301 341.948 75.7642C341.564 75.5983 341.149 75.5183 340.73 75.5299L287.09 75.5499Z" fill="#180B7A"/>
<path d="M357.03 75.5299C356.123 75.5541 355.253 75.8956 354.571 76.4948C353.89 77.0941 353.44 77.9133 353.3 78.8099L351.4 93.8699C351.337 94.282 351.365 94.7028 351.482 95.1028C351.6 95.5028 351.803 95.8722 352.079 96.185C352.354 96.4977 352.695 96.7462 353.077 96.9129C353.459 97.0797 353.873 97.1606 354.29 97.1499H370.6C371.533 97.1155 372.43 96.7847 373.162 96.2057C373.894 95.6267 374.422 94.8295 374.67 93.9299L378.3 78.7299C378.415 78.3442 378.435 77.9365 378.359 77.5413C378.283 77.1462 378.112 76.7752 377.862 76.4601C377.611 76.145 377.289 75.8949 376.921 75.7312C376.553 75.5676 376.152 75.4951 375.75 75.5199L357.03 75.5299Z" fill="#180B7A"/>
<path d="M392.09 75.5098C391.159 75.5488 390.264 75.8812 389.533 76.4596C388.802 77.0379 388.273 77.8325 388.02 78.7298L384.48 93.6698C384.363 94.0561 384.342 94.4649 384.417 94.8615C384.492 95.258 384.663 95.6304 384.913 95.9468C385.164 96.2632 385.487 96.5143 385.856 96.6785C386.225 96.8427 386.628 96.9152 387.03 96.8898H403.33C404.287 96.8467 405.211 96.5297 405.993 95.9766C406.775 95.4235 407.381 94.6575 407.74 93.7698L413.05 78.6198C413.213 78.2675 413.279 77.8784 413.243 77.4922C413.207 77.1059 413.069 76.7361 412.843 76.4204C412.618 76.1046 412.313 75.854 411.959 75.6941C411.606 75.5342 411.216 75.4706 410.83 75.5098H392.09Z" fill="#180B7A"/>
<path d="M427.09 75.4998C426.132 75.5411 425.205 75.8571 424.422 76.4104C423.638 76.9636 423.03 77.7306 422.67 78.6198L417.23 94.0298C417.063 94.3807 416.993 94.7697 417.025 95.1569C417.058 95.5441 417.194 95.9156 417.418 96.2332C417.642 96.5508 417.946 96.8031 418.3 96.9642C418.653 97.1253 419.044 97.1893 419.43 97.1498H435.73C436.707 97.0978 437.654 96.7942 438.479 96.2686C439.305 95.743 439.98 95.0132 440.44 94.1498L447.76 78.4898C447.945 78.1725 448.04 77.8103 448.033 77.4429C448.026 77.0756 447.917 76.7173 447.72 76.4073C447.523 76.0974 447.244 75.8478 446.914 75.6859C446.584 75.5241 446.216 75.4562 445.85 75.4898L427.09 75.4998Z" fill="#180B7A"/>
<path d="M462.17 75.4902C461.188 75.546 460.237 75.8507 459.406 76.3755C458.575 76.9004 457.892 77.6281 457.42 78.4902L449.77 94.2102C449.549 94.517 449.424 94.8824 449.411 95.26C449.398 95.6377 449.498 96.0107 449.697 96.3319C449.896 96.6531 450.186 96.908 450.53 97.0643C450.874 97.2207 451.257 97.2715 451.63 97.2102H468.44C469.439 97.1614 470.414 96.8768 471.282 96.3798C472.151 95.8828 472.891 95.1873 473.44 94.3502L482.63 78.4102C483.54 76.8402 482.8 75.5502 480.98 75.5502L462.17 75.4902Z" fill="#180B7A"/>
<path d="M497.27 75.4702C496.277 75.5331 495.311 75.8205 494.445 76.3107C493.579 76.8009 492.835 77.4811 492.27 78.3002L482.52 94.3002C481.57 95.8602 482.28 97.1302 484.1 97.1302H500.66C501.671 97.0738 502.658 96.8051 503.557 96.3416C504.456 95.8781 505.248 95.2302 505.88 94.4402L517.44 78.2102C518.5 76.7202 517.88 75.5102 516.05 75.5102L497.27 75.4702Z" fill="#180B7A"/>
<path d="M584.89 75.4499C582.811 75.5622 580.85 76.4467 579.39 77.9299L564.84 94.4099C563.63 95.7799 564.13 96.8899 565.96 96.8899H581.74C583.838 96.7757 585.837 95.9625 587.42 94.5799L604.66 77.7499C605.96 76.4799 605.54 75.4399 603.72 75.4399L584.89 75.4499Z" fill="#180B7A"/>
<path d="M23.66 16.6198C23.49 17.0798 24.84 17.4598 26.66 17.4598L44 17.5298C45.82 17.5298 47.32 17.1498 47.35 16.6598C47.38 16.1698 45.91 15.7798 44.09 15.7798H27.27C25.45 15.7798 23.83 16.1498 23.66 16.6198Z" fill="#020303"/>
<path d="M22.4596 52.65C22.6135 52.2905 22.6714 51.8973 22.6277 51.5087C22.5841 51.1201 22.4404 50.7495 22.2106 50.4331C21.9809 50.1167 21.673 49.8653 21.317 49.7035C20.961 49.5417 20.5691 49.4751 20.1796 49.51H15.9396C14.1296 49.51 12.6396 49.86 12.6396 50.28C12.6396 50.7 14.1296 51.06 15.9396 51.06H18.0896C18.4772 51.0306 18.8658 51.102 19.2175 51.2673C19.5692 51.4327 19.8722 51.6863 20.0967 52.0035C20.3213 52.3207 20.4599 52.6907 20.4989 53.0774C20.538 53.4641 20.4762 53.8543 20.3196 54.21L16.4596 65.93C16.3035 66.29 16.2437 66.6844 16.2863 67.0745C16.3288 67.4645 16.4721 67.8368 16.7022 68.1546C16.9322 68.4725 17.2411 68.725 17.5983 68.8872C17.9556 69.0495 18.3489 69.1159 18.7396 69.08H31.7396C33.5596 69.08 35.0496 68.73 35.0496 68.3C35.0496 67.87 33.5596 67.53 31.7396 67.53H20.8796C20.4893 67.5681 20.0959 67.5034 19.7383 67.3425C19.3806 67.1816 19.0713 66.93 18.8409 66.6126C18.6105 66.2953 18.467 65.9233 18.4247 65.5334C18.3824 65.1436 18.4427 64.7494 18.5996 64.39L18.9096 63.46C19.248 62.5704 19.8392 61.7992 20.6103 61.2413C21.3814 60.6834 22.2988 60.3632 23.2496 60.32H33.2496C35.0796 60.32 36.5696 59.97 36.5696 59.55C36.5696 59.13 35.0796 58.78 33.2496 58.78H23.7496C23.3597 58.814 22.9677 58.7462 22.6118 58.5831C22.256 58.4201 21.9487 58.1674 21.7198 57.8499C21.491 57.5323 21.3486 57.1608 21.3065 56.7717C21.2644 56.3826 21.324 55.9892 21.4796 55.63L22.4596 52.65Z" fill="#020303"/>
<path d="M91.6104 19.6499C91.6768 19.2404 91.652 18.8212 91.5377 18.4223C91.4234 18.0234 91.2226 17.6547 90.9494 17.3424C90.6762 17.0301 90.3375 16.7819 89.9574 16.6155C89.5773 16.4491 89.1652 16.3687 88.7504 16.3799H83.7504C81.9304 16.3799 80.3104 16.7299 80.1504 17.1599C79.9904 17.5899 81.3504 17.9199 83.1504 17.9199H86.9904C87.4064 17.9097 87.8194 17.9916 88.1999 18.1597C88.5805 18.3279 88.9191 18.5782 89.1915 18.8927C89.4639 19.2071 89.6633 19.578 89.7755 19.9786C89.8877 20.3792 89.9099 20.7997 89.8404 21.2099L89.1404 26.4099C88.9943 27.3074 88.5399 28.1259 87.8555 28.7245C87.171 29.3232 86.2994 29.6646 85.3904 29.6899H69.5004C67.6804 29.6899 66.1904 30.0399 66.1904 30.4599C66.1904 30.8799 67.6804 31.2299 69.5004 31.2299H100.73C102.55 31.2299 104.04 30.8799 104.04 30.4599C104.04 30.0399 102.55 29.6899 100.73 29.6899H93.5604C93.1438 29.7029 92.7296 29.6234 92.3474 29.4572C91.9652 29.2909 91.6246 29.042 91.3502 28.7283C91.0757 28.4146 90.8742 28.044 90.7601 27.6432C90.646 27.2423 90.6222 26.8211 90.6904 26.4099L91.6104 19.6499Z" fill="#020303"/>
<path d="M113.43 66.95C113.76 65.16 113.55 64.46 112.96 65.39C112.165 66.9464 111.603 68.6107 111.29 70.33L110.8 72.96C110.521 75.0428 110.958 77.1586 112.04 78.96L112.88 80.18C113.899 81.6837 115.121 83.0398 116.51 84.21C117.51 84.93 117.45 84.28 116.43 82.77L113.64 78.6C112.568 76.7946 112.132 74.6824 112.4 72.6L113.43 66.95Z" fill="#020303"/>
<path d="M138.29 19.1299C138.29 18.6999 136.8 18.3799 134.99 18.4199L128.47 18.5399C126.65 18.5399 125.91 18.8999 126.83 19.2499C128.457 19.7058 130.141 19.9247 131.83 19.8999H135.01C136.82 19.8999 138.31 19.5499 138.31 19.1299" fill="#020303"/>
<path d="M147.87 70.6998C148.27 68.9198 148.07 68.2598 147.44 69.2098C146.691 70.4572 146.122 71.8037 145.75 73.2098C145.496 74.934 145.678 76.6941 146.28 78.3298C146.859 79.8657 147.621 81.3262 148.55 82.6798C149.2 83.5198 149.28 82.7998 148.7 81.0698L147.86 78.5498C147.271 76.4785 147.158 74.3009 147.53 72.1798L147.87 70.6998Z" fill="#020303"/>
<path d="M141.64 52.7702C139.82 52.6802 138.32 52.9502 138.29 53.3702C138.26 53.7902 139.74 54.2202 141.56 54.3102L160.09 55.2102C161.9 55.3002 163.86 56.1102 164.44 57.0102C165.02 57.9102 165.79 58.4502 166.14 58.2302C166.49 58.0102 166.22 56.9202 165.52 55.8402C164.82 54.7602 162.76 53.7902 160.96 53.7002L141.64 52.7702Z" fill="#020303"/>
<path d="M161.21 16.6601C162.65 17.3116 164.221 17.6197 165.8 17.5601H167.21C169.02 17.5601 170.52 17.2101 170.52 16.7801C170.52 16.3501 169.03 15.9801 167.21 15.9401L163.21 15.8501C161.39 15.8501 160.48 16.1801 161.21 16.6601Z" fill="#020303"/>
<path d="M183.28 53.21C181.46 53.29 179.99 53.7 180.01 54.12C180.03 54.54 181.53 54.83 183.34 54.76L194.09 54.32C194.496 54.2843 194.906 54.3437 195.285 54.4935C195.665 54.6433 196.004 54.8793 196.277 55.183C196.55 55.4866 196.748 55.8495 196.856 56.243C196.964 56.6365 196.979 57.0497 196.9 57.45L194.65 72.3C194.397 74.4565 194.553 76.6413 195.11 78.74L195.58 80.29C196.128 82.0916 196.912 83.8131 197.91 85.41C198.68 86.48 198.91 85.93 198.35 84.19L196.69 78.62C196.146 76.5225 195.994 74.3428 196.24 72.19L198.7 55.83C198.779 55.4297 198.764 55.0165 198.656 54.623C198.548 54.2295 198.35 53.8666 198.077 53.563C197.804 53.2593 197.465 53.0233 197.085 52.8735C196.706 52.7237 196.296 52.6643 195.89 52.7L183.28 53.21Z" fill="#020303"/>
<path d="M186.96 16.29C186.89 16.71 188.29 17.29 190.09 17.61L208.39 19.76C210.2 19.98 211.67 19.81 211.67 19.39C211.67 18.97 210.2 18.39 208.39 18.2L190.39 16.08C188.6 15.78 187.07 15.87 187 16.29" fill="#020303"/>
<path d="M226.79 62.8601C226.808 62.4314 226.738 62.0035 226.586 61.6024C226.433 61.2013 226.2 60.8354 225.902 60.5268C225.604 60.2183 225.246 59.9735 224.85 59.8073C224.455 59.6412 224.029 59.5571 223.6 59.5601H217.09C215.27 59.5601 213.78 59.9101 213.78 60.3301C213.78 60.7501 215.27 61.1001 217.09 61.1001H222.03C222.459 61.0985 222.885 61.1836 223.28 61.3501C223.676 61.5167 224.034 61.7613 224.332 62.0694C224.631 62.3775 224.865 62.7427 225.019 63.1432C225.173 63.5437 225.245 63.9712 225.23 64.4001L224.96 72.0401C224.941 74.2305 225.179 76.4155 225.67 78.5501L226.89 83.3201C227.34 85.088 227.974 86.8039 228.78 88.4401C229.36 89.4401 229.51 88.9001 229.11 87.1201L227.11 78.4001C226.674 76.2514 226.466 74.0626 226.49 71.8701L226.79 62.8601Z" fill="#020303"/>
<path d="M217.61 25.3102C217.61 25.7302 219.09 26.0802 220.91 26.0802H227.17C228.88 26.1061 230.577 25.8004 232.17 25.1802C233.09 24.6902 232.35 24.3002 230.53 24.3302L220.93 24.4902C219.11 24.4902 217.63 24.8802 217.63 25.3102" fill="#020303"/>
<path d="M260.17 33.2102C260.17 31.3902 259.74 29.9102 259.31 29.9102C258.88 29.9102 258.54 31.3902 258.54 33.2102V40.7602C258.54 42.5802 258.94 43.2002 259.44 42.1402C260.031 40.4581 260.308 38.6822 260.26 36.9002L260.17 33.2102Z" fill="#020303"/>
<path d="M267.7 61.3998C267.657 62.2835 267.278 63.1172 266.64 63.7306C266.002 64.344 265.155 64.6907 264.27 64.6998H259.27C258.393 64.7025 257.553 65.052 256.932 65.6722C256.312 66.2924 255.963 67.1328 255.96 68.0098V73.0098C255.96 74.8298 256.3 76.3198 256.74 76.3198C257.18 76.3198 257.51 74.8298 257.51 73.0098V69.5498C257.513 68.6737 257.863 67.8343 258.483 67.2158C259.103 66.5972 259.944 66.2498 260.82 66.2498H265.77C266.655 66.2404 267.503 65.892 268.139 65.2763C268.776 64.6605 269.152 63.8243 269.19 62.9398V61.3398C269.25 59.5198 268.96 58.0198 268.53 58.0098C268.1 57.9998 267.71 59.4698 267.65 61.2798V61.3998H267.7Z" fill="#020303"/>
<path d="M331.03 64.84C330.609 66.3082 330.51 67.85 330.74 69.36L331.06 72.48C331.242 74.6647 331.208 76.8619 330.96 79.04L328.78 94.8C328.53 96.6 328.78 98.05 329.27 98.03C329.76 98.01 330.41 96.51 330.63 94.7L332.57 79.07C332.775 76.8848 332.775 74.6852 332.57 72.5L331.97 66.9C331.78 65.09 331.33 64.16 330.97 64.84" fill="#020303"/>
<path d="M284.55 89.2099C284.55 89.6399 286.03 89.9899 287.85 89.9899H288.71C290.53 89.9899 292.02 89.6399 292.02 89.2099C292.02 88.7799 290.53 88.4399 288.71 88.4399H287.85C286.03 88.4399 284.55 88.7899 284.55 89.2099Z" fill="#020303"/>
<path d="M290.47 27.3601C292.01 28.0108 293.607 28.5164 295.24 28.8701L307.98 31.1401C309.66 31.8601 311.16 32.1401 311.33 31.7401C311.5 31.3401 310.22 30.5701 308.5 29.9901L292.18 27.2101C290.39 26.8701 289.62 26.9401 290.47 27.3601Z" fill="#020303"/>
<path d="M290.21 41.65C290.92 41.16 290.01 40.81 288.21 40.87H287.62C285.79 40.94 284.31 41.34 284.31 41.77C284.31 42.2 285.31 42.54 286.62 42.54C287.88 42.5462 289.122 42.2331 290.23 41.63" fill="#020303"/>
<path d="M362.2 28.1302C362.3 29.1302 363.88 29.9402 365.71 29.9402H367.15C368.419 29.9095 369.689 29.9663 370.95 30.1102C371.23 30.2102 372.25 30.9302 372.61 30.7202C372.97 30.5102 372.71 29.8902 372.02 29.3702C370.578 28.6731 368.991 28.3303 367.39 28.3702H367.09C366.186 28.3498 365.318 28.0072 364.643 27.4041C363.969 26.801 363.531 25.9769 363.41 25.0802L361.41 6.85019C361.21 5.04019 360.69 3.60019 360.28 3.65019C359.87 3.70019 359.67 5.21019 359.88 7.02019L361.49 21.4802C361.544 21.8956 361.507 22.3176 361.382 22.7174C361.257 23.1173 361.048 23.4854 360.768 23.7968C360.488 24.1082 360.144 24.3555 359.759 24.5218C359.375 24.688 358.959 24.7694 358.54 24.7602H353.29C351.47 24.7602 349.99 25.1102 349.99 25.5302C349.99 25.9502 351.47 26.3002 353.29 26.3002H358.71C360.53 26.3002 362.11 27.1102 362.23 28.1002" fill="#020303"/>
<path d="M359.98 64.4201C360.028 66.5598 359.54 68.6775 358.56 70.5801L357.18 72.1401C356.75 73.9101 356.75 75.4301 357.18 75.5201C357.61 75.6101 358.39 74.2601 358.94 72.5201C359.149 71.9085 359.449 71.3319 359.83 70.8101C360.49 69.8101 361.23 69.0701 361.46 69.0701C361.69 69.0701 361.77 67.5801 361.65 65.7701L361.09 57.4401C361.055 57.0166 361.109 56.5904 361.249 56.1889C361.388 55.7874 361.61 55.4195 361.9 55.1088C362.19 54.7981 362.542 54.5514 362.933 54.3846C363.323 54.2178 363.745 54.1345 364.17 54.1401H376.56C378.38 54.1401 379.87 53.8001 379.87 53.3701C379.87 52.9401 378.38 52.6001 376.56 52.6001H362.56C362.133 52.5866 361.708 52.6645 361.313 52.8286C360.918 52.9927 360.563 53.2392 360.272 53.5517C359.98 53.8641 359.758 54.2353 359.622 54.6403C359.485 55.0454 359.437 55.4749 359.48 55.9001L359.98 64.4201Z" fill="#020303"/>
<path d="M386 58.01C386 58.43 387.49 58.78 389.31 58.78H397.63C399.238 58.8193 400.838 58.5581 402.35 58.01C403.14 57.58 402.29 57.23 400.47 57.23H389.3C387.49 57.23 386 57.57 386 58" fill="#020303"/>
<path d="M393.14 36.21C393.61 36.6 395.47 36.91 397.29 36.91H399.69C401.51 36.91 403 36.56 403 36.14C403 35.72 401.51 35.38 399.69 35.41L395.62 35.47C393.79 35.47 392.69 35.83 393.14 36.21Z" fill="#020303"/>
<path d="M350.73 90.4501C350.73 90.8701 352.15 91.3301 353.96 91.4501L372.35 92.7701C374.16 92.9001 375.67 92.6601 375.71 92.2401C375.75 91.8201 374.28 91.3601 372.46 91.2401L354.09 89.9201C352.28 89.7901 350.77 90.0301 350.74 90.4501" fill="#020303"/>
<path d="M458.09 57.46C456.27 57.46 454.78 57.84 454.78 58.26C454.78 58.68 456.28 59.02 458.1 59L480.58 61.5C482.39 61.68 483.99 61.5 484.14 61.1C484.29 60.7 482.92 60.22 481.14 60.04L458.09 57.46Z" fill="#020303"/>
<path d="M528.15 28.9102C527.75 29.0502 527.5 30.6502 527.59 32.4702L529.59 42.8302C528.81 44.4702 528.48 45.9702 528.87 46.1602C529.26 46.3502 530.21 45.1602 531 43.5302L529 31.9502C528.91 30.1302 528.51 28.7702 528.11 28.9502" fill="#020303"/>
<path d="M516.21 9.59991C515.329 9.52877 514.488 9.19834 513.794 8.65024C513.1 8.10215 512.584 7.36091 512.31 6.51991C511.8 4.82991 511.04 3.51991 510.63 3.66991C510.22 3.81991 510.34 5.32991 510.87 7.05991L511.15 7.97991C511.419 8.83828 511.937 9.5972 512.639 10.16C513.341 10.7227 514.194 11.0639 515.09 11.1399C515.986 11.2249 516.839 11.5648 517.548 12.1195C518.257 12.6743 518.792 13.4205 519.09 14.2699L519.86 16.4999C520.45 18.2199 521.27 19.4999 521.66 19.3799C522.05 19.2599 521.91 17.7199 521.32 15.9999L520.19 12.7299C519.894 11.8792 519.36 11.1316 518.65 10.5766C517.941 10.0215 517.087 9.68246 516.19 9.59991" fill="#020303"/>
<path d="M577.29 54.3999C575.47 54.3999 573.98 54.7499 573.98 55.1699C573.98 55.5899 575.47 55.9499 577.29 55.9499H598.48C600.31 55.9499 601.79 55.5999 601.79 55.1699C601.79 54.7399 600.3 54.3999 598.48 54.3999H577.29Z" fill="#020303"/>
<path d="M593.29 18.0898C593.7 17.9798 593.65 16.4598 593.16 14.6998L591.09 6.9198C590.62 5.1598 589.89 3.8198 589.47 3.9198C589.05 4.0198 589.12 5.5598 589.6 7.3198L591.72 15.0998C592.21 16.8498 592.93 18.1898 593.34 18.0998" fill="#020303"/>
<path d="M79.4502 17.6402H86.3802C88.2002 17.6402 88.2202 17.3502 86.4402 17.0102L84.0902 16.5402C82.3002 16.1902 80.9402 16.5402 81.0902 17.2602L79.4502 17.6402Z" fill="#020303"/>
<path d="M40.6997 86.2098C39.9897 85.4298 37.9397 84.9698 36.1397 85.2098L32.1397 85.6998C30.3297 85.9198 30.3297 86.2798 32.1397 86.4898L38.6997 87.2698C40.5097 87.4698 41.4097 87.0098 40.6997 86.2698" fill="#020303"/>
<path d="M106.23 94.6999C105.74 93.9199 103.85 93.4099 102.03 93.5599L93.4402 94.2899C91.6202 94.4399 91.6202 94.6999 93.4402 94.8699L103.85 95.8099C105.66 95.9799 106.74 95.4799 106.24 94.6999" fill="#020303"/>
<path d="M185.55 91.4799C185.33 90.7699 186.64 90.2399 188.47 90.2899L190.61 90.3499C192.42 90.3499 192.49 90.8599 190.74 91.3499L189.1 91.8199C187.36 92.3299 185.76 92.1699 185.55 91.4599" fill="#020303"/>
<path d="M276.31 86.4599C276.17 85.3999 274.58 84.7399 272.78 84.9899L266.7 85.8599C264.91 86.1199 264.91 86.5599 266.7 86.8599L273.29 87.8599C275.09 88.1399 276.44 87.4999 276.29 86.4399" fill="#020303"/>
<path d="M283.9 90.14C283.81 89.08 285.22 88.38 287.02 88.59H287.21C289.02 88.8 289.16 89.59 287.52 90.4L287.05 90.62C285.41 91.41 283.99 91.18 283.9 90.12" fill="#020303"/>
<path d="M226.49 72.4298C226.27 70.8698 225.87 70.7498 225.58 72.1698C225.334 74.0931 225.484 76.0464 226.02 77.9098L226.43 79.2998C226.96 81.0398 227.28 80.9798 227.15 79.1698V78.5598C227.02 76.7398 226.74 73.9898 226.53 72.4298" fill="#020303"/>
<path d="M256.61 73.58C256.25 72.95 256.02 73.91 256.08 75.73V76.59C256.14 78.41 256.42 78.74 256.71 77.32C257.007 76.0847 256.962 74.7918 256.58 73.58" fill="#020303"/>
<path d="M195.59 72.94C195.51 71.38 195.23 71.38 194.95 72.94C194.697 74.9543 194.874 76.9993 195.47 78.94L195.95 80.39C196.53 82.11 196.76 82.05 196.46 80.26L196.26 79.07C195.931 77.0497 195.707 75.0136 195.59 72.97" fill="#020303"/>
<path d="M146.53 74.1C146.25 73.46 145.78 73.58 145.53 74.36C145.315 75.4738 145.549 76.6276 146.18 77.57C146.81 78.57 147.28 78.45 147.18 77.31C147.11 76.2155 146.891 75.1357 146.53 74.1Z" fill="#020303"/>
<path d="M112.28 73.0101C111.93 71.4501 111.28 71.6201 110.87 73.3901C110.689 74.3683 110.734 75.3748 111 76.3331C111.267 77.2914 111.749 78.1762 112.41 78.9201C113.68 80.2001 114.32 80.0201 113.83 78.5401C113.34 77.0601 112.64 74.5401 112.28 73.0001" fill="#020303"/>
<path d="M50.6203 70.7499C50.1203 70.1199 51.2003 69.7499 53.0103 69.8799L58.2603 70.3399C60.0703 70.4999 60.0703 70.8099 58.2603 71.0499L54.7903 71.4899C52.9903 71.7199 51.1003 71.3899 50.6103 70.7499" fill="#020303"/>
<path d="M331.46 71.83C331.72 70.04 332.24 70.02 332.63 71.83L332.78 72.58C333.156 74.7122 333.105 76.8976 332.63 79.01L332 81.37C331.53 83.12 331.11 83.08 331.06 81.26L330.99 79.12C330.962 76.9204 331.089 74.7216 331.37 72.54L331.46 71.83Z" fill="#020303"/>
<path d="M310.81 32.13C310.81 32.91 309.58 32.7 308.08 31.69L307.08 31.03C305.58 30.03 305.79 29.51 307.56 29.94C309.34 30.37 310.78 31.35 310.78 32.13" fill="#020303"/>
<path d="M411.37 84.5299C411.58 83.8199 410.26 83.2799 408.44 83.3299L406.05 83.3999C404.23 83.3999 404.18 83.8999 405.92 84.3999L407.79 84.9299C409.55 85.4199 411.15 85.2399 411.37 84.5399" fill="#020303"/>
<path d="M398.49 73.5798C397.99 72.5198 397.64 73.1398 397.71 74.9598V75.2998C397.78 77.1198 398.18 77.9098 398.61 77.0598C398.818 76.4996 398.914 75.904 398.891 75.3069C398.869 74.7098 398.729 74.1229 398.48 73.5798" fill="#020303"/>
<path d="M444.2 87.75C444.48 86.97 443.2 86.45 441.42 86.6L435.14 87.1C433.32 87.24 433.31 87.58 435.14 87.86L440.45 88.67C442.24 88.94 443.94 88.53 444.23 87.75" fill="#020303"/>
<path d="M437.76 73.9698C437.48 73.1198 437.07 73.0598 436.86 73.8398C436.665 75.1268 436.709 76.4388 436.99 77.7098C437.27 79.0498 437.68 79.1098 437.89 77.8298C438.105 76.5474 438.061 75.2348 437.76 73.9698Z" fill="#020303"/>
<path d="M529.09 46.5501C528.45 46.3301 528.51 44.8301 529.22 43.2001C529.93 41.5701 530.45 41.7201 530.38 43.5401V43.6301C530.32 45.4501 529.74 46.7601 529.1 46.5501" fill="#020303"/>
<path d="M485.78 85.94C486.42 85.17 488.41 84.75 490.21 85.02L499.09 86.35C500.89 86.62 500.87 86.89 499.09 86.94L487.93 87.26C486.11 87.32 485.15 86.72 485.78 85.94Z" fill="#020303"/>
<path d="M570.24 85.9401C571.02 84.8801 573.12 84.2901 574.91 84.6401L583.09 86.2101C584.88 86.5501 584.85 86.9201 583.09 87.0301L572.09 87.6801C570.27 87.7901 569.42 87.0101 570.2 85.9401" fill="#020303"/>
<path d="M573.59 55.0401C573.24 53.8401 574.42 53.0401 576.21 53.3401L583.58 54.4301C585.37 54.7001 585.38 55.1801 583.58 55.5101L577.48 56.6301C575.69 56.9601 573.94 56.2501 573.58 55.0401" fill="#020303"/>
<path d="M564.96 19.2098C564.4 18.7198 563.87 16.8198 563.81 15.0098V14.6598C563.75 12.8498 564.07 12.7998 564.53 14.5598L565.16 16.9198C565.62 18.6698 565.53 19.7098 564.97 19.2098" fill="#020303"/>
<path d="M483.09 62.3898L478.44 60.5198C476.75 59.8498 476.85 59.4298 478.66 59.5998L483.6 60.0698" fill="#020303"/>
<path d="M306.31 77.3099C306.66 76.1798 306.66 74.9701 306.31 73.8399C305.96 72.9199 304.18 72.1699 302.31 72.1699H300.42C298.6 72.1699 296.59 73.0399 295.96 74.0999C295.33 75.1599 296.23 76.4399 297.96 76.9399L302.49 78.2099C304.24 78.7099 305.96 78.2999 306.31 77.3099Z" fill="#020303"/>
<path d="M303.22 74.7399C302.01 73.4699 302.07 72.4199 303.35 72.4199C304.647 72.4253 305.891 72.9344 306.82 73.8399C307.46 74.6199 307.19 76.5199 306.22 78.0599L305.87 78.6299C304.87 80.1699 304.4 80.4499 304.76 79.2499C305.12 78.0499 304.42 76.0199 303.22 74.7399Z" fill="#020303"/>
<path d="M186.7 16.8099C186.84 15.8099 188.4 15.3599 190.16 15.8099L190.95 16.0099C192.72 16.4499 192.71 17.1499 190.95 17.5599L189.67 17.8599C187.9 18.2699 186.57 17.7999 186.67 16.8599" fill="#020303"/>
<path d="M103.4 30.8401C103.04 31.4801 101.31 31.6501 99.5401 31.2201L98.5401 30.9701C96.7801 30.5501 96.8101 30.1101 98.6301 29.9701L100.78 29.8401C102.59 29.7401 103.78 30.1701 103.44 30.8401" fill="#020303"/>
<path d="M36.3195 59.29C36.6095 58.44 35.3695 58.03 33.5895 58.38L30.8195 58.92C29.0395 59.27 29.0495 59.78 30.8195 60.06L32.5195 60.33C34.3095 60.61 36.0195 60.14 36.2995 59.33" fill="#020303"/>
<path d="M41.4703 86.46C40.9103 85.82 40.8603 83.87 41.3803 82.13L42.0903 79.72C42.6003 77.97 42.9403 78.03 42.8603 79.85L42.6503 84.31C42.5703 86.14 42.0403 87.09 41.4703 86.46Z" fill="#180B7A"/>
<path d="M105.85 94.95C105.28 94.6 105.28 93.04 105.85 91.48C106.42 89.92 106.85 90.14 106.85 91.96V92.29C106.85 94.11 106.38 95.29 105.85 94.95Z" fill="#180B7A"/>
<path d="M163.91 56.2101C163.84 55.0701 164.33 55.5301 165 57.2101L165.4 58.2701C166.07 59.9601 166.04 60.6501 165.33 59.8001C164.541 58.7502 164.05 57.5062 163.91 56.2001" fill="#282729"/>
<path d="M486.56 86.9799C487.19 86.4799 487.31 84.6399 486.81 82.8899L486.09 80.2099C485.59 78.4599 485.21 78.5199 485.26 80.3299L485.36 84.5399C485.36 86.3599 485.96 87.4399 486.6 86.9499" fill="#180B7A"/>
<path d="M571.53 86.4602C572.45 85.9602 572.53 84.2002 571.82 82.5502L568.41 75.2102C567.65 73.5502 567.3 73.6602 567.63 75.4602L569.25 84.1502C569.59 85.9402 570.61 86.9902 571.53 86.5002" fill="#180B7A"/>
<path d="M575.09 54.9202C574.74 54.2102 573.79 54.9202 572.99 56.6002L569.47 63.7902C568.67 65.4202 568.89 65.5602 569.97 64.0902L573.79 58.8702C574.86 57.4102 575.45 55.6302 575.09 54.9202Z" fill="#180B7A"/>
<path d="M519.9 19.6402L520.04 15.4802C520.1 13.6602 520.53 13.6102 520.99 15.3702L522.21 20.1502" fill="#020303"/>
<path d="M29.2398 88.2601C27.6198 87.7601 27.7298 87.4701 29.4998 87.6201C31.2698 87.7701 33.8798 88.0501 35.2898 88.2601C36.6998 88.4701 36.5898 88.7701 35.0398 88.9001C33.0846 89.0007 31.126 88.7845 29.2398 88.2601Z" fill="#361EB7"/>
<path d="M110.76 79.14C109.48 77.86 109.29 78.01 110.34 79.49L111.65 81.32C112.684 82.8022 113.942 84.1145 115.38 85.21C116.38 85.85 116.31 85.33 115.25 84.05C114.19 82.77 112.25 80.68 110.98 79.4L110.76 79.14Z" fill="#361EB7"/>
<path d="M143.96 75.52C143.53 75.52 143.76 76.73 144.47 78.22C145.18 79.71 145.53 79.71 145.24 78.22C144.95 76.73 144.38 75.52 143.96 75.52Z" fill="#361EB7"/>
<path d="M191.34 92.0002C189.93 91.8502 190.23 91.4702 192.02 91.1502L194.02 90.7902C195.81 90.4602 196.52 90.6602 195.6 91.2302C194.283 91.8674 192.817 92.1336 191.36 92.0002" fill="#361EB7"/>
<path d="M224.42 78.2101C223.79 77.2901 223.55 77.8701 223.91 79.5001C224.371 81.4198 225.063 83.2767 225.97 85.0301C226.74 86.4501 227.05 86.1601 226.63 84.3901L226.34 83.1101C225.948 81.3903 225.301 79.7387 224.42 78.2101Z" fill="#361EB7"/>
<path d="M333.87 81.0499C333.65 79.9899 333.12 80.1599 332.7 81.4299C332.208 83.192 331.95 85.0107 331.93 86.8399C331.93 88.5399 332.4 88.5199 332.98 86.8399L333.21 86.1599C333.772 84.5324 333.997 82.8072 333.87 81.0899" fill="#361EB7"/>
<path d="M297.4 73.96C297.04 72.87 296.22 73.06 295.57 74.37C294.92 75.68 295.74 77.37 297.37 78.2H297.45C299.08 79 299.89 78.8 299.24 77.77C298.497 76.5564 297.88 75.2697 297.4 73.93" fill="#361EB7"/>
<path d="M358.58 92.5102C356.95 92.0902 357.11 91.7402 358.92 91.7402H359.52C361.646 91.7794 363.757 92.116 365.79 92.7402C367.42 93.3002 367.27 93.6702 365.45 93.5302H364.84C362.731 93.3577 360.638 93.0234 358.58 92.5302" fill="#361EB7"/>
<path d="M399.91 78.2098C399.77 77.5698 399.25 78.1498 398.75 79.4998C398.25 80.8498 398.37 81.3598 399.01 80.6598C399.315 80.3318 399.552 79.9461 399.707 79.5255C399.861 79.1048 399.93 78.6575 399.91 78.2098Z" fill="#361EB7"/>
<path d="M439.67 76.8099C439.52 76.1799 439 76.8099 438.51 78.1099C438.02 79.4099 438.13 79.9799 438.77 79.2599C439.076 78.9325 439.314 78.547 439.469 78.1261C439.623 77.7053 439.692 77.2577 439.67 76.8099Z" fill="#361EB7"/>
<path d="M433.28 88.7598C431.5 88.4098 431.52 87.9898 433.33 87.7598L434.73 87.6298C436.43 87.4223 438.155 87.6672 439.73 88.3398C440.65 88.9098 440.36 89.3398 439.08 89.3398C437.214 89.2735 435.355 89.0662 433.52 88.7198L433.28 88.7598Z" fill="#361EB7"/>
<path d="M491.71 88.6499C490.08 88.7899 490.08 88.4999 491.71 88.0099C493.75 87.471 495.863 87.2583 497.97 87.3799L500.39 87.5999C502.2 87.7499 502.2 87.9599 500.39 88.0699L497.98 88.1999C496.17 88.3099 493.35 88.5099 491.72 88.6499" fill="#361EB7"/>
<path d="M529.42 47.0599C528.58 47.4199 527.31 49.0599 526.61 50.7599V50.8299C525.91 52.5099 526.23 52.6999 527.33 51.2499L528.99 49.0499C530.1 47.5999 530.31 46.7099 529.45 47.0499" fill="#180B7A"/>
<path d="M593.42 18.8701C592.64 18.8701 591.86 17.3901 591.68 15.5701L591.55 14.2101C591.37 12.3901 591.85 12.2701 592.55 13.9301L593.44 15.8801C594.19 17.5401 594.16 18.8801 593.38 18.8801" fill="#020303"/>
<path d="M350.09 26.2101C350.03 25.2901 351.46 24.5901 353.27 24.6501H354.38C356.2 24.7101 356.31 25.3301 354.63 26.0201L353.28 26.5801C351.6 27.2701 350.16 27.0901 350.09 26.1701" fill="#020303"/>
<path d="M259.57 29.5498C258.86 29.1998 258.47 30.3798 258.71 32.1798L258.89 33.6098C259.12 35.4198 259.65 35.4398 260.06 33.6698V33.4198C260.48 31.6498 260.23 29.9098 259.52 29.5498" fill="#020303"/>
<path d="M178.58 54.6601C178.37 53.9501 179.69 53.3701 181.51 53.3701H188.51C190.33 53.3701 190.36 53.6701 188.58 54.0201L182.19 55.2901C180.4 55.6501 178.76 55.3701 178.55 54.6601" fill="#020303"/>
<path d="M34.84 68.8198C34.95 68.2898 33.55 67.8198 31.73 67.8198H30.09C28.26 67.8198 28.22 68.1798 29.99 68.6098L31.49 68.9698C33.25 69.4098 34.78 69.3198 34.89 68.7898" fill="#020303"/>
<path d="M9.23982 74.7099C7.41982 74.7099 6.23982 75.0299 6.57982 75.3899C6.91982 75.7499 8.71982 76.0299 10.5298 76.0299H24.0098C25.8198 76.0299 27.5998 75.6799 27.9598 75.2599C28.3198 74.8399 27.1098 74.4999 25.2898 74.5199L9.23982 74.7099Z" fill="#E3D8FF"/>
<path d="M70.2701 74.7099C68.4501 74.7099 67.2701 75.0299 67.6101 75.3899C67.9501 75.7499 69.7401 76.0299 71.5501 76.0299H85.0301C86.8501 76.0299 88.6301 75.6799 89.0301 75.2599C89.4301 74.8399 88.1801 74.4999 86.3701 74.5199L70.2701 74.7099Z" fill="#E3D8FF"/>
<path d="M104.59 74.4399C102.77 74.4999 101.38 74.8399 101.49 75.1899C101.6 75.5399 103.2 75.8399 105.02 75.8399H105.25C107.07 75.8399 108.66 75.4899 108.78 75.0599C108.9 74.6299 107.51 74.3399 105.69 74.3999L104.59 74.4399Z" fill="#E3D8FF"/>
<path d="M43.3597 44.5098C41.5497 44.5698 40.1597 44.9098 40.2797 45.2598C40.3997 45.6098 41.9897 45.9098 43.7997 45.9098H44.0297C45.8497 45.9098 47.4397 45.5598 47.5597 45.1298C47.6797 44.6998 46.2897 44.4098 44.4797 44.4698L43.3597 44.5098Z" fill="#E3D8FF"/>
<path d="M68.6595 44.5098C66.8395 44.5698 65.4595 44.9098 65.5795 45.2598C65.6995 45.6098 67.2895 45.9098 69.0995 45.9098H69.3295C71.1495 45.9098 72.7395 45.5598 72.8595 45.1298C72.9795 44.6998 71.5895 44.4098 69.7695 44.4698L68.6595 44.5098Z" fill="#E3D8FF"/>
<path d="M18.0897 48.55C16.2697 48.61 14.8797 48.96 14.9797 49.31C15.0797 49.66 16.5697 49.96 18.2597 49.96C19.9497 49.96 21.4297 49.61 21.5397 49.18C21.6497 48.75 20.2497 48.47 18.4297 48.54L18.0897 48.55Z" fill="#E3D8FF"/>
<path d="M48.3803 58.85C46.5603 58.85 45.2603 59.2 45.4803 59.55C45.7003 59.9 47.3803 60.19 49.2003 60.19H55.2003C57.0203 60.19 58.6903 59.85 58.9103 59.42C59.1303 58.99 57.8303 58.68 56.0203 58.71L48.3803 58.85Z" fill="#E3D8FF"/>
<path d="M34.4799 14.8199C32.6599 14.8199 31.3599 15.1699 31.5799 15.5199C31.7999 15.8699 33.4799 16.1599 35.2899 16.1599H41.3499C43.1699 16.1599 44.8399 15.8099 45.0599 15.3899C45.2799 14.9699 43.9799 14.6399 42.1599 14.6699L34.4799 14.8199Z" fill="#E3D8FF"/>
<path d="M139.73 74.4399C137.91 74.4999 136.52 74.8399 136.65 75.1899C136.78 75.5399 138.35 75.8399 140.17 75.8399H140.4C142.21 75.8399 143.8 75.4899 143.93 75.0599C144.06 74.6299 142.66 74.3399 140.84 74.3999L139.73 74.4399Z" fill="#E3D8FF"/>
<path d="M199.79 74.4299C197.97 74.4899 196.57 74.8399 196.68 75.1999C196.79 75.5599 198.27 75.8399 199.96 75.8399C201.65 75.8399 203.13 75.4899 203.24 75.0599C203.35 74.6299 201.94 74.3499 200.13 74.4099L199.79 74.4299Z" fill="#E3D8FF"/>
<path d="M150.93 74.4902C149.11 74.4902 147.78 74.8402 147.93 75.2002C148.08 75.5602 149.77 75.8402 151.59 75.8402H156.11C157.93 75.8402 159.58 75.4902 159.769 75.0702C159.959 74.6502 158.64 74.3202 156.82 74.3602L150.93 74.4902Z" fill="#E3D8FF"/>
<path d="M182.8 74.4902C180.98 74.4902 179.67 74.8402 179.89 75.2002C180.11 75.5602 181.78 75.8402 183.59 75.8402H189.29C191.11 75.8402 192.78 75.4902 193 75.0702C193.22 74.6502 191.9 74.3202 190.09 74.3602L182.8 74.4902Z" fill="#E3D8FF"/>
<path d="M217.95 74.4698C216.13 74.4698 214.77 74.8398 214.95 75.1998C215.13 75.5598 216.73 75.8298 218.54 75.8298H221.01C222.82 75.8298 224.44 75.4898 224.61 75.0598C224.78 74.6298 223.41 74.3298 221.61 74.3698L217.95 74.4698Z" fill="#E3D8FF"/>
<path d="M287.66 74.4698C285.84 74.4698 284.48 74.8398 284.66 75.1998C284.84 75.5598 286.44 75.8298 288.26 75.8298H290.71C292.53 75.8298 294.15 75.4898 294.31 75.0598C294.47 74.6298 293.12 74.3298 291.31 74.3698L287.66 74.4698Z" fill="#E3D8FF"/>
<path d="M337.29 74.46C335.47 74.46 334.1 74.84 334.24 75.19C334.38 75.54 335.99 75.84 337.81 75.84H339.24C341.06 75.84 342.67 75.49 342.81 75.06C342.95 74.63 341.59 74.33 339.81 74.38L337.29 74.46Z" fill="#E3D8FF"/>
<path d="M362.02 74.51C360.2 74.51 358.96 74.84 359.26 75.2C359.56 75.56 361.31 75.83 363.12 75.83H373.93C375.74 75.83 377.48 75.49 377.79 75.06C378.1 74.63 376.86 74.31 375.04 74.33L362.02 74.51Z" fill="#E3D8FF"/>
<path d="M392.53 74.4501C390.71 74.5001 389.33 74.8401 389.46 75.2001C389.59 75.5601 391.17 75.8401 392.99 75.8401H393.5C395.32 75.8401 396.91 75.4901 397.04 75.0701C397.17 74.6501 395.79 74.3401 393.96 74.3901L392.53 74.4501Z" fill="#E3D8FF"/>
<path d="M403.54 74.4902C401.71 74.4902 400.4 74.8402 400.59 75.2002C400.78 75.5602 402.44 75.8402 404.26 75.8402H408.89C410.71 75.8402 412.36 75.4902 412.56 75.0702C412.76 74.6502 411.43 74.3202 409.56 74.3602L403.54 74.4902Z" fill="#E3D8FF"/>
<path d="M427.87 74.4701C426.05 74.4701 424.7 74.8401 424.87 75.2001C425.04 75.5601 426.67 75.8401 428.49 75.8401H431.39C433.21 75.8401 434.84 75.4901 435.01 75.0701C435.18 74.6501 433.83 74.3301 432.01 74.3701L427.87 74.4701Z" fill="#E3D8FF"/>
<path d="M442.36 74.4601C440.54 74.4601 439.16 74.8401 439.3 75.2001C439.44 75.5601 441.04 75.8401 442.86 75.8401H444.09C445.9 75.8401 447.5 75.4901 447.64 75.0701C447.78 74.6501 446.4 74.3401 444.58 74.3901L442.36 74.4601Z" fill="#E3D8FF"/>
<path d="M462.83 74.52C461.01 74.52 459.83 74.84 460.21 75.2C460.59 75.56 462.38 75.84 464.21 75.84H479.09C480.91 75.84 482.7 75.49 483.09 75.06C483.48 74.63 482.29 74.31 480.48 74.33L462.83 74.52Z" fill="#E3D8FF"/>
<path d="M497.59 74.52C495.77 74.52 494.59 74.84 494.97 75.2C495.35 75.56 497.14 75.84 498.97 75.84H513.87C515.7 75.84 517.49 75.49 517.87 75.06C518.25 74.63 517.08 74.31 515.26 74.33L497.59 74.52Z" fill="#E3D8FF"/>
<path d="M585.46 74.52C583.64 74.52 582.46 74.84 582.85 75.2C583.24 75.56 585.02 75.84 586.85 75.84H601.73C603.55 75.84 605.35 75.49 605.73 75.06C606.11 74.63 604.93 74.31 603.12 74.33L585.46 74.52Z" fill="#E3D8FF"/>
<path d="M553.21 15.9701C551.39 15.9701 550.07 16.3201 550.29 16.6701C550.51 17.0201 552.17 17.3201 553.98 17.3201H559.46C561.29 17.3201 562.95 16.9701 563.16 16.5401C563.37 16.1101 562.06 15.8001 560.24 15.8301L553.21 15.9701Z" fill="#E3D8FF"/>
<path d="M525.78 15.9802C523.97 15.9802 522.68 16.3202 522.92 16.6702C523.16 17.0202 524.86 17.3202 526.68 17.3202H533.86C535.69 17.3202 537.37 16.9702 537.62 16.5502C537.87 16.1302 536.62 15.8002 534.75 15.8202L525.78 15.9802Z" fill="#E3D8FF"/>
<path d="M511.87 15.9498C510.05 15.9498 508.7 16.3198 508.87 16.6698C509.04 17.0198 510.66 17.3198 512.49 17.3198H515.57C517.39 17.3198 519.02 16.9698 519.2 16.5398C519.38 16.1098 518.02 15.8098 516.2 15.8498L511.87 15.9498Z" fill="#E3D8FF"/>
<path d="M516.52 44.3599C514.7 44.3599 513.39 44.7099 513.61 45.0699C513.83 45.4299 515.5 45.7099 517.31 45.7099H523.09C524.91 45.7099 526.58 45.3599 526.8 44.9399C527.02 44.5199 525.71 44.1899 523.89 44.2299L516.52 44.3599Z" fill="#E3D8FF"/>
<path d="M431.73 14.03C429.91 14.03 428.57 14.4 428.73 14.75C428.89 15.1 430.52 15.39 432.35 15.39H435.43C437.25 15.39 438.88 15.04 439.05 14.62C439.22 14.2 437.87 13.88 436.05 13.93L431.73 14.03Z" fill="#E3D8FF"/>
<path d="M451.43 14.03C449.61 14.03 448.26 14.4 448.43 14.75C448.6 15.1 450.23 15.39 452.05 15.39H455.15C456.96 15.39 458.59 15.04 458.76 14.62C458.93 14.2 457.58 13.88 455.76 13.93L451.43 14.03Z" fill="#E3D8FF"/>
<path d="M438.82 26.5302C437.35 26.5902 436.22 26.9402 436.3 27.3002C436.38 27.6602 437.53 27.9502 438.83 27.9502C440.13 27.9502 441.26 27.6002 441.34 27.1702C441.42 26.7402 440.28 26.4602 438.82 26.5302Z" fill="#E3D8FF"/>
<path d="M445.83 22.4701C444.01 22.5401 442.62 22.8901 442.71 23.2501C442.8 23.6101 444.24 23.8901 445.87 23.8901C447.5 23.8901 448.93 23.5401 449.03 23.1201C449.13 22.7001 447.73 22.4001 445.91 22.4701H445.83Z" fill="#E3D8FF"/>
<path d="M358.15 23.21C356.33 23.27 354.93 23.62 355.03 23.98C355.13 24.34 356.55 24.62 358.19 24.62C359.83 24.62 361.25 24.27 361.36 23.85C361.47 23.43 360.09 23.21 358.25 23.21H358.15Z" fill="#E3D8FF"/>
<path d="M380.17 43.7398C378.34 43.7398 376.96 44.1298 377.09 44.4898C377.22 44.8498 378.81 45.1298 380.63 45.1298H381.2C383.02 45.1298 384.61 44.7898 384.73 44.3598C384.85 43.9298 383.48 43.6298 381.66 43.6898L380.17 43.7398Z" fill="#E3D8FF"/>
<path d="M364.72 51.1198C362.9 51.1198 361.57 51.4698 361.77 51.8298C361.97 52.1898 363.61 52.4698 365.44 52.4698H369.95C371.76 52.4698 373.41 52.1198 373.61 51.6898C373.81 51.2598 372.47 50.9498 370.66 50.9898L364.72 51.1198Z" fill="#E3D8FF"/>
<path d="M583.33 52.6601C581.51 52.6601 580.19 53.0201 580.39 53.3701C580.59 53.7201 582.24 54.0201 584.05 54.0201H588.56C590.38 54.0201 592.03 53.6701 592.23 53.2401C592.43 52.8101 591.09 52.5001 589.28 52.5401L583.33 52.6601Z" fill="#E3D8FF"/>
<path d="M219.69 58.4302C217.87 58.4802 216.5 58.8202 216.69 59.1702C216.88 59.5202 218.44 59.8102 220.26 59.8102H222.03C223.85 59.8102 225.46 59.4602 225.61 59.0402C225.76 58.6202 224.4 58.3102 222.61 58.3502L219.69 58.4302Z" fill="#E3D8FF"/>
<path d="M188.78 52.2102C186.97 52.2602 185.6 52.5902 185.78 52.9502C185.96 53.3102 187.53 53.5802 189.35 53.5802H191.09C192.91 53.5802 194.52 53.2402 194.67 52.8202C194.82 52.4002 193.45 52.0802 191.67 52.1302L188.78 52.2102Z" fill="#E3D8FF"/>
<path d="M144.75 51.6699C142.93 51.6699 141.56 52.0499 141.75 52.4099C141.94 52.7699 143.51 53.0499 145.33 53.0499H147.09C148.91 53.0499 150.52 52.6999 150.67 52.2699C150.82 51.8399 149.45 51.5399 147.67 51.5899L144.75 51.6699Z" fill="#E3D8FF"/>
<path d="M78.0899 28.1102C76.2699 28.1102 74.9499 28.4602 75.1499 28.8102C75.3499 29.1602 76.9999 29.4602 78.8199 29.4702H83.6699C85.4899 29.4702 87.1499 29.1302 87.3499 28.7102C87.5499 28.2902 86.2299 27.9602 84.4199 27.9902L78.0899 28.1102Z" fill="#E3D8FF"/>
<path d="M203.17 16.9199C201.36 16.7199 199.96 16.8599 200.06 17.2299C200.16 17.5999 201.71 18.1099 203.52 18.3499L205.28 18.5899C207.08 18.8399 208.72 18.7099 208.92 18.3099C209.12 17.9099 207.82 17.4199 206 17.2199L203.17 16.9199Z" fill="#E3D8FF"/>
<path d="M392.72 55.9198C390.9 55.9198 389.53 56.2998 389.72 56.6498C389.91 56.9998 391.48 57.2898 393.3 57.2898H395.07C396.89 57.2898 398.5 56.9398 398.65 56.5198C398.8 56.0998 397.43 55.7898 395.65 55.8398L392.72 55.9198Z" fill="#E3D8FF"/>
<path d="M448.34 50.5202C446.52 50.5202 445.16 50.8902 445.34 51.2502C445.52 51.6102 447.1 51.8902 448.91 51.8902H450.69C452.51 51.8902 454.11 51.5402 454.26 51.1202C454.41 50.7002 453.04 50.3902 451.26 50.4302L448.34 50.5202Z" fill="#E3D8FF"/>
<path d="M314.69 15.4199C312.87 15.4199 311.76 15.7399 312.23 16.0999C313.554 16.5996 314.967 16.8176 316.38 16.7399H335.96C337.78 16.7399 339.64 16.3999 340.11 15.9699C340.58 15.5399 339.46 15.2099 337.64 15.2199L314.69 15.4199Z" fill="#E3D8FF"/>
<path d="M248.46 15.6198C246.64 15.6198 245.54 15.9398 246.02 16.2898C247.353 16.7916 248.777 17.0096 250.2 16.9298H270.62C272.44 16.9298 274.32 16.5898 274.8 16.1598C275.28 15.7298 274.18 15.3998 272.36 15.4198L248.46 15.6198Z" fill="#E3D8FF"/>
<path d="M244.99 43.7901C243.17 43.7901 241.89 44.1301 242.15 44.4901C242.41 44.8501 244.15 45.1301 245.93 45.1301H254.09C255.9 45.1301 257.6 44.7901 257.86 44.3601C258.12 43.9301 256.86 43.6101 255.02 43.6401L244.99 43.7901Z" fill="#E3D8FF"/>
<path d="M262.75 43.7901C260.93 43.7901 259.64 44.1301 259.89 44.4901C260.14 44.8501 261.82 45.1301 263.64 45.1301H270.89C272.7 45.1301 274.39 44.7901 274.64 44.3601C274.89 43.9301 273.64 43.6101 271.78 43.6401L262.75 43.7901Z" fill="#E3D8FF"/>
<path d="M300.8 70.77C298.98 70.83 297.59 71.17 297.71 71.52C297.83 71.87 299.41 72.17 301.22 72.17H301.28C303.1 72.17 304.68 71.82 304.81 71.39C304.94 70.96 303.54 70.67 301.72 70.73L300.8 70.77Z" fill="#E3D8FF"/>
<path d="M295.57 25.4999C293.76 25.2899 292.38 25.4299 292.51 25.7999C292.64 26.1699 294.21 26.6899 296.01 26.9399L299.34 27.3999C301.14 27.6399 302.8 27.5299 303.03 27.1299C303.26 26.7299 301.98 26.2299 300.17 26.0199L295.57 25.4999Z" fill="#E3D8FF"/>
<path d="M461.65 56.0101C459.84 55.8001 458.46 55.9401 458.6 56.3101C458.74 56.6801 460.3 57.2001 462.1 57.4501L465.41 57.9101C467.22 58.1601 468.88 58.0401 469.11 57.6401C469.34 57.2401 468.11 56.7501 466.25 56.5401L461.65 56.0101Z" fill="#E3D8FF"/>
<path d="M455.63 26.5302C454.27 26.5902 453.21 26.9402 453.3 27.3002C453.39 27.6602 454.42 27.9502 455.63 27.9502C456.84 27.9502 457.89 27.6002 457.96 27.1702C458.03 26.7402 456.96 26.4602 455.63 26.5302Z" fill="#E3D8FF"/>
<path d="M534.09 44.37C532.27 44.37 530.98 44.71 531.22 45.07C531.46 45.43 533.15 45.71 534.97 45.71H542.17C543.98 45.71 545.68 45.36 545.92 44.94C546.16 44.52 544.87 44.21 543.09 44.21L534.09 44.37Z" fill="#E3D8FF"/>
<path d="M597.81 15.9598C596 15.9598 594.65 16.3198 594.81 16.6698C594.97 17.0198 596.62 17.3198 598.43 17.3198H601.74C603.57 17.3198 605.2 16.9698 605.37 16.5398C605.54 16.1098 604.21 15.8098 602.37 15.8498L597.81 15.9598Z" fill="#E3D8FF"/>
<path d="M312 74.5102C310.18 74.5102 309 74.8402 309.3 75.2002C309.6 75.5602 311.39 75.8402 313.21 75.8402H325.6C327.42 75.8402 329.18 75.4902 329.52 75.0702C329.86 74.6502 328.64 74.3102 326.82 74.3402L312 74.5102Z" fill="#E3D8FF"/>
<path d="M230.89 74.5202C229.07 74.5202 227.89 74.8402 228.38 75.1902C229.686 75.7038 231.089 75.9256 232.49 75.8402H250.86C252.68 75.8402 254.53 75.4902 254.97 75.0602C255.41 74.6302 254.28 74.3002 252.46 74.3202L230.89 74.5202Z" fill="#E3D8FF"/>
<path d="M261.01 74.4998C259.2 74.4998 257.91 74.8398 258.15 75.1998C258.39 75.5598 260.08 75.8398 261.89 75.8398H268.97C270.79 75.8398 272.47 75.4898 272.72 75.0598C272.97 74.6298 271.66 74.3198 269.85 74.3398L261.01 74.4998Z" fill="#E3D8FF"/>
<path d="M117.66 74.67C115.84 74.67 114.49 75.04 114.66 75.39C114.83 75.74 116.45 76.03 118.27 76.03H121.27C123.09 76.03 124.72 75.68 124.88 75.26C125.04 74.84 123.71 74.52 121.88 74.56L117.66 74.67Z" fill="#E3D8FF"/>
</svg>
