<svg width="103" height="82" viewBox="0 0 103 82" fill="none" xmlns="http://www.w3.org/2000/svg">
<path d="M15.45 35.875C21.1311 35.875 25.75 31.2785 25.75 25.625C25.75 19.9715 21.1311 15.375 15.45 15.375C9.76891 15.375 5.15 19.9715 5.15 25.625C5.15 31.2785 9.76891 35.875 15.45 35.875ZM87.55 35.875C93.2311 35.875 97.85 31.2785 97.85 25.625C97.85 19.9715 93.2311 15.375 87.55 15.375C81.8689 15.375 77.25 19.9715 77.25 25.625C77.25 31.2785 81.8689 35.875 87.55 35.875ZM92.7 41H82.4C79.5675 41 77.0086 42.1371 75.1417 43.9789C81.6275 47.5184 86.2303 53.9086 87.2281 61.5H97.85C100.699 61.5 103 59.2098 103 56.375V51.25C103 45.5965 98.3811 41 92.7 41ZM51.5 41C61.462 41 69.525 32.9762 69.525 23.0625C69.525 13.1488 61.462 5.125 51.5 5.125C41.538 5.125 33.475 13.1488 33.475 23.0625C33.475 32.9762 41.538 41 51.5 41ZM63.86 46.125H62.5242C59.1767 47.7266 55.4591 48.6875 51.5 48.6875C47.5409 48.6875 43.8394 47.7266 40.4758 46.125H39.14C28.9044 46.125 20.6 54.3891 20.6 64.575V69.1875C20.6 73.4316 24.0602 76.875 28.325 76.875H74.675C78.9398 76.875 82.4 73.4316 82.4 69.1875V64.575C82.4 54.3891 74.0956 46.125 63.86 46.125ZM27.8583 43.9789C25.9914 42.1371 23.4325 41 20.6 41H10.3C4.61891 41 0 45.5965 0 51.25V56.375C0 59.2098 2.30141 61.5 5.15 61.5H15.7558C16.7697 53.9086 21.3725 47.5184 27.8583 43.9789Z" fill="#633CFF"/>
</svg>
