<svg width="58" height="71" viewBox="0 0 58 71" fill="none" xmlns="http://www.w3.org/2000/svg">
<path d="M37.9231 13.3125C41.6192 13.3125 44.6154 10.3324 44.6154 6.65625C44.6154 2.98006 41.6192 0 37.9231 0C34.227 0 31.2308 2.98006 31.2308 6.65625C31.2308 10.3324 34.227 13.3125 37.9231 13.3125ZM15.851 44.0242L13.7875 48.8111H4.46154C1.99793 48.8111 0 50.7983 0 53.2486C0 55.6989 1.99793 57.6861 4.46154 57.6861H15.2599C17.9437 57.6861 20.36 56.0997 21.4098 53.6521L22.6353 50.8066L21.1477 49.933C18.7329 48.5143 16.9566 46.4149 15.851 44.0242ZM53.5385 31.0611H47.3997L43.7663 23.6768C42.0235 20.1338 38.8237 17.5434 35.1527 16.6129L25.2425 13.6814C21.2969 12.7384 17.1881 13.6051 13.9716 16.0582L8.44067 20.2752C6.48457 21.7659 6.1137 24.5505 7.61529 26.496C9.11687 28.4416 11.9151 28.8063 13.8698 27.317L19.4035 23.1C20.4729 22.2832 21.835 21.9906 22.9267 22.2485L24.9762 22.8545L19.7535 34.973C17.9939 39.0611 19.5708 43.8494 23.4203 46.1098L35.2685 53.0669L31.4385 65.2326C30.7024 67.5706 32.0115 70.0598 34.3622 70.792C34.807 70.9307 35.2559 70.9972 35.6979 70.9972C37.5954 70.9972 39.3549 69.7811 39.9531 67.884L44.3644 53.8699C45.1884 50.9896 43.9615 47.8959 41.3473 46.3275L32.809 41.3159L37.1744 30.4607L40.0005 36.2058C41.1159 38.4717 43.4749 39.9347 46.011 39.9347H53.5385C56.0021 39.9347 58 37.9476 58 35.4972C58 33.0469 56.0021 31.0611 53.5385 31.0611Z" fill="#633CFF"/>
</svg>
