<svg width="72" height="72" viewBox="0 0 72 72" fill="none" xmlns="http://www.w3.org/2000/svg">
<path d="M66.1472 0.212311L21.1514 13.5C20.238 13.7869 19.44 14.3576 18.8732 15.1292C18.3065 15.9008 18.0006 16.8331 18 17.7904V54.5512C16.5265 54.1936 15.0163 54.0086 13.5 54C6.04688 54 0 58.0303 0 63C0 67.9697 6.04688 72 13.5 72C20.9531 72 27 67.9697 27 63V30.1387L63 19.5918V45.5526C61.5267 45.1937 60.0164 45.0083 58.5 45C51.0469 45 45 49.0303 45 54C45 58.9697 51.0469 63 58.5 63C65.9531 63 72 58.9711 72 54V4.49997C71.9993 3.79352 71.8324 3.09716 71.5126 2.46723C71.1928 1.8373 70.7292 1.29151 70.1594 0.874026C69.5895 0.45654 68.9293 0.17909 68.2323 0.0641319C67.5353 -0.0508266 66.821 -6.42324e-05 66.1472 0.212311Z" fill="#633CFF"/>
</svg>
