<svg width="67" height="71" viewBox="0 0 67 71" fill="none" xmlns="http://www.w3.org/2000/svg">
<path d="M29.5511 59.2504L23.1769 52.888L20.6599 50.3756L18.1429 47.8632C17.1585 46.8817 15.563 46.881 14.5797 47.8632L1.69148 60.7269C-0.563828 62.9783 -0.564164 66.6423 1.69249 68.8947L2.10707 69.3082C3.19962 70.3991 4.65265 71 6.19841 71C7.74384 71 9.19687 70.3994 10.2898 69.3085L21.3956 58.2232L25.9879 62.807C26.4801 63.2979 27.1251 63.5434 27.7698 63.5434C28.4146 63.5434 29.0596 63.2979 29.5518 62.807C30.5352 61.8251 30.5352 60.2326 29.5511 59.2504ZM58.6326 33.7793L35.7617 56.6079C35.289 57.0794 34.648 57.3443 33.9798 57.3443C33.9764 57.3443 33.9727 57.3443 33.9697 57.3443C33.2978 57.3416 32.6551 57.0713 32.1841 56.5931L20.8682 45.1138C19.8976 44.1292 19.904 42.5481 20.8823 41.5716L61.7934 0.736544C62.4364 0.0947029 63.3758 -0.151772 64.2536 0.0930262C65.1298 0.337489 65.8061 1.03466 66.0225 1.91661C66.2197 2.71974 70.7105 21.7241 58.6326 33.7793ZM48.7238 24.6245C47.7394 23.6426 46.1443 23.6426 45.1602 24.6245L29.6244 40.1316C28.6403 41.1142 28.6403 42.7064 29.6244 43.6886C30.1165 44.1795 30.7616 44.425 31.4063 44.425C32.051 44.425 32.6961 44.1795 33.1882 43.6886L48.7241 28.1814C49.7078 27.1992 49.7078 25.607 48.7238 24.6245Z" fill="#633CFF"/>
</svg>
