<svg id="svg2" xmlns="http://www.w3.org/2000/svg" viewBox="0 0 785 320">
  <g>
    <g id="g3055">
      <path id="path2998" d="M18.05,232.9V183.7h-16l3.6-14.8h40.7v14.8H32.85v49.2Z" fill="#633cff"/>
      <path id="path3000" d="M51.25,232.9v-64h12.3v20.7s3.5-5.9,12.3-5.9c5.3,0,13.5,3.3,13.5,12.3v36.9H77.05V203.4c0-4.5-1-7.2-6-7.2a7.57,7.57,0,0,0-7.5,7.2v29.5Z" fill="#633cff"/>
      <path id="path3002" d="M117.65,183.7c-18.3,0-24.6,14.4-24.6,24.6,0,15.4,11.4,24.6,24.6,24.6a33.64,33.64,0,0,0,21.1-7.4l-7.1-10.5s-6.1,5.6-13.5,5.6c-5.7,0-8.5-3.2-8.5-3.2l31.2-19.4C141.05,198.1,134.25,183.7,117.65,183.7ZM116,195.8a7.56,7.56,0,0,1,6.6,2.8l-14.7,9.8s-3.4-6.2,3.2-10.6A9.45,9.45,0,0,1,116,195.8Z" fill="#633cff"/>
    </g>
    <g id="g3018">
      <path id="path3006" d="M56.35,280.8,97,231.4s20.4,23.3,56.7,23.3c32.7,0,45.1-19.7,45.1-31.1,0-50-138.9-21.5-138.9-128.4,0-50.6,41-93.8,108.1-93.8,52.5,0,87.1,23.9,96.9,33.2l-38.4,49s-21.6-22.8-52.7-22.8c-20.5,0-38.4,11.3-38.4,27,0,54.6,137.7,17.7,137.7,129.8,0,71.4-54.3,101-115.1,101-64.8,0-101.6-37.8-101.6-37.8Z" fill="#633cff"/>
      <path id="path3008" d="M344,314.1h-71.3V272.3s12.3-23,12.3-54.1c0-33.1-12.3-51.5-12.3-51.5V55.8H344Z" fill="#633cff"/>
      <path id="path3010" d="M610.65,298.8l2.8,15.2h-72.2l-11.7-95.9L512.15,314h-64.8L431,218.5,417.75,314h-70l47.6-285.3h59.9l25.5,133.9,24.6-106.8h60.4l38.7,209.7L629,233s16.5,22.1,46.1,21.7c16.4,0,29.9-8.1,29.9-18.9,0-34.8-110.9-13.9-110.9-104.8,0-57.5,50.4-86.3,105-86.3,50.4,0,83.9,29,83.9,29l-39.8,48.5s-18.6-13.6-47-13.6c-16.1,0-31.2,6.7-31.2,18.9,0,32.6,110.5,14.6,110.5,103.4,0,57.8-44.7,85.7-97.3,85.7-44.6,0-67.5-17.8-67.5-17.8Z" fill="#633cff"/>
    </g>
  </g>
</svg>
