<svg width="77" height="77" viewBox="0 0 77 77" fill="none" xmlns="http://www.w3.org/2000/svg">
<path d="M73.5713 43.2974H69.4506C69.0596 43.2974 68.7588 43.5982 68.7588 43.9892V48.8017H63.2545V21.9871C63.2545 21.5961 62.9537 21.2953 62.5627 21.2953H58.442C58.051 21.2953 57.7502 21.5961 57.7502 21.9871V26.7996H52.2459V21.9871C52.2459 21.5961 51.9451 21.2953 51.5541 21.2953H47.4334C47.0424 21.2953 46.7416 21.5961 46.7416 21.9871V26.7996H41.2373V21.9871C41.2373 21.0847 40.0342 21.2953 39.4777 21.2953V15.5804C40.726 15.2797 42.0494 15.0691 43.3428 15.0691C44.982 15.0691 46.4859 15.7158 48.065 15.7158C48.7568 15.7158 52.2309 15.5504 52.2309 14.5127V5.48924C52.2309 5.09822 51.9301 4.79744 51.5391 4.79744C50.7721 4.79744 49.2682 5.44412 47.9297 5.44412C46.4709 5.44412 44.7865 4.79744 43.027 4.79744C41.8238 4.79744 40.6207 4.96287 39.4627 5.23357V4.49666C40.2748 4.10564 40.8312 3.24842 40.8312 2.34607C40.8312 -0.767013 36.109 -0.782052 36.109 2.34607C36.109 3.24842 36.6654 4.10564 37.4775 4.49666V21.2953C36.9211 21.2953 35.718 21.0847 35.718 21.9871V26.7996H30.2137V21.9871C30.2137 21.5961 29.9129 21.2953 29.5219 21.2953H25.4012C25.0102 21.2953 24.7094 21.5961 24.7094 21.9871V26.7996H19.2502V21.9871C19.2502 21.5961 18.9494 21.2953 18.5584 21.2953H14.4377C14.0467 21.2953 13.7459 21.5961 13.7459 21.9871V48.8017H8.2416V43.9892C8.2416 43.5982 7.94082 43.2974 7.5498 43.2974H3.4291C3.03809 43.2974 2.7373 43.5982 2.7373 43.9892V77H30.2438V62.5625C30.2438 51.6441 46.7416 51.6441 46.7416 62.5625V77H74.248V43.9892C74.2631 43.5982 73.9623 43.2974 73.5713 43.2974ZM30.2438 42.6207C30.2438 43.0117 29.943 43.3125 29.552 43.3125H25.4313C25.0402 43.3125 24.7395 43.0117 24.7395 42.6207V32.9957C24.7395 32.6047 25.0402 32.3039 25.4313 32.3039H29.552C29.943 32.3039 30.2438 32.6047 30.2438 32.9957V42.6207ZM52.2609 42.6207C52.2609 43.0117 51.9602 43.3125 51.5691 43.3125H47.4484C47.0574 43.3125 46.7566 43.0117 46.7566 42.6207V32.9957C46.7566 32.6047 47.0574 32.3039 47.4484 32.3039H51.5691C51.9602 32.3039 52.2609 32.6047 52.2609 32.9957V42.6207Z" fill="#633CFF"/>
</svg>
