<svg id="Capa_1" data-name="Capa 1" xmlns="http://www.w3.org/2000/svg" viewBox="0 0 450 515">
  <g>
    <g>
      <path d="M41.24,441.7c-41.3-.42-40.43-1-40.57,1-.21,2.75,5,.66,6.26,5.12v0c.13,4-.18,54.26-.2,57.38a4.81,4.81,0,0,1-2.5,3.4,1.49,1.49,0,0,0-.74,1.7A1.51,1.51,0,0,0,5,511.49h.31c6.37,0,15,.19,19.87,1.07a57.06,57.06,0,0,0,10,.94h0c25,0,38.11-19.07,38.2-37.91C73.46,459.42,63.44,441.92,41.24,441.7Zm-21.72,5.76c44-2.83,44.71,30.43,38.09,46.71-3.46,8.52-15.6,13.61-25.34,13.61-6,0-10.42-1.9-12.41-5.37Z" fill="#633cff"/>
      <path d="M99.63,477c0,23.73,19.42,36.15,38.61,36.15,18.6,0,38.37-13.27,38.37-37.85C176.61,428.47,99.63,427.27,99.63,477Zm13.78-.15c0-17.4,5-31.39,22.58-31.39,13.77,0,26.32,14.16,26.32,29.74.3,14-2.81,31-19.31,32.62-17.06,0-27-10.46-29.58-30.94Z" fill="#633cff"/>
      <path d="M260,440.77a16.84,16.84,0,0,1-4.59.81L206,441.51c-1.88-1-4.81-2.18-5.26-.11L198.85,450a1.52,1.52,0,0,0,2.75,1.16,7.79,7.79,0,0,1,3.76-2.87c4.4-.17,16.19-.19,18.79-.19l-.27,57.62a4.25,4.25,0,0,1-2,3.21,1.52,1.52,0,0,0,.79,2.81l16.17-.07a1.52,1.52,0,0,0,.66-2.88,3.51,3.51,0,0,1-2.14-2.93c-.06-2.68-.46-48.35-.54-57.75l16.53.39a5.61,5.61,0,0,1,4.87,3.68,1.51,1.51,0,0,0,1.66,1c1.59-.24,1.3-1.39,1.51-8.54a5.25,5.25,0,0,0,.51-2.61A1.51,1.51,0,0,0,260,440.77Z" fill="#633cff"/>
      <path d="M352.14,490.36c-4.06-.06-12.54-.07-14.34-.07L317.48,440a1.51,1.51,0,0,0-2.8,0l-26.47,65.11a9.12,9.12,0,0,1-4.06,3.75,1.52,1.52,0,0,0,.65,2.89l12,0a1.52,1.52,0,0,0,.5-2.95,1.55,1.55,0,0,1-1-1.93c.85-2.92,3.11-9.26,3.66-10.79l26.42.07,5.19,12.31a.6.6,0,0,1-.09.53,1.52,1.52,0,0,0,1.09,2.54l15.07.22a1.51,1.51,0,0,0,.51-2.95c-2-1-2.82-1.87-7.92-12.69,4.51.09,5.36-1.94,12.06-2.81a1.52,1.52,0,0,0-.17-3Zm-38.57-29.64,10.64,29.47-22.17.26Z" fill="#633cff"/>
      <path d="M446.44,495.86c-1.46,3.19-3.26,6.33-7.76,6.51-2.34.09-14.82.58-22.66.53C463,467,450.51,440,422.5,440a35.77,35.77,0,0,0-16.93,4.06,1.54,1.54,0,0,0-.77,1.21,54.62,54.62,0,0,0,.93,9.76,1.52,1.52,0,0,0,1.35,1.28,1.54,1.54,0,0,0,1.58-1c2.7-7.53,8.13-10.22,12.31-10.22,6,0,12.24,5.14,12.61,14.95.85,21.83-25.75,42.44-31.72,48.12-1,.87-1.8,1.79-1,2.85a1.52,1.52,0,0,0,3,.59c5.11,0,32.89-.19,38-.13,3.72.27,5.57-1.9,5.65-4.32l1.79-10.44A1.52,1.52,0,0,0,446.44,495.86Z" fill="#633cff"/>
    </g>
    <path d="M422.69,93.41c-1.56-73.66-1.66-57.74-.14-80.69a2.47,2.47,0,0,0-2.3-2.63C310.58,2.58,306.42,1.72,297.92,1.72,148.3,1.71,226.85-.74,27.14,11a2.46,2.46,0,0,0-2.32,2.6c12.87,246.94,12.4,206.66,5.82,371.24a2.46,2.46,0,0,0,1.9,2.5c15,3.54,12.3,2.14,47.17,2.17.06,0,65.34-7.11,65.4-7.12.31.05,90.28,14.82,90.59,14.82h.2c105.45-8.84,75.22-6.7,143.25-10.47l39.94,8.08a2.47,2.47,0,0,0,3-2.45C421.19,312,422.69,93.41,422.69,93.41ZM260.55,87.54l1.25-.31,28.43-6.41c14.56-3.65,16.72-4.54,29.18-10.4h0c5.75,2,21.53,10.73,25.53,15.74,2.64,3.32,2.47,4.06,1.64,7.61-.16.68-.35,1.47-.54,2.39l0,.19-6.25,48.92c-6.19.23-6.71-.24-8.42-1.82a23.06,23.06,0,0,0-3.13-2.5C318.8,134.64,288,111.86,278.29,104L259.18,88.66l.16-.14a2.69,2.69,0,0,0,.51-.75A3.18,3.18,0,0,1,260.55,87.54Zm44.3,246.33C304.29,333.32,66,80.64,65.77,80.29l20.83-16L377.59,257c-2.41,6.89-3.37,14.8-4.81,21.36-5.12,23.2-11.69,33.35-22,55.38C336.1,334.33,305.87,334.21,304.85,333.87ZM88,265.51c2.68-6.44,6.36-16.79,9.45-22,15.22,9.51,74.68,69.25,79.85,77.32-2.86,1.06-15.16,2.89-35.6,11-13,5.17-25.18,10.07-37,6.06-1.18-.4-4.32-3.06-9-7.08a153.52,153.52,0,0,0-20.68-15.27C67.45,311,68.64,312,88,265.51Z" fill="#633cff"/>
    <g>
      <path d="M55.23,266c-1.87-96.26.22-43.82-10.84-256L27.14,11a2.46,2.46,0,0,0-2.32,2.6L34,189.83c1.82,94.11,2.32,52.87-3.36,195a2.46,2.46,0,0,0,1.9,2.5c8.44,2,11.94,2.44,17.88,2.44C50.23,389.19,50,396.21,55.23,266Z" fill="#633cff"/>
      <path d="M189.72,326.22s10.09-3.47,1.8-12.57c-33.85-37.74-54.46-51.42-74.06-72.91-8.19-8.87-20,2.73-20,2.73,76.58,68.07,61.24,58.22,74.73,71.25a29.11,29.11,0,0,1,5.11,6.06c-.35.14-1.92.53-4.08,1.08-31.86,8-36.64,13.5-50.87,16.54,13.28,10.83,36.69-2.38,53.38-8.12,4-1.38,9.28-2.83,13.95-4.06Z" fill="#633cff"/>
      <path d="M392.07,237,113.88,59.54c-9.32-5.94-19.37-3.08-27.28,4.78L377.59,257c-2.41,6.89-3.37,14.8-4.81,21.36-5.12,23.2-11.69,33.35-22,55.38,0,0,26.35,5.07,34.39-12.77,18.85-40.12,14.5-47.69,19-60.36C403.66,253.47,404.65,245,392.07,237Z" fill="#633cff"/>
      <path d="M346,96.16l0,.19-6.25,48.92s24.73,15.28,27.84-9.84v0l5.12-41.36,0-.19c.2-1,.39-1.75.55-2.45.85-3.63,1-4.38-1.67-7.78-2.84-3.56-15.57-12.95-25.05-19-8.95-6-19.58,1.22-19.58,1.22-2.65,2-5,3.81-7.59,4.62,6.5,3.52,23,12.53,25.53,15.74s2.47,4.06,1.64,7.61C346.42,94.45,346.23,95.24,346,96.16Z" fill="#633cff"/>
    </g>
  </g>
</svg>
