<svg id="Layer_1" data-name="Layer 1" xmlns="http://www.w3.org/2000/svg" viewBox="0 0 170 40">
  <path d="M54.63,6.45h.82l.45-2.86-.74,0-.53,2.84ZM87.48,32.31c-1.48-.4-1.1,0-1.23-1.64l1.18.88,0,.76ZM74.35,20.82c0-1.2,2.3-4.92,3.69-4.92,1.79,0,.26,4.6,4.1,4.92v.82l-3.69,1.22h-2a2.33,2.33,0,0,1-2.05-2.05ZM80.5,37.64h4.92L87.07,36l.44-.8,0-2.89c1.67-1.93.4-3.08,2.87-3.28V28.2h1.23c.14-1.68.41-.91.41-2.46s-4.1-3-4.1-4.92V14.67l.44-.8-.53-2c2.29-.82-.07-.87,2.14-1.67l.42-3.28h-.83l-.47-2c-1.06.45-1,.4-1.17-1.24l-1.24-.41h-.4l-.83-.41-5.73,0-1.24-.39c-1.42.75-3.11,2.14-3.28,4.1-1.25.45-4,4.53-4.1,6.16-1.9.68-2.35,3.89-3.59,5.43-.62.77-3.38,5.23-3.38,6.05v3.69h1.23c1.24,0,1.13.49,1.24,1.56l2.86.5,2.07,0,.8.45h4.51c1.36,0,2,1.53,2.46,2.46v2.46c0,.61.89,1.81,1.23,2.46Zm-58.64,0c.44-1,.76.47.82-2l-.82,2Zm-13.13,0L10,36c-1.27.34-1.23.06-1.23,1.64Zm6.48-1.15.08-.9-.9.08.82.82Zm4.59-1.31.8.47,0-1.29c1-.75,1.2-1.55,1.24-3.28h2.05c1.48,0,.39-.1.82.41,1.08-.54-.34-.41,1.23-.41h.82c.79,0,.73.13,1.23.41l2-1.39.53-2.71c-1.77-.47-.75-.83-2.08-.83-.79,0-3.69.33-3.69-.41l-1.3-1.59c.62-1.2.25-2.1,1.71-2.1a2.58,2.58,0,0,0,1.64-.41H28l.85-1.21,0-.84c-.62-.88-.59-2.05-2-2.05H25.55l-1.63-.84V15.49c0-1,.28-1.23,1.23-1.23H27.6a1.58,1.58,0,0,0,1.64-1.64v-.83a1.58,1.58,0,0,0-1.64-1.64H23.5l-.8-.44a7.1,7.1,0,0,1-2.49.44H18.16l-.38,1.24,0,.82v7l.45.8,0,2.07v.82l-.44.8.91,1.2a2.34,2.34,0,0,0-.47,1.69V29l-1.66.33-1.59-.42,0-1.15V27l-1.63-.84-.83,0H10l-.84-1.63,0-7.39V11.79L8.3,10.17l-.8,0H5L3.4,11.79v2.88c-.25.38-.82,1-.82,1.23a2.54,2.54,0,0,0,1.64,2.46L4,20.84l-.14,2v2.87l-1.5,1.42-.14,1.46a5.12,5.12,0,0,0-.82,2.05c0,.86.15.54.41,1.64l-.41,1.23H2.52L3,32.31v-.82L2.49,29H3.4c1.43,1,.28.27,1.23,1.64l1.66,0,.8.45H9.55c1.1,0,1.21.59,1.62,1.16l1.66-.34a4.49,4.49,0,0,1,.83,2.93l1.22-.47c1.65-1.5.09.72.84-1.15l2-.49.18,2.16.64-1.34h1.64v.82l-.41.82ZM5,36c1.31-.88.29-.67,2.05-.82C6.94,34.56,7,34,6.27,34S5.21,35.28,5,36ZM105.13,14.27h2c1.41,0,2.35,1.88,2.87,2.87l.3,2.07.11,1.21c0,1.06-.27.42-.41,2.05l-1.24.39v1.66l-3.27.85-.35-.51.32-1.17c-.32-.64-1.21-1.84-1.21-2.45V16.72l0-.83.86-1.62Zm10.64,2c-1.64-3.43-2-2.89-3.69-5.34h-2v-.82l-1.24.39c-.46-.62-.06-.8-1.22-.8h-2l-3.28.83V9.74l-2.07-.3c-.48.63-.8.61-.8,1.53v4.11h-.82c.3,2.36.82,1,.82,2.46s-.82.62-.82,2.05v1.64L99,22c-.57,1.1-.44-.32-.44,1.25a5.12,5.12,0,0,0,.82,2V29c0,.94.28,1.23,1.23,1.23h3.69v1.23c.41-.47.72-1.23,1.23-1.23.22,0,.9.59,1.23.82,1-1.34,3.24-1.37,4.89-2.09s2.12-2.37,3.31-3.25l-.44-.8c.68-.49.85-.09.85-1.25a2.64,2.64,0,0,1,.41-1.64V16.31Zm-65.21.82-.82-1.64a2,2,0,0,1,.82-.41c.95,0,.8,1.14.82,2Zm-3.69,2.46.5,1.62c.65.52.63.84,1.55.84h.82l2-.93,0,6.26a6.08,6.08,0,0,0-.41,2.06c0,.84.64-.16.82,2l1.23.41,2.08,0,.8-.44.73-.43L57.61,29l-.48-1.21V22.46c-.87-.72,0-1,0-2.87V15.9H58c-.38-.81-.66-1.64.82-1.64h.82a1.58,1.58,0,0,0,1.64-1.64v-.83a1.58,1.58,0,0,0-1.64-1.64H49.33a2.34,2.34,0,0,0-2,2.06V13a8.57,8.57,0,0,1,1.23,2.46c0,.21-.59.9-.82,1.23V18H46.05l-.41-1.23-1.14-1,.42,2.59.72,0v.82l1.23-.41v.82Zm100.48,9v.82h.82v.82h1.64l.43-2.05h-.84V25.74h-.82V24.51l-.43-4.1c-1.55-3-2.43-7.15-4.08-10.26h-1.64c-1.49,0-.4.1-.82-.41-1.08.54.34.41-1.23.41h-1.64c-1.33,0-1.58,1.17-2.05,2.06v1.64l-1.39,3.63-.66.06V16.31l-1.32,1.14.09,1.32v.82h.82c0,2.46-2.87,8.12-2.87,8.61v1.24c0,.94.28,1.23,1.23,1.23h1.23c1.83-1,2.72-1.44,3.69-3.29h2.87l.8-.44,2.07,0c1.5,0,1.89,1.94,3.28,2.88l.82-1.23Zm-7-7.8V19.18c2.43.65,0,.49,2.05,1.23,0,1.94.42,1.61-1.23,2.05h-.82V20.82Zm-11.48,4.1.41-1.23-.41-.41c-.37.21-.82.27-.82.82s.5.6.82.82Zm30.76,0-1.23.41c-.71-.62-1.64-.88-1.64-2v-7a2.32,2.32,0,0,1,2.05-2h.41l.92-.13,2.36,2.18.82,2.46v2.05c-1.11,2.32-.59,2.57-2.87,4.1ZM153.1,29l.41,1.23h1.64l2.87.41,2.47-.79.81,0c4-.93,5.3-3,7-6.16H167l.76-2.89.06-.8c0-.9-.37-.76-.41-2.46l1.2-.49c-.12-1.67-.62-1.9-1.21-3.2-.82-1.83.15-2-2.45-2.06l-2-1.74-1.72-.31h-1.64l-.49-1.2a3.86,3.86,0,0,1-1.56,1.2h-2.46l-.8-.44-.84,0A1.58,1.58,0,0,0,151.87,11V23.69c0,1.49.09.4-.41.82.53,1.08.41-.34.41,1.23v2.05l.48,1.21.75,0ZM107.16,24.1H108V22.46h-.82V24.1Zm-1.56-1.58.33,1.17c1.08-.78.89-.07.43-1.22l.25-1.34-1,1.39Zm-69-13.19H33.75c-.64.43-1.23.55-1.23,1.64V13l.41,1.23-.45.8,0,.84v9.43l.44.8,0,2.9c0,1.33,1.16,1.58,2,2h.82a1.58,1.58,0,0,0,1.64-1.64V28.2l.45-.79,0-2.49V23.69l.49-1.2c1.66-.49.64-.85,2-.85h.82c1.94,0,.7,2.05,2,2.05.58,0,.82-.56.82-1.23V20.82l-.69-1.3.32-.73c-.78-.52-.76-.84-1.68-.84H40.31v.82H38.67c-.79,0-.73.13-1.23.41l.78-2.48-.45-1.18c1.41-.74,1.21-1,2.54-1.67H42c1.15-.56,2-.18,2-1.64V10.56c0-1.27-1.56-1.86-2.46-2.46V9.33L40.3,9l-1.22,0-.8.45-1.66,0Zm89-1.64-.81,2.06-1.25-.39c-.57.67-2.38.38-3.68.38-2.65.06-1.6.25-2.47,2L117.8,13l0,1.23,0,7.4.44.8v6.16c0,1.15.18.75.83,1.23v.82h5.74l.8-.45,2.48,0c.94,0,1.23-.29,1.23-1.23V27.38c0-.79-.13-.73-.41-1.23-2.06,0-5.33.68-5.33-1.23v-.41l0-.83.84-1.61,1.2.37.45-.8,1.61,0,.85-1.21V19.18L128,18a4.52,4.52,0,0,0-2-.44h-2l-.39-1.24c.53-1.14.16-2,1.62-2h1.23l2-.51.41-1.14,0-.82V11c0-.92-.33-.9-.82-1.64l-2,.5.42-2.95-.85.81Zm6.15,11.08.49-1.2-2.13-.44V18H131v1.23l.82-.41ZM10,15.9l.41.82c.71,0,.41-.34.41-1.23,0-1.61.62-.05.82-2.46H10.46l-.5,2v.82Zm120.58.41h1.64V15.08h-.82l-.8.47,0,.76Zm-83.61-2c-1.07-.62,0-.46-.88-.46-.56,0-1,.85-1.23,1.23l1.17.36.94-1.13Zm84.35-2.9.47,1.21-.45,1.22c.7-.46.88-.07.88-1.22s-.13-.75-.9-1.21Zm3.28,1.7.08-.9-.9.08.82.82ZM46.46,11c-1.27.89-.66-.19-.82,1.65h.82V11ZM164.58,8.1l-.41,1.23H165V6.46c-1.12.82-1.17.11-.41,1.64Zm-23.38-2c0-.79.13-.73.41-1.23-1.74.7,0-.25-1.23,1.64.54,1.08.41-.34.41,1.23V8.92c1.48-.39,1.1,0,1.23-1.64h-.82V6.05ZM12,8.51h0Zm111.13-2H124v-2l-.33,0-.51,2Z" fill="#633cff" fill-rule="evenodd"/>
</svg>
