<svg id="Layer_1" data-name="Layer 1" xmlns="http://www.w3.org/2000/svg" viewBox="0 0 3000 1750">
  <g>
    <path d="M195.34,12.5C174.2,18.88,158.44,27.6,146.69,42c-16.77,20.13-17.44,23.15-16.1,83.2.67,34.55.67,95.6,0,136.86-.67,73.8-.67,73.8-14.42,69.44-27.51-9.39-93.26-5-104.33,7.05-9.39,10.06-9.39,10.06,1.34,6.37,8.05-2.35,10.74-1.34,8.72,3.69C20.56,353,15.53,356,11.84,355c-4.36-.67-7,10.74-7,31.2a481.14,481.14,0,0,1-3.69,55c-2.35,17.44,0,25.16,13.08,38.91,15.09,16.1,20.13,17.44,65.08,17.44,41.93,0,49.31,2,52,10.74,3.69,14.42-.67,728.28-4.36,738.34-2,5.7-16.1,8-43.27,8s-47,3.69-59.38,10.74c-18.78,11.4-19.45,12.41-20.12,61.39-1.35,99.63,1.34,103.32,80.17,103.32H137l-2,120.09c-2.34,169.07,2.35,176.45,123.79,183.16,180.14,9.39,707.48,13.08,794,5.7a829.21,829.21,0,0,1,86.21-2.35c40.59.68,50.65,0,58-7,6.38-5,8.73-5,8.73,0,0,3.69,3,7,6.37,7,3.69,0,6.37-5.7,6.37-13.08,0-7-2.35-10.73-6.37-8.72-3,2-6.37.67-6.37-3,0-11.4,15.09-3.69,21.8,11.41,6.37,13.75,8,13.75,146.93,13.75,77.49,0,183.83,2,236.5,3.69,141.9,5.7,364.31-2.35,364.31-13.75,0-5,3-8.73,7-8.73,3.69,0,5.7,4.37,3,9.4-2.35,8,4.36,9.39,45,9.39,26.17.67,170.75,1.34,321.7,2,150.29.67,271.39-.67,269.71-3.69-1.34-2.34,2-4.36,7.38-4.36,6.38,0,8.05,3,5.71,7.38-7.38,11.74,156.32,2,183.83-11.74,45.62-22.47,48.3-31.87,48.64-167.73.67-67.09,2.35-125.79,5-131.5,2.35-7.38,7.38-8.72,17.44-5.7,18.12,6.37,86.22,3,99-3.69,8-5,7.38-5.7-2-6.37-7,0-10.73-3-8.72-8,1.34-3.7,5.7-7.05,8.72-6.38,8.05,2,14.43-98.29,7.38-110.7-15.09-26.84-17.44-28.18-74.47-31.2l-57-3L2861.22,875l-2-376.72h55.68c51.33,0,55.69-1.34,70.78-17.44,13.09-13.75,15.77-21.13,13.09-38.91-2-11.74-3.69-36.9-3.69-54.35,0-21.13-2.35-32.54-7.05-31.19-3.69.67-8.72-2.35-10.06-7.05-2-5,.67-6.37,8.72-3.69,10.06,3.69,10.06,3,2-5.7-10.06-10.74-71.78-15.77-100-8.05-28.18,7.38-30.53.67-34.55-112-7-174.1-20.13-198.92-105.67-196.57-25.16.67-48.65-.67-52.67-2.35-6.71-6-113.05-13.42-166.72-13.42-20.8.67-57,.67-81.18.67-23.82,0-147.61,1.34-275.41,2-127.14.67-255.29,2-284.81,3s-65.75,2.35-81.18,2c-242.87-3.7-444.15-5-454.88-2.35-8.05,2-13.75,5.7-12.41,8.05.67,2.35-1.34,5-5,5.7-3,1.34-6.38-2-6.38-6.37,0-5.71-30.19-7.38-128.14-7.38-99.63,0-127.48,2-127.14,7.38,1.34,4.36-2.35,8.05-8,8.05-5,0-8-2.35-6.38-5.7,7.38-11.41-33.21-13.09-318.35-13.09-158.33,0-338.47-1.34-400.53-2.35-82.19-2-121.44-.33-143.91,5.37ZM1467.06,181.91c856.42,1.34,1139.88-.67,1139.88-5.71,0-5.7,2-5,5,0,2.34,4.37,18.78,8.73,35.55,9.4l31.2,2,.67,31.2c1.34,50,9.39,555.52,8.72,566.25-2,53.34,0,455.55,3,595.77s2.35,180.15-3.69,183.83c-4.36,2.35-28.18,3.7-52,3-46.3-2-215.37-2-863.47-1.34-336.13.67-379.74,2-376.72,10.07,2.35,6.37-.67,9.39-8.72,9.39s-11.41-3-8.73-9.39c3-8.05-36.22-8.73-314.65-8.73-174.44.68-369,2.35-432.41,4.37-62.73,2.34-113.72,2.34-113.72-.68,0-7.38-21.8-5-30.19,3-5.7,5.71-9.39,6.38-12.41,1.35-2.35-5-32.54-7.38-81.85-8.06-42.61-.67-80.18-2.34-82.53-4.36-3-2-5.7-25.49-5.7-53.67,0-41.93-1.34-49.31-9.39-46.29-6.38,2.34-9.4-.67-9.4-8.73s3-11.4,9.4-8.72c8,3,9.39-24.49,10.06-223.41,2.35-748.41,2.35-739.69-6.37-742.71-5-2-6.38-4.36-2-7,9.4-5.7,10.74-81.18,2-109-4.36-12.42-5.71-26.17-2.35-30.53,2.35-4.36,5-39.59,6.37-76.82.67-38.24,1.34-72.46,1.34-77.49.67-5.7,4.37-7,11.75-3,5.7,2.35,524,5.37,1151.29,6Z" fill="#633cff"/>
    <path d="M2289.94,339.57l-133.18,1.34-24.49,23.82c-20.8,20.13-25.16,28.18-28.18,57.7-7,59.38-7,142.57-1.34,275.41,3,70.78,5,139.55,3.69,153.31s-2.35,128.81-2.35,256.62l-.67,231.47,15.1,24.49c8.05,13.08,23.81,27.5,34.88,32.54,25.16,10.73,276.42,13.08,309.63,3,30.53-9.39,55-40.59,58.71-75.14,6.37-60.72,3.69-523-3-540.42l-7-16.77H2425.8c-58,0-88.23,2.34-93.26,7.38s-7.38,29.52-7.38,67.42v60l18.78,10.73,18.79,11.41.67,70.11c0,38.91,0,101.31-.67,140.22-.67,41.93,2,74.47,6.37,81.18,5,8,5.71,16.11.67,28.18-6.37,16.78-7,16.78-53.67,14.43-53.34-2.35-63.07-6.38-53.34-18.79,7-8.72,10.07-446.16,4.36-651.79l-3-100.64,45-2.35c67.09-3,66.42-3.69,66.42,41.26,0,21.81,3,41.93,7.38,46.3,5.7,5.7,5.7,7.38,0,7.38-13.76,0-8.05,17.44,7,20.79,22.48,4.36,110.7.68,117.08-5.7,2.34-3,6.37-51.32,8.05-107.68l2.35-102.65-17.45-17.45c-15.09-15.09-28.18-20.12-70.11-26.83-4-1.34-67.43-1.34-139.88-.34Zm-1788,12.08c-5.7,5.7-7.37,41.26-5.7,128.14,2,140.23,1.34,129.49,8.72,117.75,5-7.38,6.38-5.7,6.38,7.38,0,8.72-3,17.44-7.38,18.79-5.71,2-7.38,28.85-7.38,93.25-.67,78.16-2,92.59-11.41,102-9.39,8.72-11.4,22.48-11.4,80.18,0,38.24,2,67.42,4.36,65.75C483.83,959.16,505,978.62,505,990c0,4.36-2,8.05-4.36,8.05-3,0-5.7,85.87-7,190.87-.67,105,1.34,190.88,3.69,190.88,3,0,8.72,7,12.41,15.76,7,15.1,9.39,15.77,69.44,15.77,92.59,0,87.55,11.41,85.88-216.37-1.34-99.63-2.35-183.83-3.69-187.18-7-26.84-3.69-28.18,85.2-28.18,96.28,0,132.51-7,154-29.52l14.42-15.77,2-271.39c1.34-182.82-.67-276.08-5-284.13-15.76-28.85-32.54-31.2-223.41-33.21-132.17-1-181.82.34-186.52,6Zm246.9,150c.67,6.37.67,73.13,1.34,148.94,0,75.82,2,132.51,3,126.47,5-18.79,14.43-11.41,14.43,11.74,0,18.12-2,21.81-10.07,18.79-7-2.35-8.72-.67-6.37,7.38,3,9.39-.67,10.73-38.24,8.72-23.82-1.34-45-6.37-50-10.74-10.06-10.06-10.73-28.17-1.34-28.17,4.36,0,5.71-44,3-143.24-1.34-78.84-1.34-145.26.67-146.94,2.35-2,21.81-3.69,44-3.69,33.54.34,39.58,2,39.58,10.74Zm288.5-152c-10.74,12.41-7,151.29,4.36,148.94,3.69-.67,7.38,3,7.38,8.05s-3.69,8.72-7.38,7.38c-5.71-.67-8.73,9.39-10.07,31.87-1.34,26.17,0,32.54,6.38,28.85s6.37-3,1.34,4.36c-10.07,13.08-16.78,721.91-7.38,763.84,5.7,22.47,12.41,34.55,28.18,45.62l20.8,16.1,164-2.35c182.83-2.34,195.91-5.7,215.7-43.94,13.76-26.84,19.46-237.84,16.11-605.17-1.35-149.61-2.35-298.55-2.35-329.75,0-36.23-2.35-59.38-7-62.73-4.36-2-8.72-.67-10.06,3-3,10.73-13.76,9.39-13.76-2,0-7.38-10.06-9.39-53.33-9.39-85.88,0-79.51-20.8-78.84,267.7.68,133.17,2.35,279.77,4.37,324.72,3,59.37,2,83.19-3,83.19-11.41,0-8,23.82,4.36,30.53,7.38,5,8.72,8,3,11.4-4.36,3.69-8.06,34.56-9.4,90.58-2,72.46-3.69,87.55-13.08,97-10.73,10.73-11.74,10.73-19.46,0-9.39-11.75-35.55-13.76-54.34-3.69-18.79,9.39-38.24-8.73-33.21-31.2,4.36-18.79,7.38-538.08,4.36-726.27l-2.35-128.81L1165.82,353c-18.12-10.06-31.2-13.75-38.92-10.06-11.74,5-53.67,5-71.79-.67-5.7,0-13.41,2.35-17.77,7.38Zm557.53-.67c-7,9.39-9.4,236.49-2.35,267,3,11.74,3,41.26,1.34,65.75-2.35,24.49-2,47,1.34,51.33,8,10.06,0,33.21-11.4,33.21-5,0-7.38,3-5.71,6.37,2,3.69-.67,10.73-5.7,16.1-11.4,11.41-14.42,99-3.69,105.67,3.69,2,6.37,9.39,6.37,15.77s3,12.41,7,13.75c5.7,2,7.38,58,7.38,205.3-.67,117.75,2,206.31,5.7,211,3,3.69,3,8.73.67,10.07-3,2-4.36,15.09-3,28.85l2.35,25.49,167.06-2c248.91-2,234.48,15.77,235.16-292.18,0-207-.68-216.38-12.42-229.12-37.57-40.59-41.93-48.31-31.86-53.68,25.15-13.75,31.19-42.6,32.53-136.53.68-50,2-140.89,3-201.94,2-105,1.35-112-11.4-123.79-19.46-19.45-48.64-23.14-218.38-23.81-118.42,0-159,1.34-164,7.38ZM1829,491.87c3.69,6.37,3.69,53.67,0,237.17-.67,45.62-3.69,48.31-50.66,40.59l-26.83-3.69-3.69-54.34c-2-30.19-3.69-58.71-4.37-63.74,0-5,2-44,4.37-86.21l4.36-76.49h36.23C1808.22,484.83,1826.33,487.85,1829,491.87Zm-2.69,439.79c2.35,3.69,5,52,5,107s.68,125.79.68,157.66c.67,31.2-.68,60.05-3,63.07-5,8-70.12,5-80.85-4.36-7-5.71-8.05-13.09-4.36-30.19,3-12.42,5.7-83.2,5.7-157.67,0-116.4,1.34-135.86,10.07-141.9C1771.32,916.56,1819.62,920.92,1826.33,931.66Z" fill="#633cff"/>
  </g>
</svg>
