<svg id="Layer_1" data-name="Layer 1" xmlns="http://www.w3.org/2000/svg" viewBox="0 0 2280 320">
  <path d="M2246,85.2V69.7h-6.38V66.06H2256V69.7h-5.47V85.2Zm12.78,0V66.06h6.38l3.65,14.59,4.56-14.59h6.38V85.2h-4.56V69.7l-3.65,15.5h-4.56l-4.57-15.5V85.2ZM53.18,67.88H166.24c49.23,62.92,100.29,126.73,149.52,189.65,21,27.35,10,59.27-22.8,59.27H.29c22.79-22.8,45.59-44.68,68.37-66.57,11.86-10.94,10-8.2,23.71,0,23.71,13.68,37.38,16.42,72.95,16.42H219.1C164.42,200.08,108.81,134.43,53.18,67.88Zm1069.5-10c-8.21,56.52-13.68,123.09,14.59,169.59,19.14,32.81,58.35,56.52,121.28,56.52-31,26.43-57.46,35.56-93.93,34.66-76.57-2.74-142.22-78.42-145.87-163.22-.91-31.9,4.55-67.46,16.42-97.55ZM1105.36,1.32c-24.61,0-55.61,30.09-68.37,49.25h203.32c5.48,0,9.12,3.64,11,8.2,5.47,10.94,5.47,14.59,14.57,7.29,13.68-10,41.94-31,67.48-49.24,19.15-13.68,13.68-15.5-11-15.5Zm221.55,64.74c-10.94,0-13.68,0-21.89,5.47-17.33,10-42.84,25.52-60.17,35.56-7.29,4.57-17.32,9.12-1.82,9.12h168.68c22.77,0,24.59,24.62,12.74,40.11-17.31,20.06-26.45,31.92-42.84,52.88-10,11.86-9.12,11.86,2.73,22.79l42.84,42.87h173.24l13.68-53.79h67.46l-16.42-47.42H1626l11.85-48.31h-60.19L1530.2,274q-39.65-30.1-79.31-60.18,16.42-20.52,32.83-41c10-12.75,20.06-27.34,20.06-47.39,0-28.27-20.06-59.27-60.19-59.27ZM820,66.06c-10,0-12.76,0-21.9,5.47-17.31,10-42.85,25.52-60.18,35.56-7.28,4.57-17.31,9.12-.9,9.12H904.76c22.8,0,24.62,24.62,12.76,40.11-16.4,20.06-26.44,31.92-42.85,52.88-9.12,11.86-8.21,11.86,2.74,22.79l42.85,42.87h104.85c-27.36-20.07-53.79-41-81.14-61.09l32.82-41c10-12.75,20.07-27.34,20.07-47.39,0-28.27-19.16-59.27-59.26-59.27Zm460.42,59.27h80.26V274.84H1280.4V125.33Zm-506.92,0h80.24V274.84H773.48V125.33ZM1820.17,66.06h169.59c19.16,0,16.42,2.73,0,18.23-9.12,7.29-16.42,14.59-24.59,21.88-11,10.93-12.79,10-28.28,10H1767.3c-28.27,0-25.54,1.83-4.56-15.5,10-9.12,20.06-17.32,30.09-26.45,11-9.1,13.69-8.19,27.34-8.19Zm-24.59,59.27h74.75V160h64.75c26.42,0,21.87,3.64,3.64,17.31-9.11,7.31-19.15,14.6-29.18,21.9-7.29,5.47-9.12,5.47-18.23,5.47h-21v70.21h-74.75V125.33Zm-134.94,15.48c-8.21-24.61-30.09-32.81-62-32.81h-21.89c-2.74-11.85,24.61-24.62,39.2-33.73,13.69-8.21,19.16-8.21,36.48-8.21h41.91c10,0,12.77,5.47,17.33,18.23l73.86,190.55h-76.6c-15.48-43.77-31.87-91.16-48.28-134Zm-1023.93,0c-8.19-24.61-31-32.81-62-32.81H552.83c-2.74-11.85,24.61-24.62,39.2-33.73,13.67-8.21,19.16-8.21,36.47-8.21h42c10,0,12.76,5.47,17.31,18.23l73.85,190.55H685C669.54,231.07,653.12,183.68,636.71,140.81Zm-83-15.48L505.41,274.84h71.11l13.69-53.78h67.46l-16.42-47.42h-39.2l11.85-48.31ZM2219.52,78.82c-10.92-12.76-8.18-12.76-24.59-12.76H2041.74c-14.59,0-12.76,0-24.61,11.85-8.21,9.12-15.5,17.33-23.71,28.27-4.57,6.38.91,6.38,4.56,6.38h156.83a157.94,157.94,0,0,0,10,16.42c3.64,7.29,4.56,6.39,12.76,6.39h17.33c10.94,0,16.42-.91,25.51-7.29,11.85-7.29,19.16-19.15,11.85-30.09-4.56-8.23-7.3-11.87-12.77-19.17Zm-1919.25.91c-7.29,6.38-14.59,14.59-21,21-11.85,10.94-.9,24.61,10.94,32.81,9.12,7.29,14.59,7.29,25.53,7.29h21c9.11,0,9.11,1.83,13.67-6.38a115.69,115.69,0,0,0,10-18.24H531.84c2.74,0,8.21,0,4.57-6.38C530,98,525.46,90.65,519.09,78.79c-6.38-10.93-10-12.76-22.8-12.76H329.44c-16.4,0-16.4,1.85-29.17,13.7ZM2049,125.33H2143V222c0,16.42-.91,16.42-8.21,30.08-7.29,14.59-41,57.44-52,57.44-8.21,0-33.75-42.85-33.75-68.36V125.33Zm-1674.91,0h93V222c0,16.42,0,16.42-7.29,30.08-8.21,14.59-41.94,57.44-52,57.44-8.19,0-33.73-42.85-33.73-68.36V125.33ZM89.65,1.32c-31.91,0-50.14,12.78-50.14,50.16H208.18c24.62,0,32.83,0,46.5,17.31,8.21,9.12,10,9.12,18.23-.91q20.64-25.8,41.95-51.06c7.29-8.19,3.64-15.5-8.21-15.5Z" fill="#633cff" fill-rule="evenodd"/>
</svg>
