<svg id="Layer_1" data-name="Layer 1" xmlns="http://www.w3.org/2000/svg" viewBox="0 0 180 50">
  <g>
    <polygon points="83.46 10.8 92.25 1.31 101.67 10.94 96.75 13.82 93.52 10.52 91.27 12.84 91.27 36.95 93.52 39.2 98.93 34.84 101.18 40.68 92.46 48.69 83.46 38.99 83.46 10.8 83.46 10.8" fill="#633cff" fill-rule="evenodd"/>
    <path d="M98.3,15.16l13.07-7.52,11.39,12.3L115.24,27l5.06,2.32v7.1c0,2.39.7,3.51,2.46,5.2H116a7.38,7.38,0,0,1-2.74-6v-3l-3.87-2.53V36.6c0,2,.42,2.88,2.32,5.06H100.05c2.81-2.88,2.81-4.85,2.81-7.31V17.55L98.3,15.16Zm11.1.56v7.73l3.87-3.65-3.87-4.08Z" fill="#633cff" fill-rule="evenodd"/>
    <path d="M57.94,16,70.53,8.06,82.69,20.64l-7.38,6.82,5.2,2.6v6.47c0,2.39,1,3.44,2.81,5.13h-7a7.31,7.31,0,0,1-3.09-5.48V33.51l-3.94-2.46v5.69c0,1.9.35,2.81,2.39,4.92h-12c2.88-2.74,2.88-4.71,2.88-7.1V18.32L57.94,16Zm11.39.21V24l4.36-3.52-4.36-4.29Z" fill="#633cff" fill-rule="evenodd"/>
    <path d="M41.92,15.09c3.79-2.11,8.29-4.71,12-6.89-.64,3.65-.71,5.06.14,8.08,1,3.52,1.82,6.4,2.67,9.28a39.38,39.38,0,0,1,4.15-.42v2.53a24.13,24.13,0,0,0-3.31.92c.56,2.1,1.2,4.28,1.9,6.74.91,3.38,1.27,4.57,3.44,6.33H51.69c2-4.22,1.54-6,.77-8.93L52,30.83a27.92,27.92,0,0,0-5.34,3.52c-1.06.84-1.55,1.2-1.69,2.53-.14,2,1.19,3.16,3,4.78H36.78a7.13,7.13,0,0,0,3.52-5.48c1.12-5.49,2.25-10.83,3.37-16.24.56-2.67.42-3.73-1.75-4.85Zm9,12L48.59,18.6c-.07.28-1.12,6-2.18,10.9A23.58,23.58,0,0,1,50.91,27Z" fill="#633cff" fill-rule="evenodd"/>
    <path d="M124.17,14.1c4-2.18,8.78-4.85,12.72-7.1-.7,3.73-.7,5.28.14,8.37s1.69,5.83,2.46,8.51a46.3,46.3,0,0,1,4.64-.57v2.74a25.87,25.87,0,0,0-3.65,1.06c.7,2.46,1.4,5.06,2.24,8,1.06,3.52,1.41,4.71,3.66,6.54H134.64c2.18-4.36,1.62-6.26.84-9.21l-.77-2.81a30.08,30.08,0,0,0-5.9,4.22A3.36,3.36,0,0,0,127.47,36c-.49,2.53.91,3.79,3.09,5.62H118.68a7.54,7.54,0,0,0,3.8-5.69c1.19-5.7,2.32-11.11,3.58-16.88.57-2.67.43-3.79-1.89-5Zm9.42,11.46-2.25-7.8c-.07.28-1.13,5.55-2.18,10.33a21.52,21.52,0,0,1,4.43-2.53Z" fill="#633cff" fill-rule="evenodd"/>
    <path d="M159,9.39h18.84v8.3c-1.05-1.06-1.82-1.76-3.44-1.76h-3V33.86a9.36,9.36,0,0,0,3.44,7.8H162c2.81-2.46,2.88-4.71,2.88-7.73v-18h-2.25A3.94,3.94,0,0,0,159,17.69V9.39Z" fill="#633cff" fill-rule="evenodd"/>
    <path d="M140.83,16.07c4.64-3.23,9.21-6.47,13.85-9.7,1.47,1.55,2.88,3.09,4.35,4.64v6.68l-3.72-3.52c-.85.57-1.69,1.2-2.53,1.76v6.68H159v6.82a3.2,3.2,0,0,0-2.81-1.13h-3.44v7c0,2.6,0,4.36,2.46,6.4H143.36c2.25-2.18,2.39-3.09,2.39-6.82V18l-4.92-1.9Z" fill="#633cff" fill-rule="evenodd"/>
    <path d="M2.13,2.57h12.3c-1.13,2.89-.49,6,.07,8.72,1.19,5.56,2.32,11,3.51,16.52,1.9-8,3.8-16,5.63-24,2,7.87,3.86,15.75,5.83,23.55,1-5.62,2.18-12.94,3.17-18.63.63-3.58.77-4.57-1.06-6.12H44.45C41,6.3,40.79,7.78,39.81,13.33c-1.2,7-2.39,13.85-3.52,20.81-.56,3-.84,5,1.06,7.52h-12a12.74,12.74,0,0,0,0-6.75c-.42-2.74-.91-5.41-1.4-8.15-.42,2-.92,4-1.34,6-1,4.5-1.4,6.05-.21,8.93H9.79c2.74-2.18,2.88-2.95,1.54-8.65C9.65,26,7.54,16.85,5.85,9.82c-1-4.29-1-4.71-3.72-7.25Z" fill="#633cff" fill-rule="evenodd"/>
  </g>
</svg>
