<svg id="Layer_1" data-name="Layer 1" xmlns="http://www.w3.org/2000/svg" viewBox="0 0 180 70">
  <g>
    <path d="M94.89,10h1.44a8.38,8.38,0,0,0,1.93-.17,3.74,3.74,0,0,0,1.35-.56A3.36,3.36,0,0,0,100.88,8a3.92,3.92,0,0,0,.39-1.8,3.4,3.4,0,0,0-1.36-2.9,5.08,5.08,0,0,0-3.06-.83,7.69,7.69,0,0,0-1.06.06,2.27,2.27,0,0,0-.58.17A.71.71,0,0,0,95,3a2.77,2.77,0,0,0-.07.75V10ZM103,8.43a14,14,0,0,1-2.74,1.68l-2.66,1a4.65,4.65,0,0,0-1.72-.23h-1v4a2.63,2.63,0,0,0,.43,2,3.86,3.86,0,0,0,2.23.48V18H89.64v-.7a4.06,4.06,0,0,0,2.29-.48c.32-.27.47-.94.43-2V4.72a5.42,5.42,0,0,0-.15-1.56,1,1,0,0,0-.73-.65,8.37,8.37,0,0,0-1.72-.21V1.59h7.49a17.47,17.47,0,0,1,2.81.19,6,6,0,0,1,2,.67,3.62,3.62,0,0,1,1.46,1.33,3.58,3.58,0,0,1,.56,2A3.74,3.74,0,0,1,103,8.43Z" fill="#633cff" fill-rule="evenodd"/>
    <path d="M97.51,11.09a2.84,2.84,0,0,1,1.59,1.44c.6,1.23,5.45,10.24,11.8,9.85v-.56s-6.46-3.15-8.56-8.9c0,0-.52-2.51-2-2.86l-2.83,1Z" fill="#633cff" fill-rule="evenodd"/>
    <path d="M48.61,39.16l2.18,7.75v.28a19,19,0,0,0-4.22,2.29l2-10.32Zm20.81-2.53,4.1,4L69.42,44V36.63ZM2.13,22.73h12.4a10.63,10.63,0,0,0-.64,3.64c0,4.27,3.79,19.49,4.14,21.16l5.68-23.65L29.46,47C30.34,42.34,33,26.76,33,25.64a3.55,3.55,0,0,0-1.51-2.91h13A15.49,15.49,0,0,0,40.19,32C39.4,36.74,36,55.75,36,57.57a6.54,6.54,0,0,0,1.2,3.8,6.8,6.8,0,0,0,3-4.74c.82-4,3.78-17.49,3.78-18.6a3.17,3.17,0,0,0-2.08-2.75l12.12-7a35.79,35.79,0,0,0-.43,4.2c0,3.11,2.86,11.29,3.31,13.11,1.15-.15,2.34-.28,4.12-.38V47.9a16.66,16.66,0,0,0-3.27.92c1.12,3.56,1.7,7.36,3.5,11a6.75,6.75,0,0,0,1.35-4.2v-17l-4.63-2.36c4-2.77,8.43-5.56,12.6-8.07L82.73,40.79l-7.26,6.83,5.11,2.53v7.19c0,1.33,1.35,3.09,2.81,4.55H76.31c-.43,0-2.06-2.15-2.19-2.36a9.17,9.17,0,0,1-.92-2.68V53.78l-3.8-2.41v6.38c0,1.37,1.27,2.72,2.36,4.14H51.65a13.5,13.5,0,0,0,1.42-5.22,23.58,23.58,0,0,0-1.16-5.55c-1.27.79-6.87,3.51-6.87,6.24,0,1.7,1,2.6,3,4.53H25.32a29.09,29.09,0,0,0,.45-3.16c0-1.28-1.58-10-1.76-11.16l-.08-.1c-.28,1.24-2.21,8.45-2.21,10.94,0,1.44.19,1.53.71,3.48H9.77c1.78-1.65,2.36-2.34,2.36-4a35.9,35.9,0,0,0-1.21-6.33C8.91,43,7.17,34.33,4.59,25.75c-.28-.92-1.71-2-2.46-3Z" fill="#633cff" fill-rule="evenodd"/>
    <path d="M131.29,38.33l2.12,7.25c-1.11.75-2.85,1.52-4.16,2.47l2-9.72Zm-21.83-2.17L113.11,40l-3.65,3.43V36.16ZM92.17,21.39l9.57,9.7-5,3-3.2-3.2c-.77.71-1.54,1.48-2.25,2.25V57c.71.7,1.48,1.5,2.19,2.21l5.43-4.32,2.21,5.54A8.85,8.85,0,0,0,102.79,56V37.85l-4.57-2.44c4.08-2.62,8.78-5.15,13.13-7.66l11.42,12.34-7.38,7.08,5,2.27v8.11a8.09,8.09,0,0,0,.65,2c1.13-1.33,1.24-3,1.61-4.55.79-3.39,3.62-16.46,3.62-17.73s-.49-2-2.14-3l12.64-7.12h.21a20.13,20.13,0,0,0-.51,4.23c0,.92,2.53,12.53,3.24,12.53l4.46-.52v2.86c-1.12.27-3.58.79-3.58,1.13,0,.63,2.7,10.05,4.14,12.6a5.74,5.74,0,0,0,.94-3V38.24l-4.89-1.91c4.33-3.35,9.33-6.69,13.88-9.83l4.25,4.44V29.51h19v8.41c-1.09-.65-2.06-1.76-3.09-1.76h-3.37v19a10.33,10.33,0,0,0,3.42,6.74H161.89a8.8,8.8,0,0,0,2.87-6.72v-19H162a4.34,4.34,0,0,0-3,1.76l-3.73-3.46-2.45,1.74v6.5H159v7a3.56,3.56,0,0,0-2.51-1.18h-3.69v8.84a6.81,6.81,0,0,0,2.42,4.53h-20.7a14.32,14.32,0,0,0,1.56-5.39c0-1.74-1.2-5.26-1.52-6.54-2.79,1.78-7.17,4.05-7.17,7.23,0,1.76,1.12,2.7,3.2,4.72H115.94c-.15,0-.34-.28-.47-.37a8.06,8.06,0,0,1-2.29-5.06V52.88l-3.74-2.49v7.1c0,1.46,1.16,2.79,2.28,4.4H100.28l-7.81,7-9.06-9.82V31l8.76-9.64Z" fill="#633cff" fill-rule="evenodd"/>
    <path d="M75,1.12a13.31,13.31,0,0,1,4.23.62,9.87,9.87,0,0,1,3.33,1.8A7.74,7.74,0,0,1,84.7,6.33a8.21,8.21,0,0,1,.75,3.54A8.08,8.08,0,0,1,84.1,14.4a9.26,9.26,0,0,1-3.76,3.24A12.18,12.18,0,0,1,75,18.82a13.74,13.74,0,0,1-4.17-.62,11.1,11.1,0,0,1-3.39-1.8,8.52,8.52,0,0,1-2.27-2.79,7.27,7.27,0,0,1-.82-3.46,7.88,7.88,0,0,1,.8-3.56,8.55,8.55,0,0,1,2.25-2.88,10.82,10.82,0,0,1,3.46-1.93A12.75,12.75,0,0,1,75,1.12Zm-.45.58a8,8,0,0,0-4.23,1,6.38,6.38,0,0,0-2.49,2.76A8.87,8.87,0,0,0,67,9.25a11.13,11.13,0,0,0,.49,3.18A9.56,9.56,0,0,0,69,15.34a7.47,7.47,0,0,0,2.6,2.11,8.18,8.18,0,0,0,3.63.79,8,8,0,0,0,4.23-1A6.16,6.16,0,0,0,82,14.42a9.41,9.41,0,0,0,.78-3.86,10.85,10.85,0,0,0-.48-3.28,8.33,8.33,0,0,0-1.46-2.84,7.1,7.1,0,0,0-2.53-2,8.13,8.13,0,0,0-3.69-.75Z" fill="#633cff" fill-rule="evenodd"/>
    <path d="M125.6,14.27a11.47,11.47,0,0,1-.6,1.52,5.09,5.09,0,0,1-.69,1,2.15,2.15,0,0,1-1.09.67,7.57,7.57,0,0,1-1.72.15c-.51,0-4.14,0-4.55-.06a2.73,2.73,0,0,1-1-.28,1,1,0,0,1-.48-.67,5.82,5.82,0,0,1-.1-1.54V4.79a5.34,5.34,0,0,1,.12-1.61.91.91,0,0,1,.63-.67,6.9,6.9,0,0,1,1.78-.43V1.65h-8v.43a13.18,13.18,0,0,1,2.34.43.86.86,0,0,1,.6.67A7,7,0,0,1,113,4.79V15.24a3.26,3.26,0,0,1-.36,2,4.16,4.16,0,0,1-2.26.51v.47h15.11a9.69,9.69,0,0,0,.3-1c.13-.54.24-1.08.34-1.61s.22-1,.26-1.25l-.75-.15Z" fill="#633cff" fill-rule="evenodd"/>
    <path d="M54.4,1.91H48.24v.71c1.29.11,1.35,1.2,1,1.91-.37.88-.84,1.93-1.44,3.2s-1.24,2.53-1.91,3.86-1.26,2.53-1.82,3.62H44c-.77-1.48-1.5-2.93-2.23-4.42s-1.37-2.79-2-4l-1.29-2.7c-.28-.54-.32-.9-.11-1.09a3.83,3.83,0,0,1,2-.41V1.91h-8v.71a4.56,4.56,0,0,1,2.1.47,4.13,4.13,0,0,1,1.33,1.76C36.5,6.1,37.21,7.49,38,9.06s1.55,3.15,2.36,4.8l2.32,4.83h1c.86-1.78,1.76-3.58,2.68-5.43s1.78-3.47,2.53-4.89,1.31-2.47,1.61-3A6.1,6.1,0,0,1,52.08,3.2a4.91,4.91,0,0,1,2.32-.58V1.91Z" fill="#633cff" fill-rule="evenodd"/>
    <path d="M62.15,1.91H54.68v.71a5.88,5.88,0,0,1,2.44.51c.26.24.24.69-.12,1.4-.35.88-.84,1.93-1.44,3.2s-1.22,2.53-1.89,3.86-1.29,2.53-1.85,3.62h-.06c-.77-1.48-1.5-2.93-2.23-4.42s-1.37-2.79-2-4-1-2.08-1.27-2.7a1,1,0,0,1,.94-1.5V1.91H40.73v.71a2.41,2.41,0,0,1,1.55.47,4.13,4.13,0,0,1,1.33,1.76C44.25,6.1,45,7.49,45.73,9.06s1.55,3.15,2.36,4.8,1.57,3.26,2.32,4.83h1c.86-1.78,1.76-3.58,2.68-5.43s1.78-3.47,2.55-4.89,1.29-2.47,1.61-3A5.87,5.87,0,0,1,59.83,3.2a4.84,4.84,0,0,1,2.32-.58V1.91Z" fill="#633cff" fill-rule="evenodd"/>
    <path d="M129,1.7v.7a10.48,10.48,0,0,1,1.87.22,1.1,1.1,0,0,1,.79.66,5.05,5.05,0,0,1,.17,1.61V15.26c.05,1.07-.13,1.74-.49,2a5,5,0,0,1-2.64.49v.71h7.85a27.47,27.47,0,0,0,5.52-.52,14.36,14.36,0,0,0,4.36-1.63,8.57,8.57,0,0,0,3-2.85,7.71,7.71,0,0,0,1.09-4.06,6.82,6.82,0,0,0-.79-3.22,7.2,7.2,0,0,0-2-2.32,9.92,9.92,0,0,0-3.88-1.67,23.08,23.08,0,0,0-5.5-.51Zm5.64,2.64a4,4,0,0,1,.11-1.06.64.64,0,0,1,.32-.4,2.5,2.5,0,0,1,.9-.26c.43,0,1-.09,1.7-.09a17.45,17.45,0,0,1,3.11.26,9.73,9.73,0,0,1,2.56.82,6.44,6.44,0,0,1,3,2.55,7,7,0,0,1,1,3.63,7.78,7.78,0,0,1-1,3.86,7.21,7.21,0,0,1-3,2.81,11.11,11.11,0,0,1-5.1,1.07,5.05,5.05,0,0,1-2.69-.49,2.06,2.06,0,0,1-.86-1.95V4.34Z" fill="#633cff" fill-rule="evenodd"/>
    <path d="M72.85,8.35a4.19,4.19,0,0,0-1.78.34A2.52,2.52,0,0,0,70,9.55a1.89,1.89,0,0,0-.36,1.12A2,2,0,0,0,70,11.85a2.68,2.68,0,0,0,1.1.81,4.24,4.24,0,0,0,1.61.3,3.94,3.94,0,0,0,1.58-.28,2.65,2.65,0,0,0,1.14-.81,2,2,0,0,0,.43-1.27,1.79,1.79,0,0,0-.41-1.18,2.77,2.77,0,0,0-1.09-.79,3.76,3.76,0,0,0-1.53-.28Zm-.17.28A1.58,1.58,0,0,1,74,9.21a2.39,2.39,0,0,1,.52,1.58A2.15,2.15,0,0,1,74,12.21a1.51,1.51,0,0,1-1.11.47,1.7,1.7,0,0,1-1-.3,1.82,1.82,0,0,1-.62-.77A2.89,2.89,0,0,1,71,10.54a2.1,2.1,0,0,1,.47-1.4,1.54,1.54,0,0,1,1.16-.51Z" fill="#633cff" fill-rule="evenodd"/>
    <path d="M80.45,9.49l-.06-.65a2.22,2.22,0,0,0,0-.41h-4v.24l.49.06a.37.37,0,0,1,.22.2,1.4,1.4,0,0,1,0,.45v2.51a1.51,1.51,0,0,1,0,.47.26.26,0,0,1-.22.19,1.21,1.21,0,0,1-.49.07v.23h2.85v-.23a1.71,1.71,0,0,1-.58-.07.24.24,0,0,1-.23-.19.92.92,0,0,1,0-.47V10.82h.33a4.23,4.23,0,0,1,.6,0,.43.43,0,0,1,.28.13.71.71,0,0,1,.12.34h.33V10h-.33a.56.56,0,0,1-.12.32.37.37,0,0,1-.28.15,4.9,4.9,0,0,1-.6,0h-.33V9c0-.11,0-.17,0-.19s.15,0,.3,0h.3c.25,0,.13,0,.28,0a.81.81,0,0,1,.34.15.69.69,0,0,1,.21.26.83.83,0,0,1,.15.34l.54,0Z" fill="#633cff" fill-rule="evenodd"/>
  </g>
</svg>
